<?xml version="1.0" encoding="UTF-8" standalone="no"?><svg xmlns="http://www.w3.org/2000/svg" xmlns:xlink="http://www.w3.org/1999/xlink" contentScriptType="application/ecmascript" contentStyleType="text/css" height="399px" preserveAspectRatio="none" style="width:530px;height:399px;" version="1.1" viewBox="0 0 530 399" width="530px" zoomAndPan="magnify"><defs><filter height="300%" id="f1dsqa76sh299y" width="300%" x="-1" y="-1"><feGaussianBlur result="blurOut" stdDeviation="2.0"/><feColorMatrix in="blurOut" result="blurOut2" type="matrix" values="0 0 0 0 0 0 0 0 0 0 0 0 0 0 0 0 0 0 .4 0"/><feOffset dx="4.0" dy="4.0" in="blurOut2" result="blurOut3"/><feBlend in="SourceGraphic" in2="blurOut3" mode="normal"/></filter></defs><g><!--MD5=[a796f0483ffdaa03c2101e6d1c17fadd]
cluster nz.ac.vuw.ecs.swen225.gp20.persistence.level--><polygon fill="#FFFFFF" filter="url(#f1dsqa76sh299y)" points="16,6,340,6,347,29.6094,508,29.6094,508,370,16,370,16,6" style="stroke: #000000; stroke-width: 1.5;"/><line style="stroke: #000000; stroke-width: 1.5;" x1="16" x2="347" y1="29.6094" y2="29.6094"/><text fill="#000000" font-family="sans-serif" font-size="14" font-weight="bold" lengthAdjust="spacingAndGlyphs" textLength="318" x="20" y="22.5332">nz.ac.vuw.ecs.swen225.gp20.persistence.level</text><!--MD5=[6f37d68381c3cccd12c3b935d6455c77]
class nz.ac.vuw.ecs.swen225.gp20.persistence.level.Coordinate--><a href="Coordinate.html" target="_top" title="Coordinate.html" xlink:actuate="onRequest" xlink:href="Coordinate.html" xlink:show="new" xlink:title="Coordinate.html" xlink:type="simple"><rect codeLine="3" fill="#FEFECE" filter="url(#f1dsqa76sh299y)" height="75.6719" id="nz.ac.vuw.ecs.swen225.gp20.persistence.level.Coordinate" style="stroke: #A80036; stroke-width: 1.5;" width="93" x="362.5" y="62.5"/><ellipse cx="377.5" cy="78.5" fill="#ADD1B2" rx="11" ry="11" style="stroke: #A80036; stroke-width: 1.0;"/><path d="M380.2656,74.375 Q380.4219,74.1563 380.6094,74.0469 Q380.7969,73.9375 381.0156,73.9375 Q381.3906,73.9375 381.625,74.2031 Q381.8594,74.4531 381.8594,75.0625 L381.8594,76.5156 Q381.8594,77.125 381.625,77.3906 Q381.3906,77.6563 381.0156,77.6563 Q380.6719,77.6563 380.4688,77.4531 Q380.2656,77.2656 380.1563,76.75 Q380.1094,76.3906 379.9219,76.2031 Q379.5938,75.8281 378.9844,75.6094 Q378.375,75.3906 377.75,75.3906 Q376.9844,75.3906 376.3438,75.7188 Q375.7188,76.0469 375.2188,76.7969 Q374.7344,77.5469 374.7344,78.5781 L374.7344,79.6719 Q374.7344,80.9063 375.625,81.7344 Q376.5156,82.5469 378.1094,82.5469 Q379.0469,82.5469 379.7031,82.2969 Q380.0938,82.1406 380.5156,81.7031 Q380.7813,81.4375 380.9219,81.3594 Q381.0781,81.2813 381.2813,81.2813 Q381.6094,81.2813 381.8594,81.5469 Q382.125,81.7969 382.125,82.1406 Q382.125,82.4844 381.7813,82.8906 Q381.2813,83.4688 380.4844,83.7969 Q379.4063,84.25 378.1094,84.25 Q376.5938,84.25 375.3906,83.625 Q374.4063,83.125 373.7188,82.0625 Q373.0313,80.9844 373.0313,79.7031 L373.0313,78.5469 Q373.0313,77.2188 373.6406,76.0781 Q374.2656,74.9219 375.3594,74.3125 Q376.4531,73.6875 377.6875,73.6875 Q378.4219,73.6875 379.0625,73.8594 Q379.7188,74.0156 380.2656,74.375 Z "/><text fill="#000000" font-family="sans-serif" font-size="12" lengthAdjust="spacingAndGlyphs" textLength="61" x="391.5" y="83.4102">Coordinate</text><line style="stroke: #A80036; stroke-width: 1.5;" x1="363.5" x2="454.5" y1="94.5" y2="94.5"/><ellipse cx="373.5" cy="105.5" fill="none" rx="3" ry="3" style="stroke: #038048; stroke-width: 1.0;"/><text fill="#000000" font-family="sans-serif" font-size="11" lengthAdjust="spacingAndGlyphs" textLength="23" x="382.5" y="109.9189">x: int</text><ellipse cx="373.5" cy="119.3359" fill="none" rx="3" ry="3" style="stroke: #038048; stroke-width: 1.0;"/><text fill="#000000" font-family="sans-serif" font-size="11" lengthAdjust="spacingAndGlyphs" textLength="23" x="382.5" y="123.7549">y: int</text><line style="stroke: #A80036; stroke-width: 1.5;" x1="363.5" x2="454.5" y1="130.1719" y2="130.1719"/></a><!--MD5=[768a89e52d6b9654bffa4f85b84a6ec5]
class nz.ac.vuw.ecs.swen225.gp20.persistence.level.Level--><a href="Level.html" target="_top" title="Level.html" xlink:actuate="onRequest" xlink:href="Level.html" xlink:show="new" xlink:title="Level.html" xlink:type="simple"><rect codeLine="8" fill="#FEFECE" filter="url(#f1dsqa76sh299y)" height="117.1797" id="nz.ac.vuw.ecs.swen225.gp20.persistence.level.Level" style="stroke: #A80036; stroke-width: 1.5;" width="138" x="128" y="42"/><ellipse cx="177.75" cy="58" fill="#ADD1B2" rx="11" ry="11" style="stroke: #A80036; stroke-width: 1.0;"/><path d="M180.5156,53.875 Q180.6719,53.6563 180.8594,53.5469 Q181.0469,53.4375 181.2656,53.4375 Q181.6406,53.4375 181.875,53.7031 Q182.1094,53.9531 182.1094,54.5625 L182.1094,56.0156 Q182.1094,56.625 181.875,56.8906 Q181.6406,57.1563 181.2656,57.1563 Q180.9219,57.1563 180.7188,56.9531 Q180.5156,56.7656 180.4063,56.25 Q180.3594,55.8906 180.1719,55.7031 Q179.8438,55.3281 179.2344,55.1094 Q178.625,54.8906 178,54.8906 Q177.2344,54.8906 176.5938,55.2188 Q175.9688,55.5469 175.4688,56.2969 Q174.9844,57.0469 174.9844,58.0781 L174.9844,59.1719 Q174.9844,60.4063 175.875,61.2344 Q176.7656,62.0469 178.3594,62.0469 Q179.2969,62.0469 179.9531,61.7969 Q180.3438,61.6406 180.7656,61.2031 Q181.0313,60.9375 181.1719,60.8594 Q181.3281,60.7813 181.5313,60.7813 Q181.8594,60.7813 182.1094,61.0469 Q182.375,61.2969 182.375,61.6406 Q182.375,61.9844 182.0313,62.3906 Q181.5313,62.9688 180.7344,63.2969 Q179.6563,63.75 178.3594,63.75 Q176.8438,63.75 175.6406,63.125 Q174.6563,62.625 173.9688,61.5625 Q173.2813,60.4844 173.2813,59.2031 L173.2813,58.0469 Q173.2813,56.7188 173.8906,55.5781 Q174.5156,54.4219 175.6094,53.8125 Q176.7031,53.1875 177.9375,53.1875 Q178.6719,53.1875 179.3125,53.3594 Q179.9688,53.5156 180.5156,53.875 Z "/><text fill="#000000" font-family="sans-serif" font-size="12" lengthAdjust="spacingAndGlyphs" textLength="30" x="198.25" y="62.9102">Level</text><line style="stroke: #A80036; stroke-width: 1.5;" x1="129" x2="265" y1="74" y2="74"/><line style="stroke: #A80036; stroke-width: 1.5;" x1="129" x2="265" y1="82" y2="82"/><ellipse cx="139" cy="93" fill="#84BE84" rx="3" ry="3" style="stroke: #038048; stroke-width: 1.0;"/><text fill="#000000" font-family="sans-serif" font-size="11" lengthAdjust="spacingAndGlyphs" textLength="112" x="148" y="97.4189">getDescription(): String</text><ellipse cx="139" cy="106.8359" fill="#84BE84" rx="3" ry="3" style="stroke: #038048; stroke-width: 1.0;"/><text fill="#000000" font-family="sans-serif" font-size="11" lengthAdjust="spacingAndGlyphs" textLength="70" x="148" y="111.2549">getStartX(): int</text><ellipse cx="139" cy="120.6719" fill="#84BE84" rx="3" ry="3" style="stroke: #038048; stroke-width: 1.0;"/><text fill="#000000" font-family="sans-serif" font-size="11" lengthAdjust="spacingAndGlyphs" textLength="70" x="148" y="125.0908">getStartY(): int</text><ellipse cx="139" cy="134.5078" fill="#84BE84" rx="3" ry="3" style="stroke: #038048; stroke-width: 1.0;"/><text fill="#000000" font-family="sans-serif" font-size="11" lengthAdjust="spacingAndGlyphs" textLength="82" x="148" y="138.9268">getBoard(): Cell[]</text><ellipse cx="139" cy="148.3438" fill="#84BE84" rx="3" ry="3" style="stroke: #038048; stroke-width: 1.0;"/><text fill="#000000" font-family="sans-serif" font-size="11" lengthAdjust="spacingAndGlyphs" textLength="71" x="148" y="152.7627">validate(): void</text></a><!--MD5=[3f86c7a217cd5621b476b5ac2be73822]
class nz.ac.vuw.ecs.swen225.gp20.persistence.level.NonPlayableCharacter--><a href="NonPlayableCharacter.html" target="_top" title="NonPlayableCharacter.html" xlink:actuate="onRequest" xlink:href="NonPlayableCharacter.html" xlink:show="new" xlink:title="NonPlayableCharacter.html" xlink:type="simple"><rect codeLine="16" fill="#FEFECE" filter="url(#f1dsqa76sh299y)" height="61.8359" id="nz.ac.vuw.ecs.swen225.gp20.persistence.level.NonPlayableCharacter" style="stroke: #A80036; stroke-width: 1.5;" width="157" x="334.5" y="264.5"/><ellipse cx="349.5" cy="280.5" fill="#ADD1B2" rx="11" ry="11" style="stroke: #A80036; stroke-width: 1.0;"/><path d="M352.2656,276.375 Q352.4219,276.1563 352.6094,276.0469 Q352.7969,275.9375 353.0156,275.9375 Q353.3906,275.9375 353.625,276.2031 Q353.8594,276.4531 353.8594,277.0625 L353.8594,278.5156 Q353.8594,279.125 353.625,279.3906 Q353.3906,279.6563 353.0156,279.6563 Q352.6719,279.6563 352.4688,279.4531 Q352.2656,279.2656 352.1563,278.75 Q352.1094,278.3906 351.9219,278.2031 Q351.5938,277.8281 350.9844,277.6094 Q350.375,277.3906 349.75,277.3906 Q348.9844,277.3906 348.3438,277.7188 Q347.7188,278.0469 347.2188,278.7969 Q346.7344,279.5469 346.7344,280.5781 L346.7344,281.6719 Q346.7344,282.9063 347.625,283.7344 Q348.5156,284.5469 350.1094,284.5469 Q351.0469,284.5469 351.7031,284.2969 Q352.0938,284.1406 352.5156,283.7031 Q352.7813,283.4375 352.9219,283.3594 Q353.0781,283.2813 353.2813,283.2813 Q353.6094,283.2813 353.8594,283.5469 Q354.125,283.7969 354.125,284.1406 Q354.125,284.4844 353.7813,284.8906 Q353.2813,285.4688 352.4844,285.7969 Q351.4063,286.25 350.1094,286.25 Q348.5938,286.25 347.3906,285.625 Q346.4063,285.125 345.7188,284.0625 Q345.0313,282.9844 345.0313,281.7031 L345.0313,280.5469 Q345.0313,279.2188 345.6406,278.0781 Q346.2656,276.9219 347.3594,276.3125 Q348.4531,275.6875 349.6875,275.6875 Q350.4219,275.6875 351.0625,275.8594 Q351.7188,276.0156 352.2656,276.375 Z "/><text fill="#000000" font-family="sans-serif" font-size="12" lengthAdjust="spacingAndGlyphs" textLength="125" x="363.5" y="285.4102">NonPlayableCharacter</text><line style="stroke: #A80036; stroke-width: 1.5;" x1="335.5" x2="490.5" y1="296.5" y2="296.5"/><line style="stroke: #A80036; stroke-width: 1.5;" x1="335.5" x2="490.5" y1="304.5" y2="304.5"/><ellipse cx="345.5" cy="315.5" fill="#84BE84" rx="3" ry="3" style="stroke: #038048; stroke-width: 1.0;"/><text fill="#000000" font-family="sans-serif" font-size="11" lengthAdjust="spacingAndGlyphs" textLength="82" x="354.5" y="319.9189">getType(): String</text></a><!--MD5=[abbc2ffa31f553146481f5e32bccaf95]
class nz.ac.vuw.ecs.swen225.gp20.persistence.level.Properties--><a href="Properties.html" target="_top" title="Properties.html" xlink:actuate="onRequest" xlink:href="Properties.html" xlink:show="new" xlink:title="Properties.html" xlink:type="simple"><rect codeLine="20" fill="#FEFECE" filter="url(#f1dsqa76sh299y)" height="117.1797" id="nz.ac.vuw.ecs.swen225.gp20.persistence.level.Properties" style="stroke: #A80036; stroke-width: 1.5;" width="113" x="32.5" y="237"/><ellipse cx="58.75" cy="253" fill="#ADD1B2" rx="11" ry="11" style="stroke: #A80036; stroke-width: 1.0;"/><path d="M61.5156,248.875 Q61.6719,248.6563 61.8594,248.5469 Q62.0469,248.4375 62.2656,248.4375 Q62.6406,248.4375 62.875,248.7031 Q63.1094,248.9531 63.1094,249.5625 L63.1094,251.0156 Q63.1094,251.625 62.875,251.8906 Q62.6406,252.1563 62.2656,252.1563 Q61.9219,252.1563 61.7188,251.9531 Q61.5156,251.7656 61.4063,251.25 Q61.3594,250.8906 61.1719,250.7031 Q60.8438,250.3281 60.2344,250.1094 Q59.625,249.8906 59,249.8906 Q58.2344,249.8906 57.5938,250.2188 Q56.9688,250.5469 56.4688,251.2969 Q55.9844,252.0469 55.9844,253.0781 L55.9844,254.1719 Q55.9844,255.4063 56.875,256.2344 Q57.7656,257.0469 59.3594,257.0469 Q60.2969,257.0469 60.9531,256.7969 Q61.3438,256.6406 61.7656,256.2031 Q62.0313,255.9375 62.1719,255.8594 Q62.3281,255.7813 62.5313,255.7813 Q62.8594,255.7813 63.1094,256.0469 Q63.375,256.2969 63.375,256.6406 Q63.375,256.9844 63.0313,257.3906 Q62.5313,257.9688 61.7344,258.2969 Q60.6563,258.75 59.3594,258.75 Q57.8438,258.75 56.6406,258.125 Q55.6563,257.625 54.9688,256.5625 Q54.2813,255.4844 54.2813,254.2031 L54.2813,253.0469 Q54.2813,251.7188 54.8906,250.5781 Q55.5156,249.4219 56.6094,248.8125 Q57.7031,248.1875 58.9375,248.1875 Q59.6719,248.1875 60.3125,248.3594 Q60.9688,248.5156 61.5156,248.875 Z "/><text fill="#000000" font-family="sans-serif" font-size="12" lengthAdjust="spacingAndGlyphs" textLength="56" x="75.25" y="257.9102">Properties</text><line style="stroke: #A80036; stroke-width: 1.5;" x1="33.5" x2="144.5" y1="269" y2="269"/><ellipse cx="43.5" cy="280" fill="none" rx="3" ry="3" style="stroke: #038048; stroke-width: 1.0;"/><text fill="#000000" font-family="sans-serif" font-size="11" lengthAdjust="spacingAndGlyphs" textLength="78" x="52.5" y="284.4189">chipsInLevel: int</text><ellipse cx="43.5" cy="293.8359" fill="none" rx="3" ry="3" style="stroke: #038048; stroke-width: 1.0;"/><text fill="#000000" font-family="sans-serif" font-size="11" lengthAdjust="spacingAndGlyphs" textLength="87" x="52.5" y="298.2549">chipsRequired: int</text><ellipse cx="43.5" cy="307.6719" fill="none" rx="3" ry="3" style="stroke: #038048; stroke-width: 1.0;"/><text fill="#000000" font-family="sans-serif" font-size="11" lengthAdjust="spacingAndGlyphs" textLength="42" x="52.5" y="312.0908">width: int</text><ellipse cx="43.5" cy="321.5078" fill="none" rx="3" ry="3" style="stroke: #038048; stroke-width: 1.0;"/><text fill="#000000" font-family="sans-serif" font-size="11" lengthAdjust="spacingAndGlyphs" textLength="46" x="52.5" y="325.9268">height: int</text><ellipse cx="43.5" cy="335.3438" fill="none" rx="3" ry="3" style="stroke: #038048; stroke-width: 1.0;"/><text fill="#000000" font-family="sans-serif" font-size="11" lengthAdjust="spacingAndGlyphs" textLength="59" x="52.5" y="339.7627">timeLimit: int</text><line style="stroke: #A80036; stroke-width: 1.5;" x1="33.5" x2="144.5" y1="346.1797" y2="346.1797"/></a><!--MD5=[b537303bdb589b133d821386516982ce]
class nz.ac.vuw.ecs.swen225.gp20.persistence.level.Tile--><a href="Tile.html" target="_top" title="Tile.html" xlink:actuate="onRequest" xlink:href="Tile.html" xlink:show="new" xlink:title="Tile.html" xlink:type="simple"><rect codeLine="28" fill="#FEFECE" filter="url(#f1dsqa76sh299y)" height="103.3438" id="nz.ac.vuw.ecs.swen225.gp20.persistence.level.Tile" style="stroke: #A80036; stroke-width: 1.5;" width="118" x="181" y="244"/><ellipse cx="225.75" cy="260" fill="#ADD1B2" rx="11" ry="11" style="stroke: #A80036; stroke-width: 1.0;"/><path d="M228.5156,255.875 Q228.6719,255.6563 228.8594,255.5469 Q229.0469,255.4375 229.2656,255.4375 Q229.6406,255.4375 229.875,255.7031 Q230.1094,255.9531 230.1094,256.5625 L230.1094,258.0156 Q230.1094,258.625 229.875,258.8906 Q229.6406,259.1563 229.2656,259.1563 Q228.9219,259.1563 228.7188,258.9531 Q228.5156,258.7656 228.4063,258.25 Q228.3594,257.8906 228.1719,257.7031 Q227.8438,257.3281 227.2344,257.1094 Q226.625,256.8906 226,256.8906 Q225.2344,256.8906 224.5938,257.2188 Q223.9688,257.5469 223.4688,258.2969 Q222.9844,259.0469 222.9844,260.0781 L222.9844,261.1719 Q222.9844,262.4063 223.875,263.2344 Q224.7656,264.0469 226.3594,264.0469 Q227.2969,264.0469 227.9531,263.7969 Q228.3438,263.6406 228.7656,263.2031 Q229.0313,262.9375 229.1719,262.8594 Q229.3281,262.7813 229.5313,262.7813 Q229.8594,262.7813 230.1094,263.0469 Q230.375,263.2969 230.375,263.6406 Q230.375,263.9844 230.0313,264.3906 Q229.5313,264.9688 228.7344,265.2969 Q227.6563,265.75 226.3594,265.75 Q224.8438,265.75 223.6406,265.125 Q222.6563,264.625 221.9688,263.5625 Q221.2813,262.4844 221.2813,261.2031 L221.2813,260.0469 Q221.2813,258.7188 221.8906,257.5781 Q222.5156,256.4219 223.6094,255.8125 Q224.7031,255.1875 225.9375,255.1875 Q226.6719,255.1875 227.3125,255.3594 Q227.9688,255.5156 228.5156,255.875 Z "/><text fill="#000000" font-family="sans-serif" font-size="12" lengthAdjust="spacingAndGlyphs" textLength="20" x="246.25" y="264.9102">Tile</text><line style="stroke: #A80036; stroke-width: 1.5;" x1="182" x2="298" y1="276" y2="276"/><line style="stroke: #A80036; stroke-width: 1.5;" x1="182" x2="298" y1="284" y2="284"/><ellipse cx="192" cy="295" fill="#84BE84" rx="3" ry="3" style="stroke: #038048; stroke-width: 1.0;"/><text fill="#000000" font-family="sans-serif" font-size="11" lengthAdjust="spacingAndGlyphs" textLength="92" x="201" y="299.4189">getTerrain(): String</text><ellipse cx="192" cy="308.8359" fill="#84BE84" rx="3" ry="3" style="stroke: #038048; stroke-width: 1.0;"/><text fill="#000000" font-family="sans-serif" font-size="11" lengthAdjust="spacingAndGlyphs" textLength="89" x="201" y="313.2549">getObject(): String</text><ellipse cx="192" cy="322.6719" fill="#84BE84" rx="3" ry="3" style="stroke: #038048; stroke-width: 1.0;"/><text fill="#000000" font-family="sans-serif" font-size="11" lengthAdjust="spacingAndGlyphs" textLength="83" x="201" y="327.0908">getColor(): String</text><ellipse cx="192" cy="336.5078" fill="#84BE84" rx="3" ry="3" style="stroke: #038048; stroke-width: 1.0;"/><text fill="#000000" font-family="sans-serif" font-size="11" lengthAdjust="spacingAndGlyphs" textLength="79" x="201" y="340.9268">getHelp(): String</text></a><!--MD5=[23087a1a68ce0244a0ecae3a8322ec9b]
link nz.ac.vuw.ecs.swen225.gp20.persistence.level.Level to nz.ac.vuw.ecs.swen225.gp20.persistence.level.Properties--><path codeLine="35" d="M142.73,159.46 C135.46,168.9 128.6,178.91 123,189 C115.61,202.3 109.55,217.45 104.69,232.04 " fill="none" id="nz.ac.vuw.ecs.swen225.gp20.persistence.level.Level-to-nz.ac.vuw.ecs.swen225.gp20.persistence.level.Properties" style="stroke: #A80036; stroke-width: 1.0;"/><polygon fill="#A80036" points="103.09,236.96,109.6714,229.633,104.6325,232.2039,102.0617,227.165,103.09,236.96" style="stroke: #A80036; stroke-width: 1.0;"/><text fill="#000000" font-family="sans-serif" font-size="13" lengthAdjust="spacingAndGlyphs" textLength="57" x="124" y="203.4951">properties</text><!--MD5=[f2e7ba7c2ff1d2944703cfe0007d013d]
link nz.ac.vuw.ecs.swen225.gp20.persistence.level.Level to nz.ac.vuw.ecs.swen225.gp20.persistence.level.NonPlayableCharacter--><path codeLine="36" d="M227.91,159.08 C238.56,175.76 251.51,193.18 266,207 C285.03,225.15 294.39,223.58 317,237 C330.36,244.93 344.74,253.51 358.2,261.57 " fill="none" id="nz.ac.vuw.ecs.swen225.gp20.persistence.level.Level-to-nz.ac.vuw.ecs.swen225.gp20.persistence.level.NonPlayableCharacter" style="stroke: #A80036; stroke-width: 1.0;"/><polygon fill="#A80036" points="362.72,264.28,357.0487,256.2279,358.4288,261.7138,352.9428,263.0939,362.72,264.28" style="stroke: #A80036; stroke-width: 1.0;"/><text fill="#000000" font-family="sans-serif" font-size="13" lengthAdjust="spacingAndGlyphs" textLength="134" x="267" y="203.4951">nonPlayableCharacters</text><text fill="#000000" font-family="sans-serif" font-size="13" lengthAdjust="spacingAndGlyphs" textLength="5" x="346.8341" y="253.7392">*</text><!--MD5=[60f4a2dde3664b5b87a093dfbd14ea71]
link nz.ac.vuw.ecs.swen225.gp20.persistence.level.Level to nz.ac.vuw.ecs.swen225.gp20.persistence.level.Tile--><path codeLine="37" d="M189.79,159.04 C189.32,174.78 190.22,191.7 194,207 C196.67,217.84 200.96,228.82 205.86,239.16 " fill="none" id="nz.ac.vuw.ecs.swen225.gp20.persistence.level.Level-to-nz.ac.vuw.ecs.swen225.gp20.persistence.level.Tile" style="stroke: #A80036; stroke-width: 1.0;"/><polygon fill="#A80036" points="208.16,243.87,207.8259,234.0268,205.9755,239.3725,200.6298,237.522,208.16,243.87" style="stroke: #A80036; stroke-width: 1.0;"/><text fill="#000000" font-family="sans-serif" font-size="13" lengthAdjust="spacingAndGlyphs" textLength="21" x="195" y="203.4951">grid</text><text fill="#000000" font-family="sans-serif" font-size="13" lengthAdjust="spacingAndGlyphs" textLength="5" x="198.3309" y="232.9802">*</text><!--MD5=[6c11faf9f7e3626392786df877d28c9d]
reverse link nz.ac.vuw.ecs.swen225.gp20.persistence.level.Coordinate to nz.ac.vuw.ecs.swen225.gp20.persistence.level.NonPlayableCharacter--><path codeLine="38" d="M410.19,159.02 C410.91,193.63 411.79,236.28 412.38,264.37 " fill="none" id="nz.ac.vuw.ecs.swen225.gp20.persistence.level.Coordinate-backto-nz.ac.vuw.ecs.swen225.gp20.persistence.level.NonPlayableCharacter" style="stroke: #A80036; stroke-width: 1.0;"/><polygon fill="none" points="403.19,158.85,409.77,138.71,417.18,158.56,403.19,158.85" style="stroke: #A80036; stroke-width: 1.0;"/><!--MD5=[7e2fc1f947b47fbe240526aa805e27fd]
link nz.ac.vuw.ecs.swen225.gp20.persistence.level.NonPlayableCharacter to nz.ac.vuw.ecs.swen225.gp20.persistence.level.Coordinate--><path codeLine="39" d="M412.46,264.49 C412.08,243.37 411.53,214.46 411,189 C410.69,174.25 410.33,158.11 410,143.74 " fill="none" id="nz.ac.vuw.ecs.swen225.gp20.persistence.level.NonPlayableCharacter-to-nz.ac.vuw.ecs.swen225.gp20.persistence.level.Coordinate" style="stroke: #A80036; stroke-width: 1.0;"/><polygon fill="#A80036" points="409.88,138.54,406.0867,147.6291,409.9943,143.5387,414.0846,147.4462,409.88,138.54" style="stroke: #A80036; stroke-width: 1.0;"/><text fill="#000000" font-family="sans-serif" font-size="13" lengthAdjust="spacingAndGlyphs" textLength="25" x="412" y="203.4951">path</text><text fill="#000000" font-family="sans-serif" font-size="13" lengthAdjust="spacingAndGlyphs" textLength="5" x="404.6117" y="159.7168">*</text><!--MD5=[10ee82644ae22d26f4480ed3c1d46e2a]
reverse link nz.ac.vuw.ecs.swen225.gp20.persistence.level.Coordinate to nz.ac.vuw.ecs.swen225.gp20.persistence.level.Tile--><path codeLine="40" d="M413.45,158.64 C412.06,175.68 407.6,193.41 397,207 C373.64,236.94 350.32,218.79 317,237 C311,240.28 304.94,243.98 299.01,247.89 " fill="none" id="nz.ac.vuw.ecs.swen225.gp20.persistence.level.Coordinate-backto-nz.ac.vuw.ecs.swen225.gp20.persistence.level.Tile" style="stroke: #A80036; stroke-width: 1.0;"/><polygon fill="none" points="406.45,158.39,413.83,138.53,420.45,158.65,406.45,158.39" style="stroke: #A80036; stroke-width: 1.0;"/><text fill="#888888" font-family="sans-serif" font-size="10" lengthAdjust="spacingAndGlyphs" textLength="185" x="163.5" y="386.3809">UMLDoclet 2.0.12, PlantUML 1.2020.16</text><!--MD5=[df7becdcb1669b860ac9488f71fbc8c7]
@startuml
    namespace nz.ac.vuw.ecs.swen225.gp20.persistence.level {

        class Coordinate [[Coordinate.html]] {
            +x: int
            +y: int
        }

        class Level [[Level.html]] {
            +getDescription(): String
            +getStartX(): int
            +getStartY(): int
            +getBoard(): Cell[]
            +validate(): void
        }

        class NonPlayableCharacter [[NonPlayableCharacter.html]] {
            +getType(): String
        }

        class Properties [[Properties.html]] {
            +chipsInLevel: int
            +chipsRequired: int
            +width: int
            +height: int
            +timeLimit: int
        }

        class Tile [[Tile.html]] {
            +getTerrain(): String
            +getObject(): String
            +getColor(): String
            +getHelp(): String
        }

        Level - -> Properties: properties
        Level - -> "*" NonPlayableCharacter: nonPlayableCharacters
        Level - -> "*" Tile: grid
        Coordinate <|- - NonPlayableCharacter
        NonPlayableCharacter - -> "*" Coordinate: path
        Coordinate <|- - Tile
    }

    center footer UMLDoclet 2.0.12, PlantUML 1.2020.16
@enduml

PlantUML version 1.2020.16(Mon Aug 24 08:20:43 NZST 2020)
(APACHE source distribution)
Java Runtime: Java(TM) SE Runtime Environment
JVM: Java HotSpot(TM) 64-Bit Server VM
Default Encoding: Cp1252
Language: en
Country: NZ
--></g></svg>