<?xml version="1.0" encoding="UTF-8" standalone="no"?><svg xmlns="http://www.w3.org/2000/svg" xmlns:xlink="http://www.w3.org/1999/xlink" contentScriptType="application/ecmascript" contentStyleType="text/css" height="399px" preserveAspectRatio="none" style="width:529px;height:399px;" version="1.1" viewBox="0 0 529 399" width="529px" zoomAndPan="magnify"><defs><filter height="300%" id="fsox29cpzqltn" width="300%" x="-1" y="-1"><feGaussianBlur result="blurOut" stdDeviation="2.0"/><feColorMatrix in="blurOut" result="blurOut2" type="matrix" values="0 0 0 0 0 0 0 0 0 0 0 0 0 0 0 0 0 0 .4 0"/><feOffset dx="4.0" dy="4.0" in="blurOut2" result="blurOut3"/><feBlend in="SourceGraphic" in2="blurOut3" mode="normal"/></filter></defs><g><!--MD5=[a796f0483ffdaa03c2101e6d1c17fadd]
cluster nz.ac.vuw.ecs.swen225.gp20.persistence.level--><polygon fill="#FFFFFF" filter="url(#fsox29cpzqltn)" points="16,6,340,6,347,29.6094,507,29.6094,507,370,16,370,16,6" style="stroke: #000000; stroke-width: 1.5;"/><line style="stroke: #000000; stroke-width: 1.5;" x1="16" x2="347" y1="29.6094" y2="29.6094"/><text fill="#000000" font-family="sans-serif" font-size="14" font-weight="bold" lengthAdjust="spacingAndGlyphs" textLength="318" x="20" y="22.5332">nz.ac.vuw.ecs.swen225.gp20.persistence.level</text><!--MD5=[6f37d68381c3cccd12c3b935d6455c77]
class nz.ac.vuw.ecs.swen225.gp20.persistence.level.Coordinate--><a href="Coordinate.html" target="_top" title="Coordinate.html" xlink:actuate="onRequest" xlink:href="Coordinate.html" xlink:show="new" xlink:title="Coordinate.html" xlink:type="simple"><rect codeLine="3" fill="#FEFECE" filter="url(#fsox29cpzqltn)" height="75.6719" id="nz.ac.vuw.ecs.swen225.gp20.persistence.level.Coordinate" style="stroke: #A80036; stroke-width: 1.5;" width="93" x="350.5" y="62.5"/><ellipse cx="365.5" cy="78.5" fill="#ADD1B2" rx="11" ry="11" style="stroke: #A80036; stroke-width: 1.0;"/><path d="M368.2656,74.375 Q368.4219,74.1563 368.6094,74.0469 Q368.7969,73.9375 369.0156,73.9375 Q369.3906,73.9375 369.625,74.2031 Q369.8594,74.4531 369.8594,75.0625 L369.8594,76.5156 Q369.8594,77.125 369.625,77.3906 Q369.3906,77.6563 369.0156,77.6563 Q368.6719,77.6563 368.4688,77.4531 Q368.2656,77.2656 368.1563,76.75 Q368.1094,76.3906 367.9219,76.2031 Q367.5938,75.8281 366.9844,75.6094 Q366.375,75.3906 365.75,75.3906 Q364.9844,75.3906 364.3438,75.7188 Q363.7188,76.0469 363.2188,76.7969 Q362.7344,77.5469 362.7344,78.5781 L362.7344,79.6719 Q362.7344,80.9063 363.625,81.7344 Q364.5156,82.5469 366.1094,82.5469 Q367.0469,82.5469 367.7031,82.2969 Q368.0938,82.1406 368.5156,81.7031 Q368.7813,81.4375 368.9219,81.3594 Q369.0781,81.2813 369.2813,81.2813 Q369.6094,81.2813 369.8594,81.5469 Q370.125,81.7969 370.125,82.1406 Q370.125,82.4844 369.7813,82.8906 Q369.2813,83.4688 368.4844,83.7969 Q367.4063,84.25 366.1094,84.25 Q364.5938,84.25 363.3906,83.625 Q362.4063,83.125 361.7188,82.0625 Q361.0313,80.9844 361.0313,79.7031 L361.0313,78.5469 Q361.0313,77.2188 361.6406,76.0781 Q362.2656,74.9219 363.3594,74.3125 Q364.4531,73.6875 365.6875,73.6875 Q366.4219,73.6875 367.0625,73.8594 Q367.7188,74.0156 368.2656,74.375 Z "/><text fill="#000000" font-family="sans-serif" font-size="12" lengthAdjust="spacingAndGlyphs" textLength="61" x="379.5" y="83.4102">Coordinate</text><line style="stroke: #A80036; stroke-width: 1.5;" x1="351.5" x2="442.5" y1="94.5" y2="94.5"/><ellipse cx="361.5" cy="105.5" fill="none" rx="3" ry="3" style="stroke: #038048; stroke-width: 1.0;"/><text fill="#000000" font-family="sans-serif" font-size="11" lengthAdjust="spacingAndGlyphs" textLength="23" x="370.5" y="109.9189">x: int</text><ellipse cx="361.5" cy="119.3359" fill="none" rx="3" ry="3" style="stroke: #038048; stroke-width: 1.0;"/><text fill="#000000" font-family="sans-serif" font-size="11" lengthAdjust="spacingAndGlyphs" textLength="23" x="370.5" y="123.7549">y: int</text><line style="stroke: #A80036; stroke-width: 1.5;" x1="351.5" x2="442.5" y1="130.1719" y2="130.1719"/></a><!--MD5=[768a89e52d6b9654bffa4f85b84a6ec5]
class nz.ac.vuw.ecs.swen225.gp20.persistence.level.Level--><a href="Level.html" target="_top" title="Level.html" xlink:actuate="onRequest" xlink:href="Level.html" xlink:show="new" xlink:title="Level.html" xlink:type="simple"><rect codeLine="8" fill="#FEFECE" filter="url(#fsox29cpzqltn)" height="117.1797" id="nz.ac.vuw.ecs.swen225.gp20.persistence.level.Level" style="stroke: #A80036; stroke-width: 1.5;" width="138" x="76" y="42"/><ellipse cx="125.75" cy="58" fill="#ADD1B2" rx="11" ry="11" style="stroke: #A80036; stroke-width: 1.0;"/><path d="M128.5156,53.875 Q128.6719,53.6563 128.8594,53.5469 Q129.0469,53.4375 129.2656,53.4375 Q129.6406,53.4375 129.875,53.7031 Q130.1094,53.9531 130.1094,54.5625 L130.1094,56.0156 Q130.1094,56.625 129.875,56.8906 Q129.6406,57.1563 129.2656,57.1563 Q128.9219,57.1563 128.7188,56.9531 Q128.5156,56.7656 128.4063,56.25 Q128.3594,55.8906 128.1719,55.7031 Q127.8438,55.3281 127.2344,55.1094 Q126.625,54.8906 126,54.8906 Q125.2344,54.8906 124.5938,55.2188 Q123.9688,55.5469 123.4688,56.2969 Q122.9844,57.0469 122.9844,58.0781 L122.9844,59.1719 Q122.9844,60.4063 123.875,61.2344 Q124.7656,62.0469 126.3594,62.0469 Q127.2969,62.0469 127.9531,61.7969 Q128.3438,61.6406 128.7656,61.2031 Q129.0313,60.9375 129.1719,60.8594 Q129.3281,60.7813 129.5313,60.7813 Q129.8594,60.7813 130.1094,61.0469 Q130.375,61.2969 130.375,61.6406 Q130.375,61.9844 130.0313,62.3906 Q129.5313,62.9688 128.7344,63.2969 Q127.6563,63.75 126.3594,63.75 Q124.8438,63.75 123.6406,63.125 Q122.6563,62.625 121.9688,61.5625 Q121.2813,60.4844 121.2813,59.2031 L121.2813,58.0469 Q121.2813,56.7188 121.8906,55.5781 Q122.5156,54.4219 123.6094,53.8125 Q124.7031,53.1875 125.9375,53.1875 Q126.6719,53.1875 127.3125,53.3594 Q127.9688,53.5156 128.5156,53.875 Z "/><text fill="#000000" font-family="sans-serif" font-size="12" lengthAdjust="spacingAndGlyphs" textLength="30" x="146.25" y="62.9102">Level</text><line style="stroke: #A80036; stroke-width: 1.5;" x1="77" x2="213" y1="74" y2="74"/><line style="stroke: #A80036; stroke-width: 1.5;" x1="77" x2="213" y1="82" y2="82"/><ellipse cx="87" cy="93" fill="#84BE84" rx="3" ry="3" style="stroke: #038048; stroke-width: 1.0;"/><text fill="#000000" font-family="sans-serif" font-size="11" lengthAdjust="spacingAndGlyphs" textLength="112" x="96" y="97.4189">getDescription(): String</text><ellipse cx="87" cy="106.8359" fill="#84BE84" rx="3" ry="3" style="stroke: #038048; stroke-width: 1.0;"/><text fill="#000000" font-family="sans-serif" font-size="11" lengthAdjust="spacingAndGlyphs" textLength="70" x="96" y="111.2549">getStartX(): int</text><ellipse cx="87" cy="120.6719" fill="#84BE84" rx="3" ry="3" style="stroke: #038048; stroke-width: 1.0;"/><text fill="#000000" font-family="sans-serif" font-size="11" lengthAdjust="spacingAndGlyphs" textLength="70" x="96" y="125.0908">getStartY(): int</text><ellipse cx="87" cy="134.5078" fill="#84BE84" rx="3" ry="3" style="stroke: #038048; stroke-width: 1.0;"/><text fill="#000000" font-family="sans-serif" font-size="11" lengthAdjust="spacingAndGlyphs" textLength="82" x="96" y="138.9268">getBoard(): Cell[]</text><ellipse cx="87" cy="148.3438" fill="#84BE84" rx="3" ry="3" style="stroke: #038048; stroke-width: 1.0;"/><text fill="#000000" font-family="sans-serif" font-size="11" lengthAdjust="spacingAndGlyphs" textLength="71" x="96" y="152.7627">validate(): void</text></a><!--MD5=[3f86c7a217cd5621b476b5ac2be73822]
class nz.ac.vuw.ecs.swen225.gp20.persistence.level.NonPlayableCharacter--><a href="NonPlayableCharacter.html" target="_top" title="NonPlayableCharacter.html" xlink:actuate="onRequest" xlink:href="NonPlayableCharacter.html" xlink:show="new" xlink:title="NonPlayableCharacter.html" xlink:type="simple"><rect codeLine="16" fill="#FEFECE" filter="url(#fsox29cpzqltn)" height="61.8359" id="nz.ac.vuw.ecs.swen225.gp20.persistence.level.NonPlayableCharacter" style="stroke: #A80036; stroke-width: 1.5;" width="157" x="180.5" y="264.5"/><ellipse cx="195.5" cy="280.5" fill="#ADD1B2" rx="11" ry="11" style="stroke: #A80036; stroke-width: 1.0;"/><path d="M198.2656,276.375 Q198.4219,276.1563 198.6094,276.0469 Q198.7969,275.9375 199.0156,275.9375 Q199.3906,275.9375 199.625,276.2031 Q199.8594,276.4531 199.8594,277.0625 L199.8594,278.5156 Q199.8594,279.125 199.625,279.3906 Q199.3906,279.6563 199.0156,279.6563 Q198.6719,279.6563 198.4688,279.4531 Q198.2656,279.2656 198.1563,278.75 Q198.1094,278.3906 197.9219,278.2031 Q197.5938,277.8281 196.9844,277.6094 Q196.375,277.3906 195.75,277.3906 Q194.9844,277.3906 194.3438,277.7188 Q193.7188,278.0469 193.2188,278.7969 Q192.7344,279.5469 192.7344,280.5781 L192.7344,281.6719 Q192.7344,282.9063 193.625,283.7344 Q194.5156,284.5469 196.1094,284.5469 Q197.0469,284.5469 197.7031,284.2969 Q198.0938,284.1406 198.5156,283.7031 Q198.7813,283.4375 198.9219,283.3594 Q199.0781,283.2813 199.2813,283.2813 Q199.6094,283.2813 199.8594,283.5469 Q200.125,283.7969 200.125,284.1406 Q200.125,284.4844 199.7813,284.8906 Q199.2813,285.4688 198.4844,285.7969 Q197.4063,286.25 196.1094,286.25 Q194.5938,286.25 193.3906,285.625 Q192.4063,285.125 191.7188,284.0625 Q191.0313,282.9844 191.0313,281.7031 L191.0313,280.5469 Q191.0313,279.2188 191.6406,278.0781 Q192.2656,276.9219 193.3594,276.3125 Q194.4531,275.6875 195.6875,275.6875 Q196.4219,275.6875 197.0625,275.8594 Q197.7188,276.0156 198.2656,276.375 Z "/><text fill="#000000" font-family="sans-serif" font-size="12" lengthAdjust="spacingAndGlyphs" textLength="125" x="209.5" y="285.4102">NonPlayableCharacter</text><line style="stroke: #A80036; stroke-width: 1.5;" x1="181.5" x2="336.5" y1="296.5" y2="296.5"/><line style="stroke: #A80036; stroke-width: 1.5;" x1="181.5" x2="336.5" y1="304.5" y2="304.5"/><ellipse cx="191.5" cy="315.5" fill="#84BE84" rx="3" ry="3" style="stroke: #038048; stroke-width: 1.0;"/><text fill="#000000" font-family="sans-serif" font-size="11" lengthAdjust="spacingAndGlyphs" textLength="82" x="200.5" y="319.9189">getType(): String</text></a><!--MD5=[abbc2ffa31f553146481f5e32bccaf95]
class nz.ac.vuw.ecs.swen225.gp20.persistence.level.Properties--><a href="Properties.html" target="_top" title="Properties.html" xlink:actuate="onRequest" xlink:href="Properties.html" xlink:show="new" xlink:title="Properties.html" xlink:type="simple"><rect codeLine="20" fill="#FEFECE" filter="url(#fsox29cpzqltn)" height="117.1797" id="nz.ac.vuw.ecs.swen225.gp20.persistence.level.Properties" style="stroke: #A80036; stroke-width: 1.5;" width="113" x="32.5" y="237"/><ellipse cx="58.75" cy="253" fill="#ADD1B2" rx="11" ry="11" style="stroke: #A80036; stroke-width: 1.0;"/><path d="M61.5156,248.875 Q61.6719,248.6563 61.8594,248.5469 Q62.0469,248.4375 62.2656,248.4375 Q62.6406,248.4375 62.875,248.7031 Q63.1094,248.9531 63.1094,249.5625 L63.1094,251.0156 Q63.1094,251.625 62.875,251.8906 Q62.6406,252.1563 62.2656,252.1563 Q61.9219,252.1563 61.7188,251.9531 Q61.5156,251.7656 61.4063,251.25 Q61.3594,250.8906 61.1719,250.7031 Q60.8438,250.3281 60.2344,250.1094 Q59.625,249.8906 59,249.8906 Q58.2344,249.8906 57.5938,250.2188 Q56.9688,250.5469 56.4688,251.2969 Q55.9844,252.0469 55.9844,253.0781 L55.9844,254.1719 Q55.9844,255.4063 56.875,256.2344 Q57.7656,257.0469 59.3594,257.0469 Q60.2969,257.0469 60.9531,256.7969 Q61.3438,256.6406 61.7656,256.2031 Q62.0313,255.9375 62.1719,255.8594 Q62.3281,255.7813 62.5313,255.7813 Q62.8594,255.7813 63.1094,256.0469 Q63.375,256.2969 63.375,256.6406 Q63.375,256.9844 63.0313,257.3906 Q62.5313,257.9688 61.7344,258.2969 Q60.6563,258.75 59.3594,258.75 Q57.8438,258.75 56.6406,258.125 Q55.6563,257.625 54.9688,256.5625 Q54.2813,255.4844 54.2813,254.2031 L54.2813,253.0469 Q54.2813,251.7188 54.8906,250.5781 Q55.5156,249.4219 56.6094,248.8125 Q57.7031,248.1875 58.9375,248.1875 Q59.6719,248.1875 60.3125,248.3594 Q60.9688,248.5156 61.5156,248.875 Z "/><text fill="#000000" font-family="sans-serif" font-size="12" lengthAdjust="spacingAndGlyphs" textLength="56" x="75.25" y="257.9102">Properties</text><line style="stroke: #A80036; stroke-width: 1.5;" x1="33.5" x2="144.5" y1="269" y2="269"/><ellipse cx="43.5" cy="280" fill="none" rx="3" ry="3" style="stroke: #038048; stroke-width: 1.0;"/><text fill="#000000" font-family="sans-serif" font-size="11" lengthAdjust="spacingAndGlyphs" textLength="78" x="52.5" y="284.4189">chipsInLevel: int</text><ellipse cx="43.5" cy="293.8359" fill="none" rx="3" ry="3" style="stroke: #038048; stroke-width: 1.0;"/><text fill="#000000" font-family="sans-serif" font-size="11" lengthAdjust="spacingAndGlyphs" textLength="87" x="52.5" y="298.2549">chipsRequired: int</text><ellipse cx="43.5" cy="307.6719" fill="none" rx="3" ry="3" style="stroke: #038048; stroke-width: 1.0;"/><text fill="#000000" font-family="sans-serif" font-size="11" lengthAdjust="spacingAndGlyphs" textLength="42" x="52.5" y="312.0908">width: int</text><ellipse cx="43.5" cy="321.5078" fill="none" rx="3" ry="3" style="stroke: #038048; stroke-width: 1.0;"/><text fill="#000000" font-family="sans-serif" font-size="11" lengthAdjust="spacingAndGlyphs" textLength="46" x="52.5" y="325.9268">height: int</text><ellipse cx="43.5" cy="335.3438" fill="none" rx="3" ry="3" style="stroke: #038048; stroke-width: 1.0;"/><text fill="#000000" font-family="sans-serif" font-size="11" lengthAdjust="spacingAndGlyphs" textLength="59" x="52.5" y="339.7627">timeLimit: int</text><line style="stroke: #A80036; stroke-width: 1.5;" x1="33.5" x2="144.5" y1="346.1797" y2="346.1797"/></a><!--MD5=[b537303bdb589b133d821386516982ce]
class nz.ac.vuw.ecs.swen225.gp20.persistence.level.Tile--><a href="Tile.html" target="_top" title="Tile.html" xlink:actuate="onRequest" xlink:href="Tile.html" xlink:show="new" xlink:title="Tile.html" xlink:type="simple"><rect codeLine="28" fill="#FEFECE" filter="url(#fsox29cpzqltn)" height="103.3438" id="nz.ac.vuw.ecs.swen225.gp20.persistence.level.Tile" style="stroke: #A80036; stroke-width: 1.5;" width="118" x="373" y="244"/><ellipse cx="417.75" cy="260" fill="#ADD1B2" rx="11" ry="11" style="stroke: #A80036; stroke-width: 1.0;"/><path d="M420.5156,255.875 Q420.6719,255.6563 420.8594,255.5469 Q421.0469,255.4375 421.2656,255.4375 Q421.6406,255.4375 421.875,255.7031 Q422.1094,255.9531 422.1094,256.5625 L422.1094,258.0156 Q422.1094,258.625 421.875,258.8906 Q421.6406,259.1563 421.2656,259.1563 Q420.9219,259.1563 420.7188,258.9531 Q420.5156,258.7656 420.4063,258.25 Q420.3594,257.8906 420.1719,257.7031 Q419.8438,257.3281 419.2344,257.1094 Q418.625,256.8906 418,256.8906 Q417.2344,256.8906 416.5938,257.2188 Q415.9688,257.5469 415.4688,258.2969 Q414.9844,259.0469 414.9844,260.0781 L414.9844,261.1719 Q414.9844,262.4063 415.875,263.2344 Q416.7656,264.0469 418.3594,264.0469 Q419.2969,264.0469 419.9531,263.7969 Q420.3438,263.6406 420.7656,263.2031 Q421.0313,262.9375 421.1719,262.8594 Q421.3281,262.7813 421.5313,262.7813 Q421.8594,262.7813 422.1094,263.0469 Q422.375,263.2969 422.375,263.6406 Q422.375,263.9844 422.0313,264.3906 Q421.5313,264.9688 420.7344,265.2969 Q419.6563,265.75 418.3594,265.75 Q416.8438,265.75 415.6406,265.125 Q414.6563,264.625 413.9688,263.5625 Q413.2813,262.4844 413.2813,261.2031 L413.2813,260.0469 Q413.2813,258.7188 413.8906,257.5781 Q414.5156,256.4219 415.6094,255.8125 Q416.7031,255.1875 417.9375,255.1875 Q418.6719,255.1875 419.3125,255.3594 Q419.9688,255.5156 420.5156,255.875 Z "/><text fill="#000000" font-family="sans-serif" font-size="12" lengthAdjust="spacingAndGlyphs" textLength="20" x="438.25" y="264.9102">Tile</text><line style="stroke: #A80036; stroke-width: 1.5;" x1="374" x2="490" y1="276" y2="276"/><line style="stroke: #A80036; stroke-width: 1.5;" x1="374" x2="490" y1="284" y2="284"/><ellipse cx="384" cy="295" fill="#84BE84" rx="3" ry="3" style="stroke: #038048; stroke-width: 1.0;"/><text fill="#000000" font-family="sans-serif" font-size="11" lengthAdjust="spacingAndGlyphs" textLength="92" x="393" y="299.4189">getTerrain(): String</text><ellipse cx="384" cy="308.8359" fill="#84BE84" rx="3" ry="3" style="stroke: #038048; stroke-width: 1.0;"/><text fill="#000000" font-family="sans-serif" font-size="11" lengthAdjust="spacingAndGlyphs" textLength="89" x="393" y="313.2549">getObject(): String</text><ellipse cx="384" cy="322.6719" fill="#84BE84" rx="3" ry="3" style="stroke: #038048; stroke-width: 1.0;"/><text fill="#000000" font-family="sans-serif" font-size="11" lengthAdjust="spacingAndGlyphs" textLength="83" x="393" y="327.0908">getColor(): String</text><ellipse cx="384" cy="336.5078" fill="#84BE84" rx="3" ry="3" style="stroke: #038048; stroke-width: 1.0;"/><text fill="#000000" font-family="sans-serif" font-size="11" lengthAdjust="spacingAndGlyphs" textLength="79" x="393" y="340.9268">getHelp(): String</text></a><!--MD5=[23087a1a68ce0244a0ecae3a8322ec9b]
link nz.ac.vuw.ecs.swen225.gp20.persistence.level.Level to nz.ac.vuw.ecs.swen225.gp20.persistence.level.Properties--><path codeLine="35" d="M99.29,159.32 C93.83,168.79 89.11,178.84 86,189 C81.87,202.5 80.5,217.43 80.6,231.7 " fill="none" id="nz.ac.vuw.ecs.swen225.gp20.persistence.level.Level-to-nz.ac.vuw.ecs.swen225.gp20.persistence.level.Properties" style="stroke: #A80036; stroke-width: 1.0;"/><polygon fill="#A80036" points="80.7,236.93,84.5451,227.8628,80.6143,231.9307,76.5463,227.9999,80.7,236.93" style="stroke: #A80036; stroke-width: 1.0;"/><text fill="#000000" font-family="sans-serif" font-size="13" lengthAdjust="spacingAndGlyphs" textLength="57" x="87" y="203.4951">properties</text><!--MD5=[f2e7ba7c2ff1d2944703cfe0007d013d]
link nz.ac.vuw.ecs.swen225.gp20.persistence.level.Level to nz.ac.vuw.ecs.swen225.gp20.persistence.level.NonPlayableCharacter--><path codeLine="36" d="M162.87,159.25 C168.88,175.23 176.3,192.23 185,207 C196.26,226.12 211.76,245.19 225.66,260.63 " fill="none" id="nz.ac.vuw.ecs.swen225.gp20.persistence.level.Level-to-nz.ac.vuw.ecs.swen225.gp20.persistence.level.NonPlayableCharacter" style="stroke: #A80036; stroke-width: 1.0;"/><polygon fill="#A80036" points="229.16,264.47,226.0549,255.1234,225.7924,260.7742,220.1416,260.5116,229.16,264.47" style="stroke: #A80036; stroke-width: 1.0;"/><text fill="#000000" font-family="sans-serif" font-size="13" lengthAdjust="spacingAndGlyphs" textLength="134" x="186" y="203.4951">nonPlayableCharacters</text><text fill="#000000" font-family="sans-serif" font-size="13" lengthAdjust="spacingAndGlyphs" textLength="5" x="217.0856" y="253.4837">*</text><!--MD5=[6c11faf9f7e3626392786df877d28c9d]
reverse link nz.ac.vuw.ecs.swen225.gp20.persistence.level.Coordinate to nz.ac.vuw.ecs.swen225.gp20.persistence.level.NonPlayableCharacter--><path codeLine="37" d="M403.73,158.97 C403.22,175.37 400.17,192.66 392,207 C387.04,215.7 345.03,242.62 309.53,264.32 " fill="none" id="nz.ac.vuw.ecs.swen225.gp20.persistence.level.Coordinate-backto-nz.ac.vuw.ecs.swen225.gp20.persistence.level.NonPlayableCharacter" style="stroke: #A80036; stroke-width: 1.0;"/><polygon fill="none" points="396.73,159.13,403.22,138.96,410.73,158.77,396.73,159.13" style="stroke: #A80036; stroke-width: 1.0;"/><!--MD5=[7e2fc1f947b47fbe240526aa805e27fd]
link nz.ac.vuw.ecs.swen225.gp20.persistence.level.NonPlayableCharacter to nz.ac.vuw.ecs.swen225.gp20.persistence.level.Coordinate--><path codeLine="38" d="M282.26,264.39 C295.07,247.64 311.13,226.32 325,207 C339.91,186.23 355.99,162.77 369.16,143.26 " fill="none" id="nz.ac.vuw.ecs.swen225.gp20.persistence.level.NonPlayableCharacter-to-nz.ac.vuw.ecs.swen225.gp20.persistence.level.Coordinate" style="stroke: #A80036; stroke-width: 1.0;"/><polygon fill="#A80036" points="372.1,138.9,363.7463,144.1168,369.3002,143.0426,370.3744,148.5965,372.1,138.9" style="stroke: #A80036; stroke-width: 1.0;"/><text fill="#000000" font-family="sans-serif" font-size="13" lengthAdjust="spacingAndGlyphs" textLength="25" x="338" y="203.4951">path</text><text fill="#000000" font-family="sans-serif" font-size="13" lengthAdjust="spacingAndGlyphs" textLength="5" x="362.9044" y="159.5522">*</text><!--MD5=[10ee82644ae22d26f4480ed3c1d46e2a]
reverse link nz.ac.vuw.ecs.swen225.gp20.persistence.level.Coordinate to nz.ac.vuw.ecs.swen225.gp20.persistence.level.Tile--><path codeLine="39" d="M407.37,158.69 C412.28,185.73 418.08,217.75 422.82,243.9 " fill="none" id="nz.ac.vuw.ecs.swen225.gp20.persistence.level.Coordinate-backto-nz.ac.vuw.ecs.swen225.gp20.persistence.level.Tile" style="stroke: #A80036; stroke-width: 1.0;"/><polygon fill="none" points="400.43,159.64,403.75,138.71,414.2,157.14,400.43,159.64" style="stroke: #A80036; stroke-width: 1.0;"/><text fill="#888888" font-family="sans-serif" font-size="10" lengthAdjust="spacingAndGlyphs" textLength="185" x="163" y="386.3809">UMLDoclet 2.0.12, PlantUML 1.2020.16</text><!--MD5=[c86bd9b72ddafde875ae17ec066c7a1c]
@startuml
    namespace nz.ac.vuw.ecs.swen225.gp20.persistence.level {

        class Coordinate [[Coordinate.html]] {
            +x: int
            +y: int
        }

        class Level [[Level.html]] {
            +getDescription(): String
            +getStartX(): int
            +getStartY(): int
            +getBoard(): Cell[]
            +validate(): void
        }

        class NonPlayableCharacter [[NonPlayableCharacter.html]] {
            +getType(): String
        }

        class Properties [[Properties.html]] {
            +chipsInLevel: int
            +chipsRequired: int
            +width: int
            +height: int
            +timeLimit: int
        }

        class Tile [[Tile.html]] {
            +getTerrain(): String
            +getObject(): String
            +getColor(): String
            +getHelp(): String
        }

        Level - -> Properties: properties
        Level - -> "*" NonPlayableCharacter: nonPlayableCharacters
        Coordinate <|- - NonPlayableCharacter
        NonPlayableCharacter - -> "*" Coordinate: path
        Coordinate <|- - Tile
    }

    center footer UMLDoclet 2.0.12, PlantUML 1.2020.16
@enduml

PlantUML version 1.2020.16(Mon Aug 24 08:20:43 NZST 2020)
(APACHE source distribution)
Java Runtime: Java(TM) SE Runtime Environment
JVM: Java HotSpot(TM) 64-Bit Server VM
Default Encoding: Cp1252
Language: en
Country: NZ
--></g></svg>