<?xml version="1.0" encoding="UTF-8" standalone="no"?><svg xmlns="http://www.w3.org/2000/svg" xmlns:xlink="http://www.w3.org/1999/xlink" contentScriptType="application/ecmascript" contentStyleType="text/css" height="205px" preserveAspectRatio="none" style="width:246px;height:205px;" version="1.1" viewBox="0 0 246 205" width="246px" zoomAndPan="magnify"><defs><filter height="300%" id="f1eg0uip6e2303" width="300%" x="-1" y="-1"><feGaussianBlur result="blurOut" stdDeviation="2.0"/><feColorMatrix in="blurOut" result="blurOut2" type="matrix" values="0 0 0 0 0 0 0 0 0 0 0 0 0 0 0 0 0 0 .4 0"/><feOffset dx="4.0" dy="4.0" in="blurOut2" result="blurOut3"/><feBlend in="SourceGraphic" in2="blurOut3" mode="normal"/></filter></defs><g><!--MD5=[658e47d8d24a72ad02ad071b2773f46a]
class nz.ac.vuw.ecs.swen225.gp20.maze.cells.CellInfo--><a href="CellInfo.html" target="_top" title="CellInfo.html" xlink:actuate="onRequest" xlink:href="CellInfo.html" xlink:show="new" xlink:title="CellInfo.html" xlink:type="simple"><rect codeLine="5" fill="#FEFECE" filter="url(#f1eg0uip6e2303)" height="62.0234" id="nz.ac.vuw.ecs.swen225.gp20.maze.cells.CellInfo" style="stroke: #A80036; stroke-width: 1.5;" width="220" x="7" y="107"/><ellipse cx="22" cy="127.0938" fill="#ADD1B2" rx="11" ry="11" style="stroke: #A80036; stroke-width: 1.0;"/><path d="M24.7656,122.9688 Q24.9219,122.75 25.1094,122.6406 Q25.2969,122.5313 25.5156,122.5313 Q25.8906,122.5313 26.125,122.7969 Q26.3594,123.0469 26.3594,123.6563 L26.3594,125.1094 Q26.3594,125.7188 26.125,125.9844 Q25.8906,126.25 25.5156,126.25 Q25.1719,126.25 24.9688,126.0469 Q24.7656,125.8594 24.6563,125.3438 Q24.6094,124.9844 24.4219,124.7969 Q24.0938,124.4219 23.4844,124.2031 Q22.875,123.9844 22.25,123.9844 Q21.4844,123.9844 20.8438,124.3125 Q20.2188,124.6406 19.7188,125.3906 Q19.2344,126.1406 19.2344,127.1719 L19.2344,128.2656 Q19.2344,129.5 20.125,130.3281 Q21.0156,131.1406 22.6094,131.1406 Q23.5469,131.1406 24.2031,130.8906 Q24.5938,130.7344 25.0156,130.2969 Q25.2813,130.0313 25.4219,129.9531 Q25.5781,129.875 25.7813,129.875 Q26.1094,129.875 26.3594,130.1406 Q26.625,130.3906 26.625,130.7344 Q26.625,131.0781 26.2813,131.4844 Q25.7813,132.0625 24.9844,132.3906 Q23.9063,132.8438 22.6094,132.8438 Q21.0938,132.8438 19.8906,132.2188 Q18.9063,131.7188 18.2188,130.6563 Q17.5313,129.5781 17.5313,128.2969 L17.5313,127.1406 Q17.5313,125.8125 18.1406,124.6719 Q18.7656,123.5156 19.8594,122.9063 Q20.9531,122.2813 22.1875,122.2813 Q22.9219,122.2813 23.5625,122.4531 Q24.2188,122.6094 24.7656,122.9688 Z "/><text fill="#000000" font-family="sans-serif" font-size="14" lengthAdjust="spacingAndGlyphs" textLength="48" x="106" y="126.5332">CellInfo</text><text fill="#000000" font-family="sans-serif" font-size="10" lengthAdjust="spacingAndGlyphs" textLength="188" x="36" y="139.9902">nz.ac.vuw.ecs.swen225.gp20.maze.cells</text><line style="stroke: #A80036; stroke-width: 1.5;" x1="8" x2="226" y1="147.1875" y2="147.1875"/><ellipse cx="18" cy="158.1875" fill="#84BE84" rx="3" ry="3" style="stroke: #038048; stroke-width: 1.0;"/><text fill="#000000" font-family="sans-serif" font-size="11" lengthAdjust="spacingAndGlyphs" textLength="106" x="27" y="162.6064">CellInfo(int, int, String)</text></a><!--MD5=[ed7254db4e69ecaa847f735c03ac8863]
class nz.ac.vuw.ecs.swen225.gp20.maze.Cell--><a href="..\Cell.html" target="_top" title="..\Cell.html" xlink:actuate="onRequest" xlink:href="..\Cell.html" xlink:show="new" xlink:title="..\Cell.html" xlink:type="simple"><rect codeLine="9" fill="#FEFECE" filter="url(#f1eg0uip6e2303)" height="40.1875" id="nz.ac.vuw.ecs.swen225.gp20.maze.Cell" style="stroke: #A80036; stroke-width: 1.5;" width="197" x="18.5" y="7"/><ellipse cx="33.5" cy="27.0938" fill="#ADD1B2" rx="11" ry="11" style="stroke: #A80036; stroke-width: 1.0;"/><path d="M36.2656,22.9688 Q36.4219,22.75 36.6094,22.6406 Q36.7969,22.5313 37.0156,22.5313 Q37.3906,22.5313 37.625,22.7969 Q37.8594,23.0469 37.8594,23.6563 L37.8594,25.1094 Q37.8594,25.7188 37.625,25.9844 Q37.3906,26.25 37.0156,26.25 Q36.6719,26.25 36.4688,26.0469 Q36.2656,25.8594 36.1563,25.3438 Q36.1094,24.9844 35.9219,24.7969 Q35.5938,24.4219 34.9844,24.2031 Q34.375,23.9844 33.75,23.9844 Q32.9844,23.9844 32.3438,24.3125 Q31.7188,24.6406 31.2188,25.3906 Q30.7344,26.1406 30.7344,27.1719 L30.7344,28.2656 Q30.7344,29.5 31.625,30.3281 Q32.5156,31.1406 34.1094,31.1406 Q35.0469,31.1406 35.7031,30.8906 Q36.0938,30.7344 36.5156,30.2969 Q36.7813,30.0313 36.9219,29.9531 Q37.0781,29.875 37.2813,29.875 Q37.6094,29.875 37.8594,30.1406 Q38.125,30.3906 38.125,30.7344 Q38.125,31.0781 37.7813,31.4844 Q37.2813,32.0625 36.4844,32.3906 Q35.4063,32.8438 34.1094,32.8438 Q32.5938,32.8438 31.3906,32.2188 Q30.4063,31.7188 29.7188,30.6563 Q29.0313,29.5781 29.0313,28.2969 L29.0313,27.1406 Q29.0313,25.8125 29.6406,24.6719 Q30.2656,23.5156 31.3594,22.9063 Q32.4531,22.2813 33.6875,22.2813 Q34.4219,22.2813 35.0625,22.4531 Q35.7188,22.6094 36.2656,22.9688 Z "/><text fill="#000000" font-family="sans-serif" font-size="14" lengthAdjust="spacingAndGlyphs" textLength="24" x="118" y="26.5332">Cell</text><text fill="#000000" font-family="sans-serif" font-size="10" lengthAdjust="spacingAndGlyphs" textLength="165" x="47.5" y="39.9902">nz.ac.vuw.ecs.swen225.gp20.maze</text></a><!--MD5=[0c6bc99011c4034d219788a0e1459238]
reverse link nz.ac.vuw.ecs.swen225.gp20.maze.Cell to nz.ac.vuw.ecs.swen225.gp20.maze.cells.CellInfo--><path codeLine="11" d="M117,67.37 C117,80.38 117,94.65 117,106.86 " fill="none" id="nz.ac.vuw.ecs.swen225.gp20.maze.Cell-backto-nz.ac.vuw.ecs.swen225.gp20.maze.cells.CellInfo" style="stroke: #A80036; stroke-width: 1.0;"/><polygon fill="none" points="110,67.24,117,47.24,124,67.24,110,67.24" style="stroke: #A80036; stroke-width: 1.0;"/><text fill="#888888" font-family="sans-serif" font-size="10" lengthAdjust="spacingAndGlyphs" textLength="185" x="21.5" y="192.4043">UMLDoclet 2.0.12, PlantUML 1.2020.16</text><!--MD5=[c31bd4cddc1983fc2b3ccada3e921cde]
@startuml
    set namespaceSeparator none
    hide empty fields
    hide empty methods

    class "<size:14>CellInfo\n<size:10>nz.ac.vuw.ecs.swen225.gp20.maze.cells" as nz.ac.vuw.ecs.swen225.gp20.maze.cells.CellInfo [[CellInfo.html]] {
        +CellInfo(int, int, String)
    }

    class "<size:14>Cell\n<size:10>nz.ac.vuw.ecs.swen225.gp20.maze" as nz.ac.vuw.ecs.swen225.gp20.maze.Cell [[..\Cell.html]]

    nz.ac.vuw.ecs.swen225.gp20.maze.Cell <|- - nz.ac.vuw.ecs.swen225.gp20.maze.cells.CellInfo

    center footer UMLDoclet 2.0.12, PlantUML 1.2020.16
@enduml

PlantUML version 1.2020.16(Mon Aug 24 08:20:43 NZST 2020)
(APACHE source distribution)
Java Runtime: Java(TM) SE Runtime Environment
JVM: Java HotSpot(TM) 64-Bit Server VM
Default Encoding: Cp1252
Language: en
Country: NZ
--></g></svg>