<?xml version="1.0" encoding="UTF-8" standalone="no"?><svg xmlns="http://www.w3.org/2000/svg" xmlns:xlink="http://www.w3.org/1999/xlink" contentScriptType="application/ecmascript" contentStyleType="text/css" height="522px" preserveAspectRatio="none" style="width:1425px;height:522px;" version="1.1" viewBox="0 0 1425 522" width="1425px" zoomAndPan="magnify"><defs><filter height="300%" id="f52tlcvw6l5fg" width="300%" x="-1" y="-1"><feGaussianBlur result="blurOut" stdDeviation="2.0"/><feColorMatrix in="blurOut" result="blurOut2" type="matrix" values="0 0 0 0 0 0 0 0 0 0 0 0 0 0 0 0 0 0 .4 0"/><feOffset dx="4.0" dy="4.0" in="blurOut2" result="blurOut3"/><feBlend in="SourceGraphic" in2="blurOut3" mode="normal"/></filter></defs><g><!--MD5=[90595f7821af1d05890274ebc928a51e]
cluster nz.ac.vuw.ecs.swen225.gp20.maze.cells--><polygon fill="#FFFFFF" filter="url(#f52tlcvw6l5fg)" points="16,379,295,379,302,402.6094,1403,402.6094,1403,493,16,493,16,379" style="stroke: #000000; stroke-width: 1.5;"/><line style="stroke: #000000; stroke-width: 1.5;" x1="16" x2="302" y1="402.6094" y2="402.6094"/><text fill="#000000" font-family="sans-serif" font-size="14" font-weight="bold" lengthAdjust="spacingAndGlyphs" textLength="273" x="20" y="395.5332">nz.ac.vuw.ecs.swen225.gp20.maze.cells</text><!--MD5=[832757d115beb7bc045eef4d6b42e302]
cluster nz.ac.vuw.ecs.swen225.gp20.maze--><polygon fill="#FFFFFF" filter="url(#f52tlcvw6l5fg)" points="581,6,824,6,831,29.6094,834,29.6094,834,355,581,355,581,6" style="stroke: #000000; stroke-width: 1.5;"/><line style="stroke: #000000; stroke-width: 1.5;" x1="581" x2="831" y1="29.6094" y2="29.6094"/><text fill="#000000" font-family="sans-serif" font-size="14" font-weight="bold" lengthAdjust="spacingAndGlyphs" textLength="237" x="585" y="22.5332">nz.ac.vuw.ecs.swen225.gp20.maze</text><!--MD5=[17bf4455e7de94163e6609705a7b8114]
class nz.ac.vuw.ecs.swen225.gp20.maze.cells.CellDoor--><a href="CellDoor.html" target="_top" title="CellDoor.html" xlink:actuate="onRequest" xlink:href="CellDoor.html" xlink:show="new" xlink:title="CellDoor.html" xlink:type="simple"><rect codeLine="3" fill="#FEFECE" filter="url(#f52tlcvw6l5fg)" height="61.8359" id="nz.ac.vuw.ecs.swen225.gp20.maze.cells.CellDoor" style="stroke: #A80036; stroke-width: 1.5;" width="138" x="1249" y="415"/><ellipse cx="1289.65" cy="431" fill="#ADD1B2" rx="11" ry="11" style="stroke: #A80036; stroke-width: 1.0;"/><path d="M1292.4156,426.875 Q1292.5719,426.6563 1292.7594,426.5469 Q1292.9469,426.4375 1293.1656,426.4375 Q1293.5406,426.4375 1293.775,426.7031 Q1294.0094,426.9531 1294.0094,427.5625 L1294.0094,429.0156 Q1294.0094,429.625 1293.775,429.8906 Q1293.5406,430.1563 1293.1656,430.1563 Q1292.8219,430.1563 1292.6188,429.9531 Q1292.4156,429.7656 1292.3063,429.25 Q1292.2594,428.8906 1292.0719,428.7031 Q1291.7438,428.3281 1291.1344,428.1094 Q1290.525,427.8906 1289.9,427.8906 Q1289.1344,427.8906 1288.4938,428.2188 Q1287.8688,428.5469 1287.3688,429.2969 Q1286.8844,430.0469 1286.8844,431.0781 L1286.8844,432.1719 Q1286.8844,433.4063 1287.775,434.2344 Q1288.6656,435.0469 1290.2594,435.0469 Q1291.1969,435.0469 1291.8531,434.7969 Q1292.2438,434.6406 1292.6656,434.2031 Q1292.9313,433.9375 1293.0719,433.8594 Q1293.2281,433.7813 1293.4313,433.7813 Q1293.7594,433.7813 1294.0094,434.0469 Q1294.275,434.2969 1294.275,434.6406 Q1294.275,434.9844 1293.9313,435.3906 Q1293.4313,435.9688 1292.6344,436.2969 Q1291.5563,436.75 1290.2594,436.75 Q1288.7438,436.75 1287.5406,436.125 Q1286.5563,435.625 1285.8688,434.5625 Q1285.1813,433.4844 1285.1813,432.2031 L1285.1813,431.0469 Q1285.1813,429.7188 1285.7906,428.5781 Q1286.4156,427.4219 1287.5094,426.8125 Q1288.6031,426.1875 1289.8375,426.1875 Q1290.5719,426.1875 1291.2125,426.3594 Q1291.8688,426.5156 1292.4156,426.875 Z "/><text fill="#000000" font-family="sans-serif" font-size="12" lengthAdjust="spacingAndGlyphs" textLength="49" x="1309.35" y="435.9102">CellDoor</text><line style="stroke: #A80036; stroke-width: 1.5;" x1="1250" x2="1386" y1="447" y2="447"/><line style="stroke: #A80036; stroke-width: 1.5;" x1="1250" x2="1386" y1="455" y2="455"/><ellipse cx="1260" cy="466" fill="#84BE84" rx="3" ry="3" style="stroke: #038048; stroke-width: 1.0;"/><text fill="#000000" font-family="sans-serif" font-size="11" lengthAdjust="spacingAndGlyphs" textLength="112" x="1269" y="470.4189">CellDoor(int, int, String)</text></a><!--MD5=[257d0dfa85e17d3f794ae69f6ed5f280]
class nz.ac.vuw.ecs.swen225.gp20.maze.cells.CellExit--><a href="CellExit.html" target="_top" title="CellExit.html" xlink:actuate="onRequest" xlink:href="CellExit.html" xlink:show="new" xlink:title="CellExit.html" xlink:type="simple"><rect codeLine="7" fill="#FEFECE" filter="url(#f52tlcvw6l5fg)" height="61.8359" id="nz.ac.vuw.ecs.swen225.gp20.maze.cells.CellExit" style="stroke: #A80036; stroke-width: 1.5;" width="98" x="1116" y="415"/><ellipse cx="1141.8" cy="431" fill="#ADD1B2" rx="11" ry="11" style="stroke: #A80036; stroke-width: 1.0;"/><path d="M1144.5656,426.875 Q1144.7219,426.6563 1144.9094,426.5469 Q1145.0969,426.4375 1145.3156,426.4375 Q1145.6906,426.4375 1145.925,426.7031 Q1146.1594,426.9531 1146.1594,427.5625 L1146.1594,429.0156 Q1146.1594,429.625 1145.925,429.8906 Q1145.6906,430.1563 1145.3156,430.1563 Q1144.9719,430.1563 1144.7688,429.9531 Q1144.5656,429.7656 1144.4563,429.25 Q1144.4094,428.8906 1144.2219,428.7031 Q1143.8938,428.3281 1143.2844,428.1094 Q1142.675,427.8906 1142.05,427.8906 Q1141.2844,427.8906 1140.6438,428.2188 Q1140.0188,428.5469 1139.5188,429.2969 Q1139.0344,430.0469 1139.0344,431.0781 L1139.0344,432.1719 Q1139.0344,433.4063 1139.925,434.2344 Q1140.8156,435.0469 1142.4094,435.0469 Q1143.3469,435.0469 1144.0031,434.7969 Q1144.3938,434.6406 1144.8156,434.2031 Q1145.0813,433.9375 1145.2219,433.8594 Q1145.3781,433.7813 1145.5813,433.7813 Q1145.9094,433.7813 1146.1594,434.0469 Q1146.425,434.2969 1146.425,434.6406 Q1146.425,434.9844 1146.0813,435.3906 Q1145.5813,435.9688 1144.7844,436.2969 Q1143.7063,436.75 1142.4094,436.75 Q1140.8938,436.75 1139.6906,436.125 Q1138.7063,435.625 1138.0188,434.5625 Q1137.3313,433.4844 1137.3313,432.2031 L1137.3313,431.0469 Q1137.3313,429.7188 1137.9406,428.5781 Q1138.5656,427.4219 1139.6594,426.8125 Q1140.7531,426.1875 1141.9875,426.1875 Q1142.7219,426.1875 1143.3625,426.3594 Q1144.0188,426.5156 1144.5656,426.875 Z "/><text fill="#000000" font-family="sans-serif" font-size="12" lengthAdjust="spacingAndGlyphs" textLength="42" x="1158.2" y="435.9102">CellExit</text><line style="stroke: #A80036; stroke-width: 1.5;" x1="1117" x2="1213" y1="447" y2="447"/><line style="stroke: #A80036; stroke-width: 1.5;" x1="1117" x2="1213" y1="455" y2="455"/><ellipse cx="1127" cy="466" fill="#84BE84" rx="3" ry="3" style="stroke: #038048; stroke-width: 1.0;"/><text fill="#000000" font-family="sans-serif" font-size="11" lengthAdjust="spacingAndGlyphs" textLength="72" x="1136" y="470.4189">CellExit(int, int)</text></a><!--MD5=[00ab271a1987c27083abb9bf2154920e]
class nz.ac.vuw.ecs.swen225.gp20.maze.cells.CellExitLocked--><a href="CellExitLocked.html" target="_top" title="CellExitLocked.html" xlink:actuate="onRequest" xlink:href="CellExitLocked.html" xlink:show="new" xlink:title="CellExitLocked.html" xlink:type="simple"><rect codeLine="11" fill="#FEFECE" filter="url(#f52tlcvw6l5fg)" height="61.8359" id="nz.ac.vuw.ecs.swen225.gp20.maze.cells.CellExitLocked" style="stroke: #A80036; stroke-width: 1.5;" width="134" x="947" y="415"/><ellipse cx="971" cy="431" fill="#ADD1B2" rx="11" ry="11" style="stroke: #A80036; stroke-width: 1.0;"/><path d="M973.7656,426.875 Q973.9219,426.6563 974.1094,426.5469 Q974.2969,426.4375 974.5156,426.4375 Q974.8906,426.4375 975.125,426.7031 Q975.3594,426.9531 975.3594,427.5625 L975.3594,429.0156 Q975.3594,429.625 975.125,429.8906 Q974.8906,430.1563 974.5156,430.1563 Q974.1719,430.1563 973.9688,429.9531 Q973.7656,429.7656 973.6563,429.25 Q973.6094,428.8906 973.4219,428.7031 Q973.0938,428.3281 972.4844,428.1094 Q971.875,427.8906 971.25,427.8906 Q970.4844,427.8906 969.8438,428.2188 Q969.2188,428.5469 968.7188,429.2969 Q968.2344,430.0469 968.2344,431.0781 L968.2344,432.1719 Q968.2344,433.4063 969.125,434.2344 Q970.0156,435.0469 971.6094,435.0469 Q972.5469,435.0469 973.2031,434.7969 Q973.5938,434.6406 974.0156,434.2031 Q974.2813,433.9375 974.4219,433.8594 Q974.5781,433.7813 974.7813,433.7813 Q975.1094,433.7813 975.3594,434.0469 Q975.625,434.2969 975.625,434.6406 Q975.625,434.9844 975.2813,435.3906 Q974.7813,435.9688 973.9844,436.2969 Q972.9063,436.75 971.6094,436.75 Q970.0938,436.75 968.8906,436.125 Q967.9063,435.625 967.2188,434.5625 Q966.5313,433.4844 966.5313,432.2031 L966.5313,431.0469 Q966.5313,429.7188 967.1406,428.5781 Q967.7656,427.4219 968.8594,426.8125 Q969.9531,426.1875 971.1875,426.1875 Q971.9219,426.1875 972.5625,426.3594 Q973.2188,426.5156 973.7656,426.875 Z "/><text fill="#000000" font-family="sans-serif" font-size="12" lengthAdjust="spacingAndGlyphs" textLength="82" x="987" y="435.9102">CellExitLocked</text><line style="stroke: #A80036; stroke-width: 1.5;" x1="948" x2="1080" y1="447" y2="447"/><line style="stroke: #A80036; stroke-width: 1.5;" x1="948" x2="1080" y1="455" y2="455"/><ellipse cx="958" cy="466" fill="#84BE84" rx="3" ry="3" style="stroke: #038048; stroke-width: 1.0;"/><text fill="#000000" font-family="sans-serif" font-size="11" lengthAdjust="spacingAndGlyphs" textLength="108" x="967" y="470.4189">CellExitLocked(int, int)</text></a><!--MD5=[0f8164b9e3aec32009915de311039cb7]
class nz.ac.vuw.ecs.swen225.gp20.maze.cells.CellFree--><a href="CellFree.html" target="_top" title="CellFree.html" xlink:actuate="onRequest" xlink:href="CellFree.html" xlink:show="new" xlink:title="CellFree.html" xlink:type="simple"><rect codeLine="15" fill="#FEFECE" filter="url(#f52tlcvw6l5fg)" height="61.8359" id="nz.ac.vuw.ecs.swen225.gp20.maze.cells.CellFree" style="stroke: #A80036; stroke-width: 1.5;" width="103" x="808.5" y="415"/><ellipse cx="834.3" cy="431" fill="#ADD1B2" rx="11" ry="11" style="stroke: #A80036; stroke-width: 1.0;"/><path d="M837.0656,426.875 Q837.2219,426.6563 837.4094,426.5469 Q837.5969,426.4375 837.8156,426.4375 Q838.1906,426.4375 838.425,426.7031 Q838.6594,426.9531 838.6594,427.5625 L838.6594,429.0156 Q838.6594,429.625 838.425,429.8906 Q838.1906,430.1563 837.8156,430.1563 Q837.4719,430.1563 837.2688,429.9531 Q837.0656,429.7656 836.9563,429.25 Q836.9094,428.8906 836.7219,428.7031 Q836.3938,428.3281 835.7844,428.1094 Q835.175,427.8906 834.55,427.8906 Q833.7844,427.8906 833.1438,428.2188 Q832.5188,428.5469 832.0188,429.2969 Q831.5344,430.0469 831.5344,431.0781 L831.5344,432.1719 Q831.5344,433.4063 832.425,434.2344 Q833.3156,435.0469 834.9094,435.0469 Q835.8469,435.0469 836.5031,434.7969 Q836.8938,434.6406 837.3156,434.2031 Q837.5813,433.9375 837.7219,433.8594 Q837.8781,433.7813 838.0813,433.7813 Q838.4094,433.7813 838.6594,434.0469 Q838.925,434.2969 838.925,434.6406 Q838.925,434.9844 838.5813,435.3906 Q838.0813,435.9688 837.2844,436.2969 Q836.2063,436.75 834.9094,436.75 Q833.3938,436.75 832.1906,436.125 Q831.2063,435.625 830.5188,434.5625 Q829.8313,433.4844 829.8313,432.2031 L829.8313,431.0469 Q829.8313,429.7188 830.4406,428.5781 Q831.0656,427.4219 832.1594,426.8125 Q833.2531,426.1875 834.4875,426.1875 Q835.2219,426.1875 835.8625,426.3594 Q836.5188,426.5156 837.0656,426.875 Z "/><text fill="#000000" font-family="sans-serif" font-size="12" lengthAdjust="spacingAndGlyphs" textLength="47" x="850.7" y="435.9102">CellFree</text><line style="stroke: #A80036; stroke-width: 1.5;" x1="809.5" x2="910.5" y1="447" y2="447"/><line style="stroke: #A80036; stroke-width: 1.5;" x1="809.5" x2="910.5" y1="455" y2="455"/><ellipse cx="819.5" cy="466" fill="#84BE84" rx="3" ry="3" style="stroke: #038048; stroke-width: 1.0;"/><text fill="#000000" font-family="sans-serif" font-size="11" lengthAdjust="spacingAndGlyphs" textLength="77" x="828.5" y="470.4189">CellFree(int, int)</text></a><!--MD5=[658e47d8d24a72ad02ad071b2773f46a]
class nz.ac.vuw.ecs.swen225.gp20.maze.cells.CellInfo--><a href="CellInfo.html" target="_top" title="CellInfo.html" xlink:actuate="onRequest" xlink:href="CellInfo.html" xlink:show="new" xlink:title="CellInfo.html" xlink:type="simple"><rect codeLine="19" fill="#FEFECE" filter="url(#f52tlcvw6l5fg)" height="61.8359" id="nz.ac.vuw.ecs.swen225.gp20.maze.cells.CellInfo" style="stroke: #A80036; stroke-width: 1.5;" width="132" x="641" y="415"/><ellipse cx="682.1" cy="431" fill="#ADD1B2" rx="11" ry="11" style="stroke: #A80036; stroke-width: 1.0;"/><path d="M684.8656,426.875 Q685.0219,426.6563 685.2094,426.5469 Q685.3969,426.4375 685.6156,426.4375 Q685.9906,426.4375 686.225,426.7031 Q686.4594,426.9531 686.4594,427.5625 L686.4594,429.0156 Q686.4594,429.625 686.225,429.8906 Q685.9906,430.1563 685.6156,430.1563 Q685.2719,430.1563 685.0688,429.9531 Q684.8656,429.7656 684.7563,429.25 Q684.7094,428.8906 684.5219,428.7031 Q684.1938,428.3281 683.5844,428.1094 Q682.975,427.8906 682.35,427.8906 Q681.5844,427.8906 680.9438,428.2188 Q680.3188,428.5469 679.8188,429.2969 Q679.3344,430.0469 679.3344,431.0781 L679.3344,432.1719 Q679.3344,433.4063 680.225,434.2344 Q681.1156,435.0469 682.7094,435.0469 Q683.6469,435.0469 684.3031,434.7969 Q684.6938,434.6406 685.1156,434.2031 Q685.3813,433.9375 685.5219,433.8594 Q685.6781,433.7813 685.8813,433.7813 Q686.2094,433.7813 686.4594,434.0469 Q686.725,434.2969 686.725,434.6406 Q686.725,434.9844 686.3813,435.3906 Q685.8813,435.9688 685.0844,436.2969 Q684.0063,436.75 682.7094,436.75 Q681.1938,436.75 679.9906,436.125 Q679.0063,435.625 678.3188,434.5625 Q677.6313,433.4844 677.6313,432.2031 L677.6313,431.0469 Q677.6313,429.7188 678.2406,428.5781 Q678.8656,427.4219 679.9594,426.8125 Q681.0531,426.1875 682.2875,426.1875 Q683.0219,426.1875 683.6625,426.3594 Q684.3188,426.5156 684.8656,426.875 Z "/><text fill="#000000" font-family="sans-serif" font-size="12" lengthAdjust="spacingAndGlyphs" textLength="42" x="701.9" y="435.9102">CellInfo</text><line style="stroke: #A80036; stroke-width: 1.5;" x1="642" x2="772" y1="447" y2="447"/><line style="stroke: #A80036; stroke-width: 1.5;" x1="642" x2="772" y1="455" y2="455"/><ellipse cx="652" cy="466" fill="#84BE84" rx="3" ry="3" style="stroke: #038048; stroke-width: 1.0;"/><text fill="#000000" font-family="sans-serif" font-size="11" lengthAdjust="spacingAndGlyphs" textLength="106" x="661" y="470.4189">CellInfo(int, int, String)</text></a><!--MD5=[71064b5e19f9794dbb2b823b401ef500]
class nz.ac.vuw.ecs.swen225.gp20.maze.cells.CellKey--><a href="CellKey.html" target="_top" title="CellKey.html" xlink:actuate="onRequest" xlink:href="CellKey.html" xlink:show="new" xlink:title="CellKey.html" xlink:type="simple"><rect codeLine="23" fill="#FEFECE" filter="url(#f52tlcvw6l5fg)" height="61.8359" id="nz.ac.vuw.ecs.swen225.gp20.maze.cells.CellKey" style="stroke: #A80036; stroke-width: 1.5;" width="133" x="472.5" y="415"/><ellipse cx="513.6" cy="431" fill="#ADD1B2" rx="11" ry="11" style="stroke: #A80036; stroke-width: 1.0;"/><path d="M516.3656,426.875 Q516.5219,426.6563 516.7094,426.5469 Q516.8969,426.4375 517.1156,426.4375 Q517.4906,426.4375 517.725,426.7031 Q517.9594,426.9531 517.9594,427.5625 L517.9594,429.0156 Q517.9594,429.625 517.725,429.8906 Q517.4906,430.1563 517.1156,430.1563 Q516.7719,430.1563 516.5688,429.9531 Q516.3656,429.7656 516.2563,429.25 Q516.2094,428.8906 516.0219,428.7031 Q515.6938,428.3281 515.0844,428.1094 Q514.475,427.8906 513.85,427.8906 Q513.0844,427.8906 512.4438,428.2188 Q511.8188,428.5469 511.3188,429.2969 Q510.8344,430.0469 510.8344,431.0781 L510.8344,432.1719 Q510.8344,433.4063 511.725,434.2344 Q512.6156,435.0469 514.2094,435.0469 Q515.1469,435.0469 515.8031,434.7969 Q516.1938,434.6406 516.6156,434.2031 Q516.8813,433.9375 517.0219,433.8594 Q517.1781,433.7813 517.3813,433.7813 Q517.7094,433.7813 517.9594,434.0469 Q518.225,434.2969 518.225,434.6406 Q518.225,434.9844 517.8813,435.3906 Q517.3813,435.9688 516.5844,436.2969 Q515.5063,436.75 514.2094,436.75 Q512.6938,436.75 511.4906,436.125 Q510.5063,435.625 509.8188,434.5625 Q509.1313,433.4844 509.1313,432.2031 L509.1313,431.0469 Q509.1313,429.7188 509.7406,428.5781 Q510.3656,427.4219 511.4594,426.8125 Q512.5531,426.1875 513.7875,426.1875 Q514.5219,426.1875 515.1625,426.3594 Q515.8188,426.5156 516.3656,426.875 Z "/><text fill="#000000" font-family="sans-serif" font-size="12" lengthAdjust="spacingAndGlyphs" textLength="43" x="533.4" y="435.9102">CellKey</text><line style="stroke: #A80036; stroke-width: 1.5;" x1="473.5" x2="604.5" y1="447" y2="447"/><line style="stroke: #A80036; stroke-width: 1.5;" x1="473.5" x2="604.5" y1="455" y2="455"/><ellipse cx="483.5" cy="466" fill="#84BE84" rx="3" ry="3" style="stroke: #038048; stroke-width: 1.0;"/><text fill="#000000" font-family="sans-serif" font-size="11" lengthAdjust="spacingAndGlyphs" textLength="107" x="492.5" y="470.4189">CellKey(int, int, String)</text></a><!--MD5=[40e3324e47b0fc9f719b896d939038c3]
class nz.ac.vuw.ecs.swen225.gp20.maze.cells.CellTreasure--><a href="CellTreasure.html" target="_top" title="CellTreasure.html" xlink:actuate="onRequest" xlink:href="CellTreasure.html" xlink:show="new" xlink:title="CellTreasure.html" xlink:type="simple"><rect codeLine="27" fill="#FEFECE" filter="url(#f52tlcvw6l5fg)" height="61.8359" id="nz.ac.vuw.ecs.swen225.gp20.maze.cells.CellTreasure" style="stroke: #A80036; stroke-width: 1.5;" width="125" x="312.5" y="415"/><ellipse cx="337.4" cy="431" fill="#ADD1B2" rx="11" ry="11" style="stroke: #A80036; stroke-width: 1.0;"/><path d="M340.1656,426.875 Q340.3219,426.6563 340.5094,426.5469 Q340.6969,426.4375 340.9156,426.4375 Q341.2906,426.4375 341.525,426.7031 Q341.7594,426.9531 341.7594,427.5625 L341.7594,429.0156 Q341.7594,429.625 341.525,429.8906 Q341.2906,430.1563 340.9156,430.1563 Q340.5719,430.1563 340.3688,429.9531 Q340.1656,429.7656 340.0563,429.25 Q340.0094,428.8906 339.8219,428.7031 Q339.4938,428.3281 338.8844,428.1094 Q338.275,427.8906 337.65,427.8906 Q336.8844,427.8906 336.2438,428.2188 Q335.6188,428.5469 335.1188,429.2969 Q334.6344,430.0469 334.6344,431.0781 L334.6344,432.1719 Q334.6344,433.4063 335.525,434.2344 Q336.4156,435.0469 338.0094,435.0469 Q338.9469,435.0469 339.6031,434.7969 Q339.9938,434.6406 340.4156,434.2031 Q340.6813,433.9375 340.8219,433.8594 Q340.9781,433.7813 341.1813,433.7813 Q341.5094,433.7813 341.7594,434.0469 Q342.025,434.2969 342.025,434.6406 Q342.025,434.9844 341.6813,435.3906 Q341.1813,435.9688 340.3844,436.2969 Q339.3063,436.75 338.0094,436.75 Q336.4938,436.75 335.2906,436.125 Q334.3063,435.625 333.6188,434.5625 Q332.9313,433.4844 332.9313,432.2031 L332.9313,431.0469 Q332.9313,429.7188 333.5406,428.5781 Q334.1656,427.4219 335.2594,426.8125 Q336.3531,426.1875 337.5875,426.1875 Q338.3219,426.1875 338.9625,426.3594 Q339.6188,426.5156 340.1656,426.875 Z "/><text fill="#000000" font-family="sans-serif" font-size="12" lengthAdjust="spacingAndGlyphs" textLength="71" x="353.6" y="435.9102">CellTreasure</text><line style="stroke: #A80036; stroke-width: 1.5;" x1="313.5" x2="436.5" y1="447" y2="447"/><line style="stroke: #A80036; stroke-width: 1.5;" x1="313.5" x2="436.5" y1="455" y2="455"/><ellipse cx="323.5" cy="466" fill="#84BE84" rx="3" ry="3" style="stroke: #038048; stroke-width: 1.0;"/><text fill="#000000" font-family="sans-serif" font-size="11" lengthAdjust="spacingAndGlyphs" textLength="99" x="332.5" y="470.4189">CellTreasure(int, int)</text></a><!--MD5=[3afde0065b01b9bbf3e2233dc9eab643]
class nz.ac.vuw.ecs.swen225.gp20.maze.cells.CellWall--><a href="CellWall.html" target="_top" title="CellWall.html" xlink:actuate="onRequest" xlink:href="CellWall.html" xlink:show="new" xlink:title="CellWall.html" xlink:type="simple"><rect codeLine="31" fill="#FEFECE" filter="url(#f52tlcvw6l5fg)" height="61.8359" id="nz.ac.vuw.ecs.swen225.gp20.maze.cells.CellWall" style="stroke: #A80036; stroke-width: 1.5;" width="100" x="177" y="415"/><ellipse cx="201.9" cy="431" fill="#ADD1B2" rx="11" ry="11" style="stroke: #A80036; stroke-width: 1.0;"/><path d="M204.6656,426.875 Q204.8219,426.6563 205.0094,426.5469 Q205.1969,426.4375 205.4156,426.4375 Q205.7906,426.4375 206.025,426.7031 Q206.2594,426.9531 206.2594,427.5625 L206.2594,429.0156 Q206.2594,429.625 206.025,429.8906 Q205.7906,430.1563 205.4156,430.1563 Q205.0719,430.1563 204.8688,429.9531 Q204.6656,429.7656 204.5563,429.25 Q204.5094,428.8906 204.3219,428.7031 Q203.9938,428.3281 203.3844,428.1094 Q202.775,427.8906 202.15,427.8906 Q201.3844,427.8906 200.7438,428.2188 Q200.1188,428.5469 199.6188,429.2969 Q199.1344,430.0469 199.1344,431.0781 L199.1344,432.1719 Q199.1344,433.4063 200.025,434.2344 Q200.9156,435.0469 202.5094,435.0469 Q203.4469,435.0469 204.1031,434.7969 Q204.4938,434.6406 204.9156,434.2031 Q205.1813,433.9375 205.3219,433.8594 Q205.4781,433.7813 205.6813,433.7813 Q206.0094,433.7813 206.2594,434.0469 Q206.525,434.2969 206.525,434.6406 Q206.525,434.9844 206.1813,435.3906 Q205.6813,435.9688 204.8844,436.2969 Q203.8063,436.75 202.5094,436.75 Q200.9938,436.75 199.7906,436.125 Q198.8063,435.625 198.1188,434.5625 Q197.4313,433.4844 197.4313,432.2031 L197.4313,431.0469 Q197.4313,429.7188 198.0406,428.5781 Q198.6656,427.4219 199.7594,426.8125 Q200.8531,426.1875 202.0875,426.1875 Q202.8219,426.1875 203.4625,426.3594 Q204.1188,426.5156 204.6656,426.875 Z "/><text fill="#000000" font-family="sans-serif" font-size="12" lengthAdjust="spacingAndGlyphs" textLength="46" x="218.1" y="435.9102">CellWall</text><line style="stroke: #A80036; stroke-width: 1.5;" x1="178" x2="276" y1="447" y2="447"/><line style="stroke: #A80036; stroke-width: 1.5;" x1="178" x2="276" y1="455" y2="455"/><ellipse cx="188" cy="466" fill="#84BE84" rx="3" ry="3" style="stroke: #038048; stroke-width: 1.0;"/><text fill="#000000" font-family="sans-serif" font-size="11" lengthAdjust="spacingAndGlyphs" textLength="74" x="197" y="470.4189">CellWall(int, int)</text></a><!--MD5=[6a7e4aaf7b3403fa3b1c8c5a424c0150]
class nz.ac.vuw.ecs.swen225.gp20.maze.cells.CellWater--><a href="CellWater.html" target="_top" title="CellWater.html" xlink:actuate="onRequest" xlink:href="CellWater.html" xlink:show="new" xlink:title="CellWater.html" xlink:type="simple"><rect codeLine="35" fill="#FEFECE" filter="url(#f52tlcvw6l5fg)" height="61.8359" id="nz.ac.vuw.ecs.swen225.gp20.maze.cells.CellWater" style="stroke: #A80036; stroke-width: 1.5;" width="109" x="32.5" y="415"/><ellipse cx="57.85" cy="431" fill="#ADD1B2" rx="11" ry="11" style="stroke: #A80036; stroke-width: 1.0;"/><path d="M60.6156,426.875 Q60.7719,426.6563 60.9594,426.5469 Q61.1469,426.4375 61.3656,426.4375 Q61.7406,426.4375 61.975,426.7031 Q62.2094,426.9531 62.2094,427.5625 L62.2094,429.0156 Q62.2094,429.625 61.975,429.8906 Q61.7406,430.1563 61.3656,430.1563 Q61.0219,430.1563 60.8188,429.9531 Q60.6156,429.7656 60.5063,429.25 Q60.4594,428.8906 60.2719,428.7031 Q59.9438,428.3281 59.3344,428.1094 Q58.725,427.8906 58.1,427.8906 Q57.3344,427.8906 56.6938,428.2188 Q56.0688,428.5469 55.5688,429.2969 Q55.0844,430.0469 55.0844,431.0781 L55.0844,432.1719 Q55.0844,433.4063 55.975,434.2344 Q56.8656,435.0469 58.4594,435.0469 Q59.3969,435.0469 60.0531,434.7969 Q60.4438,434.6406 60.8656,434.2031 Q61.1313,433.9375 61.2719,433.8594 Q61.4281,433.7813 61.6313,433.7813 Q61.9594,433.7813 62.2094,434.0469 Q62.475,434.2969 62.475,434.6406 Q62.475,434.9844 62.1313,435.3906 Q61.6313,435.9688 60.8344,436.2969 Q59.7563,436.75 58.4594,436.75 Q56.9438,436.75 55.7406,436.125 Q54.7563,435.625 54.0688,434.5625 Q53.3813,433.4844 53.3813,432.2031 L53.3813,431.0469 Q53.3813,429.7188 53.9906,428.5781 Q54.6156,427.4219 55.7094,426.8125 Q56.8031,426.1875 58.0375,426.1875 Q58.7719,426.1875 59.4125,426.3594 Q60.0688,426.5156 60.6156,426.875 Z "/><text fill="#000000" font-family="sans-serif" font-size="12" lengthAdjust="spacingAndGlyphs" textLength="54" x="74.15" y="435.9102">CellWater</text><line style="stroke: #A80036; stroke-width: 1.5;" x1="33.5" x2="140.5" y1="447" y2="447"/><line style="stroke: #A80036; stroke-width: 1.5;" x1="33.5" x2="140.5" y1="455" y2="455"/><ellipse cx="43.5" cy="466" fill="#84BE84" rx="3" ry="3" style="stroke: #038048; stroke-width: 1.0;"/><text fill="#000000" font-family="sans-serif" font-size="11" lengthAdjust="spacingAndGlyphs" textLength="83" x="52.5" y="470.4189">CellWater(int, int)</text></a><!--MD5=[ed7254db4e69ecaa847f735c03ac8863]
class nz.ac.vuw.ecs.swen225.gp20.maze.Cell--><a href="..\Cell.html" target="_top" title="..\Cell.html" xlink:actuate="onRequest" xlink:href="..\Cell.html" xlink:show="new" xlink:title="..\Cell.html" xlink:type="simple"><rect codeLine="51" fill="#FEFECE" filter="url(#f52tlcvw6l5fg)" height="297.0469" id="nz.ac.vuw.ecs.swen225.gp20.maze.Cell" style="stroke: #A80036; stroke-width: 1.5;" width="154" x="630" y="42"/><ellipse cx="691.75" cy="58" fill="#ADD1B2" rx="11" ry="11" style="stroke: #A80036; stroke-width: 1.0;"/><path d="M694.5156,53.875 Q694.6719,53.6563 694.8594,53.5469 Q695.0469,53.4375 695.2656,53.4375 Q695.6406,53.4375 695.875,53.7031 Q696.1094,53.9531 696.1094,54.5625 L696.1094,56.0156 Q696.1094,56.625 695.875,56.8906 Q695.6406,57.1563 695.2656,57.1563 Q694.9219,57.1563 694.7188,56.9531 Q694.5156,56.7656 694.4063,56.25 Q694.3594,55.8906 694.1719,55.7031 Q693.8438,55.3281 693.2344,55.1094 Q692.625,54.8906 692,54.8906 Q691.2344,54.8906 690.5938,55.2188 Q689.9688,55.5469 689.4688,56.2969 Q688.9844,57.0469 688.9844,58.0781 L688.9844,59.1719 Q688.9844,60.4063 689.875,61.2344 Q690.7656,62.0469 692.3594,62.0469 Q693.2969,62.0469 693.9531,61.7969 Q694.3438,61.6406 694.7656,61.2031 Q695.0313,60.9375 695.1719,60.8594 Q695.3281,60.7813 695.5313,60.7813 Q695.8594,60.7813 696.1094,61.0469 Q696.375,61.2969 696.375,61.6406 Q696.375,61.9844 696.0313,62.3906 Q695.5313,62.9688 694.7344,63.2969 Q693.6563,63.75 692.3594,63.75 Q690.8438,63.75 689.6406,63.125 Q688.6563,62.625 687.9688,61.5625 Q687.2813,60.4844 687.2813,59.2031 L687.2813,58.0469 Q687.2813,56.7188 687.8906,55.5781 Q688.5156,54.4219 689.6094,53.8125 Q690.7031,53.1875 691.9375,53.1875 Q692.6719,53.1875 693.3125,53.3594 Q693.9688,53.5156 694.5156,53.875 Z "/><text fill="#000000" font-family="sans-serif" font-size="12" lengthAdjust="spacingAndGlyphs" textLength="22" x="712.25" y="62.9102">Cell</text><line style="stroke: #A80036; stroke-width: 1.5;" x1="631" x2="783" y1="74" y2="74"/><polygon fill="none" points="641,80,645,84,641,88,637,84" style="stroke: #B38D22; stroke-width: 1.0;"/><text fill="#000000" font-family="sans-serif" font-size="11" lengthAdjust="spacingAndGlyphs" textLength="112" x="650" y="89.4189">animationObject: Sprite</text><polygon fill="none" points="641,93.8359,645,97.8359,641,101.8359,637,97.8359" style="stroke: #B38D22; stroke-width: 1.0;"/><text fill="#000000" font-family="sans-serif" font-size="11" lengthAdjust="spacingAndGlyphs" textLength="61" x="650" y="103.2549">name: String</text><polygon fill="none" points="641,107.6719,645,111.6719,641,115.6719,637,111.6719" style="stroke: #B38D22; stroke-width: 1.0;"/><text fill="#000000" font-family="sans-serif" font-size="11" lengthAdjust="spacingAndGlyphs" textLength="23" x="650" y="117.0908">x: int</text><polygon fill="none" points="641,121.5078,645,125.5078,641,129.5078,637,125.5078" style="stroke: #B38D22; stroke-width: 1.0;"/><text fill="#000000" font-family="sans-serif" font-size="11" lengthAdjust="spacingAndGlyphs" textLength="23" x="650" y="130.9268">y: int</text><polygon fill="none" points="641,135.3438,645,139.3438,641,143.3438,637,139.3438" style="stroke: #B38D22; stroke-width: 1.0;"/><text fill="#000000" font-family="sans-serif" font-size="11" lengthAdjust="spacingAndGlyphs" textLength="64" x="650" y="144.7627">metaData: int</text><polygon fill="none" points="641,149.1797,645,153.1797,641,157.1797,637,153.1797" style="stroke: #B38D22; stroke-width: 1.0;"/><text fill="#000000" font-family="sans-serif" font-size="11" lengthAdjust="spacingAndGlyphs" textLength="88" x="650" y="158.5986">animated: boolean</text><polygon fill="none" points="641,163.0156,645,167.0156,641,171.0156,637,167.0156" style="stroke: #B38D22; stroke-width: 1.0;"/><text fill="#000000" font-family="sans-serif" font-size="11" lengthAdjust="spacingAndGlyphs" textLength="128" x="650" y="172.4346">numberOfFramesTotal: int</text><polygon fill="none" points="641,176.8516,645,180.8516,641,184.8516,637,180.8516" style="stroke: #B38D22; stroke-width: 1.0;"/><text fill="#000000" font-family="sans-serif" font-size="11" lengthAdjust="spacingAndGlyphs" textLength="117" x="650" y="186.2705">timeBetweenFrames: int</text><polygon fill="none" points="641,190.6875,645,194.6875,641,198.6875,637,194.6875" style="stroke: #B38D22; stroke-width: 1.0;"/><text fill="#000000" font-family="sans-serif" font-size="11" lengthAdjust="spacingAndGlyphs" textLength="54" x="650" y="200.1064">counter: int</text><polygon fill="none" points="641,204.5234,645,208.5234,641,212.5234,637,208.5234" style="stroke: #B38D22; stroke-width: 1.0;"/><text fill="#000000" font-family="sans-serif" font-size="11" lengthAdjust="spacingAndGlyphs" textLength="75" x="650" y="213.9424">isSolid: boolean</text><polygon fill="none" points="641,218.3594,645,222.3594,641,226.3594,637,222.3594" style="stroke: #B38D22; stroke-width: 1.0;"/><text fill="#000000" font-family="sans-serif" font-size="11" lengthAdjust="spacingAndGlyphs" textLength="99" x="650" y="227.7783">isOpenable: boolean</text><polygon fill="none" points="641,232.1953,645,236.1953,641,240.1953,637,236.1953" style="stroke: #B38D22; stroke-width: 1.0;"/><text fill="#000000" font-family="sans-serif" font-size="11" lengthAdjust="spacingAndGlyphs" textLength="95" x="650" y="241.6143">hasPickup: boolean</text><polygon fill="none" points="641,246.0313,645,250.0313,641,254.0313,637,250.0313" style="stroke: #B38D22; stroke-width: 1.0;"/><text fill="#000000" font-family="sans-serif" font-size="11" lengthAdjust="spacingAndGlyphs" textLength="97" x="650" y="255.4502">isTreasure: boolean</text><polygon fill="none" points="641,259.8672,645,263.8672,641,267.8672,637,263.8672" style="stroke: #B38D22; stroke-width: 1.0;"/><text fill="#000000" font-family="sans-serif" font-size="11" lengthAdjust="spacingAndGlyphs" textLength="93" x="650" y="269.2861">killsPlayer: boolean</text><polygon fill="none" points="641,273.7031,645,277.7031,641,281.7031,637,277.7031" style="stroke: #B38D22; stroke-width: 1.0;"/><text fill="#000000" font-family="sans-serif" font-size="11" lengthAdjust="spacingAndGlyphs" textLength="95" x="650" y="283.1221">pickupName: String</text><polygon fill="none" points="641,287.5391,645,291.5391,641,295.5391,637,291.5391" style="stroke: #B38D22; stroke-width: 1.0;"/><text fill="#000000" font-family="sans-serif" font-size="11" lengthAdjust="spacingAndGlyphs" textLength="58" x="650" y="296.958">color: String</text><polygon fill="none" points="641,301.375,645,305.375,641,309.375,637,305.375" style="stroke: #B38D22; stroke-width: 1.0;"/><text fill="#000000" font-family="sans-serif" font-size="11" lengthAdjust="spacingAndGlyphs" textLength="96" x="650" y="310.7939">infoMessage: String</text><polygon fill="none" points="641,315.2109,645,319.2109,641,323.2109,637,319.2109" style="stroke: #B38D22; stroke-width: 1.0;"/><text fill="#000000" font-family="sans-serif" font-size="11" lengthAdjust="spacingAndGlyphs" textLength="103" x="650" y="324.6299">protectiveItem: String</text><line style="stroke: #A80036; stroke-width: 1.5;" x1="631" x2="783" y1="331.0469" y2="331.0469"/></a><!--MD5=[bb0b4966157ad54798311083344a61c8]
reverse link nz.ac.vuw.ecs.swen225.gp20.maze.Cell to nz.ac.vuw.ecs.swen225.gp20.maze.cells.CellDoor--><path codeLine="39" d="M803.81,212.81 C912.83,239.42 1092.9,291.36 1232,371 C1252.68,382.84 1273.03,400.02 1288.73,414.85 " fill="none" id="nz.ac.vuw.ecs.swen225.gp20.maze.Cell-backto-nz.ac.vuw.ecs.swen225.gp20.maze.cells.CellDoor" style="stroke: #A80036; stroke-width: 1.0;"/><polygon fill="none" points="802.13,219.6,784.31,208.13,805.39,205.99,802.13,219.6" style="stroke: #A80036; stroke-width: 1.0;"/><!--MD5=[d4333367141cef71eb566cbad010a162]
reverse link nz.ac.vuw.ecs.swen225.gp20.maze.Cell to nz.ac.vuw.ecs.swen225.gp20.maze.cells.CellExit--><path codeLine="40" d="M803.22,222.85 C886.45,252.82 1007.47,303.43 1099,371 C1115.62,383.27 1131.16,400.3 1142.98,414.92 " fill="none" id="nz.ac.vuw.ecs.swen225.gp20.maze.Cell-backto-nz.ac.vuw.ecs.swen225.gp20.maze.cells.CellExit" style="stroke: #A80036; stroke-width: 1.0;"/><polygon fill="none" points="800.75,229.4,784.23,216.14,805.42,216.21,800.75,229.4" style="stroke: #A80036; stroke-width: 1.0;"/><!--MD5=[0dd748c69f15f638ac03888633b3f340]
reverse link nz.ac.vuw.ecs.swen225.gp20.maze.Cell to nz.ac.vuw.ecs.swen225.gp20.maze.cells.CellExitLocked--><path codeLine="41" d="M799.91,265.38 C839.91,297.51 887.03,335.78 929,371 C945.94,385.21 964.48,401.3 979.92,414.83 " fill="none" id="nz.ac.vuw.ecs.swen225.gp20.maze.Cell-backto-nz.ac.vuw.ecs.swen225.gp20.maze.cells.CellExitLocked" style="stroke: #A80036; stroke-width: 1.0;"/><polygon fill="none" points="795.33,270.68,784.1,252.71,804.09,259.76,795.33,270.68" style="stroke: #A80036; stroke-width: 1.0;"/><!--MD5=[d7f2fb601bbf8d7ff46f3dd243e9695b]
reverse link nz.ac.vuw.ecs.swen225.gp20.maze.Cell to nz.ac.vuw.ecs.swen225.gp20.maze.cells.CellFree--><path codeLine="42" d="M794.74,336.87 C812.57,366.41 829.57,394.57 841.74,414.75 " fill="none" id="nz.ac.vuw.ecs.swen225.gp20.maze.Cell-backto-nz.ac.vuw.ecs.swen225.gp20.maze.cells.CellFree" style="stroke: #A80036; stroke-width: 1.0;"/><polygon fill="none" points="788.51,340.1,784.17,319.36,800.5,332.87,788.51,340.1" style="stroke: #A80036; stroke-width: 1.0;"/><!--MD5=[0c6bc99011c4034d219788a0e1459238]
reverse link nz.ac.vuw.ecs.swen225.gp20.maze.Cell to nz.ac.vuw.ecs.swen225.gp20.maze.cells.CellInfo--><path codeLine="43" d="M707,359.5 C707,380.54 707,399.88 707,414.83 " fill="none" id="nz.ac.vuw.ecs.swen225.gp20.maze.Cell-backto-nz.ac.vuw.ecs.swen225.gp20.maze.cells.CellInfo" style="stroke: #A80036; stroke-width: 1.0;"/><polygon fill="none" points="700,359.33,707,339.33,714,359.33,700,359.33" style="stroke: #A80036; stroke-width: 1.0;"/><!--MD5=[4397b5fccd840ab8ad9f938fed9e8857]
reverse link nz.ac.vuw.ecs.swen225.gp20.maze.Cell to nz.ac.vuw.ecs.swen225.gp20.maze.cells.CellKey--><path codeLine="44" d="M618.83,324.54 C596.33,358.49 574.23,391.85 559,414.82 " fill="none" id="nz.ac.vuw.ecs.swen225.gp20.maze.Cell-backto-nz.ac.vuw.ecs.swen225.gp20.maze.cells.CellKey" style="stroke: #A80036; stroke-width: 1.0;"/><polygon fill="none" points="613,320.67,629.88,307.86,624.67,328.4,613,320.67" style="stroke: #A80036; stroke-width: 1.0;"/><!--MD5=[e0fa59d232bfbf6f1528baf9a7721c96]
reverse link nz.ac.vuw.ecs.swen225.gp20.maze.Cell to nz.ac.vuw.ecs.swen225.gp20.maze.cells.CellTreasure--><path codeLine="45" d="M613.26,254.04 C564.91,287.35 505.61,329.85 455,371 C438.12,384.73 420.26,401.05 405.71,414.87 " fill="none" id="nz.ac.vuw.ecs.swen225.gp20.maze.Cell-backto-nz.ac.vuw.ecs.swen225.gp20.maze.cells.CellTreasure" style="stroke: #A80036; stroke-width: 1.0;"/><polygon fill="none" points="609.42,248.19,629.88,242.66,617.33,259.74,609.42,248.19" style="stroke: #A80036; stroke-width: 1.0;"/><!--MD5=[273514c7f077abd6c9f1aa63e3577b16]
reverse link nz.ac.vuw.ecs.swen225.gp20.maze.Cell to nz.ac.vuw.ecs.swen225.gp20.maze.cells.CellWall--><path codeLine="46" d="M610.85,220.61 C523.39,249.95 393.35,300.9 295,371 C277.95,383.15 261.94,400.17 249.75,414.83 " fill="none" id="nz.ac.vuw.ecs.swen225.gp20.maze.Cell-backto-nz.ac.vuw.ecs.swen225.gp20.maze.cells.CellWall" style="stroke: #A80036; stroke-width: 1.0;"/><polygon fill="none" points="608.74,213.94,629.93,214.33,613.12,227.23,608.74,213.94" style="stroke: #A80036; stroke-width: 1.0;"/><!--MD5=[7427a0d7c01248094e55c5bb111c7836]
reverse link nz.ac.vuw.ecs.swen225.gp20.maze.Cell to nz.ac.vuw.ecs.swen225.gp20.maze.cells.CellWater--><path codeLine="47" d="M609.88,208.84 C495.67,232.39 303.47,282.12 160,371 C141.28,382.59 123.83,399.94 110.68,414.93 " fill="none" id="nz.ac.vuw.ecs.swen225.gp20.maze.Cell-backto-nz.ac.vuw.ecs.swen225.gp20.maze.cells.CellWater" style="stroke: #A80036; stroke-width: 1.0;"/><polygon fill="none" points="608.6,201.96,629.59,204.88,611.36,215.68,608.6,201.96" style="stroke: #A80036; stroke-width: 1.0;"/><text fill="#888888" font-family="sans-serif" font-size="10" lengthAdjust="spacingAndGlyphs" textLength="185" x="611" y="509.3809">UMLDoclet 2.0.12, PlantUML 1.2020.16</text><!--MD5=[94c5a17ddf0530fb0f58869b7bfa1fe0]
@startuml
    namespace nz.ac.vuw.ecs.swen225.gp20.maze.cells {

        class CellDoor [[CellDoor.html]] {
            +CellDoor(int, int, String)
        }

        class CellExit [[CellExit.html]] {
            +CellExit(int, int)
        }

        class CellExitLocked [[CellExitLocked.html]] {
            +CellExitLocked(int, int)
        }

        class CellFree [[CellFree.html]] {
            +CellFree(int, int)
        }

        class CellInfo [[CellInfo.html]] {
            +CellInfo(int, int, String)
        }

        class CellKey [[CellKey.html]] {
            +CellKey(int, int, String)
        }

        class CellTreasure [[CellTreasure.html]] {
            +CellTreasure(int, int)
        }

        class CellWall [[CellWall.html]] {
            +CellWall(int, int)
        }

        class CellWater [[CellWater.html]] {
            +CellWater(int, int)
        }

        nz.ac.vuw.ecs.swen225.gp20.maze.Cell <|- - CellDoor
        nz.ac.vuw.ecs.swen225.gp20.maze.Cell <|- - CellExit
        nz.ac.vuw.ecs.swen225.gp20.maze.Cell <|- - CellExitLocked
        nz.ac.vuw.ecs.swen225.gp20.maze.Cell <|- - CellFree
        nz.ac.vuw.ecs.swen225.gp20.maze.Cell <|- - CellInfo
        nz.ac.vuw.ecs.swen225.gp20.maze.Cell <|- - CellKey
        nz.ac.vuw.ecs.swen225.gp20.maze.Cell <|- - CellTreasure
        nz.ac.vuw.ecs.swen225.gp20.maze.Cell <|- - CellWall
        nz.ac.vuw.ecs.swen225.gp20.maze.Cell <|- - CellWater
    }

    namespace nz.ac.vuw.ecs.swen225.gp20.maze {
        class Cell [[..\Cell.html]] {
            #animationObject: Sprite
            #name: String
            #x: int
            #y: int
            #metaData: int
            #animated: boolean
            #numberOfFramesTotal: int
            #timeBetweenFrames: int
            #counter: int
            #isSolid: boolean
            #isOpenable: boolean
            #hasPickup: boolean
            #isTreasure: boolean
            #killsPlayer: boolean
            #pickupName: String
            #color: String
            #infoMessage: String
            #protectiveItem: String
        }
    }

    center footer UMLDoclet 2.0.12, PlantUML 1.2020.16
@enduml

PlantUML version 1.2020.16(Mon Aug 24 08:20:43 NZST 2020)
(APACHE source distribution)
Java Runtime: Java(TM) SE Runtime Environment
JVM: Java HotSpot(TM) 64-Bit Server VM
Default Encoding: Cp1252
Language: en
Country: NZ
--></g></svg>