<?xml version="1.0" encoding="UTF-8" standalone="no"?><svg xmlns="http://www.w3.org/2000/svg" xmlns:xlink="http://www.w3.org/1999/xlink" contentScriptType="application/ecmascript" contentStyleType="text/css" height="356px" preserveAspectRatio="none" style="width:315px;height:356px;" version="1.1" viewBox="0 0 315 356" width="315px" zoomAndPan="magnify"><defs><filter height="300%" id="fxrnu591a8w75" width="300%" x="-1" y="-1"><feGaussianBlur result="blurOut" stdDeviation="2.0"/><feColorMatrix in="blurOut" result="blurOut2" type="matrix" values="0 0 0 0 0 0 0 0 0 0 0 0 0 0 0 0 0 0 .4 0"/><feOffset dx="4.0" dy="4.0" in="blurOut2" result="blurOut3"/><feBlend in="SourceGraphic" in2="blurOut3" mode="normal"/></filter></defs><g><!--MD5=[55497ca6df5e1e80d97c2ba5f282a5c4]
cluster nz.ac.vuw.ecs.swen225.gp20.recnplay--><polygon fill="#FFFFFF" filter="url(#fxrnu591a8w75)" points="16,6,283,6,290,29.6094,293,29.6094,293,327,16,327,16,6" style="stroke: #000000; stroke-width: 1.5;"/><line style="stroke: #000000; stroke-width: 1.5;" x1="16" x2="290" y1="29.6094" y2="29.6094"/><text fill="#000000" font-family="sans-serif" font-size="14" font-weight="bold" lengthAdjust="spacingAndGlyphs" textLength="261" x="20" y="22.5332">nz.ac.vuw.ecs.swen225.gp20.recnplay</text><!--MD5=[edf7b49df920cefbcb929cbf9d37eb22]
class nz.ac.vuw.ecs.swen225.gp20.recnplay.RecordAndPlay--><a href="RecordAndPlay.html" target="_top" title="RecordAndPlay.html" xlink:actuate="onRequest" xlink:href="RecordAndPlay.html" xlink:show="new" xlink:title="RecordAndPlay.html" xlink:type="simple"><rect codeLine="3" fill="#FEFECE" filter="url(#fxrnu591a8w75)" height="269.375" id="nz.ac.vuw.ecs.swen225.gp20.recnplay.RecordAndPlay" style="stroke: #A80036; stroke-width: 1.5;" width="215" x="46.5" y="42"/><ellipse cx="106.75" cy="58" fill="#ADD1B2" rx="11" ry="11" style="stroke: #A80036; stroke-width: 1.0;"/><path d="M109.5156,53.875 Q109.6719,53.6563 109.8594,53.5469 Q110.0469,53.4375 110.2656,53.4375 Q110.6406,53.4375 110.875,53.7031 Q111.1094,53.9531 111.1094,54.5625 L111.1094,56.0156 Q111.1094,56.625 110.875,56.8906 Q110.6406,57.1563 110.2656,57.1563 Q109.9219,57.1563 109.7188,56.9531 Q109.5156,56.7656 109.4063,56.25 Q109.3594,55.8906 109.1719,55.7031 Q108.8438,55.3281 108.2344,55.1094 Q107.625,54.8906 107,54.8906 Q106.2344,54.8906 105.5938,55.2188 Q104.9688,55.5469 104.4688,56.2969 Q103.9844,57.0469 103.9844,58.0781 L103.9844,59.1719 Q103.9844,60.4063 104.875,61.2344 Q105.7656,62.0469 107.3594,62.0469 Q108.2969,62.0469 108.9531,61.7969 Q109.3438,61.6406 109.7656,61.2031 Q110.0313,60.9375 110.1719,60.8594 Q110.3281,60.7813 110.5313,60.7813 Q110.8594,60.7813 111.1094,61.0469 Q111.375,61.2969 111.375,61.6406 Q111.375,61.9844 111.0313,62.3906 Q110.5313,62.9688 109.7344,63.2969 Q108.6563,63.75 107.3594,63.75 Q105.8438,63.75 104.6406,63.125 Q103.6563,62.625 102.9688,61.5625 Q102.2813,60.4844 102.2813,59.2031 L102.2813,58.0469 Q102.2813,56.7188 102.8906,55.5781 Q103.5156,54.4219 104.6094,53.8125 Q105.7031,53.1875 106.9375,53.1875 Q107.6719,53.1875 108.3125,53.3594 Q108.9688,53.5156 109.5156,53.875 Z "/><text fill="#000000" font-family="sans-serif" font-size="12" lengthAdjust="spacingAndGlyphs" textLength="86" x="127.25" y="62.9102">RecordAndPlay</text><line style="stroke: #A80036; stroke-width: 1.5;" x1="47.5" x2="260.5" y1="74" y2="74"/><ellipse cx="57.5" cy="85" fill="none" rx="3" ry="3" style="stroke: #038048; stroke-width: 1.0;"/><text fill="#000000" font-family="sans-serif" font-size="11" lengthAdjust="spacingAndGlyphs" text-decoration="underline" textLength="78" x="66.5" y="89.4189">resources: Path</text><ellipse cx="57.5" cy="98.8359" fill="none" rx="3" ry="3" style="stroke: #038048; stroke-width: 1.0;"/><text fill="#000000" font-family="sans-serif" font-size="11" lengthAdjust="spacingAndGlyphs" text-decoration="underline" textLength="80" x="66.5" y="103.2549">recordings: Path</text><ellipse cx="57.5" cy="112.6719" fill="none" rx="3" ry="3" style="stroke: #038048; stroke-width: 1.0;"/><text fill="#000000" font-family="sans-serif" font-size="11" lengthAdjust="spacingAndGlyphs" text-decoration="underline" textLength="72" x="66.5" y="117.0908">thread: Thread</text><line style="stroke: #A80036; stroke-width: 1.5;" x1="47.5" x2="260.5" y1="123.5078" y2="123.5078"/><ellipse cx="57.5" cy="134.5078" fill="#84BE84" rx="3" ry="3" style="stroke: #038048; stroke-width: 1.0;"/><text fill="#000000" font-family="sans-serif" font-size="11" lengthAdjust="spacingAndGlyphs" text-decoration="underline" textLength="189" x="66.5" y="138.9268">startNewRecording(Maze, String): void</text><ellipse cx="57.5" cy="148.3438" fill="#84BE84" rx="3" ry="3" style="stroke: #038048; stroke-width: 1.0;"/><text fill="#000000" font-family="sans-serif" font-size="11" lengthAdjust="spacingAndGlyphs" text-decoration="underline" textLength="81" x="66.5" y="152.7627">save(Main): void</text><ellipse cx="57.5" cy="162.1797" fill="#84BE84" rx="3" ry="3" style="stroke: #038048; stroke-width: 1.0;"/><text fill="#000000" font-family="sans-serif" font-size="11" lengthAdjust="spacingAndGlyphs" text-decoration="underline" textLength="111" x="66.5" y="166.5986">load(String, Main): void</text><ellipse cx="57.5" cy="176.0156" fill="#84BE84" rx="3" ry="3" style="stroke: #038048; stroke-width: 1.0;"/><text fill="#000000" font-family="sans-serif" font-size="11" lengthAdjust="spacingAndGlyphs" text-decoration="underline" textLength="105" x="66.5" y="180.4346">stopRecording(): void</text><ellipse cx="57.5" cy="189.8516" fill="#84BE84" rx="3" ry="3" style="stroke: #038048; stroke-width: 1.0;"/><text fill="#000000" font-family="sans-serif" font-size="11" lengthAdjust="spacingAndGlyphs" text-decoration="underline" textLength="112" x="66.5" y="194.2705">playByStep(Main): void</text><ellipse cx="57.5" cy="203.6875" fill="#84BE84" rx="3" ry="3" style="stroke: #038048; stroke-width: 1.0;"/><text fill="#000000" font-family="sans-serif" font-size="11" lengthAdjust="spacingAndGlyphs" text-decoration="underline" textLength="107" x="66.5" y="208.1064">runReplay(Main): void</text><ellipse cx="57.5" cy="217.5234" fill="#84BE84" rx="3" ry="3" style="stroke: #038048; stroke-width: 1.0;"/><text fill="#000000" font-family="sans-serif" font-size="11" lengthAdjust="spacingAndGlyphs" text-decoration="underline" textLength="99" x="66.5" y="221.9424">getThread(): Thread</text><ellipse cx="57.5" cy="231.3594" fill="#84BE84" rx="3" ry="3" style="stroke: #038048; stroke-width: 1.0;"/><text fill="#000000" font-family="sans-serif" font-size="11" lengthAdjust="spacingAndGlyphs" text-decoration="underline" textLength="146" x="66.5" y="235.7783">getMoves(): ArrayList&lt;String&gt;</text><ellipse cx="57.5" cy="245.1953" fill="#84BE84" rx="3" ry="3" style="stroke: #038048; stroke-width: 1.0;"/><text fill="#000000" font-family="sans-serif" font-size="11" lengthAdjust="spacingAndGlyphs" text-decoration="underline" textLength="151" x="66.5" y="249.6143">getActors(): ArrayList&lt;Integer&gt;</text><ellipse cx="57.5" cy="259.0313" fill="#84BE84" rx="3" ry="3" style="stroke: #038048; stroke-width: 1.0;"/><text fill="#000000" font-family="sans-serif" font-size="11" lengthAdjust="spacingAndGlyphs" text-decoration="underline" textLength="145" x="66.5" y="263.4502">setPlaybackSpeed(long): void</text><ellipse cx="57.5" cy="272.8672" fill="#84BE84" rx="3" ry="3" style="stroke: #038048; stroke-width: 1.0;"/><text fill="#000000" font-family="sans-serif" font-size="11" lengthAdjust="spacingAndGlyphs" text-decoration="underline" textLength="116" x="66.5" y="277.2861">getIsRunning(): boolean</text><ellipse cx="57.5" cy="286.7031" fill="#84BE84" rx="3" ry="3" style="stroke: #038048; stroke-width: 1.0;"/><text fill="#000000" font-family="sans-serif" font-size="11" lengthAdjust="spacingAndGlyphs" text-decoration="underline" textLength="131" x="66.5" y="291.1221">addMovement(String): void</text><ellipse cx="57.5" cy="300.5391" fill="#84BE84" rx="3" ry="3" style="stroke: #038048; stroke-width: 1.0;"/><text fill="#000000" font-family="sans-serif" font-size="11" lengthAdjust="spacingAndGlyphs" text-decoration="underline" textLength="91" x="66.5" y="304.958">main(String[]): void</text></a><text fill="#888888" font-family="sans-serif" font-size="10" lengthAdjust="spacingAndGlyphs" textLength="185" x="56" y="343.3809">UMLDoclet 2.0.12, PlantUML 1.2020.16</text><!--MD5=[a5ae9ca6ecc77651c9d773769ffaf040]
@startuml
    namespace nz.ac.vuw.ecs.swen225.gp20.recnplay {

        class RecordAndPlay [[RecordAndPlay.html]] {
            {static} +resources: Path
            {static} +recordings: Path
            {static} +thread: Thread
            {static} +startNewRecording(Maze, String): void
            {static} +save(Main): void
            {static} +load(String, Main): void
            {static} +stopRecording(): void
            {static} +playByStep(Main): void
            {static} +runReplay(Main): void
            {static} +getThread(): Thread
            {static} +getMoves(): ArrayList<String>
            {static} +getActors(): ArrayList<Integer>
            {static} +setPlaybackSpeed(long): void
            {static} +getIsRunning(): boolean
            {static} +addMovement(String): void
            {static} +main(String[]): void
        }

    }

    center footer UMLDoclet 2.0.12, PlantUML 1.2020.16
@enduml

PlantUML version 1.2020.16(Mon Aug 24 08:20:43 NZST 2020)
(APACHE source distribution)
Java Runtime: Java(TM) SE Runtime Environment
JVM: Java HotSpot(TM) 64-Bit Server VM
Default Encoding: Cp1252
Language: en
Country: NZ
--></g></svg>