<?xml version="1.0" encoding="UTF-8" standalone="no"?><svg xmlns="http://www.w3.org/2000/svg" xmlns:xlink="http://www.w3.org/1999/xlink" contentScriptType="application/ecmascript" contentStyleType="text/css" height="315px" preserveAspectRatio="none" style="width:241px;height:315px;" version="1.1" viewBox="0 0 241 315" width="241px" zoomAndPan="magnify"><defs><filter height="300%" id="f15zdcivmzk1op" width="300%" x="-1" y="-1"><feGaussianBlur result="blurOut" stdDeviation="2.0"/><feColorMatrix in="blurOut" result="blurOut2" type="matrix" values="0 0 0 0 0 0 0 0 0 0 0 0 0 0 0 0 0 0 .4 0"/><feOffset dx="4.0" dy="4.0" in="blurOut2" result="blurOut3"/><feBlend in="SourceGraphic" in2="blurOut3" mode="normal"/></filter></defs><g><!--MD5=[edf7b49df920cefbcb929cbf9d37eb22]
class nz.ac.vuw.ecs.swen225.gp20.recnplay.RecordAndPlay--><a href="RecordAndPlay.html" target="_top" title="RecordAndPlay.html" xlink:actuate="onRequest" xlink:href="RecordAndPlay.html" xlink:show="new" xlink:title="RecordAndPlay.html" xlink:type="simple"><rect codeLine="5" fill="#FEFECE" filter="url(#f15zdcivmzk1op)" height="277.5625" id="nz.ac.vuw.ecs.swen225.gp20.recnplay.RecordAndPlay" style="stroke: #A80036; stroke-width: 1.5;" width="215" x="7" y="7"/><ellipse cx="23.8" cy="27.0938" fill="#ADD1B2" rx="11" ry="11" style="stroke: #A80036; stroke-width: 1.0;"/><path d="M26.5656,22.9688 Q26.7219,22.75 26.9094,22.6406 Q27.0969,22.5313 27.3156,22.5313 Q27.6906,22.5313 27.925,22.7969 Q28.1594,23.0469 28.1594,23.6563 L28.1594,25.1094 Q28.1594,25.7188 27.925,25.9844 Q27.6906,26.25 27.3156,26.25 Q26.9719,26.25 26.7688,26.0469 Q26.5656,25.8594 26.4563,25.3438 Q26.4094,24.9844 26.2219,24.7969 Q25.8938,24.4219 25.2844,24.2031 Q24.675,23.9844 24.05,23.9844 Q23.2844,23.9844 22.6438,24.3125 Q22.0188,24.6406 21.5188,25.3906 Q21.0344,26.1406 21.0344,27.1719 L21.0344,28.2656 Q21.0344,29.5 21.925,30.3281 Q22.8156,31.1406 24.4094,31.1406 Q25.3469,31.1406 26.0031,30.8906 Q26.3938,30.7344 26.8156,30.2969 Q27.0813,30.0313 27.2219,29.9531 Q27.3781,29.875 27.5813,29.875 Q27.9094,29.875 28.1594,30.1406 Q28.425,30.3906 28.425,30.7344 Q28.425,31.0781 28.0813,31.4844 Q27.5813,32.0625 26.7844,32.3906 Q25.7063,32.8438 24.4094,32.8438 Q22.8938,32.8438 21.6906,32.2188 Q20.7063,31.7188 20.0188,30.6563 Q19.3313,29.5781 19.3313,28.2969 L19.3313,27.1406 Q19.3313,25.8125 19.9406,24.6719 Q20.5656,23.5156 21.6594,22.9063 Q22.7531,22.2813 23.9875,22.2813 Q24.7219,22.2813 25.3625,22.4531 Q26.0188,22.6094 26.5656,22.9688 Z "/><text fill="#000000" font-family="sans-serif" font-size="14" lengthAdjust="spacingAndGlyphs" textLength="98" x="78.7" y="26.5332">RecordAndPlay</text><text fill="#000000" font-family="sans-serif" font-size="10" lengthAdjust="spacingAndGlyphs" textLength="179" x="38.2" y="39.9902">nz.ac.vuw.ecs.swen225.gp20.recnplay</text><line style="stroke: #A80036; stroke-width: 1.5;" x1="8" x2="221" y1="47.1875" y2="47.1875"/><ellipse cx="18" cy="58.1875" fill="none" rx="3" ry="3" style="stroke: #038048; stroke-width: 1.0;"/><text fill="#000000" font-family="sans-serif" font-size="11" lengthAdjust="spacingAndGlyphs" text-decoration="underline" textLength="78" x="27" y="62.6064">resources: Path</text><ellipse cx="18" cy="72.0234" fill="none" rx="3" ry="3" style="stroke: #038048; stroke-width: 1.0;"/><text fill="#000000" font-family="sans-serif" font-size="11" lengthAdjust="spacingAndGlyphs" text-decoration="underline" textLength="80" x="27" y="76.4424">recordings: Path</text><ellipse cx="18" cy="85.8594" fill="none" rx="3" ry="3" style="stroke: #038048; stroke-width: 1.0;"/><text fill="#000000" font-family="sans-serif" font-size="11" lengthAdjust="spacingAndGlyphs" text-decoration="underline" textLength="72" x="27" y="90.2783">thread: Thread</text><line style="stroke: #A80036; stroke-width: 1.5;" x1="8" x2="221" y1="96.6953" y2="96.6953"/><ellipse cx="18" cy="107.6953" fill="#84BE84" rx="3" ry="3" style="stroke: #038048; stroke-width: 1.0;"/><text fill="#000000" font-family="sans-serif" font-size="11" lengthAdjust="spacingAndGlyphs" text-decoration="underline" textLength="189" x="27" y="112.1143">startNewRecording(Maze, String): void</text><ellipse cx="18" cy="121.5313" fill="#84BE84" rx="3" ry="3" style="stroke: #038048; stroke-width: 1.0;"/><text fill="#000000" font-family="sans-serif" font-size="11" lengthAdjust="spacingAndGlyphs" text-decoration="underline" textLength="81" x="27" y="125.9502">save(Main): void</text><ellipse cx="18" cy="135.3672" fill="#84BE84" rx="3" ry="3" style="stroke: #038048; stroke-width: 1.0;"/><text fill="#000000" font-family="sans-serif" font-size="11" lengthAdjust="spacingAndGlyphs" text-decoration="underline" textLength="111" x="27" y="139.7861">load(String, Main): void</text><ellipse cx="18" cy="149.2031" fill="#84BE84" rx="3" ry="3" style="stroke: #038048; stroke-width: 1.0;"/><text fill="#000000" font-family="sans-serif" font-size="11" lengthAdjust="spacingAndGlyphs" text-decoration="underline" textLength="105" x="27" y="153.6221">stopRecording(): void</text><ellipse cx="18" cy="163.0391" fill="#84BE84" rx="3" ry="3" style="stroke: #038048; stroke-width: 1.0;"/><text fill="#000000" font-family="sans-serif" font-size="11" lengthAdjust="spacingAndGlyphs" text-decoration="underline" textLength="112" x="27" y="167.458">playByStep(Main): void</text><ellipse cx="18" cy="176.875" fill="#84BE84" rx="3" ry="3" style="stroke: #038048; stroke-width: 1.0;"/><text fill="#000000" font-family="sans-serif" font-size="11" lengthAdjust="spacingAndGlyphs" text-decoration="underline" textLength="107" x="27" y="181.2939">runReplay(Main): void</text><ellipse cx="18" cy="190.7109" fill="#84BE84" rx="3" ry="3" style="stroke: #038048; stroke-width: 1.0;"/><text fill="#000000" font-family="sans-serif" font-size="11" lengthAdjust="spacingAndGlyphs" text-decoration="underline" textLength="99" x="27" y="195.1299">getThread(): Thread</text><ellipse cx="18" cy="204.5469" fill="#84BE84" rx="3" ry="3" style="stroke: #038048; stroke-width: 1.0;"/><text fill="#000000" font-family="sans-serif" font-size="11" lengthAdjust="spacingAndGlyphs" text-decoration="underline" textLength="146" x="27" y="208.9658">getMoves(): ArrayList&lt;String&gt;</text><ellipse cx="18" cy="218.3828" fill="#84BE84" rx="3" ry="3" style="stroke: #038048; stroke-width: 1.0;"/><text fill="#000000" font-family="sans-serif" font-size="11" lengthAdjust="spacingAndGlyphs" text-decoration="underline" textLength="151" x="27" y="222.8018">getActors(): ArrayList&lt;Integer&gt;</text><ellipse cx="18" cy="232.2188" fill="#84BE84" rx="3" ry="3" style="stroke: #038048; stroke-width: 1.0;"/><text fill="#000000" font-family="sans-serif" font-size="11" lengthAdjust="spacingAndGlyphs" text-decoration="underline" textLength="145" x="27" y="236.6377">setPlaybackSpeed(long): void</text><ellipse cx="18" cy="246.0547" fill="#84BE84" rx="3" ry="3" style="stroke: #038048; stroke-width: 1.0;"/><text fill="#000000" font-family="sans-serif" font-size="11" lengthAdjust="spacingAndGlyphs" text-decoration="underline" textLength="116" x="27" y="250.4736">getIsRunning(): boolean</text><ellipse cx="18" cy="259.8906" fill="#84BE84" rx="3" ry="3" style="stroke: #038048; stroke-width: 1.0;"/><text fill="#000000" font-family="sans-serif" font-size="11" lengthAdjust="spacingAndGlyphs" text-decoration="underline" textLength="131" x="27" y="264.3096">addMovement(String): void</text><ellipse cx="18" cy="273.7266" fill="#84BE84" rx="3" ry="3" style="stroke: #038048; stroke-width: 1.0;"/><text fill="#000000" font-family="sans-serif" font-size="11" lengthAdjust="spacingAndGlyphs" text-decoration="underline" textLength="91" x="27" y="278.1455">main(String[]): void</text></a><text fill="#888888" font-family="sans-serif" font-size="10" lengthAdjust="spacingAndGlyphs" textLength="185" x="22" y="301.9434">UMLDoclet 2.0.12, PlantUML 1.2020.16</text><!--MD5=[e0db75abb8d8554e0f34600a6ee30fae]
@startuml
    set namespaceSeparator none
    hide empty fields
    hide empty methods

    class "<size:14>RecordAndPlay\n<size:10>nz.ac.vuw.ecs.swen225.gp20.recnplay" as nz.ac.vuw.ecs.swen225.gp20.recnplay.RecordAndPlay [[RecordAndPlay.html]] {
        {static} +resources: Path
        {static} +recordings: Path
        {static} +thread: Thread
        {static} +startNewRecording(Maze, String): void
        {static} +save(Main): void
        {static} +load(String, Main): void
        {static} +stopRecording(): void
        {static} +playByStep(Main): void
        {static} +runReplay(Main): void
        {static} +getThread(): Thread
        {static} +getMoves(): ArrayList<String>
        {static} +getActors(): ArrayList<Integer>
        {static} +setPlaybackSpeed(long): void
        {static} +getIsRunning(): boolean
        {static} +addMovement(String): void
        {static} +main(String[]): void
    }

    center footer UMLDoclet 2.0.12, PlantUML 1.2020.16
@enduml

PlantUML version 1.2020.16(Mon Aug 24 08:20:43 NZST 2020)
(APACHE source distribution)
Java Runtime: Java(TM) SE Runtime Environment
JVM: Java HotSpot(TM) 64-Bit Server VM
Default Encoding: Cp1252
Language: en
Country: NZ
--></g></svg>