<?xml version="1.0" encoding="UTF-8" standalone="no"?><svg xmlns="http://www.w3.org/2000/svg" xmlns:xlink="http://www.w3.org/1999/xlink" contentScriptType="application/ecmascript" contentStyleType="text/css" height="592px" preserveAspectRatio="none" style="width:264px;height:592px;" version="1.1" viewBox="0 0 264 592" width="264px" zoomAndPan="magnify"><defs><filter height="300%" id="fe4pkhnrwgff6" width="300%" x="-1" y="-1"><feGaussianBlur result="blurOut" stdDeviation="2.0"/><feColorMatrix in="blurOut" result="blurOut2" type="matrix" values="0 0 0 0 0 0 0 0 0 0 0 0 0 0 0 0 0 0 .4 0"/><feOffset dx="4.0" dy="4.0" in="blurOut2" result="blurOut3"/><feBlend in="SourceGraphic" in2="blurOut3" mode="normal"/></filter></defs><g><!--MD5=[d4fa7740169997c9d89c81c5a1cac5f6]
class nz.ac.vuw.ecs.swen225.gp20.maze.Actor--><a href="Actor.html" target="_top" title="Actor.html" xlink:actuate="onRequest" xlink:href="Actor.html" xlink:show="new" xlink:title="Actor.html" xlink:type="simple"><rect codeLine="5" fill="#FEFECE" filter="url(#fe4pkhnrwgff6)" height="554.2813" id="nz.ac.vuw.ecs.swen225.gp20.maze.Actor" style="stroke: #A80036; stroke-width: 1.5;" width="238" x="7" y="7"/><ellipse cx="40.45" cy="27.0938" fill="#ADD1B2" rx="11" ry="11" style="stroke: #A80036; stroke-width: 1.0;"/><path d="M43.2156,22.9688 Q43.3719,22.75 43.5594,22.6406 Q43.7469,22.5313 43.9656,22.5313 Q44.3406,22.5313 44.575,22.7969 Q44.8094,23.0469 44.8094,23.6563 L44.8094,25.1094 Q44.8094,25.7188 44.575,25.9844 Q44.3406,26.25 43.9656,26.25 Q43.6219,26.25 43.4188,26.0469 Q43.2156,25.8594 43.1063,25.3438 Q43.0594,24.9844 42.8719,24.7969 Q42.5438,24.4219 41.9344,24.2031 Q41.325,23.9844 40.7,23.9844 Q39.9344,23.9844 39.2938,24.3125 Q38.6688,24.6406 38.1688,25.3906 Q37.6844,26.1406 37.6844,27.1719 L37.6844,28.2656 Q37.6844,29.5 38.575,30.3281 Q39.4656,31.1406 41.0594,31.1406 Q41.9969,31.1406 42.6531,30.8906 Q43.0438,30.7344 43.4656,30.2969 Q43.7313,30.0313 43.8719,29.9531 Q44.0281,29.875 44.2313,29.875 Q44.5594,29.875 44.8094,30.1406 Q45.075,30.3906 45.075,30.7344 Q45.075,31.0781 44.7313,31.4844 Q44.2313,32.0625 43.4344,32.3906 Q42.3563,32.8438 41.0594,32.8438 Q39.5438,32.8438 38.3406,32.2188 Q37.3563,31.7188 36.6688,30.6563 Q35.9813,29.5781 35.9813,28.2969 L35.9813,27.1406 Q35.9813,25.8125 36.5906,24.6719 Q37.2156,23.5156 38.3094,22.9063 Q39.4031,22.2813 40.6375,22.2813 Q41.3719,22.2813 42.0125,22.4531 Q42.6688,22.6094 43.2156,22.9688 Z "/><text fill="#000000" font-family="sans-serif" font-size="14" lengthAdjust="spacingAndGlyphs" textLength="33" x="124.55" y="26.5332">Actor</text><text fill="#000000" font-family="sans-serif" font-size="10" lengthAdjust="spacingAndGlyphs" textLength="165" x="58.55" y="39.9902">nz.ac.vuw.ecs.swen225.gp20.maze</text><line style="stroke: #A80036; stroke-width: 1.5;" x1="8" x2="244" y1="47.1875" y2="47.1875"/><polygon fill="none" points="18,53.1875,22,57.1875,18,61.1875,14,57.1875" style="stroke: #B38D22; stroke-width: 1.0;"/><text fill="#000000" font-family="sans-serif" font-size="11" lengthAdjust="spacingAndGlyphs" textLength="61" x="27" y="62.6064">name: String</text><polygon fill="none" points="18,67.0234,22,71.0234,18,75.0234,14,71.0234" style="stroke: #B38D22; stroke-width: 1.0;"/><text fill="#000000" font-family="sans-serif" font-size="11" lengthAdjust="spacingAndGlyphs" textLength="83" x="27" y="76.4424">isPlayer: boolean</text><polygon fill="none" points="18,80.8594,22,84.8594,18,88.8594,14,84.8594" style="stroke: #B38D22; stroke-width: 1.0;"/><text fill="#000000" font-family="sans-serif" font-size="11" lengthAdjust="spacingAndGlyphs" textLength="90" x="27" y="90.2783">direction: Direction</text><polygon fill="none" points="18,94.6953,22,98.6953,18,102.6953,14,98.6953" style="stroke: #B38D22; stroke-width: 1.0;"/><text fill="#000000" font-family="sans-serif" font-size="11" lengthAdjust="spacingAndGlyphs" textLength="87" x="27" y="104.1143">isMoving: boolean</text><polygon fill="none" points="18,108.5313,22,112.5313,18,116.5313,14,112.5313" style="stroke: #B38D22; stroke-width: 1.0;"/><text fill="#000000" font-family="sans-serif" font-size="11" lengthAdjust="spacingAndGlyphs" textLength="23" x="27" y="117.9502">x: int</text><polygon fill="none" points="18,122.3672,22,126.3672,18,130.3672,14,126.3672" style="stroke: #B38D22; stroke-width: 1.0;"/><text fill="#000000" font-family="sans-serif" font-size="11" lengthAdjust="spacingAndGlyphs" textLength="23" x="27" y="131.7861">y: int</text><polygon fill="none" points="18,136.2031,22,140.2031,18,144.2031,14,140.2031" style="stroke: #B38D22; stroke-width: 1.0;"/><text fill="#000000" font-family="sans-serif" font-size="11" lengthAdjust="spacingAndGlyphs" textLength="89" x="27" y="145.6221">moveProgress: int</text><polygon fill="none" points="18,150.0391,22,154.0391,18,158.0391,14,154.0391" style="stroke: #B38D22; stroke-width: 1.0;"/><text fill="#000000" font-family="sans-serif" font-size="11" lengthAdjust="spacingAndGlyphs" textLength="80" x="27" y="159.458">ticksToMove: int</text><polygon fill="none" points="18,163.875,22,167.875,18,171.875,14,167.875" style="stroke: #B38D22; stroke-width: 1.0;"/><text fill="#000000" font-family="sans-serif" font-size="11" lengthAdjust="spacingAndGlyphs" textLength="93" x="27" y="173.2939">killsPlayer: boolean</text><polygon fill="none" points="18,177.7109,22,181.7109,18,185.7109,14,181.7109" style="stroke: #B38D22; stroke-width: 1.0;"/><text fill="#000000" font-family="sans-serif" font-size="11" lengthAdjust="spacingAndGlyphs" textLength="127" x="27" y="187.1299">blocksMovement: boolean</text><polygon fill="none" points="18,191.5469,22,195.5469,18,199.5469,14,195.5469" style="stroke: #B38D22; stroke-width: 1.0;"/><text fill="#000000" font-family="sans-serif" font-size="11" lengthAdjust="spacingAndGlyphs" textLength="97" x="27" y="200.9658">isPushable: boolean</text><ellipse cx="18" cy="210.3828" fill="none" rx="3" ry="3" style="stroke: #038048; stroke-width: 1.0;"/><text fill="#000000" font-family="sans-serif" font-size="11" lengthAdjust="spacingAndGlyphs" text-decoration="underline" textLength="212" x="27" y="214.8018">ACTOR_HOSTILE_MONSTER_SPEED: int</text><ellipse cx="18" cy="224.2188" fill="none" rx="3" ry="3" style="stroke: #038048; stroke-width: 1.0;"/><text fill="#000000" font-family="sans-serif" font-size="11" lengthAdjust="spacingAndGlyphs" text-decoration="underline" textLength="101" x="27" y="228.6377">PLAYER_SPEED: int</text><line style="stroke: #A80036; stroke-width: 1.5;" x1="8" x2="244" y1="235.0547" y2="235.0547"/><ellipse cx="18" cy="246.0547" fill="#84BE84" rx="3" ry="3" style="stroke: #038048; stroke-width: 1.0;"/><text fill="#000000" font-family="sans-serif" font-size="11" lengthAdjust="spacingAndGlyphs" textLength="140" x="27" y="250.4736">Actor(boolean, String, int, int)</text><ellipse cx="18" cy="259.8906" fill="#84BE84" rx="3" ry="3" style="stroke: #038048; stroke-width: 1.0;"/><text fill="#000000" font-family="sans-serif" font-size="11" lengthAdjust="spacingAndGlyphs" textLength="96" x="27" y="264.3096">Actor(String, int, int)</text><ellipse cx="18" cy="273.7266" fill="#84BE84" rx="3" ry="3" style="stroke: #038048; stroke-width: 1.0;"/><text fill="#000000" font-family="sans-serif" font-size="11" lengthAdjust="spacingAndGlyphs" textLength="211" x="27" y="278.1455">Actor(String, int, int, ArrayList&lt;Coordinate&gt;)</text><ellipse cx="18" cy="287.5625" fill="#84BE84" rx="3" ry="3" style="stroke: #038048; stroke-width: 1.0;"/><text fill="#000000" font-family="sans-serif" font-size="11" lengthAdjust="spacingAndGlyphs" textLength="144" x="27" y="291.9814">isAtEndOfSegment(): boolean</text><ellipse cx="18" cy="301.3984" fill="#84BE84" rx="3" ry="3" style="stroke: #038048; stroke-width: 1.0;"/><text fill="#000000" font-family="sans-serif" font-size="11" lengthAdjust="spacingAndGlyphs" textLength="119" x="27" y="305.8174">advanceSegment(): void</text><ellipse cx="18" cy="315.2344" fill="#84BE84" rx="3" ry="3" style="stroke: #038048; stroke-width: 1.0;"/><text fill="#000000" font-family="sans-serif" font-size="11" lengthAdjust="spacingAndGlyphs" textLength="166" x="27" y="319.6533">reverseMovementDirection(): void</text><ellipse cx="18" cy="329.0703" fill="#84BE84" rx="3" ry="3" style="stroke: #038048; stroke-width: 1.0;"/><text fill="#000000" font-family="sans-serif" font-size="11" lengthAdjust="spacingAndGlyphs" textLength="122" x="27" y="333.4893">getNextMove(): Direction</text><ellipse cx="18" cy="342.9063" fill="#84BE84" rx="3" ry="3" style="stroke: #038048; stroke-width: 1.0;"/><text fill="#000000" font-family="sans-serif" font-size="11" lengthAdjust="spacingAndGlyphs" textLength="111" x="27" y="347.3252">getIsMoving(): boolean</text><ellipse cx="18" cy="356.7422" fill="#84BE84" rx="3" ry="3" style="stroke: #038048; stroke-width: 1.0;"/><text fill="#000000" font-family="sans-serif" font-size="11" lengthAdjust="spacingAndGlyphs" textLength="51" x="27" y="361.1611">tick(): void</text><ellipse cx="18" cy="370.5781" fill="#84BE84" rx="3" ry="3" style="stroke: #038048; stroke-width: 1.0;"/><text fill="#000000" font-family="sans-serif" font-size="11" lengthAdjust="spacingAndGlyphs" textLength="135" x="27" y="374.9971">collidesWith(Actor): boolean</text><ellipse cx="18" cy="384.4141" fill="#84BE84" rx="3" ry="3" style="stroke: #038048; stroke-width: 1.0;"/><text fill="#000000" font-family="sans-serif" font-size="11" lengthAdjust="spacingAndGlyphs" textLength="47" x="27" y="388.833">getX(): int</text><ellipse cx="18" cy="398.25" fill="#84BE84" rx="3" ry="3" style="stroke: #038048; stroke-width: 1.0;"/><text fill="#000000" font-family="sans-serif" font-size="11" lengthAdjust="spacingAndGlyphs" textLength="47" x="27" y="402.6689">getY(): int</text><ellipse cx="18" cy="412.0859" fill="#84BE84" rx="3" ry="3" style="stroke: #038048; stroke-width: 1.0;"/><text fill="#000000" font-family="sans-serif" font-size="11" lengthAdjust="spacingAndGlyphs" textLength="70" x="27" y="416.5049">getspeed(): int</text><ellipse cx="18" cy="425.9219" fill="#84BE84" rx="3" ry="3" style="stroke: #038048; stroke-width: 1.0;"/><text fill="#000000" font-family="sans-serif" font-size="11" lengthAdjust="spacingAndGlyphs" textLength="104" x="27" y="430.3408">move(Direction): void</text><ellipse cx="18" cy="439.7578" fill="#84BE84" rx="3" ry="3" style="stroke: #038048; stroke-width: 1.0;"/><text fill="#000000" font-family="sans-serif" font-size="11" lengthAdjust="spacingAndGlyphs" textLength="79" x="27" y="444.1768">fillInMode(): void</text><ellipse cx="18" cy="453.5938" fill="#84BE84" rx="3" ry="3" style="stroke: #038048; stroke-width: 1.0;"/><text fill="#000000" font-family="sans-serif" font-size="11" lengthAdjust="spacingAndGlyphs" textLength="115" x="27" y="458.0127">getDirection(): Direction</text><ellipse cx="18" cy="467.4297" fill="#84BE84" rx="3" ry="3" style="stroke: #038048; stroke-width: 1.0;"/><text fill="#000000" font-family="sans-serif" font-size="11" lengthAdjust="spacingAndGlyphs" textLength="86" x="27" y="471.8486">getName(): String</text><ellipse cx="18" cy="481.2656" fill="#84BE84" rx="3" ry="3" style="stroke: #038048; stroke-width: 1.0;"/><text fill="#000000" font-family="sans-serif" font-size="11" lengthAdjust="spacingAndGlyphs" textLength="91" x="27" y="485.6846">isPlayer(): boolean</text><ellipse cx="18" cy="495.1016" fill="#84BE84" rx="3" ry="3" style="stroke: #038048; stroke-width: 1.0;"/><text fill="#000000" font-family="sans-serif" font-size="11" lengthAdjust="spacingAndGlyphs" textLength="101" x="27" y="499.5205">killsPlayer(): boolean</text><ellipse cx="18" cy="508.9375" fill="#84BE84" rx="3" ry="3" style="stroke: #038048; stroke-width: 1.0;"/><text fill="#000000" font-family="sans-serif" font-size="11" lengthAdjust="spacingAndGlyphs" textLength="135" x="27" y="513.3564">blocksMovement(): boolean</text><ellipse cx="18" cy="522.7734" fill="#84BE84" rx="3" ry="3" style="stroke: #038048; stroke-width: 1.0;"/><text fill="#000000" font-family="sans-serif" font-size="11" lengthAdjust="spacingAndGlyphs" textLength="105" x="27" y="527.1924">isPushable(): boolean</text><ellipse cx="18" cy="536.6094" fill="#84BE84" rx="3" ry="3" style="stroke: #038048; stroke-width: 1.0;"/><text fill="#000000" font-family="sans-serif" font-size="11" lengthAdjust="spacingAndGlyphs" textLength="124" x="27" y="541.0283">hasJustMoved(): boolean</text><ellipse cx="18" cy="550.4453" fill="#84BE84" rx="3" ry="3" style="stroke: #038048; stroke-width: 1.0;"/><text fill="#000000" font-family="sans-serif" font-size="11" lengthAdjust="spacingAndGlyphs" textLength="161" x="27" y="554.8643">setHasJustMoved(boolean): void</text></a><text fill="#888888" font-family="sans-serif" font-size="10" lengthAdjust="spacingAndGlyphs" textLength="185" x="33.5" y="578.6621">UMLDoclet 2.0.12, PlantUML 1.2020.16</text><!--MD5=[dead4487c149f982f1fccee473a35c59]
@startuml
    set namespaceSeparator none
    hide empty fields
    hide empty methods

    class "<size:14>Actor\n<size:10>nz.ac.vuw.ecs.swen225.gp20.maze" as nz.ac.vuw.ecs.swen225.gp20.maze.Actor [[Actor.html]] {
        #name: String
        #isPlayer: boolean
        #direction: Direction
        #isMoving: boolean
        #x: int
        #y: int
        #moveProgress: int
        #ticksToMove: int
        #killsPlayer: boolean
        #blocksMovement: boolean
        #isPushable: boolean
        {static} +ACTOR_HOSTILE_MONSTER_SPEED: int
        {static} +PLAYER_SPEED: int
        +Actor(boolean, String, int, int)
        +Actor(String, int, int)
        +Actor(String, int, int, ArrayList<Coordinate>)
        +isAtEndOfSegment(): boolean
        +advanceSegment(): void
        +reverseMovementDirection(): void
        +getNextMove(): Direction
        +getIsMoving(): boolean
        +tick(): void
        +collidesWith(Actor): boolean
        +getX(): int
        +getY(): int
        +getspeed(): int
        +move(Direction): void
        +fillInMode(): void
        +getDirection(): Direction
        +getName(): String
        +isPlayer(): boolean
        +killsPlayer(): boolean
        +blocksMovement(): boolean
        +isPushable(): boolean
        +hasJustMoved(): boolean
        +setHasJustMoved(boolean): void
    }

    center footer UMLDoclet 2.0.12, PlantUML 1.2020.16
@enduml

PlantUML version 1.2020.16(Mon Aug 24 08:20:43 NZST 2020)
(APACHE source distribution)
Java Runtime: Java(TM) SE Runtime Environment
JVM: Java HotSpot(TM) 64-Bit Server VM
Default Encoding: Cp1252
Language: en
Country: NZ
--></g></svg>