<?xml version="1.0" encoding="UTF-8" standalone="no"?><svg xmlns="http://www.w3.org/2000/svg" xmlns:xlink="http://www.w3.org/1999/xlink" contentScriptType="application/ecmascript" contentStyleType="text/css" height="550px" preserveAspectRatio="none" style="width:280px;height:550px;" version="1.1" viewBox="0 0 280 550" width="280px" zoomAndPan="magnify"><defs><filter height="300%" id="fp6r3zno0qkmo" width="300%" x="-1" y="-1"><feGaussianBlur result="blurOut" stdDeviation="2.0"/><feColorMatrix in="blurOut" result="blurOut2" type="matrix" values="0 0 0 0 0 0 0 0 0 0 0 0 0 0 0 0 0 0 .4 0"/><feOffset dx="4.0" dy="4.0" in="blurOut2" result="blurOut3"/><feBlend in="SourceGraphic" in2="blurOut3" mode="normal"/></filter></defs><g><!--MD5=[ed7254db4e69ecaa847f735c03ac8863]
class nz.ac.vuw.ecs.swen225.gp20.maze.Cell--><a href="Cell.html" target="_top" title="Cell.html" xlink:actuate="onRequest" xlink:href="Cell.html" xlink:show="new" xlink:title="Cell.html" xlink:type="simple"><rect codeLine="5" fill="#FEFECE" filter="url(#fp6r3zno0qkmo)" height="512.7734" id="nz.ac.vuw.ecs.swen225.gp20.maze.Cell" style="stroke: #A80036; stroke-width: 1.5;" width="254" x="7" y="7"/><ellipse cx="47.65" cy="27.0938" fill="#ADD1B2" rx="11" ry="11" style="stroke: #A80036; stroke-width: 1.0;"/><path d="M50.4156,22.9688 Q50.5719,22.75 50.7594,22.6406 Q50.9469,22.5313 51.1656,22.5313 Q51.5406,22.5313 51.775,22.7969 Q52.0094,23.0469 52.0094,23.6563 L52.0094,25.1094 Q52.0094,25.7188 51.775,25.9844 Q51.5406,26.25 51.1656,26.25 Q50.8219,26.25 50.6188,26.0469 Q50.4156,25.8594 50.3063,25.3438 Q50.2594,24.9844 50.0719,24.7969 Q49.7438,24.4219 49.1344,24.2031 Q48.525,23.9844 47.9,23.9844 Q47.1344,23.9844 46.4938,24.3125 Q45.8688,24.6406 45.3688,25.3906 Q44.8844,26.1406 44.8844,27.1719 L44.8844,28.2656 Q44.8844,29.5 45.775,30.3281 Q46.6656,31.1406 48.2594,31.1406 Q49.1969,31.1406 49.8531,30.8906 Q50.2438,30.7344 50.6656,30.2969 Q50.9313,30.0313 51.0719,29.9531 Q51.2281,29.875 51.4313,29.875 Q51.7594,29.875 52.0094,30.1406 Q52.275,30.3906 52.275,30.7344 Q52.275,31.0781 51.9313,31.4844 Q51.4313,32.0625 50.6344,32.3906 Q49.5563,32.8438 48.2594,32.8438 Q46.7438,32.8438 45.5406,32.2188 Q44.5563,31.7188 43.8688,30.6563 Q43.1813,29.5781 43.1813,28.2969 L43.1813,27.1406 Q43.1813,25.8125 43.7906,24.6719 Q44.4156,23.5156 45.5094,22.9063 Q46.6031,22.2813 47.8375,22.2813 Q48.5719,22.2813 49.2125,22.4531 Q49.8688,22.6094 50.4156,22.9688 Z "/><text fill="#000000" font-family="sans-serif" font-size="14" lengthAdjust="spacingAndGlyphs" textLength="24" x="137.85" y="26.5332">Cell</text><text fill="#000000" font-family="sans-serif" font-size="10" lengthAdjust="spacingAndGlyphs" textLength="165" x="67.35" y="39.9902">nz.ac.vuw.ecs.swen225.gp20.maze</text><line style="stroke: #A80036; stroke-width: 1.5;" x1="8" x2="260" y1="47.1875" y2="47.1875"/><polygon fill="none" points="18,53.1875,22,57.1875,18,61.1875,14,57.1875" style="stroke: #B38D22; stroke-width: 1.0;"/><text fill="#000000" font-family="sans-serif" font-size="11" lengthAdjust="spacingAndGlyphs" textLength="112" x="27" y="62.6064">animationObject: Sprite</text><polygon fill="none" points="18,67.0234,22,71.0234,18,75.0234,14,71.0234" style="stroke: #B38D22; stroke-width: 1.0;"/><text fill="#000000" font-family="sans-serif" font-size="11" lengthAdjust="spacingAndGlyphs" textLength="61" x="27" y="76.4424">name: String</text><polygon fill="none" points="18,80.8594,22,84.8594,18,88.8594,14,84.8594" style="stroke: #B38D22; stroke-width: 1.0;"/><text fill="#000000" font-family="sans-serif" font-size="11" lengthAdjust="spacingAndGlyphs" textLength="23" x="27" y="90.2783">x: int</text><polygon fill="none" points="18,94.6953,22,98.6953,18,102.6953,14,98.6953" style="stroke: #B38D22; stroke-width: 1.0;"/><text fill="#000000" font-family="sans-serif" font-size="11" lengthAdjust="spacingAndGlyphs" textLength="23" x="27" y="104.1143">y: int</text><polygon fill="none" points="18,108.5313,22,112.5313,18,116.5313,14,112.5313" style="stroke: #B38D22; stroke-width: 1.0;"/><text fill="#000000" font-family="sans-serif" font-size="11" lengthAdjust="spacingAndGlyphs" textLength="64" x="27" y="117.9502">metaData: int</text><polygon fill="none" points="18,122.3672,22,126.3672,18,130.3672,14,126.3672" style="stroke: #B38D22; stroke-width: 1.0;"/><text fill="#000000" font-family="sans-serif" font-size="11" lengthAdjust="spacingAndGlyphs" textLength="88" x="27" y="131.7861">animated: boolean</text><polygon fill="none" points="18,136.2031,22,140.2031,18,144.2031,14,140.2031" style="stroke: #B38D22; stroke-width: 1.0;"/><text fill="#000000" font-family="sans-serif" font-size="11" lengthAdjust="spacingAndGlyphs" textLength="128" x="27" y="145.6221">numberOfFramesTotal: int</text><polygon fill="none" points="18,150.0391,22,154.0391,18,158.0391,14,154.0391" style="stroke: #B38D22; stroke-width: 1.0;"/><text fill="#000000" font-family="sans-serif" font-size="11" lengthAdjust="spacingAndGlyphs" textLength="117" x="27" y="159.458">timeBetweenFrames: int</text><polygon fill="none" points="18,163.875,22,167.875,18,171.875,14,167.875" style="stroke: #B38D22; stroke-width: 1.0;"/><text fill="#000000" font-family="sans-serif" font-size="11" lengthAdjust="spacingAndGlyphs" textLength="54" x="27" y="173.2939">counter: int</text><polygon fill="none" points="18,177.7109,22,181.7109,18,185.7109,14,181.7109" style="stroke: #B38D22; stroke-width: 1.0;"/><text fill="#000000" font-family="sans-serif" font-size="11" lengthAdjust="spacingAndGlyphs" textLength="75" x="27" y="187.1299">isSolid: boolean</text><polygon fill="none" points="18,191.5469,22,195.5469,18,199.5469,14,195.5469" style="stroke: #B38D22; stroke-width: 1.0;"/><text fill="#000000" font-family="sans-serif" font-size="11" lengthAdjust="spacingAndGlyphs" textLength="99" x="27" y="200.9658">isOpenable: boolean</text><polygon fill="none" points="18,205.3828,22,209.3828,18,213.3828,14,209.3828" style="stroke: #B38D22; stroke-width: 1.0;"/><text fill="#000000" font-family="sans-serif" font-size="11" lengthAdjust="spacingAndGlyphs" textLength="95" x="27" y="214.8018">hasPickup: boolean</text><polygon fill="none" points="18,219.2188,22,223.2188,18,227.2188,14,223.2188" style="stroke: #B38D22; stroke-width: 1.0;"/><text fill="#000000" font-family="sans-serif" font-size="11" lengthAdjust="spacingAndGlyphs" textLength="97" x="27" y="228.6377">isTreasure: boolean</text><polygon fill="none" points="18,233.0547,22,237.0547,18,241.0547,14,237.0547" style="stroke: #B38D22; stroke-width: 1.0;"/><text fill="#000000" font-family="sans-serif" font-size="11" lengthAdjust="spacingAndGlyphs" textLength="93" x="27" y="242.4736">killsPlayer: boolean</text><polygon fill="none" points="18,246.8906,22,250.8906,18,254.8906,14,250.8906" style="stroke: #B38D22; stroke-width: 1.0;"/><text fill="#000000" font-family="sans-serif" font-size="11" lengthAdjust="spacingAndGlyphs" textLength="95" x="27" y="256.3096">pickupName: String</text><polygon fill="none" points="18,260.7266,22,264.7266,18,268.7266,14,264.7266" style="stroke: #B38D22; stroke-width: 1.0;"/><text fill="#000000" font-family="sans-serif" font-size="11" lengthAdjust="spacingAndGlyphs" textLength="58" x="27" y="270.1455">color: String</text><polygon fill="none" points="18,274.5625,22,278.5625,18,282.5625,14,278.5625" style="stroke: #B38D22; stroke-width: 1.0;"/><text fill="#000000" font-family="sans-serif" font-size="11" lengthAdjust="spacingAndGlyphs" textLength="96" x="27" y="283.9814">infoMessage: String</text><polygon fill="none" points="18,288.3984,22,292.3984,18,296.3984,14,292.3984" style="stroke: #B38D22; stroke-width: 1.0;"/><text fill="#000000" font-family="sans-serif" font-size="11" lengthAdjust="spacingAndGlyphs" textLength="103" x="27" y="297.8174">protectiveItem: String</text><line style="stroke: #A80036; stroke-width: 1.5;" x1="8" x2="260" y1="304.2344" y2="304.2344"/><ellipse cx="18" cy="315.2344" fill="#84BE84" rx="3" ry="3" style="stroke: #038048; stroke-width: 1.0;"/><text fill="#000000" font-family="sans-serif" font-size="11" lengthAdjust="spacingAndGlyphs" textLength="99" x="27" y="319.6533">getIsSolid(): boolean</text><ellipse cx="18" cy="329.0703" fill="#84BE84" rx="3" ry="3" style="stroke: #038048; stroke-width: 1.0;"/><text fill="#000000" font-family="sans-serif" font-size="11" lengthAdjust="spacingAndGlyphs" textLength="116" x="27" y="333.4893">getRenderData(): String</text><ellipse cx="18" cy="342.9063" fill="#84BE84" rx="3" ry="3" style="stroke: #038048; stroke-width: 1.0;"/><text fill="#000000" font-family="sans-serif" font-size="11" lengthAdjust="spacingAndGlyphs" textLength="156" x="27" y="347.3252">setAnimationObject(Sprite): void</text><ellipse cx="18" cy="356.7422" fill="#84BE84" rx="3" ry="3" style="stroke: #038048; stroke-width: 1.0;"/><text fill="#000000" font-family="sans-serif" font-size="11" lengthAdjust="spacingAndGlyphs" textLength="136" x="27" y="361.1611">getAnimationObject(): Sprite</text><ellipse cx="18" cy="370.5781" fill="#84BE84" rx="3" ry="3" style="stroke: #038048; stroke-width: 1.0;"/><text fill="#000000" font-family="sans-serif" font-size="11" lengthAdjust="spacingAndGlyphs" textLength="47" x="27" y="374.9971">getX(): int</text><ellipse cx="18" cy="384.4141" fill="#84BE84" rx="3" ry="3" style="stroke: #038048; stroke-width: 1.0;"/><text fill="#000000" font-family="sans-serif" font-size="11" lengthAdjust="spacingAndGlyphs" textLength="47" x="27" y="388.833">getY(): int</text><ellipse cx="18" cy="398.25" fill="#84BE84" rx="3" ry="3" style="stroke: #038048; stroke-width: 1.0;"/><text fill="#000000" font-family="sans-serif" font-size="11" lengthAdjust="spacingAndGlyphs" textLength="119" x="27" y="402.6689">getPickupName(): String</text><ellipse cx="18" cy="412.0859" fill="#84BE84" rx="3" ry="3" style="stroke: #038048; stroke-width: 1.0;"/><text fill="#000000" font-family="sans-serif" font-size="11" lengthAdjust="spacingAndGlyphs" textLength="103" x="27" y="416.5049">hasPickup(): boolean</text><ellipse cx="18" cy="425.9219" fill="#84BE84" rx="3" ry="3" style="stroke: #038048; stroke-width: 1.0;"/><text fill="#000000" font-family="sans-serif" font-size="11" lengthAdjust="spacingAndGlyphs" textLength="107" x="27" y="430.3408">isOpenable(): boolean</text><ellipse cx="18" cy="439.7578" fill="#84BE84" rx="3" ry="3" style="stroke: #038048; stroke-width: 1.0;"/><text fill="#000000" font-family="sans-serif" font-size="11" lengthAdjust="spacingAndGlyphs" textLength="105" x="27" y="444.1768">isTreasure(): boolean</text><ellipse cx="18" cy="453.5938" fill="#84BE84" rx="3" ry="3" style="stroke: #038048; stroke-width: 1.0;"/><text fill="#000000" font-family="sans-serif" font-size="11" lengthAdjust="spacingAndGlyphs" textLength="83" x="27" y="458.0127">getColor(): String</text><ellipse cx="18" cy="467.4297" fill="#84BE84" rx="3" ry="3" style="stroke: #038048; stroke-width: 1.0;"/><text fill="#000000" font-family="sans-serif" font-size="11" lengthAdjust="spacingAndGlyphs" textLength="86" x="27" y="471.8486">getName(): String</text><ellipse cx="18" cy="481.2656" fill="#84BE84" rx="3" ry="3" style="stroke: #038048; stroke-width: 1.0;"/><text fill="#000000" font-family="sans-serif" font-size="11" lengthAdjust="spacingAndGlyphs" textLength="75" x="27" y="485.6846">getInfo(): String</text><ellipse cx="18" cy="495.1016" fill="#84BE84" rx="3" ry="3" style="stroke: #038048; stroke-width: 1.0;"/><text fill="#000000" font-family="sans-serif" font-size="11" lengthAdjust="spacingAndGlyphs" textLength="61" x="27" y="499.5205">nullify(): void</text><ellipse cx="18" cy="508.9375" fill="#84BE84" rx="3" ry="3" style="stroke: #038048; stroke-width: 1.0;"/><text fill="#000000" font-family="sans-serif" font-size="11" lengthAdjust="spacingAndGlyphs" textLength="228" x="27" y="513.3564">killsPlayer(HashMap&lt;String, Integer&gt;): boolean</text></a><text fill="#888888" font-family="sans-serif" font-size="10" lengthAdjust="spacingAndGlyphs" textLength="185" x="41.5" y="537.1543">UMLDoclet 2.0.12, PlantUML 1.2020.16</text><!--MD5=[d576a92c388e4a6950b51c7e635f58b2]
@startuml
    set namespaceSeparator none
    hide empty fields
    hide empty methods

    class "<size:14>Cell\n<size:10>nz.ac.vuw.ecs.swen225.gp20.maze" as nz.ac.vuw.ecs.swen225.gp20.maze.Cell [[Cell.html]] {
        #animationObject: Sprite
        #name: String
        #x: int
        #y: int
        #metaData: int
        #animated: boolean
        #numberOfFramesTotal: int
        #timeBetweenFrames: int
        #counter: int
        #isSolid: boolean
        #isOpenable: boolean
        #hasPickup: boolean
        #isTreasure: boolean
        #killsPlayer: boolean
        #pickupName: String
        #color: String
        #infoMessage: String
        #protectiveItem: String
        +getIsSolid(): boolean
        +getRenderData(): String
        +setAnimationObject(Sprite): void
        +getAnimationObject(): Sprite
        +getX(): int
        +getY(): int
        +getPickupName(): String
        +hasPickup(): boolean
        +isOpenable(): boolean
        +isTreasure(): boolean
        +getColor(): String
        +getName(): String
        +getInfo(): String
        +nullify(): void
        +killsPlayer(HashMap<String, Integer>): boolean
    }

    center footer UMLDoclet 2.0.12, PlantUML 1.2020.16
@enduml

PlantUML version 1.2020.16(Mon Aug 24 08:20:43 NZST 2020)
(APACHE source distribution)
Java Runtime: Java(TM) SE Runtime Environment
JVM: Java HotSpot(TM) 64-Bit Server VM
Default Encoding: Cp1252
Language: en
Country: NZ
--></g></svg>