<?xml version="1.0" encoding="UTF-8" standalone="no"?><svg xmlns="http://www.w3.org/2000/svg" xmlns:xlink="http://www.w3.org/1999/xlink" contentScriptType="application/ecmascript" contentStyleType="text/css" height="1052px" preserveAspectRatio="none" style="width:847px;height:1052px;" version="1.1" viewBox="0 0 847 1052" width="847px" zoomAndPan="magnify"><defs><filter height="300%" id="f25b5jgnoigvc" width="300%" x="-1" y="-1"><feGaussianBlur result="blurOut" stdDeviation="2.0"/><feColorMatrix in="blurOut" result="blurOut2" type="matrix" values="0 0 0 0 0 0 0 0 0 0 0 0 0 0 0 0 0 0 .4 0"/><feOffset dx="4.0" dy="4.0" in="blurOut2" result="blurOut3"/><feBlend in="SourceGraphic" in2="blurOut3" mode="normal"/></filter></defs><g><!--MD5=[832757d115beb7bc045eef4d6b42e302]
cluster nz.ac.vuw.ecs.swen225.gp20.maze--><polygon fill="#FFFFFF" filter="url(#f25b5jgnoigvc)" points="16,6,259,6,266,29.6094,825,29.6094,825,1023,16,1023,16,6" style="stroke: #000000; stroke-width: 1.5;"/><line style="stroke: #000000; stroke-width: 1.5;" x1="16" x2="266" y1="29.6094" y2="29.6094"/><text fill="#000000" font-family="sans-serif" font-size="14" font-weight="bold" lengthAdjust="spacingAndGlyphs" textLength="237" x="20" y="22.5332">nz.ac.vuw.ecs.swen225.gp20.maze</text><!--MD5=[d4fa7740169997c9d89c81c5a1cac5f6]
class nz.ac.vuw.ecs.swen225.gp20.maze.Actor--><a href="Actor.html" target="_top" title="Actor.html" xlink:actuate="onRequest" xlink:href="Actor.html" xlink:show="new" xlink:title="Actor.html" xlink:type="simple"><rect codeLine="3" fill="#FEFECE" filter="url(#f25b5jgnoigvc)" height="338.5547" id="nz.ac.vuw.ecs.swen225.gp20.maze.Actor" style="stroke: #A80036; stroke-width: 1.5;" width="183" x="509.5" y="376"/><ellipse cx="582.75" cy="392" fill="#ADD1B2" rx="11" ry="11" style="stroke: #A80036; stroke-width: 1.0;"/><path d="M585.5156,387.875 Q585.6719,387.6563 585.8594,387.5469 Q586.0469,387.4375 586.2656,387.4375 Q586.6406,387.4375 586.875,387.7031 Q587.1094,387.9531 587.1094,388.5625 L587.1094,390.0156 Q587.1094,390.625 586.875,390.8906 Q586.6406,391.1563 586.2656,391.1563 Q585.9219,391.1563 585.7188,390.9531 Q585.5156,390.7656 585.4063,390.25 Q585.3594,389.8906 585.1719,389.7031 Q584.8438,389.3281 584.2344,389.1094 Q583.625,388.8906 583,388.8906 Q582.2344,388.8906 581.5938,389.2188 Q580.9688,389.5469 580.4688,390.2969 Q579.9844,391.0469 579.9844,392.0781 L579.9844,393.1719 Q579.9844,394.4063 580.875,395.2344 Q581.7656,396.0469 583.3594,396.0469 Q584.2969,396.0469 584.9531,395.7969 Q585.3438,395.6406 585.7656,395.2031 Q586.0313,394.9375 586.1719,394.8594 Q586.3281,394.7813 586.5313,394.7813 Q586.8594,394.7813 587.1094,395.0469 Q587.375,395.2969 587.375,395.6406 Q587.375,395.9844 587.0313,396.3906 Q586.5313,396.9688 585.7344,397.2969 Q584.6563,397.75 583.3594,397.75 Q581.8438,397.75 580.6406,397.125 Q579.6563,396.625 578.9688,395.5625 Q578.2813,394.4844 578.2813,393.2031 L578.2813,392.0469 Q578.2813,390.7188 578.8906,389.5781 Q579.5156,388.4219 580.6094,387.8125 Q581.7031,387.1875 582.9375,387.1875 Q583.6719,387.1875 584.3125,387.3594 Q584.9688,387.5156 585.5156,387.875 Z "/><text fill="#000000" font-family="sans-serif" font-size="12" lengthAdjust="spacingAndGlyphs" textLength="28" x="603.25" y="396.9102">Actor</text><line style="stroke: #A80036; stroke-width: 1.5;" x1="510.5" x2="691.5" y1="408" y2="408"/><polygon fill="none" points="520.5,414,524.5,418,520.5,422,516.5,418" style="stroke: #B38D22; stroke-width: 1.0;"/><text fill="#000000" font-family="sans-serif" font-size="11" lengthAdjust="spacingAndGlyphs" textLength="61" x="529.5" y="423.4189">name: String</text><polygon fill="none" points="520.5,427.8359,524.5,431.8359,520.5,435.8359,516.5,431.8359" style="stroke: #B38D22; stroke-width: 1.0;"/><text fill="#000000" font-family="sans-serif" font-size="11" lengthAdjust="spacingAndGlyphs" textLength="83" x="529.5" y="437.2549">isPlayer: boolean</text><polygon fill="none" points="520.5,441.6719,524.5,445.6719,520.5,449.6719,516.5,445.6719" style="stroke: #B38D22; stroke-width: 1.0;"/><text fill="#000000" font-family="sans-serif" font-size="11" lengthAdjust="spacingAndGlyphs" textLength="87" x="529.5" y="451.0908">isMoving: boolean</text><polygon fill="none" points="520.5,455.5078,524.5,459.5078,520.5,463.5078,516.5,459.5078" style="stroke: #B38D22; stroke-width: 1.0;"/><text fill="#000000" font-family="sans-serif" font-size="11" lengthAdjust="spacingAndGlyphs" textLength="23" x="529.5" y="464.9268">x: int</text><polygon fill="none" points="520.5,469.3438,524.5,473.3438,520.5,477.3438,516.5,473.3438" style="stroke: #B38D22; stroke-width: 1.0;"/><text fill="#000000" font-family="sans-serif" font-size="11" lengthAdjust="spacingAndGlyphs" textLength="23" x="529.5" y="478.7627">y: int</text><polygon fill="none" points="520.5,483.1797,524.5,487.1797,520.5,491.1797,516.5,487.1797" style="stroke: #B38D22; stroke-width: 1.0;"/><text fill="#000000" font-family="sans-serif" font-size="11" lengthAdjust="spacingAndGlyphs" textLength="89" x="529.5" y="492.5986">moveProgress: int</text><polygon fill="none" points="520.5,497.0156,524.5,501.0156,520.5,505.0156,516.5,501.0156" style="stroke: #B38D22; stroke-width: 1.0;"/><text fill="#000000" font-family="sans-serif" font-size="11" lengthAdjust="spacingAndGlyphs" textLength="80" x="529.5" y="506.4346">ticksToMove: int</text><polygon fill="none" points="520.5,510.8516,524.5,514.8516,520.5,518.8516,516.5,514.8516" style="stroke: #B38D22; stroke-width: 1.0;"/><text fill="#000000" font-family="sans-serif" font-size="11" lengthAdjust="spacingAndGlyphs" textLength="93" x="529.5" y="520.2705">killsPlayer: boolean</text><polygon fill="none" points="520.5,524.6875,524.5,528.6875,520.5,532.6875,516.5,528.6875" style="stroke: #B38D22; stroke-width: 1.0;"/><text fill="#000000" font-family="sans-serif" font-size="11" lengthAdjust="spacingAndGlyphs" textLength="127" x="529.5" y="534.1064">blocksMovement: boolean</text><polygon fill="none" points="520.5,538.5234,524.5,542.5234,520.5,546.5234,516.5,542.5234" style="stroke: #B38D22; stroke-width: 1.0;"/><text fill="#000000" font-family="sans-serif" font-size="11" lengthAdjust="spacingAndGlyphs" textLength="97" x="529.5" y="547.9424">isPushable: boolean</text><line style="stroke: #A80036; stroke-width: 1.5;" x1="510.5" x2="691.5" y1="554.3594" y2="554.3594"/><ellipse cx="520.5" cy="565.3594" fill="#84BE84" rx="3" ry="3" style="stroke: #038048; stroke-width: 1.0;"/><text fill="#000000" font-family="sans-serif" font-size="11" lengthAdjust="spacingAndGlyphs" textLength="157" x="529.5" y="569.7783">Actor(boolean, String, int, int, int)</text><ellipse cx="520.5" cy="579.1953" fill="#84BE84" rx="3" ry="3" style="stroke: #038048; stroke-width: 1.0;"/><text fill="#000000" font-family="sans-serif" font-size="11" lengthAdjust="spacingAndGlyphs" textLength="111" x="529.5" y="583.6143">getIsMoving(): boolean</text><ellipse cx="520.5" cy="593.0313" fill="#84BE84" rx="3" ry="3" style="stroke: #038048; stroke-width: 1.0;"/><text fill="#000000" font-family="sans-serif" font-size="11" lengthAdjust="spacingAndGlyphs" textLength="51" x="529.5" y="597.4502">tick(): void</text><ellipse cx="520.5" cy="606.8672" fill="#84BE84" rx="3" ry="3" style="stroke: #038048; stroke-width: 1.0;"/><text fill="#000000" font-family="sans-serif" font-size="11" lengthAdjust="spacingAndGlyphs" textLength="135" x="529.5" y="611.2861">collidesWith(Actor): boolean</text><ellipse cx="520.5" cy="620.7031" fill="#84BE84" rx="3" ry="3" style="stroke: #038048; stroke-width: 1.0;"/><text fill="#000000" font-family="sans-serif" font-size="11" lengthAdjust="spacingAndGlyphs" textLength="47" x="529.5" y="625.1221">getX(): int</text><ellipse cx="520.5" cy="634.5391" fill="#84BE84" rx="3" ry="3" style="stroke: #038048; stroke-width: 1.0;"/><text fill="#000000" font-family="sans-serif" font-size="11" lengthAdjust="spacingAndGlyphs" textLength="47" x="529.5" y="638.958">getY(): int</text><ellipse cx="520.5" cy="648.375" fill="#84BE84" rx="3" ry="3" style="stroke: #038048; stroke-width: 1.0;"/><text fill="#000000" font-family="sans-serif" font-size="11" lengthAdjust="spacingAndGlyphs" textLength="104" x="529.5" y="652.7939">move(Direction): void</text><ellipse cx="520.5" cy="662.2109" fill="#84BE84" rx="3" ry="3" style="stroke: #038048; stroke-width: 1.0;"/><text fill="#000000" font-family="sans-serif" font-size="11" lengthAdjust="spacingAndGlyphs" textLength="86" x="529.5" y="666.6299">getName(): String</text><ellipse cx="520.5" cy="676.0469" fill="#84BE84" rx="3" ry="3" style="stroke: #038048; stroke-width: 1.0;"/><text fill="#000000" font-family="sans-serif" font-size="11" lengthAdjust="spacingAndGlyphs" textLength="101" x="529.5" y="680.4658">killsPlayer(): boolean</text><ellipse cx="520.5" cy="689.8828" fill="#84BE84" rx="3" ry="3" style="stroke: #038048; stroke-width: 1.0;"/><text fill="#000000" font-family="sans-serif" font-size="11" lengthAdjust="spacingAndGlyphs" textLength="135" x="529.5" y="694.3018">blocksMovement(): boolean</text><ellipse cx="520.5" cy="703.7188" fill="#84BE84" rx="3" ry="3" style="stroke: #038048; stroke-width: 1.0;"/><text fill="#000000" font-family="sans-serif" font-size="11" lengthAdjust="spacingAndGlyphs" textLength="105" x="529.5" y="708.1377">isPushable(): boolean</text></a><!--MD5=[ed7254db4e69ecaa847f735c03ac8863]
class nz.ac.vuw.ecs.swen225.gp20.maze.Cell--><a href="Cell.html" target="_top" title="Cell.html" xlink:actuate="onRequest" xlink:href="Cell.html" xlink:show="new" xlink:title="Cell.html" xlink:type="simple"><rect codeLine="27" fill="#FEFECE" filter="url(#f25b5jgnoigvc)" height="504.5859" id="nz.ac.vuw.ecs.swen225.gp20.maze.Cell" style="stroke: #A80036; stroke-width: 1.5;" width="254" x="196" y="293"/><ellipse cx="307.75" cy="309" fill="#ADD1B2" rx="11" ry="11" style="stroke: #A80036; stroke-width: 1.0;"/><path d="M310.5156,304.875 Q310.6719,304.6563 310.8594,304.5469 Q311.0469,304.4375 311.2656,304.4375 Q311.6406,304.4375 311.875,304.7031 Q312.1094,304.9531 312.1094,305.5625 L312.1094,307.0156 Q312.1094,307.625 311.875,307.8906 Q311.6406,308.1563 311.2656,308.1563 Q310.9219,308.1563 310.7188,307.9531 Q310.5156,307.7656 310.4063,307.25 Q310.3594,306.8906 310.1719,306.7031 Q309.8438,306.3281 309.2344,306.1094 Q308.625,305.8906 308,305.8906 Q307.2344,305.8906 306.5938,306.2188 Q305.9688,306.5469 305.4688,307.2969 Q304.9844,308.0469 304.9844,309.0781 L304.9844,310.1719 Q304.9844,311.4063 305.875,312.2344 Q306.7656,313.0469 308.3594,313.0469 Q309.2969,313.0469 309.9531,312.7969 Q310.3438,312.6406 310.7656,312.2031 Q311.0313,311.9375 311.1719,311.8594 Q311.3281,311.7813 311.5313,311.7813 Q311.8594,311.7813 312.1094,312.0469 Q312.375,312.2969 312.375,312.6406 Q312.375,312.9844 312.0313,313.3906 Q311.5313,313.9688 310.7344,314.2969 Q309.6563,314.75 308.3594,314.75 Q306.8438,314.75 305.6406,314.125 Q304.6563,313.625 303.9688,312.5625 Q303.2813,311.4844 303.2813,310.2031 L303.2813,309.0469 Q303.2813,307.7188 303.8906,306.5781 Q304.5156,305.4219 305.6094,304.8125 Q306.7031,304.1875 307.9375,304.1875 Q308.6719,304.1875 309.3125,304.3594 Q309.9688,304.5156 310.5156,304.875 Z "/><text fill="#000000" font-family="sans-serif" font-size="12" lengthAdjust="spacingAndGlyphs" textLength="22" x="328.25" y="313.9102">Cell</text><line style="stroke: #A80036; stroke-width: 1.5;" x1="197" x2="449" y1="325" y2="325"/><polygon fill="none" points="207,331,211,335,207,339,203,335" style="stroke: #B38D22; stroke-width: 1.0;"/><text fill="#000000" font-family="sans-serif" font-size="11" lengthAdjust="spacingAndGlyphs" textLength="112" x="216" y="340.4189">animationObject: Sprite</text><polygon fill="none" points="207,344.8359,211,348.8359,207,352.8359,203,348.8359" style="stroke: #B38D22; stroke-width: 1.0;"/><text fill="#000000" font-family="sans-serif" font-size="11" lengthAdjust="spacingAndGlyphs" textLength="61" x="216" y="354.2549">name: String</text><polygon fill="none" points="207,358.6719,211,362.6719,207,366.6719,203,362.6719" style="stroke: #B38D22; stroke-width: 1.0;"/><text fill="#000000" font-family="sans-serif" font-size="11" lengthAdjust="spacingAndGlyphs" textLength="23" x="216" y="368.0908">x: int</text><polygon fill="none" points="207,372.5078,211,376.5078,207,380.5078,203,376.5078" style="stroke: #B38D22; stroke-width: 1.0;"/><text fill="#000000" font-family="sans-serif" font-size="11" lengthAdjust="spacingAndGlyphs" textLength="23" x="216" y="381.9268">y: int</text><polygon fill="none" points="207,386.3438,211,390.3438,207,394.3438,203,390.3438" style="stroke: #B38D22; stroke-width: 1.0;"/><text fill="#000000" font-family="sans-serif" font-size="11" lengthAdjust="spacingAndGlyphs" textLength="64" x="216" y="395.7627">metaData: int</text><polygon fill="none" points="207,400.1797,211,404.1797,207,408.1797,203,404.1797" style="stroke: #B38D22; stroke-width: 1.0;"/><text fill="#000000" font-family="sans-serif" font-size="11" lengthAdjust="spacingAndGlyphs" textLength="88" x="216" y="409.5986">animated: boolean</text><polygon fill="none" points="207,414.0156,211,418.0156,207,422.0156,203,418.0156" style="stroke: #B38D22; stroke-width: 1.0;"/><text fill="#000000" font-family="sans-serif" font-size="11" lengthAdjust="spacingAndGlyphs" textLength="128" x="216" y="423.4346">numberOfFramesTotal: int</text><polygon fill="none" points="207,427.8516,211,431.8516,207,435.8516,203,431.8516" style="stroke: #B38D22; stroke-width: 1.0;"/><text fill="#000000" font-family="sans-serif" font-size="11" lengthAdjust="spacingAndGlyphs" textLength="117" x="216" y="437.2705">timeBetweenFrames: int</text><polygon fill="none" points="207,441.6875,211,445.6875,207,449.6875,203,445.6875" style="stroke: #B38D22; stroke-width: 1.0;"/><text fill="#000000" font-family="sans-serif" font-size="11" lengthAdjust="spacingAndGlyphs" textLength="54" x="216" y="451.1064">counter: int</text><polygon fill="none" points="207,455.5234,211,459.5234,207,463.5234,203,459.5234" style="stroke: #B38D22; stroke-width: 1.0;"/><text fill="#000000" font-family="sans-serif" font-size="11" lengthAdjust="spacingAndGlyphs" textLength="75" x="216" y="464.9424">isSolid: boolean</text><polygon fill="none" points="207,469.3594,211,473.3594,207,477.3594,203,473.3594" style="stroke: #B38D22; stroke-width: 1.0;"/><text fill="#000000" font-family="sans-serif" font-size="11" lengthAdjust="spacingAndGlyphs" textLength="99" x="216" y="478.7783">isOpenable: boolean</text><polygon fill="none" points="207,483.1953,211,487.1953,207,491.1953,203,487.1953" style="stroke: #B38D22; stroke-width: 1.0;"/><text fill="#000000" font-family="sans-serif" font-size="11" lengthAdjust="spacingAndGlyphs" textLength="95" x="216" y="492.6143">hasPickup: boolean</text><polygon fill="none" points="207,497.0313,211,501.0313,207,505.0313,203,501.0313" style="stroke: #B38D22; stroke-width: 1.0;"/><text fill="#000000" font-family="sans-serif" font-size="11" lengthAdjust="spacingAndGlyphs" textLength="97" x="216" y="506.4502">isTreasure: boolean</text><polygon fill="none" points="207,510.8672,211,514.8672,207,518.8672,203,514.8672" style="stroke: #B38D22; stroke-width: 1.0;"/><text fill="#000000" font-family="sans-serif" font-size="11" lengthAdjust="spacingAndGlyphs" textLength="93" x="216" y="520.2861">killsPlayer: boolean</text><polygon fill="none" points="207,524.7031,211,528.7031,207,532.7031,203,528.7031" style="stroke: #B38D22; stroke-width: 1.0;"/><text fill="#000000" font-family="sans-serif" font-size="11" lengthAdjust="spacingAndGlyphs" textLength="95" x="216" y="534.1221">pickupName: String</text><polygon fill="none" points="207,538.5391,211,542.5391,207,546.5391,203,542.5391" style="stroke: #B38D22; stroke-width: 1.0;"/><text fill="#000000" font-family="sans-serif" font-size="11" lengthAdjust="spacingAndGlyphs" textLength="58" x="216" y="547.958">color: String</text><polygon fill="none" points="207,552.375,211,556.375,207,560.375,203,556.375" style="stroke: #B38D22; stroke-width: 1.0;"/><text fill="#000000" font-family="sans-serif" font-size="11" lengthAdjust="spacingAndGlyphs" textLength="96" x="216" y="561.7939">infoMessage: String</text><polygon fill="none" points="207,566.2109,211,570.2109,207,574.2109,203,570.2109" style="stroke: #B38D22; stroke-width: 1.0;"/><text fill="#000000" font-family="sans-serif" font-size="11" lengthAdjust="spacingAndGlyphs" textLength="103" x="216" y="575.6299">protectiveItem: String</text><line style="stroke: #A80036; stroke-width: 1.5;" x1="197" x2="449" y1="582.0469" y2="582.0469"/><ellipse cx="207" cy="593.0469" fill="#84BE84" rx="3" ry="3" style="stroke: #038048; stroke-width: 1.0;"/><text fill="#000000" font-family="sans-serif" font-size="11" lengthAdjust="spacingAndGlyphs" textLength="99" x="216" y="597.4658">getIsSolid(): boolean</text><ellipse cx="207" cy="606.8828" fill="#84BE84" rx="3" ry="3" style="stroke: #038048; stroke-width: 1.0;"/><text fill="#000000" font-family="sans-serif" font-size="11" lengthAdjust="spacingAndGlyphs" textLength="116" x="216" y="611.3018">getRenderData(): String</text><ellipse cx="207" cy="620.7188" fill="#84BE84" rx="3" ry="3" style="stroke: #038048; stroke-width: 1.0;"/><text fill="#000000" font-family="sans-serif" font-size="11" lengthAdjust="spacingAndGlyphs" textLength="156" x="216" y="625.1377">setAnimationObject(Sprite): void</text><ellipse cx="207" cy="634.5547" fill="#84BE84" rx="3" ry="3" style="stroke: #038048; stroke-width: 1.0;"/><text fill="#000000" font-family="sans-serif" font-size="11" lengthAdjust="spacingAndGlyphs" textLength="136" x="216" y="638.9736">getAnimationObject(): Sprite</text><ellipse cx="207" cy="648.3906" fill="#84BE84" rx="3" ry="3" style="stroke: #038048; stroke-width: 1.0;"/><text fill="#000000" font-family="sans-serif" font-size="11" lengthAdjust="spacingAndGlyphs" textLength="47" x="216" y="652.8096">getX(): int</text><ellipse cx="207" cy="662.2266" fill="#84BE84" rx="3" ry="3" style="stroke: #038048; stroke-width: 1.0;"/><text fill="#000000" font-family="sans-serif" font-size="11" lengthAdjust="spacingAndGlyphs" textLength="47" x="216" y="666.6455">getY(): int</text><ellipse cx="207" cy="676.0625" fill="#84BE84" rx="3" ry="3" style="stroke: #038048; stroke-width: 1.0;"/><text fill="#000000" font-family="sans-serif" font-size="11" lengthAdjust="spacingAndGlyphs" textLength="119" x="216" y="680.4814">getPickupName(): String</text><ellipse cx="207" cy="689.8984" fill="#84BE84" rx="3" ry="3" style="stroke: #038048; stroke-width: 1.0;"/><text fill="#000000" font-family="sans-serif" font-size="11" lengthAdjust="spacingAndGlyphs" textLength="103" x="216" y="694.3174">hasPickup(): boolean</text><ellipse cx="207" cy="703.7344" fill="#84BE84" rx="3" ry="3" style="stroke: #038048; stroke-width: 1.0;"/><text fill="#000000" font-family="sans-serif" font-size="11" lengthAdjust="spacingAndGlyphs" textLength="107" x="216" y="708.1533">isOpenable(): boolean</text><ellipse cx="207" cy="717.5703" fill="#84BE84" rx="3" ry="3" style="stroke: #038048; stroke-width: 1.0;"/><text fill="#000000" font-family="sans-serif" font-size="11" lengthAdjust="spacingAndGlyphs" textLength="105" x="216" y="721.9893">isTreasure(): boolean</text><ellipse cx="207" cy="731.4063" fill="#84BE84" rx="3" ry="3" style="stroke: #038048; stroke-width: 1.0;"/><text fill="#000000" font-family="sans-serif" font-size="11" lengthAdjust="spacingAndGlyphs" textLength="83" x="216" y="735.8252">getColor(): String</text><ellipse cx="207" cy="745.2422" fill="#84BE84" rx="3" ry="3" style="stroke: #038048; stroke-width: 1.0;"/><text fill="#000000" font-family="sans-serif" font-size="11" lengthAdjust="spacingAndGlyphs" textLength="86" x="216" y="749.6611">getName(): String</text><ellipse cx="207" cy="759.0781" fill="#84BE84" rx="3" ry="3" style="stroke: #038048; stroke-width: 1.0;"/><text fill="#000000" font-family="sans-serif" font-size="11" lengthAdjust="spacingAndGlyphs" textLength="75" x="216" y="763.4971">getInfo(): String</text><ellipse cx="207" cy="772.9141" fill="#84BE84" rx="3" ry="3" style="stroke: #038048; stroke-width: 1.0;"/><text fill="#000000" font-family="sans-serif" font-size="11" lengthAdjust="spacingAndGlyphs" textLength="61" x="216" y="777.333">nullify(): void</text><ellipse cx="207" cy="786.75" fill="#84BE84" rx="3" ry="3" style="stroke: #038048; stroke-width: 1.0;"/><text fill="#000000" font-family="sans-serif" font-size="11" lengthAdjust="spacingAndGlyphs" textLength="228" x="216" y="791.1689">killsPlayer(HashMap&lt;String, Integer&gt;): boolean</text></a><!--MD5=[4072c6de8350df12d027062ebff73256]
class nz.ac.vuw.ecs.swen225.gp20.maze.Direction--><a href="Direction.html" target="_top" title="Direction.html" xlink:actuate="onRequest" xlink:href="Direction.html" xlink:show="new" xlink:title="Direction.html" xlink:type="simple"><rect codeLine="63" fill="#FEFECE" filter="url(#f25b5jgnoigvc)" height="131.0156" id="nz.ac.vuw.ecs.swen225.gp20.maze.Direction" style="stroke: #A80036; stroke-width: 1.5;" width="122" x="540" y="876"/><ellipse cx="573.45" cy="892" fill="#EB937F" rx="11" ry="11" style="stroke: #A80036; stroke-width: 1.0;"/><path d="M572.3094,892.7969 L572.3094,895.2969 L576.6375,895.2969 L576.6375,894.375 Q576.6375,893.7656 576.8719,893.5 Q577.1219,893.2344 577.4969,893.2344 Q577.8719,893.2344 578.1063,893.5 Q578.3406,893.7656 578.3406,894.375 L578.3406,897 L570.3406,897 Q569.7156,897 569.45,896.7656 Q569.2,896.5313 569.2,896.1406 Q569.2,895.7656 569.4656,895.5313 Q569.7313,895.2969 570.3406,895.2969 L570.6063,895.2969 L570.6063,888.6406 L570.3406,888.6406 Q569.7156,888.6406 569.45,888.4063 Q569.2,888.1719 569.2,887.7813 Q569.2,887.4063 569.45,887.1719 Q569.7156,886.9375 570.3406,886.9375 L577.9656,886.9375 L577.9656,889.5313 Q577.9656,890.1406 577.7313,890.4063 Q577.5125,890.6563 577.1219,890.6563 Q576.7469,890.6563 576.5125,890.4063 Q576.2781,890.1406 576.2781,889.5313 L576.2781,888.6406 L572.3094,888.6406 L572.3094,891.0938 L573.7938,891.0938 Q573.7938,890.4375 573.9188,890.25 Q574.1844,889.8438 574.6531,889.8438 Q575.0281,889.8438 575.2625,890.1094 Q575.4969,890.3594 575.4969,890.9688 L575.4969,892.9375 Q575.4969,893.4844 575.3719,893.6719 Q575.1063,894.0625 574.6531,894.0625 Q574.1844,894.0625 573.9188,893.6563 Q573.7938,893.4688 573.7938,892.7969 L572.3094,892.7969 Z "/><text fill="#000000" font-family="sans-serif" font-size="12" lengthAdjust="spacingAndGlyphs" textLength="49" x="591.55" y="896.9102">Direction</text><line style="stroke: #A80036; stroke-width: 1.5;" x1="541" x2="661" y1="908" y2="908"/><ellipse cx="551" cy="919" fill="none" rx="3" ry="3" style="stroke: #038048; stroke-width: 1.0;"/><text fill="#000000" font-family="sans-serif" font-size="11" lengthAdjust="spacingAndGlyphs" text-decoration="underline" textLength="15" x="560" y="923.4189">UP</text><ellipse cx="551" cy="932.8359" fill="none" rx="3" ry="3" style="stroke: #038048; stroke-width: 1.0;"/><text fill="#000000" font-family="sans-serif" font-size="11" lengthAdjust="spacingAndGlyphs" text-decoration="underline" textLength="35" x="560" y="937.2549">DOWN</text><ellipse cx="551" cy="946.6719" fill="none" rx="3" ry="3" style="stroke: #038048; stroke-width: 1.0;"/><text fill="#000000" font-family="sans-serif" font-size="11" lengthAdjust="spacingAndGlyphs" text-decoration="underline" textLength="27" x="560" y="951.0908">LEFT</text><ellipse cx="551" cy="960.5078" fill="none" rx="3" ry="3" style="stroke: #038048; stroke-width: 1.0;"/><text fill="#000000" font-family="sans-serif" font-size="11" lengthAdjust="spacingAndGlyphs" text-decoration="underline" textLength="35" x="560" y="964.9268">RIGHT</text><ellipse cx="551" cy="974.3438" fill="none" rx="3" ry="3" style="stroke: #038048; stroke-width: 1.0;"/><text fill="#000000" font-family="sans-serif" font-size="11" lengthAdjust="spacingAndGlyphs" text-decoration="underline" textLength="32" x="560" y="978.7627">NONE</text><line style="stroke: #A80036; stroke-width: 1.5;" x1="541" x2="661" y1="985.1797" y2="985.1797"/><ellipse cx="551" cy="996.1797" fill="#84BE84" rx="3" ry="3" style="stroke: #038048; stroke-width: 1.0;"/><text fill="#000000" font-family="sans-serif" font-size="11" lengthAdjust="spacingAndGlyphs" textLength="96" x="560" y="1000.5986">getDirection(): Point</text></a><!--MD5=[9a7d1fe5e7e205b9dd3fbf94307f920e]
class nz.ac.vuw.ecs.swen225.gp20.maze.Maze--><a href="Maze.html" target="_top" title="Maze.html" xlink:actuate="onRequest" xlink:href="Maze.html" xlink:show="new" xlink:title="Maze.html" xlink:type="simple"><rect codeLine="72" fill="#FEFECE" filter="url(#f25b5jgnoigvc)" height="172.5234" id="nz.ac.vuw.ecs.swen225.gp20.maze.Maze" style="stroke: #A80036; stroke-width: 1.5;" width="259" x="549.5" y="42"/><ellipse cx="659.75" cy="58" fill="#ADD1B2" rx="11" ry="11" style="stroke: #A80036; stroke-width: 1.0;"/><path d="M662.5156,53.875 Q662.6719,53.6563 662.8594,53.5469 Q663.0469,53.4375 663.2656,53.4375 Q663.6406,53.4375 663.875,53.7031 Q664.1094,53.9531 664.1094,54.5625 L664.1094,56.0156 Q664.1094,56.625 663.875,56.8906 Q663.6406,57.1563 663.2656,57.1563 Q662.9219,57.1563 662.7188,56.9531 Q662.5156,56.7656 662.4063,56.25 Q662.3594,55.8906 662.1719,55.7031 Q661.8438,55.3281 661.2344,55.1094 Q660.625,54.8906 660,54.8906 Q659.2344,54.8906 658.5938,55.2188 Q657.9688,55.5469 657.4688,56.2969 Q656.9844,57.0469 656.9844,58.0781 L656.9844,59.1719 Q656.9844,60.4063 657.875,61.2344 Q658.7656,62.0469 660.3594,62.0469 Q661.2969,62.0469 661.9531,61.7969 Q662.3438,61.6406 662.7656,61.2031 Q663.0313,60.9375 663.1719,60.8594 Q663.3281,60.7813 663.5313,60.7813 Q663.8594,60.7813 664.1094,61.0469 Q664.375,61.2969 664.375,61.6406 Q664.375,61.9844 664.0313,62.3906 Q663.5313,62.9688 662.7344,63.2969 Q661.6563,63.75 660.3594,63.75 Q658.8438,63.75 657.6406,63.125 Q656.6563,62.625 655.9688,61.5625 Q655.2813,60.4844 655.2813,59.2031 L655.2813,58.0469 Q655.2813,56.7188 655.8906,55.5781 Q656.5156,54.4219 657.6094,53.8125 Q658.7031,53.1875 659.9375,53.1875 Q660.6719,53.1875 661.3125,53.3594 Q661.9688,53.5156 662.5156,53.875 Z "/><text fill="#000000" font-family="sans-serif" font-size="12" lengthAdjust="spacingAndGlyphs" textLength="30" x="680.25" y="62.9102">Maze</text><line style="stroke: #A80036; stroke-width: 1.5;" x1="550.5" x2="807.5" y1="74" y2="74"/><line style="stroke: #A80036; stroke-width: 1.5;" x1="550.5" x2="807.5" y1="82" y2="82"/><ellipse cx="560.5" cy="93" fill="#84BE84" rx="3" ry="3" style="stroke: #038048; stroke-width: 1.0;"/><text fill="#000000" font-family="sans-serif" font-size="11" lengthAdjust="spacingAndGlyphs" textLength="83" x="569.5" y="97.4189">loadMaze(int): int</text><ellipse cx="560.5" cy="106.8359" fill="#84BE84" rx="3" ry="3" style="stroke: #038048; stroke-width: 1.0;"/><text fill="#000000" font-family="sans-serif" font-size="11" lengthAdjust="spacingAndGlyphs" textLength="90" x="569.5" y="111.2549">getBoardSize(): int</text><ellipse cx="560.5" cy="120.6719" fill="#84BE84" rx="3" ry="3" style="stroke: #038048; stroke-width: 1.0;"/><text fill="#000000" font-family="sans-serif" font-size="11" lengthAdjust="spacingAndGlyphs" textLength="66" x="569.5" y="125.0908">getLevel(): int</text><ellipse cx="560.5" cy="134.5078" fill="#84BE84" rx="3" ry="3" style="stroke: #038048; stroke-width: 1.0;"/><text fill="#000000" font-family="sans-serif" font-size="11" lengthAdjust="spacingAndGlyphs" textLength="233" x="569.5" y="138.9268">getPlayerInventory(): HashMap&lt;String, Integer&gt;</text><ellipse cx="560.5" cy="148.3438" fill="#84BE84" rx="3" ry="3" style="stroke: #038048; stroke-width: 1.0;"/><text fill="#000000" font-family="sans-serif" font-size="11" lengthAdjust="spacingAndGlyphs" textLength="137" x="569.5" y="152.7627">tick(Direction): RenderTuple</text><ellipse cx="560.5" cy="162.1797" fill="#84BE84" rx="3" ry="3" style="stroke: #038048; stroke-width: 1.0;"/><text fill="#000000" font-family="sans-serif" font-size="11" lengthAdjust="spacingAndGlyphs" textLength="139" x="569.5" y="166.5986">addToInventory(String): void</text><ellipse cx="560.5" cy="176.0156" fill="#84BE84" rx="3" ry="3" style="stroke: #038048; stroke-width: 1.0;"/><text fill="#000000" font-family="sans-serif" font-size="11" lengthAdjust="spacingAndGlyphs" textLength="171" x="569.5" y="180.4346">removeFromInventory(String): void</text><ellipse cx="560.5" cy="189.8516" fill="#84BE84" rx="3" ry="3" style="stroke: #038048; stroke-width: 1.0;"/><text fill="#000000" font-family="sans-serif" font-size="11" lengthAdjust="spacingAndGlyphs" textLength="161" x="569.5" y="194.2705">getCellFromDir(Actor, Point): Cell</text><ellipse cx="560.5" cy="203.6875" fill="#84BE84" rx="3" ry="3" style="stroke: #038048; stroke-width: 1.0;"/><text fill="#000000" font-family="sans-serif" font-size="11" lengthAdjust="spacingAndGlyphs" textLength="166" x="569.5" y="208.1064">isMoveValid(Actor, Point): boolean</text></a><!--MD5=[c1bc6532a87e509582f7deffe7dd4636]
class nz.ac.vuw.ecs.swen225.gp20.maze.RenderTuple--><a href="RenderTuple.html" target="_top" title="RenderTuple.html" xlink:actuate="onRequest" xlink:href="RenderTuple.html" xlink:show="new" xlink:title="RenderTuple.html" xlink:type="simple"><rect codeLine="84" fill="#FEFECE" filter="url(#f25b5jgnoigvc)" height="158.6875" id="nz.ac.vuw.ecs.swen225.gp20.maze.RenderTuple" style="stroke: #A80036; stroke-width: 1.5;" width="482" x="32" y="49"/><ellipse cx="232.75" cy="65" fill="#ADD1B2" rx="11" ry="11" style="stroke: #A80036; stroke-width: 1.0;"/><path d="M235.5156,60.875 Q235.6719,60.6563 235.8594,60.5469 Q236.0469,60.4375 236.2656,60.4375 Q236.6406,60.4375 236.875,60.7031 Q237.1094,60.9531 237.1094,61.5625 L237.1094,63.0156 Q237.1094,63.625 236.875,63.8906 Q236.6406,64.1563 236.2656,64.1563 Q235.9219,64.1563 235.7188,63.9531 Q235.5156,63.7656 235.4063,63.25 Q235.3594,62.8906 235.1719,62.7031 Q234.8438,62.3281 234.2344,62.1094 Q233.625,61.8906 233,61.8906 Q232.2344,61.8906 231.5938,62.2188 Q230.9688,62.5469 230.4688,63.2969 Q229.9844,64.0469 229.9844,65.0781 L229.9844,66.1719 Q229.9844,67.4063 230.875,68.2344 Q231.7656,69.0469 233.3594,69.0469 Q234.2969,69.0469 234.9531,68.7969 Q235.3438,68.6406 235.7656,68.2031 Q236.0313,67.9375 236.1719,67.8594 Q236.3281,67.7813 236.5313,67.7813 Q236.8594,67.7813 237.1094,68.0469 Q237.375,68.2969 237.375,68.6406 Q237.375,68.9844 237.0313,69.3906 Q236.5313,69.9688 235.7344,70.2969 Q234.6563,70.75 233.3594,70.75 Q231.8438,70.75 230.6406,70.125 Q229.6563,69.625 228.9688,68.5625 Q228.2813,67.4844 228.2813,66.2031 L228.2813,65.0469 Q228.2813,63.7188 228.8906,62.5781 Q229.5156,61.4219 230.6094,60.8125 Q231.7031,60.1875 232.9375,60.1875 Q233.6719,60.1875 234.3125,60.3594 Q234.9688,60.5156 235.5156,60.875 Z "/><text fill="#000000" font-family="sans-serif" font-size="12" lengthAdjust="spacingAndGlyphs" textLength="72" x="253.25" y="69.9102">RenderTuple</text><line style="stroke: #A80036; stroke-width: 1.5;" x1="33" x2="513" y1="81" y2="81"/><line style="stroke: #A80036; stroke-width: 1.5;" x1="33" x2="513" y1="89" y2="89"/><ellipse cx="43" cy="100" fill="#84BE84" rx="3" ry="3" style="stroke: #038048; stroke-width: 1.0;"/><text fill="#000000" font-family="sans-serif" font-size="11" lengthAdjust="spacingAndGlyphs" textLength="456" x="52" y="104.4189">RenderTuple(Actor[], Cell[], HashMap&lt;String, Integer&gt;, boolean, String, int, int, String, boolean)</text><ellipse cx="43" cy="113.8359" fill="#84BE84" rx="3" ry="3" style="stroke: #038048; stroke-width: 1.0;"/><text fill="#000000" font-family="sans-serif" font-size="11" lengthAdjust="spacingAndGlyphs" textLength="202" x="52" y="118.2549">getInventory(): HashMap&lt;String, Integer&gt;</text><ellipse cx="43" cy="127.6719" fill="#84BE84" rx="3" ry="3" style="stroke: #038048; stroke-width: 1.0;"/><text fill="#000000" font-family="sans-serif" font-size="11" lengthAdjust="spacingAndGlyphs" textLength="124" x="52" y="132.0908">isPlayerOnInfo(): boolean</text><ellipse cx="43" cy="141.5078" fill="#84BE84" rx="3" ry="3" style="stroke: #038048; stroke-width: 1.0;"/><text fill="#000000" font-family="sans-serif" font-size="11" lengthAdjust="spacingAndGlyphs" textLength="75" x="52" y="145.9268">getInfo(): String</text><ellipse cx="43" cy="155.3438" fill="#84BE84" rx="3" ry="3" style="stroke: #038048; stroke-width: 1.0;"/><text fill="#000000" font-family="sans-serif" font-size="11" lengthAdjust="spacingAndGlyphs" textLength="130" x="52" y="159.7627">getTreasureCollected(): int</text><ellipse cx="43" cy="169.1797" fill="#84BE84" rx="3" ry="3" style="stroke: #038048; stroke-width: 1.0;"/><text fill="#000000" font-family="sans-serif" font-size="11" lengthAdjust="spacingAndGlyphs" textLength="103" x="52" y="173.5986">getTreasureLeft(): int</text><ellipse cx="43" cy="183.0156" fill="#84BE84" rx="3" ry="3" style="stroke: #038048; stroke-width: 1.0;"/><text fill="#000000" font-family="sans-serif" font-size="11" lengthAdjust="spacingAndGlyphs" textLength="116" x="52" y="187.4346">getSoundEvent(): String</text><ellipse cx="43" cy="196.8516" fill="#84BE84" rx="3" ry="3" style="stroke: #038048; stroke-width: 1.0;"/><text fill="#000000" font-family="sans-serif" font-size="11" lengthAdjust="spacingAndGlyphs" textLength="104" x="52" y="201.2705">gameOver(): boolean</text></a><!--MD5=[f8e65693af3329aef62fb56dd18823d6]
link nz.ac.vuw.ecs.swen225.gp20.maze.Actor to nz.ac.vuw.ecs.swen225.gp20.maze.Direction--><path codeLine="95" d="M601,715.02 C601,769.65 601,827.27 601,870.58 " fill="none" id="nz.ac.vuw.ecs.swen225.gp20.maze.Actor-to-nz.ac.vuw.ecs.swen225.gp20.maze.Direction" style="stroke: #A80036; stroke-width: 1.0;"/><polygon fill="#A80036" points="601,875.79,605,866.79,601,870.79,597,866.79,601,875.79" style="stroke: #A80036; stroke-width: 1.0;"/><text fill="#000000" font-family="sans-serif" font-size="13" lengthAdjust="spacingAndGlyphs" textLength="49" x="602" y="842.4951">direction</text><!--MD5=[e4911f2e534b0726a0d29f9105e712f8]
link nz.ac.vuw.ecs.swen225.gp20.maze.Maze to nz.ac.vuw.ecs.swen225.gp20.maze.Cell--><path codeLine="96" d="M571.12,215.35 C543.97,239.19 515.8,265.98 492,293 C478.86,307.92 465.92,323.92 453.4,340.35 " fill="none" id="nz.ac.vuw.ecs.swen225.gp20.maze.Maze-to-nz.ac.vuw.ecs.swen225.gp20.maze.Cell" style="stroke: #A80036; stroke-width: 1.0;"/><polygon fill="#A80036" points="450.22,344.54,458.8391,339.7745,453.236,340.552,452.4584,334.9489,450.22,344.54" style="stroke: #A80036; stroke-width: 1.0;"/><text fill="#000000" font-family="sans-serif" font-size="13" lengthAdjust="spacingAndGlyphs" textLength="32" x="535" y="259.4951">board</text><text fill="#000000" font-family="sans-serif" font-size="13" lengthAdjust="spacingAndGlyphs" textLength="5" x="458.1248" y="329.3249">*</text><!--MD5=[29c5bda41efbd22045cb4b92e038bdaa]
link nz.ac.vuw.ecs.swen225.gp20.maze.Maze to nz.ac.vuw.ecs.swen225.gp20.maze.Actor--><path codeLine="97" d="M610.85,215.13 C605.66,224.8 601.21,234.84 598,245 C585.48,284.67 581.07,328.79 580.94,370.71 " fill="none" id="nz.ac.vuw.ecs.swen225.gp20.maze.Maze-to-nz.ac.vuw.ecs.swen225.gp20.maze.Actor" style="stroke: #A80036; stroke-width: 1.0;"/><polygon fill="#A80036" points="580.94,375.81,584.94,366.81,580.94,370.81,576.94,366.81,580.94,375.81" style="stroke: #A80036; stroke-width: 1.0;"/><text fill="#000000" font-family="sans-serif" font-size="13" lengthAdjust="spacingAndGlyphs" textLength="36" x="599" y="259.4951">actors</text><text fill="#000000" font-family="sans-serif" font-size="13" lengthAdjust="spacingAndGlyphs" textLength="5" x="574.9178" y="365.2716">*</text><!--MD5=[29c5bda41efbd22045cb4b92e038bdaa]
link nz.ac.vuw.ecs.swen225.gp20.maze.Maze to nz.ac.vuw.ecs.swen225.gp20.maze.Actor--><path codeLine="98" d="M662.89,215.24 C654.44,260.19 643.77,316.94 633.68,370.6 " fill="none" id="nz.ac.vuw.ecs.swen225.gp20.maze.Maze-to-nz.ac.vuw.ecs.swen225.gp20.maze.Actor-1" style="stroke: #A80036; stroke-width: 1.0;"/><polygon fill="#A80036" points="632.71,375.79,638.3115,367.6892,633.6383,370.8769,630.4506,366.2038,632.71,375.79" style="stroke: #A80036; stroke-width: 1.0;"/><text fill="#000000" font-family="sans-serif" font-size="13" lengthAdjust="spacingAndGlyphs" textLength="35" x="656" y="259.4951">player</text><!--MD5=[9aab9bd76b28e52b0e37ed332cd322f3]
link nz.ac.vuw.ecs.swen225.gp20.maze.RenderTuple to nz.ac.vuw.ecs.swen225.gp20.maze.Actor--><path codeLine="99" d="M353.62,208.26 C374.27,227.01 396.91,246.38 419,263 C439.4,278.35 450.52,274.38 468,293 C489.66,316.07 508.81,343.35 525.35,371.28 " fill="none" id="nz.ac.vuw.ecs.swen225.gp20.maze.RenderTuple-to-nz.ac.vuw.ecs.swen225.gp20.maze.Actor" style="stroke: #A80036; stroke-width: 1.0;"/><polygon fill="#A80036" points="527.98,375.77,526.8801,365.9827,525.4518,371.4563,519.9782,370.0279,527.98,375.77" style="stroke: #A80036; stroke-width: 1.0;"/><text fill="#000000" font-family="sans-serif" font-size="13" lengthAdjust="spacingAndGlyphs" textLength="36" x="420" y="259.4951">actors</text><text fill="#000000" font-family="sans-serif" font-size="13" lengthAdjust="spacingAndGlyphs" textLength="5" x="519.558" y="365.2298">*</text><!--MD5=[394ea0749df4403a8bec7cfb413480f3]
link nz.ac.vuw.ecs.swen225.gp20.maze.RenderTuple to nz.ac.vuw.ecs.swen225.gp20.maze.Cell--><path codeLine="100" d="M282.46,208.05 C285.31,231.7 288.61,259.07 292.07,287.76 " fill="none" id="nz.ac.vuw.ecs.swen225.gp20.maze.RenderTuple-to-nz.ac.vuw.ecs.swen225.gp20.maze.Cell" style="stroke: #A80036; stroke-width: 1.0;"/><polygon fill="#A80036" points="292.67,292.76,295.5628,283.3456,292.0709,287.796,287.6204,284.3041,292.67,292.76" style="stroke: #A80036; stroke-width: 1.0;"/><text fill="#000000" font-family="sans-serif" font-size="13" lengthAdjust="spacingAndGlyphs" textLength="27" x="288" y="259.4951">cells</text><text fill="#000000" font-family="sans-serif" font-size="13" lengthAdjust="spacingAndGlyphs" textLength="5" x="286.6954" y="282.5258">*</text><text fill="#888888" font-family="sans-serif" font-size="10" lengthAdjust="spacingAndGlyphs" textLength="185" x="322" y="1039.3809">UMLDoclet 2.0.12, PlantUML 1.2020.16</text><!--MD5=[b3ecd6ea9dff7805a4f61a0b35df7f6b]
@startuml
    namespace nz.ac.vuw.ecs.swen225.gp20.maze {

        class Actor [[Actor.html]] {
            #name: String
            #isPlayer: boolean
            #isMoving: boolean
            #x: int
            #y: int
            #moveProgress: int
            #ticksToMove: int
            #killsPlayer: boolean
            #blocksMovement: boolean
            #isPushable: boolean
            +Actor(boolean, String, int, int, int)
            +getIsMoving(): boolean
            +tick(): void
            +collidesWith(Actor): boolean
            +getX(): int
            +getY(): int
            +move(Direction): void
            +getName(): String
            +killsPlayer(): boolean
            +blocksMovement(): boolean
            +isPushable(): boolean
        }

        class Cell [[Cell.html]] {
            #animationObject: Sprite
            #name: String
            #x: int
            #y: int
            #metaData: int
            #animated: boolean
            #numberOfFramesTotal: int
            #timeBetweenFrames: int
            #counter: int
            #isSolid: boolean
            #isOpenable: boolean
            #hasPickup: boolean
            #isTreasure: boolean
            #killsPlayer: boolean
            #pickupName: String
            #color: String
            #infoMessage: String
            #protectiveItem: String
            +getIsSolid(): boolean
            +getRenderData(): String
            +setAnimationObject(Sprite): void
            +getAnimationObject(): Sprite
            +getX(): int
            +getY(): int
            +getPickupName(): String
            +hasPickup(): boolean
            +isOpenable(): boolean
            +isTreasure(): boolean
            +getColor(): String
            +getName(): String
            +getInfo(): String
            +nullify(): void
            +killsPlayer(HashMap<String, Integer>): boolean
        }

        enum Direction [[Direction.html]] {
            {static} +UP
            {static} +DOWN
            {static} +LEFT
            {static} +RIGHT
            {static} +NONE
            +getDirection(): Point
        }

        class Maze [[Maze.html]] {
            +loadMaze(int): int
            +getBoardSize(): int
            +getLevel(): int
            +getPlayerInventory(): HashMap<String, Integer>
            +tick(Direction): RenderTuple
            +addToInventory(String): void
            +removeFromInventory(String): void
            +getCellFromDir(Actor, Point): Cell
            +isMoveValid(Actor, Point): boolean
        }

        class RenderTuple [[RenderTuple.html]] {
            +RenderTuple(Actor[], Cell[], HashMap<String, Integer>, boolean, String, int, int, String, boolean)
            +getInventory(): HashMap<String, Integer>
            +isPlayerOnInfo(): boolean
            +getInfo(): String
            +getTreasureCollected(): int
            +getTreasureLeft(): int
            +getSoundEvent(): String
            +gameOver(): boolean
        }

        Actor - -> Direction: direction
        Maze - -> "*" Cell: board
        Maze - -> "*" Actor: actors
        Maze - -> Actor: player
        RenderTuple - -> "*" Actor: actors
        RenderTuple - -> "*" Cell: cells
    }

    center footer UMLDoclet 2.0.12, PlantUML 1.2020.16
@enduml

PlantUML version 1.2020.16(Mon Aug 24 08:20:43 NZST 2020)
(APACHE source distribution)
Java Runtime: Java(TM) SE Runtime Environment
JVM: Java HotSpot(TM) 64-Bit Server VM
Default Encoding: Cp1252
Language: en
Country: NZ
--></g></svg>