<?xml version="1.0" encoding="UTF-8" standalone="no"?><svg xmlns="http://www.w3.org/2000/svg" xmlns:xlink="http://www.w3.org/1999/xlink" contentScriptType="application/ecmascript" contentStyleType="text/css" height="224px" preserveAspectRatio="none" style="width:508px;height:224px;" version="1.1" viewBox="0 0 508 224" width="508px" zoomAndPan="magnify"><defs><filter height="300%" id="f1qvhrm3ztgbp3" width="300%" x="-1" y="-1"><feGaussianBlur result="blurOut" stdDeviation="2.0"/><feColorMatrix in="blurOut" result="blurOut2" type="matrix" values="0 0 0 0 0 0 0 0 0 0 0 0 0 0 0 0 0 0 .4 0"/><feOffset dx="4.0" dy="4.0" in="blurOut2" result="blurOut3"/><feBlend in="SourceGraphic" in2="blurOut3" mode="normal"/></filter></defs><g><!--MD5=[c1bc6532a87e509582f7deffe7dd4636]
class nz.ac.vuw.ecs.swen225.gp20.maze.RenderTuple--><a href="RenderTuple.html" target="_top" title="RenderTuple.html" xlink:actuate="onRequest" xlink:href="RenderTuple.html" xlink:show="new" xlink:title="RenderTuple.html" xlink:type="simple"><rect codeLine="5" fill="#FEFECE" filter="url(#f1qvhrm3ztgbp3)" height="186.5469" id="nz.ac.vuw.ecs.swen225.gp20.maze.RenderTuple" style="stroke: #A80036; stroke-width: 1.5;" width="482" x="7" y="7"/><ellipse cx="161.25" cy="27.0938" fill="#ADD1B2" rx="11" ry="11" style="stroke: #A80036; stroke-width: 1.0;"/><path d="M164.0156,22.9688 Q164.1719,22.75 164.3594,22.6406 Q164.5469,22.5313 164.7656,22.5313 Q165.1406,22.5313 165.375,22.7969 Q165.6094,23.0469 165.6094,23.6563 L165.6094,25.1094 Q165.6094,25.7188 165.375,25.9844 Q165.1406,26.25 164.7656,26.25 Q164.4219,26.25 164.2188,26.0469 Q164.0156,25.8594 163.9063,25.3438 Q163.8594,24.9844 163.6719,24.7969 Q163.3438,24.4219 162.7344,24.2031 Q162.125,23.9844 161.5,23.9844 Q160.7344,23.9844 160.0938,24.3125 Q159.4688,24.6406 158.9688,25.3906 Q158.4844,26.1406 158.4844,27.1719 L158.4844,28.2656 Q158.4844,29.5 159.375,30.3281 Q160.2656,31.1406 161.8594,31.1406 Q162.7969,31.1406 163.4531,30.8906 Q163.8438,30.7344 164.2656,30.2969 Q164.5313,30.0313 164.6719,29.9531 Q164.8281,29.875 165.0313,29.875 Q165.3594,29.875 165.6094,30.1406 Q165.875,30.3906 165.875,30.7344 Q165.875,31.0781 165.5313,31.4844 Q165.0313,32.0625 164.2344,32.3906 Q163.1563,32.8438 161.8594,32.8438 Q160.3438,32.8438 159.1406,32.2188 Q158.1563,31.7188 157.4688,30.6563 Q156.7813,29.5781 156.7813,28.2969 L156.7813,27.1406 Q156.7813,25.8125 157.3906,24.6719 Q158.0156,23.5156 159.1094,22.9063 Q160.2031,22.2813 161.4375,22.2813 Q162.1719,22.2813 162.8125,22.4531 Q163.4688,22.6094 164.0156,22.9688 Z "/><text fill="#000000" font-family="sans-serif" font-size="14" lengthAdjust="spacingAndGlyphs" textLength="83" x="222.75" y="26.5332">RenderTuple</text><text fill="#000000" font-family="sans-serif" font-size="10" lengthAdjust="spacingAndGlyphs" textLength="165" x="181.75" y="39.9902">nz.ac.vuw.ecs.swen225.gp20.maze</text><line style="stroke: #A80036; stroke-width: 1.5;" x1="8" x2="488" y1="47.1875" y2="47.1875"/><ellipse cx="18" cy="58.1875" fill="#84BE84" rx="3" ry="3" style="stroke: #038048; stroke-width: 1.0;"/><text fill="#000000" font-family="sans-serif" font-size="11" lengthAdjust="spacingAndGlyphs" textLength="456" x="27" y="62.6064">RenderTuple(Actor[], Cell[], HashMap&lt;String, Integer&gt;, boolean, String, int, int, String, boolean)</text><ellipse cx="18" cy="72.0234" fill="#84BE84" rx="3" ry="3" style="stroke: #038048; stroke-width: 1.0;"/><text fill="#000000" font-family="sans-serif" font-size="11" lengthAdjust="spacingAndGlyphs" textLength="93" x="27" y="76.4424">getActors(): Actor[]</text><ellipse cx="18" cy="85.8594" fill="#84BE84" rx="3" ry="3" style="stroke: #038048; stroke-width: 1.0;"/><text fill="#000000" font-family="sans-serif" font-size="11" lengthAdjust="spacingAndGlyphs" textLength="77" x="27" y="90.2783">getCells(): Cell[]</text><ellipse cx="18" cy="99.6953" fill="#84BE84" rx="3" ry="3" style="stroke: #038048; stroke-width: 1.0;"/><text fill="#000000" font-family="sans-serif" font-size="11" lengthAdjust="spacingAndGlyphs" textLength="202" x="27" y="104.1143">getInventory(): HashMap&lt;String, Integer&gt;</text><ellipse cx="18" cy="113.5313" fill="#84BE84" rx="3" ry="3" style="stroke: #038048; stroke-width: 1.0;"/><text fill="#000000" font-family="sans-serif" font-size="11" lengthAdjust="spacingAndGlyphs" textLength="124" x="27" y="117.9502">isPlayerOnInfo(): boolean</text><ellipse cx="18" cy="127.3672" fill="#84BE84" rx="3" ry="3" style="stroke: #038048; stroke-width: 1.0;"/><text fill="#000000" font-family="sans-serif" font-size="11" lengthAdjust="spacingAndGlyphs" textLength="75" x="27" y="131.7861">getInfo(): String</text><ellipse cx="18" cy="141.2031" fill="#84BE84" rx="3" ry="3" style="stroke: #038048; stroke-width: 1.0;"/><text fill="#000000" font-family="sans-serif" font-size="11" lengthAdjust="spacingAndGlyphs" textLength="130" x="27" y="145.6221">getTreasureCollected(): int</text><ellipse cx="18" cy="155.0391" fill="#84BE84" rx="3" ry="3" style="stroke: #038048; stroke-width: 1.0;"/><text fill="#000000" font-family="sans-serif" font-size="11" lengthAdjust="spacingAndGlyphs" textLength="103" x="27" y="159.458">getTreasureLeft(): int</text><ellipse cx="18" cy="168.875" fill="#84BE84" rx="3" ry="3" style="stroke: #038048; stroke-width: 1.0;"/><text fill="#000000" font-family="sans-serif" font-size="11" lengthAdjust="spacingAndGlyphs" textLength="116" x="27" y="173.2939">getSoundEvent(): String</text><ellipse cx="18" cy="182.7109" fill="#84BE84" rx="3" ry="3" style="stroke: #038048; stroke-width: 1.0;"/><text fill="#000000" font-family="sans-serif" font-size="11" lengthAdjust="spacingAndGlyphs" textLength="104" x="27" y="187.1299">gameOver(): boolean</text></a><text fill="#888888" font-family="sans-serif" font-size="10" lengthAdjust="spacingAndGlyphs" textLength="185" x="155.5" y="210.9277">UMLDoclet 2.0.12, PlantUML 1.2020.16</text><!--MD5=[584751d999a5ff43ce25842464030bba]
@startuml
    set namespaceSeparator none
    hide empty fields
    hide empty methods

    class "<size:14>RenderTuple\n<size:10>nz.ac.vuw.ecs.swen225.gp20.maze" as nz.ac.vuw.ecs.swen225.gp20.maze.RenderTuple [[RenderTuple.html]] {
        +RenderTuple(Actor[], Cell[], HashMap<String, Integer>, boolean, String, int, int, String, boolean)
        +getActors(): Actor[]
        +getCells(): Cell[]
        +getInventory(): HashMap<String, Integer>
        +isPlayerOnInfo(): boolean
        +getInfo(): String
        +getTreasureCollected(): int
        +getTreasureLeft(): int
        +getSoundEvent(): String
        +gameOver(): boolean
    }

    center footer UMLDoclet 2.0.12, PlantUML 1.2020.16
@enduml

PlantUML version 1.2020.16(Mon Aug 24 08:20:43 NZST 2020)
(APACHE source distribution)
Java Runtime: Java(TM) SE Runtime Environment
JVM: Java HotSpot(TM) 64-Bit Server VM
Default Encoding: Cp1252
Language: en
Country: NZ
--></g></svg>