<?xml version="1.0" encoding="UTF-8" standalone="no"?><svg xmlns="http://www.w3.org/2000/svg" xmlns:xlink="http://www.w3.org/1999/xlink" contentScriptType="application/ecmascript" contentStyleType="text/css" height="141px" preserveAspectRatio="none" style="width:338px;height:141px;" version="1.1" viewBox="0 0 338 141" width="338px" zoomAndPan="magnify"><defs><filter height="300%" id="f1p9zr3uly29z1" width="300%" x="-1" y="-1"><feGaussianBlur result="blurOut" stdDeviation="2.0"/><feColorMatrix in="blurOut" result="blurOut2" type="matrix" values="0 0 0 0 0 0 0 0 0 0 0 0 0 0 0 0 0 0 .4 0"/><feOffset dx="4.0" dy="4.0" in="blurOut2" result="blurOut3"/><feBlend in="SourceGraphic" in2="blurOut3" mode="normal"/></filter></defs><g><!--MD5=[26f2e58bd700eed081a4a7f315cf5a15]
class nz.ac.vuw.ecs.swen225.gp20.render.states.InfoPane--><a href="InfoPane.html" target="_top" title="InfoPane.html" xlink:actuate="onRequest" xlink:href="InfoPane.html" xlink:show="new" xlink:title="InfoPane.html" xlink:type="simple"><rect codeLine="5" fill="#FEFECE" filter="url(#f1p9zr3uly29z1)" height="103.5313" id="nz.ac.vuw.ecs.swen225.gp20.render.states.InfoPane" style="stroke: #A80036; stroke-width: 1.5;" width="312" x="7" y="7"/><ellipse cx="58.25" cy="27.0938" fill="#ADD1B2" rx="11" ry="11" style="stroke: #A80036; stroke-width: 1.0;"/><path d="M61.0156,22.9688 Q61.1719,22.75 61.3594,22.6406 Q61.5469,22.5313 61.7656,22.5313 Q62.1406,22.5313 62.375,22.7969 Q62.6094,23.0469 62.6094,23.6563 L62.6094,25.1094 Q62.6094,25.7188 62.375,25.9844 Q62.1406,26.25 61.7656,26.25 Q61.4219,26.25 61.2188,26.0469 Q61.0156,25.8594 60.9063,25.3438 Q60.8594,24.9844 60.6719,24.7969 Q60.3438,24.4219 59.7344,24.2031 Q59.125,23.9844 58.5,23.9844 Q57.7344,23.9844 57.0938,24.3125 Q56.4688,24.6406 55.9688,25.3906 Q55.4844,26.1406 55.4844,27.1719 L55.4844,28.2656 Q55.4844,29.5 56.375,30.3281 Q57.2656,31.1406 58.8594,31.1406 Q59.7969,31.1406 60.4531,30.8906 Q60.8438,30.7344 61.2656,30.2969 Q61.5313,30.0313 61.6719,29.9531 Q61.8281,29.875 62.0313,29.875 Q62.3594,29.875 62.6094,30.1406 Q62.875,30.3906 62.875,30.7344 Q62.875,31.0781 62.5313,31.4844 Q62.0313,32.0625 61.2344,32.3906 Q60.1563,32.8438 58.8594,32.8438 Q57.3438,32.8438 56.1406,32.2188 Q55.1563,31.7188 54.4688,30.6563 Q53.7813,29.5781 53.7813,28.2969 L53.7813,27.1406 Q53.7813,25.8125 54.3906,24.6719 Q55.0156,23.5156 56.1094,22.9063 Q57.2031,22.2813 58.4375,22.2813 Q59.1719,22.2813 59.8125,22.4531 Q60.4688,22.6094 61.0156,22.9688 Z "/><text fill="#000000" font-family="sans-serif" font-size="14" lengthAdjust="spacingAndGlyphs" textLength="57" x="150.75" y="26.5332">InfoPane</text><text fill="#000000" font-family="sans-serif" font-size="10" lengthAdjust="spacingAndGlyphs" textLength="201" x="78.75" y="39.9902">nz.ac.vuw.ecs.swen225.gp20.render.states</text><line style="stroke: #A80036; stroke-width: 1.5;" x1="8" x2="318" y1="47.1875" y2="47.1875"/><ellipse cx="18" cy="58.1875" fill="#84BE84" rx="3" ry="3" style="stroke: #038048; stroke-width: 1.0;"/><text fill="#000000" font-family="sans-serif" font-size="11" lengthAdjust="spacingAndGlyphs" textLength="85" x="27" y="62.6064">InfoPane(Assets)</text><ellipse cx="18" cy="72.0234" fill="#84BE84" rx="3" ry="3" style="stroke: #038048; stroke-width: 1.0;"/><text fill="#000000" font-family="sans-serif" font-size="11" lengthAdjust="spacingAndGlyphs" textLength="286" x="27" y="76.4424">update(int, RenderTuple, String, boolean, boolean, int): void</text><ellipse cx="18" cy="85.8594" fill="#84BE84" rx="3" ry="3" style="stroke: #038048; stroke-width: 1.0;"/><text fill="#000000" font-family="sans-serif" font-size="11" lengthAdjust="spacingAndGlyphs" textLength="251" x="27" y="90.2783">checkState(String, BufferedImage[]): BufferedImage</text><ellipse cx="18" cy="99.6953" fill="#84BE84" rx="3" ry="3" style="stroke: #038048; stroke-width: 1.0;"/><text fill="#000000" font-family="sans-serif" font-size="11" lengthAdjust="spacingAndGlyphs" textLength="103" x="27" y="104.1143">draw(Graphics): void</text></a><text fill="#888888" font-family="sans-serif" font-size="10" lengthAdjust="spacingAndGlyphs" textLength="185" x="70.5" y="127.9121">UMLDoclet 2.0.12, PlantUML 1.2020.16</text><!--MD5=[af70a57d093182278769e90fb4a62f0a]
@startuml
    set namespaceSeparator none
    hide empty fields
    hide empty methods

    class "<size:14>InfoPane\n<size:10>nz.ac.vuw.ecs.swen225.gp20.render.states" as nz.ac.vuw.ecs.swen225.gp20.render.states.InfoPane [[InfoPane.html]] {
        +InfoPane(Assets)
        +update(int, RenderTuple, String, boolean, boolean, int): void
        +checkState(String, BufferedImage[]): BufferedImage
        +draw(Graphics): void
    }

    center footer UMLDoclet 2.0.12, PlantUML 1.2020.16
@enduml

PlantUML version 1.2020.16(Mon Aug 24 08:20:43 NZST 2020)
(APACHE source distribution)
Java Runtime: Java(TM) SE Runtime Environment
JVM: Java HotSpot(TM) 64-Bit Server VM
Default Encoding: Cp1252
Language: en
Country: NZ
--></g></svg>