<?xml version="1.0" encoding="UTF-8" standalone="no"?><svg xmlns="http://www.w3.org/2000/svg" xmlns:xlink="http://www.w3.org/1999/xlink" contentScriptType="application/ecmascript" contentStyleType="text/css" height="353px" preserveAspectRatio="none" style="width:603px;height:353px;" version="1.1" viewBox="0 0 603 353" width="603px" zoomAndPan="magnify"><defs><filter height="300%" id="fr9877tdwojbw" width="300%" x="-1" y="-1"><feGaussianBlur result="blurOut" stdDeviation="2.0"/><feColorMatrix in="blurOut" result="blurOut2" type="matrix" values="0 0 0 0 0 0 0 0 0 0 0 0 0 0 0 0 0 0 .4 0"/><feOffset dx="4.0" dy="4.0" in="blurOut2" result="blurOut3"/><feBlend in="SourceGraphic" in2="blurOut3" mode="normal"/></filter></defs><g><!--MD5=[c72eff7091986db79be04461f866b246]
cluster nz.ac.vuw.ecs.swen225.gp20.render.states--><polygon fill="#FFFFFF" filter="url(#fr9877tdwojbw)" points="16,6,314,6,321,29.6094,581,29.6094,581,324,16,324,16,6" style="stroke: #000000; stroke-width: 1.5;"/><line style="stroke: #000000; stroke-width: 1.5;" x1="16" x2="321" y1="29.6094" y2="29.6094"/><text fill="#000000" font-family="sans-serif" font-size="14" font-weight="bold" lengthAdjust="spacingAndGlyphs" textLength="292" x="20" y="22.5332">nz.ac.vuw.ecs.swen225.gp20.render.states</text><!--MD5=[26f2e58bd700eed081a4a7f315cf5a15]
class nz.ac.vuw.ecs.swen225.gp20.render.states.InfoPane--><a href="InfoPane.html" target="_top" title="InfoPane.html" xlink:actuate="onRequest" xlink:href="InfoPane.html" xlink:show="new" xlink:title="InfoPane.html" xlink:type="simple"><rect codeLine="3" fill="#FEFECE" filter="url(#fr9877tdwojbw)" height="103.3438" id="nz.ac.vuw.ecs.swen225.gp20.render.states.InfoPane" style="stroke: #A80036; stroke-width: 1.5;" width="277" x="32.5" y="42"/><ellipse cx="142.25" cy="58" fill="#ADD1B2" rx="11" ry="11" style="stroke: #A80036; stroke-width: 1.0;"/><path d="M145.0156,53.875 Q145.1719,53.6563 145.3594,53.5469 Q145.5469,53.4375 145.7656,53.4375 Q146.1406,53.4375 146.375,53.7031 Q146.6094,53.9531 146.6094,54.5625 L146.6094,56.0156 Q146.6094,56.625 146.375,56.8906 Q146.1406,57.1563 145.7656,57.1563 Q145.4219,57.1563 145.2188,56.9531 Q145.0156,56.7656 144.9063,56.25 Q144.8594,55.8906 144.6719,55.7031 Q144.3438,55.3281 143.7344,55.1094 Q143.125,54.8906 142.5,54.8906 Q141.7344,54.8906 141.0938,55.2188 Q140.4688,55.5469 139.9688,56.2969 Q139.4844,57.0469 139.4844,58.0781 L139.4844,59.1719 Q139.4844,60.4063 140.375,61.2344 Q141.2656,62.0469 142.8594,62.0469 Q143.7969,62.0469 144.4531,61.7969 Q144.8438,61.6406 145.2656,61.2031 Q145.5313,60.9375 145.6719,60.8594 Q145.8281,60.7813 146.0313,60.7813 Q146.3594,60.7813 146.6094,61.0469 Q146.875,61.2969 146.875,61.6406 Q146.875,61.9844 146.5313,62.3906 Q146.0313,62.9688 145.2344,63.2969 Q144.1563,63.75 142.8594,63.75 Q141.3438,63.75 140.1406,63.125 Q139.1563,62.625 138.4688,61.5625 Q137.7813,60.4844 137.7813,59.2031 L137.7813,58.0469 Q137.7813,56.7188 138.3906,55.5781 Q139.0156,54.4219 140.1094,53.8125 Q141.2031,53.1875 142.4375,53.1875 Q143.1719,53.1875 143.8125,53.3594 Q144.4688,53.5156 145.0156,53.875 Z "/><text fill="#000000" font-family="sans-serif" font-size="12" lengthAdjust="spacingAndGlyphs" textLength="49" x="162.75" y="62.9102">InfoPane</text><line style="stroke: #A80036; stroke-width: 1.5;" x1="33.5" x2="308.5" y1="74" y2="74"/><line style="stroke: #A80036; stroke-width: 1.5;" x1="33.5" x2="308.5" y1="82" y2="82"/><ellipse cx="43.5" cy="93" fill="#84BE84" rx="3" ry="3" style="stroke: #038048; stroke-width: 1.0;"/><text fill="#000000" font-family="sans-serif" font-size="11" lengthAdjust="spacingAndGlyphs" textLength="85" x="52.5" y="97.4189">InfoPane(Assets)</text><ellipse cx="43.5" cy="106.8359" fill="#84BE84" rx="3" ry="3" style="stroke: #038048; stroke-width: 1.0;"/><text fill="#000000" font-family="sans-serif" font-size="11" lengthAdjust="spacingAndGlyphs" textLength="181" x="52.5" y="111.2549">update(int, RenderTuple, String): void</text><ellipse cx="43.5" cy="120.6719" fill="#84BE84" rx="3" ry="3" style="stroke: #038048; stroke-width: 1.0;"/><text fill="#000000" font-family="sans-serif" font-size="11" lengthAdjust="spacingAndGlyphs" textLength="251" x="52.5" y="125.0908">checkState(String, BufferedImage[]): BufferedImage</text><ellipse cx="43.5" cy="134.5078" fill="#84BE84" rx="3" ry="3" style="stroke: #038048; stroke-width: 1.0;"/><text fill="#000000" font-family="sans-serif" font-size="11" lengthAdjust="spacingAndGlyphs" textLength="103" x="52.5" y="138.9268">draw(Graphics): void</text></a><!--MD5=[0233b01659701549c23cb82041cdb761]
class nz.ac.vuw.ecs.swen225.gp20.render.states.IntroState--><a href="IntroState.html" target="_top" title="IntroState.html" xlink:actuate="onRequest" xlink:href="IntroState.html" xlink:show="new" xlink:title="IntroState.html" xlink:type="simple"><rect codeLine="10" fill="#FEFECE" filter="url(#fr9877tdwojbw)" height="89.5078" id="nz.ac.vuw.ecs.swen225.gp20.render.states.IntroState" style="stroke: #A80036; stroke-width: 1.5;" width="129" x="344.5" y="48.5"/><ellipse cx="379.75" cy="64.5" fill="#ADD1B2" rx="11" ry="11" style="stroke: #A80036; stroke-width: 1.0;"/><path d="M382.5156,60.375 Q382.6719,60.1563 382.8594,60.0469 Q383.0469,59.9375 383.2656,59.9375 Q383.6406,59.9375 383.875,60.2031 Q384.1094,60.4531 384.1094,61.0625 L384.1094,62.5156 Q384.1094,63.125 383.875,63.3906 Q383.6406,63.6563 383.2656,63.6563 Q382.9219,63.6563 382.7188,63.4531 Q382.5156,63.2656 382.4063,62.75 Q382.3594,62.3906 382.1719,62.2031 Q381.8438,61.8281 381.2344,61.6094 Q380.625,61.3906 380,61.3906 Q379.2344,61.3906 378.5938,61.7188 Q377.9688,62.0469 377.4688,62.7969 Q376.9844,63.5469 376.9844,64.5781 L376.9844,65.6719 Q376.9844,66.9063 377.875,67.7344 Q378.7656,68.5469 380.3594,68.5469 Q381.2969,68.5469 381.9531,68.2969 Q382.3438,68.1406 382.7656,67.7031 Q383.0313,67.4375 383.1719,67.3594 Q383.3281,67.2813 383.5313,67.2813 Q383.8594,67.2813 384.1094,67.5469 Q384.375,67.7969 384.375,68.1406 Q384.375,68.4844 384.0313,68.8906 Q383.5313,69.4688 382.7344,69.7969 Q381.6563,70.25 380.3594,70.25 Q378.8438,70.25 377.6406,69.625 Q376.6563,69.125 375.9688,68.0625 Q375.2813,66.9844 375.2813,65.7031 L375.2813,64.5469 Q375.2813,63.2188 375.8906,62.0781 Q376.5156,60.9219 377.6094,60.3125 Q378.7031,59.6875 379.9375,59.6875 Q380.6719,59.6875 381.3125,59.8594 Q381.9688,60.0156 382.5156,60.375 Z "/><text fill="#000000" font-family="sans-serif" font-size="12" lengthAdjust="spacingAndGlyphs" textLength="52" x="398.25" y="69.4102">IntroState</text><line style="stroke: #A80036; stroke-width: 1.5;" x1="345.5" x2="472.5" y1="80.5" y2="80.5"/><line style="stroke: #A80036; stroke-width: 1.5;" x1="345.5" x2="472.5" y1="88.5" y2="88.5"/><ellipse cx="355.5" cy="99.5" fill="#84BE84" rx="3" ry="3" style="stroke: #038048; stroke-width: 1.0;"/><text fill="#000000" font-family="sans-serif" font-size="11" lengthAdjust="spacingAndGlyphs" textLength="89" x="364.5" y="103.9189">IntroState(Assets)</text><ellipse cx="355.5" cy="113.3359" fill="#84BE84" rx="3" ry="3" style="stroke: #038048; stroke-width: 1.0;"/><text fill="#000000" font-family="sans-serif" font-size="11" lengthAdjust="spacingAndGlyphs" textLength="67" x="364.5" y="117.7549">update(): void</text><ellipse cx="355.5" cy="127.1719" fill="#84BE84" rx="3" ry="3" style="stroke: #038048; stroke-width: 1.0;"/><text fill="#000000" font-family="sans-serif" font-size="11" lengthAdjust="spacingAndGlyphs" textLength="103" x="364.5" y="131.5908">draw(Graphics): void</text></a><!--MD5=[65df5b6a507f25e01f5269b47be512bd]
class nz.ac.vuw.ecs.swen225.gp20.render.states.MapPane--><a href="MapPane.html" target="_top" title="MapPane.html" xlink:actuate="onRequest" xlink:href="MapPane.html" xlink:show="new" xlink:title="MapPane.html" xlink:type="simple"><rect codeLine="16" fill="#FEFECE" filter="url(#fr9877tdwojbw)" height="103.3438" id="nz.ac.vuw.ecs.swen225.gp20.render.states.MapPane" style="stroke: #A80036; stroke-width: 1.5;" width="220" x="32" y="205"/><ellipse cx="111.25" cy="221" fill="#ADD1B2" rx="11" ry="11" style="stroke: #A80036; stroke-width: 1.0;"/><path d="M114.0156,216.875 Q114.1719,216.6563 114.3594,216.5469 Q114.5469,216.4375 114.7656,216.4375 Q115.1406,216.4375 115.375,216.7031 Q115.6094,216.9531 115.6094,217.5625 L115.6094,219.0156 Q115.6094,219.625 115.375,219.8906 Q115.1406,220.1563 114.7656,220.1563 Q114.4219,220.1563 114.2188,219.9531 Q114.0156,219.7656 113.9063,219.25 Q113.8594,218.8906 113.6719,218.7031 Q113.3438,218.3281 112.7344,218.1094 Q112.125,217.8906 111.5,217.8906 Q110.7344,217.8906 110.0938,218.2188 Q109.4688,218.5469 108.9688,219.2969 Q108.4844,220.0469 108.4844,221.0781 L108.4844,222.1719 Q108.4844,223.4063 109.375,224.2344 Q110.2656,225.0469 111.8594,225.0469 Q112.7969,225.0469 113.4531,224.7969 Q113.8438,224.6406 114.2656,224.2031 Q114.5313,223.9375 114.6719,223.8594 Q114.8281,223.7813 115.0313,223.7813 Q115.3594,223.7813 115.6094,224.0469 Q115.875,224.2969 115.875,224.6406 Q115.875,224.9844 115.5313,225.3906 Q115.0313,225.9688 114.2344,226.2969 Q113.1563,226.75 111.8594,226.75 Q110.3438,226.75 109.1406,226.125 Q108.1563,225.625 107.4688,224.5625 Q106.7813,223.4844 106.7813,222.2031 L106.7813,221.0469 Q106.7813,219.7188 107.3906,218.5781 Q108.0156,217.4219 109.1094,216.8125 Q110.2031,216.1875 111.4375,216.1875 Q112.1719,216.1875 112.8125,216.3594 Q113.4688,216.5156 114.0156,216.875 Z "/><text fill="#000000" font-family="sans-serif" font-size="12" lengthAdjust="spacingAndGlyphs" textLength="53" x="131.75" y="225.9102">MapPane</text><line style="stroke: #A80036; stroke-width: 1.5;" x1="33" x2="251" y1="237" y2="237"/><line style="stroke: #A80036; stroke-width: 1.5;" x1="33" x2="251" y1="245" y2="245"/><ellipse cx="43" cy="256" fill="#84BE84" rx="3" ry="3" style="stroke: #038048; stroke-width: 1.0;"/><text fill="#000000" font-family="sans-serif" font-size="11" lengthAdjust="spacingAndGlyphs" textLength="88" x="52" y="260.4189">MapPane(Assets)</text><ellipse cx="43" cy="269.8359" fill="#84BE84" rx="3" ry="3" style="stroke: #038048; stroke-width: 1.0;"/><text fill="#000000" font-family="sans-serif" font-size="11" lengthAdjust="spacingAndGlyphs" textLength="194" x="52" y="274.2549">initAnimationObjects(Cell[], Actor[]): void</text><ellipse cx="43" cy="283.6719" fill="#84BE84" rx="3" ry="3" style="stroke: #038048; stroke-width: 1.0;"/><text fill="#000000" font-family="sans-serif" font-size="11" lengthAdjust="spacingAndGlyphs" textLength="130" x="52" y="288.0908">update(RenderTuple): void</text><ellipse cx="43" cy="297.5078" fill="#84BE84" rx="3" ry="3" style="stroke: #038048; stroke-width: 1.0;"/><text fill="#000000" font-family="sans-serif" font-size="11" lengthAdjust="spacingAndGlyphs" textLength="103" x="52" y="301.9268">draw(Graphics): void</text></a><!--MD5=[fabe13c37f0d1fb0f09ce424dc0ebff0]
class nz.ac.vuw.ecs.swen225.gp20.render.states.State--><a href="State.html" target="_top" title="State.html" xlink:actuate="onRequest" xlink:href="State.html" xlink:show="new" xlink:title="State.html" xlink:type="simple"><rect codeLine="23" fill="#FEFECE" filter="url(#fr9877tdwojbw)" height="103.3438" id="nz.ac.vuw.ecs.swen225.gp20.render.states.State" style="stroke: #A80036; stroke-width: 1.5;" width="277" x="287.5" y="205"/><ellipse cx="407.75" cy="221" fill="#ADD1B2" rx="11" ry="11" style="stroke: #A80036; stroke-width: 1.0;"/><path d="M410.5156,216.875 Q410.6719,216.6563 410.8594,216.5469 Q411.0469,216.4375 411.2656,216.4375 Q411.6406,216.4375 411.875,216.7031 Q412.1094,216.9531 412.1094,217.5625 L412.1094,219.0156 Q412.1094,219.625 411.875,219.8906 Q411.6406,220.1563 411.2656,220.1563 Q410.9219,220.1563 410.7188,219.9531 Q410.5156,219.7656 410.4063,219.25 Q410.3594,218.8906 410.1719,218.7031 Q409.8438,218.3281 409.2344,218.1094 Q408.625,217.8906 408,217.8906 Q407.2344,217.8906 406.5938,218.2188 Q405.9688,218.5469 405.4688,219.2969 Q404.9844,220.0469 404.9844,221.0781 L404.9844,222.1719 Q404.9844,223.4063 405.875,224.2344 Q406.7656,225.0469 408.3594,225.0469 Q409.2969,225.0469 409.9531,224.7969 Q410.3438,224.6406 410.7656,224.2031 Q411.0313,223.9375 411.1719,223.8594 Q411.3281,223.7813 411.5313,223.7813 Q411.8594,223.7813 412.1094,224.0469 Q412.375,224.2969 412.375,224.6406 Q412.375,224.9844 412.0313,225.3906 Q411.5313,225.9688 410.7344,226.2969 Q409.6563,226.75 408.3594,226.75 Q406.8438,226.75 405.6406,226.125 Q404.6563,225.625 403.9688,224.5625 Q403.2813,223.4844 403.2813,222.2031 L403.2813,221.0469 Q403.2813,219.7188 403.8906,218.5781 Q404.5156,217.4219 405.6094,216.8125 Q406.7031,216.1875 407.9375,216.1875 Q408.6719,216.1875 409.3125,216.3594 Q409.9688,216.5156 410.5156,216.875 Z "/><text fill="#000000" font-family="sans-serif" font-size="12" lengthAdjust="spacingAndGlyphs" textLength="28" x="428.25" y="225.9102">State</text><line style="stroke: #A80036; stroke-width: 1.5;" x1="288.5" x2="563.5" y1="237" y2="237"/><line style="stroke: #A80036; stroke-width: 1.5;" x1="288.5" x2="563.5" y1="245" y2="245"/><ellipse cx="298.5" cy="256" fill="#84BE84" rx="3" ry="3" style="stroke: #038048; stroke-width: 1.0;"/><text fill="#000000" font-family="sans-serif" font-size="11" lengthAdjust="spacingAndGlyphs" textLength="118" x="307.5" y="260.4189">State(Assets, int, String)</text><ellipse cx="298.5" cy="269.8359" fill="#84BE84" rx="3" ry="3" style="stroke: #038048; stroke-width: 1.0;"/><text fill="#000000" font-family="sans-serif" font-size="11" lengthAdjust="spacingAndGlyphs" textLength="95" x="307.5" y="274.2549">update(String): void</text><ellipse cx="298.5" cy="283.6719" fill="#84BE84" rx="3" ry="3" style="stroke: #038048; stroke-width: 1.0;"/><text fill="#000000" font-family="sans-serif" font-size="11" lengthAdjust="spacingAndGlyphs" textLength="251" x="307.5" y="288.0908">checkState(String, BufferedImage[]): BufferedImage</text><ellipse cx="298.5" cy="297.5078" fill="#84BE84" rx="3" ry="3" style="stroke: #038048; stroke-width: 1.0;"/><text fill="#000000" font-family="sans-serif" font-size="11" lengthAdjust="spacingAndGlyphs" textLength="103" x="307.5" y="301.9268">draw(Graphics): void</text></a><!--MD5=[e38fa96e6afd613b573ddde88a68a2f0]
link nz.ac.vuw.ecs.swen225.gp20.render.states.InfoPane to nz.ac.vuw.ecs.swen225.gp20.render.states.IntroState--><!--MD5=[56db1e117c378e07840d794f399a6c22]
link nz.ac.vuw.ecs.swen225.gp20.render.states.InfoPane to nz.ac.vuw.ecs.swen225.gp20.render.states.MapPane--><!--MD5=[e0635762682355f30af9a8b6e171a694]
link nz.ac.vuw.ecs.swen225.gp20.render.states.MapPane to nz.ac.vuw.ecs.swen225.gp20.render.states.State--><text fill="#888888" font-family="sans-serif" font-size="10" lengthAdjust="spacingAndGlyphs" textLength="185" x="200" y="340.3809">UMLDoclet 2.0.12, PlantUML 1.2020.16</text><!--MD5=[c741474b85f8d4999267c4bfb3185d31]
@startuml
    namespace nz.ac.vuw.ecs.swen225.gp20.render.states {

        class InfoPane [[InfoPane.html]] {
            +InfoPane(Assets)
            +update(int, RenderTuple, String): void
            +checkState(String, BufferedImage[]): BufferedImage
            +draw(Graphics): void
        }

        class IntroState [[IntroState.html]] {
            +IntroState(Assets)
            +update(): void
            +draw(Graphics): void
        }

        class MapPane [[MapPane.html]] {
            +MapPane(Assets)
            +initAnimationObjects(Cell[], Actor[]): void
            +update(RenderTuple): void
            +draw(Graphics): void
        }

        class State [[State.html]] {
            +State(Assets, int, String)
            +update(String): void
            +checkState(String, BufferedImage[]): BufferedImage
            +draw(Graphics): void
        }

    }

    center footer UMLDoclet 2.0.12, PlantUML 1.2020.16
@enduml

PlantUML version 1.2020.16(Mon Aug 24 08:20:43 NZST 2020)
(APACHE source distribution)
Java Runtime: Java(TM) SE Runtime Environment
JVM: Java HotSpot(TM) 64-Bit Server VM
Default Encoding: Cp1252
Language: en
Country: NZ
--></g></svg>