<?xml version="1.0" encoding="UTF-8" standalone="no"?><svg xmlns="http://www.w3.org/2000/svg" xmlns:xlink="http://www.w3.org/1999/xlink" contentScriptType="application/ecmascript" contentStyleType="text/css" height="227px" preserveAspectRatio="none" style="width:336px;height:227px;" version="1.1" viewBox="0 0 336 227" width="336px" zoomAndPan="magnify"><defs><filter height="300%" id="fm5qn7lch2jbo" width="300%" x="-1" y="-1"><feGaussianBlur result="blurOut" stdDeviation="2.0"/><feColorMatrix in="blurOut" result="blurOut2" type="matrix" values="0 0 0 0 0 0 0 0 0 0 0 0 0 0 0 0 0 0 .4 0"/><feOffset dx="4.0" dy="4.0" in="blurOut2" result="blurOut3"/><feBlend in="SourceGraphic" in2="blurOut3" mode="normal"/></filter></defs><g><!--MD5=[e3e34f6fac8a5be267e1d0aa5adac9e5]
class nz.ac.vuw.ecs.swen225.gp20.maze.actors.ActorHostileMonster--><a href="ActorHostileMonster.html" target="_top" title="ActorHostileMonster.html" xlink:actuate="onRequest" xlink:href="ActorHostileMonster.html" xlink:show="new" xlink:title="ActorHostileMonster.html" xlink:type="simple"><rect codeLine="5" fill="#FEFECE" filter="url(#fm5qn7lch2jbo)" height="83.8594" id="nz.ac.vuw.ecs.swen225.gp20.maze.actors.ActorHostileMonster" style="stroke: #A80036; stroke-width: 1.5;" width="310" x="7" y="107"/><ellipse cx="59.75" cy="127.0938" fill="#ADD1B2" rx="11" ry="11" style="stroke: #A80036; stroke-width: 1.0;"/><path d="M62.5156,122.9688 Q62.6719,122.75 62.8594,122.6406 Q63.0469,122.5313 63.2656,122.5313 Q63.6406,122.5313 63.875,122.7969 Q64.1094,123.0469 64.1094,123.6563 L64.1094,125.1094 Q64.1094,125.7188 63.875,125.9844 Q63.6406,126.25 63.2656,126.25 Q62.9219,126.25 62.7188,126.0469 Q62.5156,125.8594 62.4063,125.3438 Q62.3594,124.9844 62.1719,124.7969 Q61.8438,124.4219 61.2344,124.2031 Q60.625,123.9844 60,123.9844 Q59.2344,123.9844 58.5938,124.3125 Q57.9688,124.6406 57.4688,125.3906 Q56.9844,126.1406 56.9844,127.1719 L56.9844,128.2656 Q56.9844,129.5 57.875,130.3281 Q58.7656,131.1406 60.3594,131.1406 Q61.2969,131.1406 61.9531,130.8906 Q62.3438,130.7344 62.7656,130.2969 Q63.0313,130.0313 63.1719,129.9531 Q63.3281,129.875 63.5313,129.875 Q63.8594,129.875 64.1094,130.1406 Q64.375,130.3906 64.375,130.7344 Q64.375,131.0781 64.0313,131.4844 Q63.5313,132.0625 62.7344,132.3906 Q61.6563,132.8438 60.3594,132.8438 Q58.8438,132.8438 57.6406,132.2188 Q56.6563,131.7188 55.9688,130.6563 Q55.2813,129.5781 55.2813,128.2969 L55.2813,127.1406 Q55.2813,125.8125 55.8906,124.6719 Q56.5156,123.5156 57.6094,122.9063 Q58.7031,122.2813 59.9375,122.2813 Q60.6719,122.2813 61.3125,122.4531 Q61.9688,122.6094 62.5156,122.9688 Z "/><text fill="#000000" font-family="sans-serif" font-size="14" lengthAdjust="spacingAndGlyphs" textLength="128" x="114.25" y="126.5332">ActorHostileMonster</text><text fill="#000000" font-family="sans-serif" font-size="10" lengthAdjust="spacingAndGlyphs" textLength="196" x="80.25" y="139.9902">nz.ac.vuw.ecs.swen225.gp20.maze.actors</text><line style="stroke: #A80036; stroke-width: 1.5;" x1="8" x2="316" y1="147.1875" y2="147.1875"/><ellipse cx="18" cy="158.1875" fill="none" rx="3" ry="3" style="stroke: #038048; stroke-width: 1.0;"/><text fill="#000000" font-family="sans-serif" font-size="11" lengthAdjust="spacingAndGlyphs" text-decoration="underline" textLength="212" x="27" y="162.6064">ACTOR_HOSTILE_MONSTER_SPEED: int</text><line style="stroke: #A80036; stroke-width: 1.5;" x1="8" x2="316" y1="169.0234" y2="169.0234"/><ellipse cx="18" cy="180.0234" fill="#84BE84" rx="3" ry="3" style="stroke: #038048; stroke-width: 1.0;"/><text fill="#000000" font-family="sans-serif" font-size="11" lengthAdjust="spacingAndGlyphs" textLength="284" x="27" y="184.4424">ActorHostileMonster(String, int, int, ArrayList&lt;Coordinate&gt;)</text></a><!--MD5=[d4fa7740169997c9d89c81c5a1cac5f6]
class nz.ac.vuw.ecs.swen225.gp20.maze.Actor--><a href="..\Actor.html" target="_top" title="..\Actor.html" xlink:actuate="onRequest" xlink:href="..\Actor.html" xlink:show="new" xlink:title="..\Actor.html" xlink:type="simple"><rect codeLine="10" fill="#FEFECE" filter="url(#fm5qn7lch2jbo)" height="40.1875" id="nz.ac.vuw.ecs.swen225.gp20.maze.Actor" style="stroke: #A80036; stroke-width: 1.5;" width="197" x="63.5" y="7"/><ellipse cx="78.5" cy="27.0938" fill="#ADD1B2" rx="11" ry="11" style="stroke: #A80036; stroke-width: 1.0;"/><path d="M81.2656,22.9688 Q81.4219,22.75 81.6094,22.6406 Q81.7969,22.5313 82.0156,22.5313 Q82.3906,22.5313 82.625,22.7969 Q82.8594,23.0469 82.8594,23.6563 L82.8594,25.1094 Q82.8594,25.7188 82.625,25.9844 Q82.3906,26.25 82.0156,26.25 Q81.6719,26.25 81.4688,26.0469 Q81.2656,25.8594 81.1563,25.3438 Q81.1094,24.9844 80.9219,24.7969 Q80.5938,24.4219 79.9844,24.2031 Q79.375,23.9844 78.75,23.9844 Q77.9844,23.9844 77.3438,24.3125 Q76.7188,24.6406 76.2188,25.3906 Q75.7344,26.1406 75.7344,27.1719 L75.7344,28.2656 Q75.7344,29.5 76.625,30.3281 Q77.5156,31.1406 79.1094,31.1406 Q80.0469,31.1406 80.7031,30.8906 Q81.0938,30.7344 81.5156,30.2969 Q81.7813,30.0313 81.9219,29.9531 Q82.0781,29.875 82.2813,29.875 Q82.6094,29.875 82.8594,30.1406 Q83.125,30.3906 83.125,30.7344 Q83.125,31.0781 82.7813,31.4844 Q82.2813,32.0625 81.4844,32.3906 Q80.4063,32.8438 79.1094,32.8438 Q77.5938,32.8438 76.3906,32.2188 Q75.4063,31.7188 74.7188,30.6563 Q74.0313,29.5781 74.0313,28.2969 L74.0313,27.1406 Q74.0313,25.8125 74.6406,24.6719 Q75.2656,23.5156 76.3594,22.9063 Q77.4531,22.2813 78.6875,22.2813 Q79.4219,22.2813 80.0625,22.4531 Q80.7188,22.6094 81.2656,22.9688 Z "/><text fill="#000000" font-family="sans-serif" font-size="14" lengthAdjust="spacingAndGlyphs" textLength="33" x="158.5" y="26.5332">Actor</text><text fill="#000000" font-family="sans-serif" font-size="10" lengthAdjust="spacingAndGlyphs" textLength="165" x="92.5" y="39.9902">nz.ac.vuw.ecs.swen225.gp20.maze</text></a><!--MD5=[f244c39b03d68f804126f9491dead81d]
reverse link nz.ac.vuw.ecs.swen225.gp20.maze.Actor to nz.ac.vuw.ecs.swen225.gp20.maze.actors.ActorHostileMonster--><path codeLine="12" d="M162,67.21 C162,79.94 162,94.1 162,106.96 " fill="none" id="nz.ac.vuw.ecs.swen225.gp20.maze.Actor-backto-nz.ac.vuw.ecs.swen225.gp20.maze.actors.ActorHostileMonster" style="stroke: #A80036; stroke-width: 1.0;"/><polygon fill="none" points="155,67.01,162,47.01,169,67.01,155,67.01" style="stroke: #A80036; stroke-width: 1.0;"/><text fill="#888888" font-family="sans-serif" font-size="10" lengthAdjust="spacingAndGlyphs" textLength="185" x="66.5" y="214.2402">UMLDoclet 2.0.12, PlantUML 1.2020.16</text><!--MD5=[3bba60ab6dfc2b25b3dbb072ad44eafc]
@startuml
    set namespaceSeparator none
    hide empty fields
    hide empty methods

    class "<size:14>ActorHostileMonster\n<size:10>nz.ac.vuw.ecs.swen225.gp20.maze.actors" as nz.ac.vuw.ecs.swen225.gp20.maze.actors.ActorHostileMonster [[ActorHostileMonster.html]] {
        {static} +ACTOR_HOSTILE_MONSTER_SPEED: int
        +ActorHostileMonster(String, int, int, ArrayList<Coordinate>)
    }

    class "<size:14>Actor\n<size:10>nz.ac.vuw.ecs.swen225.gp20.maze" as nz.ac.vuw.ecs.swen225.gp20.maze.Actor [[..\Actor.html]]

    nz.ac.vuw.ecs.swen225.gp20.maze.Actor <|- - nz.ac.vuw.ecs.swen225.gp20.maze.actors.ActorHostileMonster

    center footer UMLDoclet 2.0.12, PlantUML 1.2020.16
@enduml

PlantUML version 1.2020.16(Mon Aug 24 08:20:43 NZST 2020)
(APACHE source distribution)
Java Runtime: Java(TM) SE Runtime Environment
JVM: Java HotSpot(TM) 64-Bit Server VM
Default Encoding: Cp1252
Language: en
Country: NZ
--></g></svg>