<?xml version="1.0" encoding="UTF-8" standalone="no"?><svg xmlns="http://www.w3.org/2000/svg" xmlns:xlink="http://www.w3.org/1999/xlink" contentScriptType="application/ecmascript" contentStyleType="text/css" height="219px" preserveAspectRatio="none" style="width:254px;height:219px;" version="1.1" viewBox="0 0 254 219" width="254px" zoomAndPan="magnify"><defs><filter height="300%" id="fj6ypnm8vwd5e" width="300%" x="-1" y="-1"><feGaussianBlur result="blurOut" stdDeviation="2.0"/><feColorMatrix in="blurOut" result="blurOut2" type="matrix" values="0 0 0 0 0 0 0 0 0 0 0 0 0 0 0 0 0 0 .4 0"/><feOffset dx="4.0" dy="4.0" in="blurOut2" result="blurOut3"/><feBlend in="SourceGraphic" in2="blurOut3" mode="normal"/></filter></defs><g><!--MD5=[95d4549eb6b1e7e9f5abf466a2f1439c]
class nz.ac.vuw.ecs.swen225.gp20.maze.actors.ActorNeutralDirt--><a href="ActorNeutralDirt.html" target="_top" title="ActorNeutralDirt.html" xlink:actuate="onRequest" xlink:href="ActorNeutralDirt.html" xlink:show="new" xlink:title="ActorNeutralDirt.html" xlink:type="simple"><rect codeLine="5" fill="#FEFECE" filter="url(#fj6ypnm8vwd5e)" height="75.8594" id="nz.ac.vuw.ecs.swen225.gp20.maze.actors.ActorNeutralDirt" style="stroke: #A80036; stroke-width: 1.5;" width="228" x="7" y="107"/><ellipse cx="22" cy="127.0938" fill="#ADD1B2" rx="11" ry="11" style="stroke: #A80036; stroke-width: 1.0;"/><path d="M24.7656,122.9688 Q24.9219,122.75 25.1094,122.6406 Q25.2969,122.5313 25.5156,122.5313 Q25.8906,122.5313 26.125,122.7969 Q26.3594,123.0469 26.3594,123.6563 L26.3594,125.1094 Q26.3594,125.7188 26.125,125.9844 Q25.8906,126.25 25.5156,126.25 Q25.1719,126.25 24.9688,126.0469 Q24.7656,125.8594 24.6563,125.3438 Q24.6094,124.9844 24.4219,124.7969 Q24.0938,124.4219 23.4844,124.2031 Q22.875,123.9844 22.25,123.9844 Q21.4844,123.9844 20.8438,124.3125 Q20.2188,124.6406 19.7188,125.3906 Q19.2344,126.1406 19.2344,127.1719 L19.2344,128.2656 Q19.2344,129.5 20.125,130.3281 Q21.0156,131.1406 22.6094,131.1406 Q23.5469,131.1406 24.2031,130.8906 Q24.5938,130.7344 25.0156,130.2969 Q25.2813,130.0313 25.4219,129.9531 Q25.5781,129.875 25.7813,129.875 Q26.1094,129.875 26.3594,130.1406 Q26.625,130.3906 26.625,130.7344 Q26.625,131.0781 26.2813,131.4844 Q25.7813,132.0625 24.9844,132.3906 Q23.9063,132.8438 22.6094,132.8438 Q21.0938,132.8438 19.8906,132.2188 Q18.9063,131.7188 18.2188,130.6563 Q17.5313,129.5781 17.5313,128.2969 L17.5313,127.1406 Q17.5313,125.8125 18.1406,124.6719 Q18.7656,123.5156 19.8594,122.9063 Q20.9531,122.2813 22.1875,122.2813 Q22.9219,122.2813 23.5625,122.4531 Q24.2188,122.6094 24.7656,122.9688 Z "/><text fill="#000000" font-family="sans-serif" font-size="14" lengthAdjust="spacingAndGlyphs" textLength="101" x="83.5" y="126.5332">ActorNeutralDirt</text><text fill="#000000" font-family="sans-serif" font-size="10" lengthAdjust="spacingAndGlyphs" textLength="196" x="36" y="139.9902">nz.ac.vuw.ecs.swen225.gp20.maze.actors</text><line style="stroke: #A80036; stroke-width: 1.5;" x1="8" x2="234" y1="147.1875" y2="147.1875"/><ellipse cx="18" cy="158.1875" fill="#84BE84" rx="3" ry="3" style="stroke: #038048; stroke-width: 1.0;"/><text fill="#000000" font-family="sans-serif" font-size="11" lengthAdjust="spacingAndGlyphs" textLength="114" x="27" y="162.6064">ActorNeutralDirt(int, int)</text><ellipse cx="18" cy="172.0234" fill="#84BE84" rx="3" ry="3" style="stroke: #038048; stroke-width: 1.0;"/><text fill="#000000" font-family="sans-serif" font-size="11" lengthAdjust="spacingAndGlyphs" textLength="79" x="27" y="176.4424">fillInMode(): void</text></a><!--MD5=[d4fa7740169997c9d89c81c5a1cac5f6]
class nz.ac.vuw.ecs.swen225.gp20.maze.Actor--><a href="..\Actor.html" target="_top" title="..\Actor.html" xlink:actuate="onRequest" xlink:href="..\Actor.html" xlink:show="new" xlink:title="..\Actor.html" xlink:type="simple"><rect codeLine="10" fill="#FEFECE" filter="url(#fj6ypnm8vwd5e)" height="40.1875" id="nz.ac.vuw.ecs.swen225.gp20.maze.Actor" style="stroke: #A80036; stroke-width: 1.5;" width="197" x="22.5" y="7"/><ellipse cx="37.5" cy="27.0938" fill="#ADD1B2" rx="11" ry="11" style="stroke: #A80036; stroke-width: 1.0;"/><path d="M40.2656,22.9688 Q40.4219,22.75 40.6094,22.6406 Q40.7969,22.5313 41.0156,22.5313 Q41.3906,22.5313 41.625,22.7969 Q41.8594,23.0469 41.8594,23.6563 L41.8594,25.1094 Q41.8594,25.7188 41.625,25.9844 Q41.3906,26.25 41.0156,26.25 Q40.6719,26.25 40.4688,26.0469 Q40.2656,25.8594 40.1563,25.3438 Q40.1094,24.9844 39.9219,24.7969 Q39.5938,24.4219 38.9844,24.2031 Q38.375,23.9844 37.75,23.9844 Q36.9844,23.9844 36.3438,24.3125 Q35.7188,24.6406 35.2188,25.3906 Q34.7344,26.1406 34.7344,27.1719 L34.7344,28.2656 Q34.7344,29.5 35.625,30.3281 Q36.5156,31.1406 38.1094,31.1406 Q39.0469,31.1406 39.7031,30.8906 Q40.0938,30.7344 40.5156,30.2969 Q40.7813,30.0313 40.9219,29.9531 Q41.0781,29.875 41.2813,29.875 Q41.6094,29.875 41.8594,30.1406 Q42.125,30.3906 42.125,30.7344 Q42.125,31.0781 41.7813,31.4844 Q41.2813,32.0625 40.4844,32.3906 Q39.4063,32.8438 38.1094,32.8438 Q36.5938,32.8438 35.3906,32.2188 Q34.4063,31.7188 33.7188,30.6563 Q33.0313,29.5781 33.0313,28.2969 L33.0313,27.1406 Q33.0313,25.8125 33.6406,24.6719 Q34.2656,23.5156 35.3594,22.9063 Q36.4531,22.2813 37.6875,22.2813 Q38.4219,22.2813 39.0625,22.4531 Q39.7188,22.6094 40.2656,22.9688 Z "/><text fill="#000000" font-family="sans-serif" font-size="14" lengthAdjust="spacingAndGlyphs" textLength="33" x="117.5" y="26.5332">Actor</text><text fill="#000000" font-family="sans-serif" font-size="10" lengthAdjust="spacingAndGlyphs" textLength="165" x="51.5" y="39.9902">nz.ac.vuw.ecs.swen225.gp20.maze</text></a><!--MD5=[209b2a5324949ecd6c0233e953bc9818]
reverse link nz.ac.vuw.ecs.swen225.gp20.maze.Actor to nz.ac.vuw.ecs.swen225.gp20.maze.actors.ActorNeutralDirt--><path codeLine="12" d="M121,67.49 C121,80.27 121,94.39 121,106.99 " fill="none" id="nz.ac.vuw.ecs.swen225.gp20.maze.Actor-backto-nz.ac.vuw.ecs.swen225.gp20.maze.actors.ActorNeutralDirt" style="stroke: #A80036; stroke-width: 1.0;"/><polygon fill="none" points="114,67.16,121,47.16,128,67.16,114,67.16" style="stroke: #A80036; stroke-width: 1.0;"/><text fill="#888888" font-family="sans-serif" font-size="10" lengthAdjust="spacingAndGlyphs" textLength="185" x="25.5" y="206.2402">UMLDoclet 2.0.12, PlantUML 1.2020.16</text><!--MD5=[05ae3b20b28e737ac8cf2a64430e6c77]
@startuml
    set namespaceSeparator none
    hide empty fields
    hide empty methods

    class "<size:14>ActorNeutralDirt\n<size:10>nz.ac.vuw.ecs.swen225.gp20.maze.actors" as nz.ac.vuw.ecs.swen225.gp20.maze.actors.ActorNeutralDirt [[ActorNeutralDirt.html]] {
        +ActorNeutralDirt(int, int)
        +fillInMode(): void
    }

    class "<size:14>Actor\n<size:10>nz.ac.vuw.ecs.swen225.gp20.maze" as nz.ac.vuw.ecs.swen225.gp20.maze.Actor [[..\Actor.html]]

    nz.ac.vuw.ecs.swen225.gp20.maze.Actor <|- - nz.ac.vuw.ecs.swen225.gp20.maze.actors.ActorNeutralDirt

    center footer UMLDoclet 2.0.12, PlantUML 1.2020.16
@enduml

PlantUML version 1.2020.16(Mon Aug 24 08:20:43 NZST 2020)
(APACHE source distribution)
Java Runtime: Java(TM) SE Runtime Environment
JVM: Java HotSpot(TM) 64-Bit Server VM
Default Encoding: Cp1252
Language: en
Country: NZ
--></g></svg>