<?xml version="1.0" encoding="UTF-8" standalone="no"?><svg xmlns="http://www.w3.org/2000/svg" xmlns:xlink="http://www.w3.org/1999/xlink" contentScriptType="application/ecmascript" contentStyleType="text/css" height="439px" preserveAspectRatio="none" style="width:714px;height:439px;" version="1.1" viewBox="0 0 714 439" width="714px" zoomAndPan="magnify"><defs><filter height="300%" id="fuzgpl2dtr86c" width="300%" x="-1" y="-1"><feGaussianBlur result="blurOut" stdDeviation="2.0"/><feColorMatrix in="blurOut" result="blurOut2" type="matrix" values="0 0 0 0 0 0 0 0 0 0 0 0 0 0 0 0 0 0 .4 0"/><feOffset dx="4.0" dy="4.0" in="blurOut2" result="blurOut3"/><feBlend in="SourceGraphic" in2="blurOut3" mode="normal"/></filter></defs><g><!--MD5=[0367ebe369f4e5af85ebeaf7cc363dbd]
cluster nz.ac.vuw.ecs.swen225.gp20.maze.actors--><polygon fill="#FFFFFF" filter="url(#fuzgpl2dtr86c)" points="16,282,306,282,313,305.6094,692,305.6094,692,410,16,410,16,282" style="stroke: #000000; stroke-width: 1.5;"/><line style="stroke: #000000; stroke-width: 1.5;" x1="16" x2="313" y1="305.6094" y2="305.6094"/><text fill="#000000" font-family="sans-serif" font-size="14" font-weight="bold" lengthAdjust="spacingAndGlyphs" textLength="284" x="20" y="298.5332">nz.ac.vuw.ecs.swen225.gp20.maze.actors</text><!--MD5=[832757d115beb7bc045eef4d6b42e302]
cluster nz.ac.vuw.ecs.swen225.gp20.maze--><polygon fill="#FFFFFF" filter="url(#fuzgpl2dtr86c)" points="265,6,508,6,515,29.6094,518,29.6094,518,258,265,258,265,6" style="stroke: #000000; stroke-width: 1.5;"/><line style="stroke: #000000; stroke-width: 1.5;" x1="265" x2="515" y1="29.6094" y2="29.6094"/><text fill="#000000" font-family="sans-serif" font-size="14" font-weight="bold" lengthAdjust="spacingAndGlyphs" textLength="237" x="269" y="22.5332">nz.ac.vuw.ecs.swen225.gp20.maze</text><!--MD5=[e3e34f6fac8a5be267e1d0aa5adac9e5]
class nz.ac.vuw.ecs.swen225.gp20.maze.actors.ActorHostileMonster--><a href="ActorHostileMonster.html" target="_top" title="ActorHostileMonster.html" xlink:actuate="onRequest" xlink:href="ActorHostileMonster.html" xlink:show="new" xlink:title="ActorHostileMonster.html" xlink:type="simple"><rect codeLine="3" fill="#FEFECE" filter="url(#fuzgpl2dtr86c)" height="75.6719" id="nz.ac.vuw.ecs.swen225.gp20.maze.actors.ActorHostileMonster" style="stroke: #A80036; stroke-width: 1.5;" width="310" x="366" y="318"/><ellipse cx="461.75" cy="334" fill="#ADD1B2" rx="11" ry="11" style="stroke: #A80036; stroke-width: 1.0;"/><path d="M464.5156,329.875 Q464.6719,329.6563 464.8594,329.5469 Q465.0469,329.4375 465.2656,329.4375 Q465.6406,329.4375 465.875,329.7031 Q466.1094,329.9531 466.1094,330.5625 L466.1094,332.0156 Q466.1094,332.625 465.875,332.8906 Q465.6406,333.1563 465.2656,333.1563 Q464.9219,333.1563 464.7188,332.9531 Q464.5156,332.7656 464.4063,332.25 Q464.3594,331.8906 464.1719,331.7031 Q463.8438,331.3281 463.2344,331.1094 Q462.625,330.8906 462,330.8906 Q461.2344,330.8906 460.5938,331.2188 Q459.9688,331.5469 459.4688,332.2969 Q458.9844,333.0469 458.9844,334.0781 L458.9844,335.1719 Q458.9844,336.4063 459.875,337.2344 Q460.7656,338.0469 462.3594,338.0469 Q463.2969,338.0469 463.9531,337.7969 Q464.3438,337.6406 464.7656,337.2031 Q465.0313,336.9375 465.1719,336.8594 Q465.3281,336.7813 465.5313,336.7813 Q465.8594,336.7813 466.1094,337.0469 Q466.375,337.2969 466.375,337.6406 Q466.375,337.9844 466.0313,338.3906 Q465.5313,338.9688 464.7344,339.2969 Q463.6563,339.75 462.3594,339.75 Q460.8438,339.75 459.6406,339.125 Q458.6563,338.625 457.9688,337.5625 Q457.2813,336.4844 457.2813,335.2031 L457.2813,334.0469 Q457.2813,332.7188 457.8906,331.5781 Q458.5156,330.4219 459.6094,329.8125 Q460.7031,329.1875 461.9375,329.1875 Q462.6719,329.1875 463.3125,329.3594 Q463.9688,329.5156 464.5156,329.875 Z "/><text fill="#000000" font-family="sans-serif" font-size="12" lengthAdjust="spacingAndGlyphs" textLength="110" x="482.25" y="338.9102">ActorHostileMonster</text><line style="stroke: #A80036; stroke-width: 1.5;" x1="367" x2="675" y1="350" y2="350"/><ellipse cx="377" cy="361" fill="none" rx="3" ry="3" style="stroke: #038048; stroke-width: 1.0;"/><text fill="#000000" font-family="sans-serif" font-size="11" lengthAdjust="spacingAndGlyphs" text-decoration="underline" textLength="212" x="386" y="365.4189">ACTOR_HOSTILE_MONSTER_SPEED: int</text><line style="stroke: #A80036; stroke-width: 1.5;" x1="367" x2="675" y1="371.8359" y2="371.8359"/><ellipse cx="377" cy="382.8359" fill="#84BE84" rx="3" ry="3" style="stroke: #038048; stroke-width: 1.0;"/><text fill="#000000" font-family="sans-serif" font-size="11" lengthAdjust="spacingAndGlyphs" textLength="284" x="386" y="387.2549">ActorHostileMonster(String, int, int, ArrayList&lt;Coordinate&gt;)</text></a><!--MD5=[95d4549eb6b1e7e9f5abf466a2f1439c]
class nz.ac.vuw.ecs.swen225.gp20.maze.actors.ActorNeutralDirt--><a href="ActorNeutralDirt.html" target="_top" title="ActorNeutralDirt.html" xlink:actuate="onRequest" xlink:href="ActorNeutralDirt.html" xlink:show="new" xlink:title="ActorNeutralDirt.html" xlink:type="simple"><rect codeLine="8" fill="#FEFECE" filter="url(#fuzgpl2dtr86c)" height="75.6719" id="nz.ac.vuw.ecs.swen225.gp20.maze.actors.ActorNeutralDirt" style="stroke: #A80036; stroke-width: 1.5;" width="140" x="191" y="318"/><ellipse cx="215.45" cy="334" fill="#ADD1B2" rx="11" ry="11" style="stroke: #A80036; stroke-width: 1.0;"/><path d="M218.2156,329.875 Q218.3719,329.6563 218.5594,329.5469 Q218.7469,329.4375 218.9656,329.4375 Q219.3406,329.4375 219.575,329.7031 Q219.8094,329.9531 219.8094,330.5625 L219.8094,332.0156 Q219.8094,332.625 219.575,332.8906 Q219.3406,333.1563 218.9656,333.1563 Q218.6219,333.1563 218.4188,332.9531 Q218.2156,332.7656 218.1063,332.25 Q218.0594,331.8906 217.8719,331.7031 Q217.5438,331.3281 216.9344,331.1094 Q216.325,330.8906 215.7,330.8906 Q214.9344,330.8906 214.2938,331.2188 Q213.6688,331.5469 213.1688,332.2969 Q212.6844,333.0469 212.6844,334.0781 L212.6844,335.1719 Q212.6844,336.4063 213.575,337.2344 Q214.4656,338.0469 216.0594,338.0469 Q216.9969,338.0469 217.6531,337.7969 Q218.0438,337.6406 218.4656,337.2031 Q218.7313,336.9375 218.8719,336.8594 Q219.0281,336.7813 219.2313,336.7813 Q219.5594,336.7813 219.8094,337.0469 Q220.075,337.2969 220.075,337.6406 Q220.075,337.9844 219.7313,338.3906 Q219.2313,338.9688 218.4344,339.2969 Q217.3563,339.75 216.0594,339.75 Q214.5438,339.75 213.3406,339.125 Q212.3563,338.625 211.6688,337.5625 Q210.9813,336.4844 210.9813,335.2031 L210.9813,334.0469 Q210.9813,332.7188 211.5906,331.5781 Q212.2156,330.4219 213.3094,329.8125 Q214.4031,329.1875 215.6375,329.1875 Q216.3719,329.1875 217.0125,329.3594 Q217.6688,329.5156 218.2156,329.875 Z "/><text fill="#000000" font-family="sans-serif" font-size="12" lengthAdjust="spacingAndGlyphs" textLength="87" x="231.55" y="338.9102">ActorNeutralDirt</text><line style="stroke: #A80036; stroke-width: 1.5;" x1="192" x2="330" y1="350" y2="350"/><line style="stroke: #A80036; stroke-width: 1.5;" x1="192" x2="330" y1="358" y2="358"/><ellipse cx="202" cy="369" fill="#84BE84" rx="3" ry="3" style="stroke: #038048; stroke-width: 1.0;"/><text fill="#000000" font-family="sans-serif" font-size="11" lengthAdjust="spacingAndGlyphs" textLength="114" x="211" y="373.4189">ActorNeutralDirt(int, int)</text><ellipse cx="202" cy="382.8359" fill="#84BE84" rx="3" ry="3" style="stroke: #038048; stroke-width: 1.0;"/><text fill="#000000" font-family="sans-serif" font-size="11" lengthAdjust="spacingAndGlyphs" textLength="79" x="211" y="387.2549">fillInMode(): void</text></a><!--MD5=[31e1ccbcc6425458bcdae4c8588a89b1]
class nz.ac.vuw.ecs.swen225.gp20.maze.actors.ActorNeutralMop--><a href="ActorNeutralMop.html" target="_top" title="ActorNeutralMop.html" xlink:actuate="onRequest" xlink:href="ActorNeutralMop.html" xlink:show="new" xlink:title="ActorNeutralMop.html" xlink:type="simple"><rect codeLine="13" fill="#FEFECE" filter="url(#fuzgpl2dtr86c)" height="48" id="nz.ac.vuw.ecs.swen225.gp20.maze.actors.ActorNeutralMop" style="stroke: #A80036; stroke-width: 1.5;" width="124" x="32" y="332"/><ellipse cx="47" cy="348" fill="#ADD1B2" rx="11" ry="11" style="stroke: #A80036; stroke-width: 1.0;"/><path d="M49.7656,343.875 Q49.9219,343.6563 50.1094,343.5469 Q50.2969,343.4375 50.5156,343.4375 Q50.8906,343.4375 51.125,343.7031 Q51.3594,343.9531 51.3594,344.5625 L51.3594,346.0156 Q51.3594,346.625 51.125,346.8906 Q50.8906,347.1563 50.5156,347.1563 Q50.1719,347.1563 49.9688,346.9531 Q49.7656,346.7656 49.6563,346.25 Q49.6094,345.8906 49.4219,345.7031 Q49.0938,345.3281 48.4844,345.1094 Q47.875,344.8906 47.25,344.8906 Q46.4844,344.8906 45.8438,345.2188 Q45.2188,345.5469 44.7188,346.2969 Q44.2344,347.0469 44.2344,348.0781 L44.2344,349.1719 Q44.2344,350.4063 45.125,351.2344 Q46.0156,352.0469 47.6094,352.0469 Q48.5469,352.0469 49.2031,351.7969 Q49.5938,351.6406 50.0156,351.2031 Q50.2813,350.9375 50.4219,350.8594 Q50.5781,350.7813 50.7813,350.7813 Q51.1094,350.7813 51.3594,351.0469 Q51.625,351.2969 51.625,351.6406 Q51.625,351.9844 51.2813,352.3906 Q50.7813,352.9688 49.9844,353.2969 Q48.9063,353.75 47.6094,353.75 Q46.0938,353.75 44.8906,353.125 Q43.9063,352.625 43.2188,351.5625 Q42.5313,350.4844 42.5313,349.2031 L42.5313,348.0469 Q42.5313,346.7188 43.1406,345.5781 Q43.7656,344.4219 44.8594,343.8125 Q45.9531,343.1875 47.1875,343.1875 Q47.9219,343.1875 48.5625,343.3594 Q49.2188,343.5156 49.7656,343.875 Z "/><text fill="#000000" font-family="sans-serif" font-size="12" lengthAdjust="spacingAndGlyphs" textLength="92" x="61" y="352.9102">ActorNeutralMop</text><line style="stroke: #A80036; stroke-width: 1.5;" x1="33" x2="155" y1="364" y2="364"/><line style="stroke: #A80036; stroke-width: 1.5;" x1="33" x2="155" y1="372" y2="372"/></a><!--MD5=[d4fa7740169997c9d89c81c5a1cac5f6]
class nz.ac.vuw.ecs.swen225.gp20.maze.Actor--><a href="..\Actor.html" target="_top" title="..\Actor.html" xlink:actuate="onRequest" xlink:href="..\Actor.html" xlink:show="new" xlink:title="..\Actor.html" xlink:type="simple"><rect codeLine="20" fill="#FEFECE" filter="url(#fuzgpl2dtr86c)" height="200.1953" id="nz.ac.vuw.ecs.swen225.gp20.maze.Actor" style="stroke: #A80036; stroke-width: 1.5;" width="153" x="314.5" y="42"/><ellipse cx="372.75" cy="58" fill="#ADD1B2" rx="11" ry="11" style="stroke: #A80036; stroke-width: 1.0;"/><path d="M375.5156,53.875 Q375.6719,53.6563 375.8594,53.5469 Q376.0469,53.4375 376.2656,53.4375 Q376.6406,53.4375 376.875,53.7031 Q377.1094,53.9531 377.1094,54.5625 L377.1094,56.0156 Q377.1094,56.625 376.875,56.8906 Q376.6406,57.1563 376.2656,57.1563 Q375.9219,57.1563 375.7188,56.9531 Q375.5156,56.7656 375.4063,56.25 Q375.3594,55.8906 375.1719,55.7031 Q374.8438,55.3281 374.2344,55.1094 Q373.625,54.8906 373,54.8906 Q372.2344,54.8906 371.5938,55.2188 Q370.9688,55.5469 370.4688,56.2969 Q369.9844,57.0469 369.9844,58.0781 L369.9844,59.1719 Q369.9844,60.4063 370.875,61.2344 Q371.7656,62.0469 373.3594,62.0469 Q374.2969,62.0469 374.9531,61.7969 Q375.3438,61.6406 375.7656,61.2031 Q376.0313,60.9375 376.1719,60.8594 Q376.3281,60.7813 376.5313,60.7813 Q376.8594,60.7813 377.1094,61.0469 Q377.375,61.2969 377.375,61.6406 Q377.375,61.9844 377.0313,62.3906 Q376.5313,62.9688 375.7344,63.2969 Q374.6563,63.75 373.3594,63.75 Q371.8438,63.75 370.6406,63.125 Q369.6563,62.625 368.9688,61.5625 Q368.2813,60.4844 368.2813,59.2031 L368.2813,58.0469 Q368.2813,56.7188 368.8906,55.5781 Q369.5156,54.4219 370.6094,53.8125 Q371.7031,53.1875 372.9375,53.1875 Q373.6719,53.1875 374.3125,53.3594 Q374.9688,53.5156 375.5156,53.875 Z "/><text fill="#000000" font-family="sans-serif" font-size="12" lengthAdjust="spacingAndGlyphs" textLength="28" x="393.25" y="62.9102">Actor</text><line style="stroke: #A80036; stroke-width: 1.5;" x1="315.5" x2="466.5" y1="74" y2="74"/><polygon fill="none" points="325.5,80,329.5,84,325.5,88,321.5,84" style="stroke: #B38D22; stroke-width: 1.0;"/><text fill="#000000" font-family="sans-serif" font-size="11" lengthAdjust="spacingAndGlyphs" textLength="61" x="334.5" y="89.4189">name: String</text><polygon fill="none" points="325.5,93.8359,329.5,97.8359,325.5,101.8359,321.5,97.8359" style="stroke: #B38D22; stroke-width: 1.0;"/><text fill="#000000" font-family="sans-serif" font-size="11" lengthAdjust="spacingAndGlyphs" textLength="83" x="334.5" y="103.2549">isPlayer: boolean</text><polygon fill="none" points="325.5,107.6719,329.5,111.6719,325.5,115.6719,321.5,111.6719" style="stroke: #B38D22; stroke-width: 1.0;"/><text fill="#000000" font-family="sans-serif" font-size="11" lengthAdjust="spacingAndGlyphs" textLength="90" x="334.5" y="117.0908">direction: Direction</text><polygon fill="none" points="325.5,121.5078,329.5,125.5078,325.5,129.5078,321.5,125.5078" style="stroke: #B38D22; stroke-width: 1.0;"/><text fill="#000000" font-family="sans-serif" font-size="11" lengthAdjust="spacingAndGlyphs" textLength="87" x="334.5" y="130.9268">isMoving: boolean</text><polygon fill="none" points="325.5,135.3438,329.5,139.3438,325.5,143.3438,321.5,139.3438" style="stroke: #B38D22; stroke-width: 1.0;"/><text fill="#000000" font-family="sans-serif" font-size="11" lengthAdjust="spacingAndGlyphs" textLength="23" x="334.5" y="144.7627">x: int</text><polygon fill="none" points="325.5,149.1797,329.5,153.1797,325.5,157.1797,321.5,153.1797" style="stroke: #B38D22; stroke-width: 1.0;"/><text fill="#000000" font-family="sans-serif" font-size="11" lengthAdjust="spacingAndGlyphs" textLength="23" x="334.5" y="158.5986">y: int</text><polygon fill="none" points="325.5,163.0156,329.5,167.0156,325.5,171.0156,321.5,167.0156" style="stroke: #B38D22; stroke-width: 1.0;"/><text fill="#000000" font-family="sans-serif" font-size="11" lengthAdjust="spacingAndGlyphs" textLength="89" x="334.5" y="172.4346">moveProgress: int</text><polygon fill="none" points="325.5,176.8516,329.5,180.8516,325.5,184.8516,321.5,180.8516" style="stroke: #B38D22; stroke-width: 1.0;"/><text fill="#000000" font-family="sans-serif" font-size="11" lengthAdjust="spacingAndGlyphs" textLength="80" x="334.5" y="186.2705">ticksToMove: int</text><polygon fill="none" points="325.5,190.6875,329.5,194.6875,325.5,198.6875,321.5,194.6875" style="stroke: #B38D22; stroke-width: 1.0;"/><text fill="#000000" font-family="sans-serif" font-size="11" lengthAdjust="spacingAndGlyphs" textLength="93" x="334.5" y="200.1064">killsPlayer: boolean</text><polygon fill="none" points="325.5,204.5234,329.5,208.5234,325.5,212.5234,321.5,208.5234" style="stroke: #B38D22; stroke-width: 1.0;"/><text fill="#000000" font-family="sans-serif" font-size="11" lengthAdjust="spacingAndGlyphs" textLength="127" x="334.5" y="213.9424">blocksMovement: boolean</text><polygon fill="none" points="325.5,218.3594,329.5,222.3594,325.5,226.3594,321.5,222.3594" style="stroke: #B38D22; stroke-width: 1.0;"/><text fill="#000000" font-family="sans-serif" font-size="11" lengthAdjust="spacingAndGlyphs" textLength="97" x="334.5" y="227.7783">isPushable: boolean</text><line style="stroke: #A80036; stroke-width: 1.5;" x1="315.5" x2="466.5" y1="234.1953" y2="234.1953"/></a><!--MD5=[f244c39b03d68f804126f9491dead81d]
reverse link nz.ac.vuw.ecs.swen225.gp20.maze.Actor to nz.ac.vuw.ecs.swen225.gp20.maze.actors.ActorHostileMonster--><path codeLine="15" d="M462.28,259.23 C475.28,280.44 487.95,301.1 498.17,317.77 " fill="none" id="nz.ac.vuw.ecs.swen225.gp20.maze.Actor-backto-nz.ac.vuw.ecs.swen225.gp20.maze.actors.ActorHostileMonster" style="stroke: #A80036; stroke-width: 1.0;"/><polygon fill="none" points="456.3,262.88,451.81,242.17,468.24,255.56,456.3,262.88" style="stroke: #A80036; stroke-width: 1.0;"/><!--MD5=[209b2a5324949ecd6c0233e953bc9818]
reverse link nz.ac.vuw.ecs.swen225.gp20.maze.Actor to nz.ac.vuw.ecs.swen225.gp20.maze.actors.ActorNeutralDirt--><path codeLine="16" d="M319.72,259.23 C306.72,280.44 294.05,301.1 283.83,317.77 " fill="none" id="nz.ac.vuw.ecs.swen225.gp20.maze.Actor-backto-nz.ac.vuw.ecs.swen225.gp20.maze.actors.ActorNeutralDirt" style="stroke: #A80036; stroke-width: 1.0;"/><polygon fill="none" points="313.76,255.56,330.19,242.17,325.7,262.88,313.76,255.56" style="stroke: #A80036; stroke-width: 1.0;"/><text fill="#888888" font-family="sans-serif" font-size="10" lengthAdjust="spacingAndGlyphs" textLength="185" x="255.5" y="426.3809">UMLDoclet 2.0.12, PlantUML 1.2020.16</text><!--MD5=[41f6ec7701ce94212c4bf35420efbc68]
@startuml
    namespace nz.ac.vuw.ecs.swen225.gp20.maze.actors {

        class ActorHostileMonster [[ActorHostileMonster.html]] {
            {static} +ACTOR_HOSTILE_MONSTER_SPEED: int
            +ActorHostileMonster(String, int, int, ArrayList<Coordinate>)
        }

        class ActorNeutralDirt [[ActorNeutralDirt.html]] {
            +ActorNeutralDirt(int, int)
            +fillInMode(): void
        }

        class ActorNeutralMop [[ActorNeutralMop.html]]

        nz.ac.vuw.ecs.swen225.gp20.maze.Actor <|- - ActorHostileMonster
        nz.ac.vuw.ecs.swen225.gp20.maze.Actor <|- - ActorNeutralDirt
    }

    namespace nz.ac.vuw.ecs.swen225.gp20.maze {
        class Actor [[..\Actor.html]] {
            #name: String
            #isPlayer: boolean
            #direction: Direction
            #isMoving: boolean
            #x: int
            #y: int
            #moveProgress: int
            #ticksToMove: int
            #killsPlayer: boolean
            #blocksMovement: boolean
            #isPushable: boolean
        }
    }

    center footer UMLDoclet 2.0.12, PlantUML 1.2020.16
@enduml

PlantUML version 1.2020.16(Mon Aug 24 08:20:43 NZST 2020)
(APACHE source distribution)
Java Runtime: Java(TM) SE Runtime Environment
JVM: Java HotSpot(TM) 64-Bit Server VM
Default Encoding: Cp1252
Language: en
Country: NZ
--></g></svg>