<?xml version="1.0" encoding="UTF-8" standalone="no"?><svg xmlns="http://www.w3.org/2000/svg" xmlns:xlink="http://www.w3.org/1999/xlink" contentScriptType="application/ecmascript" contentStyleType="text/css" height="356px" preserveAspectRatio="none" style="width:336px;height:356px;" version="1.1" viewBox="0 0 336 356" width="336px" zoomAndPan="magnify"><defs><filter height="300%" id="f7ly9dp91egsb" width="300%" x="-1" y="-1"><feGaussianBlur result="blurOut" stdDeviation="2.0"/><feColorMatrix in="blurOut" result="blurOut2" type="matrix" values="0 0 0 0 0 0 0 0 0 0 0 0 0 0 0 0 0 0 .4 0"/><feOffset dx="4.0" dy="4.0" in="blurOut2" result="blurOut3"/><feBlend in="SourceGraphic" in2="blurOut3" mode="normal"/></filter></defs><g><!--MD5=[d423da23da1fc8f952d900322317c2ef]
cluster nz.ac.vuw.ecs.swen225.gp20.persistence--><polygon fill="#FFFFFF" filter="url(#f7ly9dp91egsb)" points="16,6,304,6,311,29.6094,314,29.6094,314,327,16,327,16,6" style="stroke: #000000; stroke-width: 1.5;"/><line style="stroke: #000000; stroke-width: 1.5;" x1="16" x2="311" y1="29.6094" y2="29.6094"/><text fill="#000000" font-family="sans-serif" font-size="14" font-weight="bold" lengthAdjust="spacingAndGlyphs" textLength="282" x="20" y="22.5332">nz.ac.vuw.ecs.swen225.gp20.persistence</text><!--MD5=[39c356492b3453a8feb25e279768bd94]
class nz.ac.vuw.ecs.swen225.gp20.persistence.Persistence--><a href="Persistence.html" target="_top" title="Persistence.html" xlink:actuate="onRequest" xlink:href="Persistence.html" xlink:show="new" xlink:title="Persistence.html" xlink:type="simple"><rect codeLine="3" fill="#FEFECE" filter="url(#f7ly9dp91egsb)" height="269.375" id="nz.ac.vuw.ecs.swen225.gp20.persistence.Persistence" style="stroke: #A80036; stroke-width: 1.5;" width="178" x="76" y="42"/><ellipse cx="128.75" cy="58" fill="#ADD1B2" rx="11" ry="11" style="stroke: #A80036; stroke-width: 1.0;"/><path d="M131.5156,53.875 Q131.6719,53.6563 131.8594,53.5469 Q132.0469,53.4375 132.2656,53.4375 Q132.6406,53.4375 132.875,53.7031 Q133.1094,53.9531 133.1094,54.5625 L133.1094,56.0156 Q133.1094,56.625 132.875,56.8906 Q132.6406,57.1563 132.2656,57.1563 Q131.9219,57.1563 131.7188,56.9531 Q131.5156,56.7656 131.4063,56.25 Q131.3594,55.8906 131.1719,55.7031 Q130.8438,55.3281 130.2344,55.1094 Q129.625,54.8906 129,54.8906 Q128.2344,54.8906 127.5938,55.2188 Q126.9688,55.5469 126.4688,56.2969 Q125.9844,57.0469 125.9844,58.0781 L125.9844,59.1719 Q125.9844,60.4063 126.875,61.2344 Q127.7656,62.0469 129.3594,62.0469 Q130.2969,62.0469 130.9531,61.7969 Q131.3438,61.6406 131.7656,61.2031 Q132.0313,60.9375 132.1719,60.8594 Q132.3281,60.7813 132.5313,60.7813 Q132.8594,60.7813 133.1094,61.0469 Q133.375,61.2969 133.375,61.6406 Q133.375,61.9844 133.0313,62.3906 Q132.5313,62.9688 131.7344,63.2969 Q130.6563,63.75 129.3594,63.75 Q127.8438,63.75 126.6406,63.125 Q125.6563,62.625 124.9688,61.5625 Q124.2813,60.4844 124.2813,59.2031 L124.2813,58.0469 Q124.2813,56.7188 124.8906,55.5781 Q125.5156,54.4219 126.6094,53.8125 Q127.7031,53.1875 128.9375,53.1875 Q129.6719,53.1875 130.3125,53.3594 Q130.9688,53.5156 131.5156,53.875 Z "/><text fill="#000000" font-family="sans-serif" font-size="12" lengthAdjust="spacingAndGlyphs" textLength="64" x="149.25" y="62.9102">Persistence</text><line style="stroke: #A80036; stroke-width: 1.5;" x1="77" x2="253" y1="74" y2="74"/><ellipse cx="87" cy="85" fill="none" rx="3" ry="3" style="stroke: #038048; stroke-width: 1.0;"/><text fill="#000000" font-family="sans-serif" font-size="11" lengthAdjust="spacingAndGlyphs" text-decoration="underline" textLength="78" x="96" y="89.4189">resources: Path</text><ellipse cx="87" cy="98.8359" fill="none" rx="3" ry="3" style="stroke: #038048; stroke-width: 1.0;"/><text fill="#000000" font-family="sans-serif" font-size="11" lengthAdjust="spacingAndGlyphs" text-decoration="underline" textLength="56" x="96" y="103.2549">levels: Path</text><ellipse cx="87" cy="112.6719" fill="none" rx="3" ry="3" style="stroke: #038048; stroke-width: 1.0;"/><text fill="#000000" font-family="sans-serif" font-size="11" lengthAdjust="spacingAndGlyphs" text-decoration="underline" textLength="80" x="96" y="117.0908">recordings: Path</text><ellipse cx="87" cy="126.5078" fill="none" rx="3" ry="3" style="stroke: #038048; stroke-width: 1.0;"/><text fill="#000000" font-family="sans-serif" font-size="11" lengthAdjust="spacingAndGlyphs" text-decoration="underline" textLength="83" x="96" y="130.9268">savedState: Path</text><line style="stroke: #A80036; stroke-width: 1.5;" x1="77" x2="253" y1="137.3438" y2="137.3438"/><ellipse cx="87" cy="148.3438" fill="#84BE84" rx="3" ry="3" style="stroke: #038048; stroke-width: 1.0;"/><text fill="#000000" font-family="sans-serif" font-size="11" lengthAdjust="spacingAndGlyphs" text-decoration="underline" textLength="73" x="96" y="152.7627">read(int): Level</text><ellipse cx="87" cy="162.1797" fill="#84BE84" rx="3" ry="3" style="stroke: #038048; stroke-width: 1.0;"/><text fill="#000000" font-family="sans-serif" font-size="11" lengthAdjust="spacingAndGlyphs" text-decoration="underline" textLength="90" x="96" y="166.5986">read(String): Level</text><ellipse cx="87" cy="176.0156" fill="#84BE84" rx="3" ry="3" style="stroke: #038048; stroke-width: 1.0;"/><text fill="#000000" font-family="sans-serif" font-size="11" lengthAdjust="spacingAndGlyphs" text-decoration="underline" textLength="140" x="96" y="180.4346">saveGameState(Maze): void</text><ellipse cx="87" cy="189.8516" fill="#84BE84" rx="3" ry="3" style="stroke: #038048; stroke-width: 1.0;"/><text fill="#000000" font-family="sans-serif" font-size="11" lengthAdjust="spacingAndGlyphs" text-decoration="underline" textLength="139" x="96" y="194.2705">getGameState(Maze): String</text><ellipse cx="87" cy="203.6875" fill="#84BE84" rx="3" ry="3" style="stroke: #038048; stroke-width: 1.0;"/><text fill="#000000" font-family="sans-serif" font-size="11" lengthAdjust="spacingAndGlyphs" text-decoration="underline" textLength="116" x="96" y="208.1064">loadGameState(): Maze</text><ellipse cx="87" cy="217.5234" fill="#84BE84" rx="3" ry="3" style="stroke: #038048; stroke-width: 1.0;"/><text fill="#000000" font-family="sans-serif" font-size="11" lengthAdjust="spacingAndGlyphs" text-decoration="underline" textLength="144" x="96" y="221.9424">loadGameState(String): Maze</text><ellipse cx="87" cy="231.3594" fill="#84BE84" rx="3" ry="3" style="stroke: #038048; stroke-width: 1.0;"/><text fill="#000000" font-family="sans-serif" font-size="11" lengthAdjust="spacingAndGlyphs" text-decoration="underline" textLength="137" x="96" y="235.7783">loadSaveSettings(): Settings</text><ellipse cx="87" cy="245.1953" fill="#84BE84" rx="3" ry="3" style="stroke: #038048; stroke-width: 1.0;"/><text fill="#000000" font-family="sans-serif" font-size="11" lengthAdjust="spacingAndGlyphs" text-decoration="underline" textLength="152" x="96" y="249.6143">setSaveSettings(Settings): void</text><ellipse cx="87" cy="259.0313" fill="#84BE84" rx="3" ry="3" style="stroke: #038048; stroke-width: 1.0;"/><text fill="#000000" font-family="sans-serif" font-size="11" lengthAdjust="spacingAndGlyphs" text-decoration="underline" textLength="123" x="96" y="263.4502">setHighestLevel(int): void</text><ellipse cx="87" cy="272.8672" fill="#84BE84" rx="3" ry="3" style="stroke: #038048; stroke-width: 1.0;"/><text fill="#000000" font-family="sans-serif" font-size="11" lengthAdjust="spacingAndGlyphs" text-decoration="underline" textLength="127" x="96" y="277.2861">setSaveType(String): void</text><ellipse cx="87" cy="286.7031" fill="#84BE84" rx="3" ry="3" style="stroke: #038048; stroke-width: 1.0;"/><text fill="#000000" font-family="sans-serif" font-size="11" lengthAdjust="spacingAndGlyphs" text-decoration="underline" textLength="107" x="96" y="291.1221">getSaveType(): String</text><ellipse cx="87" cy="300.5391" fill="#84BE84" rx="3" ry="3" style="stroke: #038048; stroke-width: 1.0;"/><text fill="#000000" font-family="sans-serif" font-size="11" lengthAdjust="spacingAndGlyphs" text-decoration="underline" textLength="103" x="96" y="304.958">getHighestLevel(): int</text></a><text fill="#888888" font-family="sans-serif" font-size="10" lengthAdjust="spacingAndGlyphs" textLength="185" x="66.5" y="343.3809">UMLDoclet 2.0.12, PlantUML 1.2020.16</text><!--MD5=[cc2aa3d8d22f027cf4f4a489f1c7cf25]
@startuml
    namespace nz.ac.vuw.ecs.swen225.gp20.persistence {

        class Persistence [[Persistence.html]] {
            {static} +resources: Path
            {static} +levels: Path
            {static} +recordings: Path
            {static} +savedState: Path
            {static} +read(int): Level
            {static} +read(String): Level
            {static} +saveGameState(Maze): void
            {static} +getGameState(Maze): String
            {static} +loadGameState(): Maze
            {static} +loadGameState(String): Maze
            {static} +loadSaveSettings(): Settings
            {static} +setSaveSettings(Settings): void
            {static} +setHighestLevel(int): void
            {static} +setSaveType(String): void
            {static} +getSaveType(): String
            {static} +getHighestLevel(): int
        }

    }

    center footer UMLDoclet 2.0.12, PlantUML 1.2020.16
@enduml

PlantUML version 1.2020.16(Mon Aug 24 08:20:43 NZST 2020)
(APACHE source distribution)
Java Runtime: Java(TM) SE Runtime Environment
JVM: Java HotSpot(TM) 64-Bit Server VM
Default Encoding: Cp1252
Language: en
Country: NZ
--></g></svg>