<?xml version="1.0" encoding="UTF-8" standalone="no"?><svg xmlns="http://www.w3.org/2000/svg" xmlns:xlink="http://www.w3.org/1999/xlink" contentScriptType="application/ecmascript" contentStyleType="text/css" height="395px" preserveAspectRatio="none" style="width:1729px;height:395px;" version="1.1" viewBox="0 0 1729 395" width="1729px" zoomAndPan="magnify"><defs><filter height="300%" id="f1kl966f3zhgqa" width="300%" x="-1" y="-1"><feGaussianBlur result="blurOut" stdDeviation="2.0"/><feColorMatrix in="blurOut" result="blurOut2" type="matrix" values="0 0 0 0 0 0 0 0 0 0 0 0 0 0 0 0 0 0 .4 0"/><feOffset dx="4.0" dy="4.0" in="blurOut2" result="blurOut3"/><feBlend in="SourceGraphic" in2="blurOut3" mode="normal"/></filter></defs><g><!--MD5=[8e42a2594950d4652423d2d9e891b53c]
cluster nz.ac.vuw.ecs.swen225.gp20.render.sprites--><polygon fill="#FFFFFF" filter="url(#f1kl966f3zhgqa)" points="16,6,319,6,326,29.6094,1707,29.6094,1707,366,16,366,16,6" style="stroke: #000000; stroke-width: 1.5;"/><line style="stroke: #000000; stroke-width: 1.5;" x1="16" x2="326" y1="29.6094" y2="29.6094"/><text fill="#000000" font-family="sans-serif" font-size="14" font-weight="bold" lengthAdjust="spacingAndGlyphs" textLength="297" x="20" y="22.5332">nz.ac.vuw.ecs.swen225.gp20.render.sprites</text><!--MD5=[54a787f80939b9784b09fe5cde4d25d7]
class nz.ac.vuw.ecs.swen225.gp20.render.sprites.ActorSprite--><a href="ActorSprite.html" target="_top" title="ActorSprite.html" xlink:actuate="onRequest" xlink:href="ActorSprite.html" xlink:show="new" xlink:title="ActorSprite.html" xlink:type="simple"><rect codeLine="3" fill="#FEFECE" filter="url(#f1kl966f3zhgqa)" height="144.8516" id="nz.ac.vuw.ecs.swen225.gp20.render.sprites.ActorSprite" style="stroke: #A80036; stroke-width: 1.5;" width="156" x="32" y="205"/><ellipse cx="75.8" cy="221" fill="#ADD1B2" rx="11" ry="11" style="stroke: #A80036; stroke-width: 1.0;"/><path d="M78.5656,216.875 Q78.7219,216.6563 78.9094,216.5469 Q79.0969,216.4375 79.3156,216.4375 Q79.6906,216.4375 79.925,216.7031 Q80.1594,216.9531 80.1594,217.5625 L80.1594,219.0156 Q80.1594,219.625 79.925,219.8906 Q79.6906,220.1563 79.3156,220.1563 Q78.9719,220.1563 78.7688,219.9531 Q78.5656,219.7656 78.4563,219.25 Q78.4094,218.8906 78.2219,218.7031 Q77.8938,218.3281 77.2844,218.1094 Q76.675,217.8906 76.05,217.8906 Q75.2844,217.8906 74.6438,218.2188 Q74.0188,218.5469 73.5188,219.2969 Q73.0344,220.0469 73.0344,221.0781 L73.0344,222.1719 Q73.0344,223.4063 73.925,224.2344 Q74.8156,225.0469 76.4094,225.0469 Q77.3469,225.0469 78.0031,224.7969 Q78.3938,224.6406 78.8156,224.2031 Q79.0813,223.9375 79.2219,223.8594 Q79.3781,223.7813 79.5813,223.7813 Q79.9094,223.7813 80.1594,224.0469 Q80.425,224.2969 80.425,224.6406 Q80.425,224.9844 80.0813,225.3906 Q79.5813,225.9688 78.7844,226.2969 Q77.7063,226.75 76.4094,226.75 Q74.8938,226.75 73.6906,226.125 Q72.7063,225.625 72.0188,224.5625 Q71.3313,223.4844 71.3313,222.2031 L71.3313,221.0469 Q71.3313,219.7188 71.9406,218.5781 Q72.5656,217.4219 73.6594,216.8125 Q74.7531,216.1875 75.9875,216.1875 Q76.7219,216.1875 77.3625,216.3594 Q78.0188,216.5156 78.5656,216.875 Z "/><text fill="#000000" font-family="sans-serif" font-size="12" lengthAdjust="spacingAndGlyphs" textLength="60" x="96.2" y="225.9102">ActorSprite</text><line style="stroke: #A80036; stroke-width: 1.5;" x1="33" x2="187" y1="237" y2="237"/><line style="stroke: #A80036; stroke-width: 1.5;" x1="33" x2="187" y1="245" y2="245"/><ellipse cx="43" cy="256" fill="#84BE84" rx="3" ry="3" style="stroke: #038048; stroke-width: 1.0;"/><text fill="#000000" font-family="sans-serif" font-size="11" lengthAdjust="spacingAndGlyphs" textLength="128" x="52" y="260.4189">ActorSprite(Actor, Assets)</text><ellipse cx="43" cy="269.8359" fill="#84BE84" rx="3" ry="3" style="stroke: #038048; stroke-width: 1.0;"/><text fill="#000000" font-family="sans-serif" font-size="11" lengthAdjust="spacingAndGlyphs" textLength="47" x="52" y="274.2549">getX(): int</text><ellipse cx="43" cy="283.6719" fill="#84BE84" rx="3" ry="3" style="stroke: #038048; stroke-width: 1.0;"/><text fill="#000000" font-family="sans-serif" font-size="11" lengthAdjust="spacingAndGlyphs" textLength="47" x="52" y="288.0908">getY(): int</text><ellipse cx="43" cy="297.5078" fill="#84BE84" rx="3" ry="3" style="stroke: #038048; stroke-width: 1.0;"/><text fill="#000000" font-family="sans-serif" font-size="11" lengthAdjust="spacingAndGlyphs" textLength="67" x="52" y="301.9268">update(): void</text><ellipse cx="43" cy="311.3438" fill="#84BE84" rx="3" ry="3" style="stroke: #038048; stroke-width: 1.0;"/><text fill="#000000" font-family="sans-serif" font-size="11" lengthAdjust="spacingAndGlyphs" textLength="111" x="52" y="315.7627">getIsMoving(): boolean</text><ellipse cx="43" cy="325.1797" fill="#84BE84" rx="3" ry="3" style="stroke: #038048; stroke-width: 1.0;"/><text fill="#000000" font-family="sans-serif" font-size="11" lengthAdjust="spacingAndGlyphs" textLength="115" x="52" y="329.5986">getDirection(): Direction</text><ellipse cx="43" cy="339.0156" fill="#84BE84" rx="3" ry="3" style="stroke: #038048; stroke-width: 1.0;"/><text fill="#000000" font-family="sans-serif" font-size="11" lengthAdjust="spacingAndGlyphs" textLength="130" x="52" y="343.4346">getImage(): BufferedImage</text></a><!--MD5=[05ec99f36589583413d4175c90dffcce]
class nz.ac.vuw.ecs.swen225.gp20.render.sprites.Door--><a href="Door.html" target="_top" title="Door.html" xlink:actuate="onRequest" xlink:href="Door.html" xlink:show="new" xlink:title="Door.html" xlink:type="simple"><rect codeLine="13" fill="#FEFECE" filter="url(#f1kl966f3zhgqa)" height="117.1797" id="nz.ac.vuw.ecs.swen225.gp20.render.sprites.Door" style="stroke: #A80036; stroke-width: 1.5;" width="214" x="223" y="219"/><ellipse cx="312.25" cy="235" fill="#ADD1B2" rx="11" ry="11" style="stroke: #A80036; stroke-width: 1.0;"/><path d="M315.0156,230.875 Q315.1719,230.6563 315.3594,230.5469 Q315.5469,230.4375 315.7656,230.4375 Q316.1406,230.4375 316.375,230.7031 Q316.6094,230.9531 316.6094,231.5625 L316.6094,233.0156 Q316.6094,233.625 316.375,233.8906 Q316.1406,234.1563 315.7656,234.1563 Q315.4219,234.1563 315.2188,233.9531 Q315.0156,233.7656 314.9063,233.25 Q314.8594,232.8906 314.6719,232.7031 Q314.3438,232.3281 313.7344,232.1094 Q313.125,231.8906 312.5,231.8906 Q311.7344,231.8906 311.0938,232.2188 Q310.4688,232.5469 309.9688,233.2969 Q309.4844,234.0469 309.4844,235.0781 L309.4844,236.1719 Q309.4844,237.4063 310.375,238.2344 Q311.2656,239.0469 312.8594,239.0469 Q313.7969,239.0469 314.4531,238.7969 Q314.8438,238.6406 315.2656,238.2031 Q315.5313,237.9375 315.6719,237.8594 Q315.8281,237.7813 316.0313,237.7813 Q316.3594,237.7813 316.6094,238.0469 Q316.875,238.2969 316.875,238.6406 Q316.875,238.9844 316.5313,239.3906 Q316.0313,239.9688 315.2344,240.2969 Q314.1563,240.75 312.8594,240.75 Q311.3438,240.75 310.1406,240.125 Q309.1563,239.625 308.4688,238.5625 Q307.7813,237.4844 307.7813,236.2031 L307.7813,235.0469 Q307.7813,233.7188 308.3906,232.5781 Q309.0156,231.4219 310.1094,230.8125 Q311.2031,230.1875 312.4375,230.1875 Q313.1719,230.1875 313.8125,230.3594 Q314.4688,230.5156 315.0156,230.875 Z "/><text fill="#000000" font-family="sans-serif" font-size="12" lengthAdjust="spacingAndGlyphs" textLength="27" x="332.75" y="239.9102">Door</text><line style="stroke: #A80036; stroke-width: 1.5;" x1="224" x2="436" y1="251" y2="251"/><line style="stroke: #A80036; stroke-width: 1.5;" x1="224" x2="436" y1="259" y2="259"/><ellipse cx="234" cy="270" fill="#84BE84" rx="3" ry="3" style="stroke: #038048; stroke-width: 1.0;"/><text fill="#000000" font-family="sans-serif" font-size="11" lengthAdjust="spacingAndGlyphs" textLength="188" x="243" y="274.4189">Door(Assets, String, boolean, boolean)</text><ellipse cx="234" cy="283.8359" fill="#84BE84" rx="3" ry="3" style="stroke: #038048; stroke-width: 1.0;"/><text fill="#000000" font-family="sans-serif" font-size="11" lengthAdjust="spacingAndGlyphs" textLength="67" x="243" y="288.2549">update(): void</text><ellipse cx="234" cy="297.6719" fill="#84BE84" rx="3" ry="3" style="stroke: #038048; stroke-width: 1.0;"/><text fill="#000000" font-family="sans-serif" font-size="11" lengthAdjust="spacingAndGlyphs" textLength="130" x="243" y="302.0908">getImage(): BufferedImage</text><ellipse cx="234" cy="311.5078" fill="#84BE84" rx="3" ry="3" style="stroke: #038048; stroke-width: 1.0;"/><text fill="#000000" font-family="sans-serif" font-size="11" lengthAdjust="spacingAndGlyphs" textLength="96" x="243" y="315.9268">isVertical(): boolean</text><ellipse cx="234" cy="325.3438" fill="#84BE84" rx="3" ry="3" style="stroke: #038048; stroke-width: 1.0;"/><text fill="#000000" font-family="sans-serif" font-size="11" lengthAdjust="spacingAndGlyphs" textLength="119" x="243" y="329.7627">setIsSolid(boolean): void</text></a><!--MD5=[b16456cd1dc444f29ee8ed4f70009ae2]
class nz.ac.vuw.ecs.swen225.gp20.render.sprites.EnergyBall--><a href="EnergyBall.html" target="_top" title="EnergyBall.html" xlink:actuate="onRequest" xlink:href="EnergyBall.html" xlink:show="new" xlink:title="EnergyBall.html" xlink:type="simple"><rect codeLine="21" fill="#FEFECE" filter="url(#f1kl966f3zhgqa)" height="89.5078" id="nz.ac.vuw.ecs.swen225.gp20.render.sprites.EnergyBall" style="stroke: #A80036; stroke-width: 1.5;" width="156" x="472" y="232.5"/><ellipse cx="515.8" cy="248.5" fill="#ADD1B2" rx="11" ry="11" style="stroke: #A80036; stroke-width: 1.0;"/><path d="M518.5656,244.375 Q518.7219,244.1563 518.9094,244.0469 Q519.0969,243.9375 519.3156,243.9375 Q519.6906,243.9375 519.925,244.2031 Q520.1594,244.4531 520.1594,245.0625 L520.1594,246.5156 Q520.1594,247.125 519.925,247.3906 Q519.6906,247.6563 519.3156,247.6563 Q518.9719,247.6563 518.7688,247.4531 Q518.5656,247.2656 518.4563,246.75 Q518.4094,246.3906 518.2219,246.2031 Q517.8938,245.8281 517.2844,245.6094 Q516.675,245.3906 516.05,245.3906 Q515.2844,245.3906 514.6438,245.7188 Q514.0188,246.0469 513.5188,246.7969 Q513.0344,247.5469 513.0344,248.5781 L513.0344,249.6719 Q513.0344,250.9063 513.925,251.7344 Q514.8156,252.5469 516.4094,252.5469 Q517.3469,252.5469 518.0031,252.2969 Q518.3938,252.1406 518.8156,251.7031 Q519.0813,251.4375 519.2219,251.3594 Q519.3781,251.2813 519.5813,251.2813 Q519.9094,251.2813 520.1594,251.5469 Q520.425,251.7969 520.425,252.1406 Q520.425,252.4844 520.0813,252.8906 Q519.5813,253.4688 518.7844,253.7969 Q517.7063,254.25 516.4094,254.25 Q514.8938,254.25 513.6906,253.625 Q512.7063,253.125 512.0188,252.0625 Q511.3312,250.9844 511.3312,249.7031 L511.3312,248.5469 Q511.3312,247.2188 511.9406,246.0781 Q512.5656,244.9219 513.6594,244.3125 Q514.7531,243.6875 515.9875,243.6875 Q516.7219,243.6875 517.3625,243.8594 Q518.0188,244.0156 518.5656,244.375 Z "/><text fill="#000000" font-family="sans-serif" font-size="12" lengthAdjust="spacingAndGlyphs" textLength="60" x="536.2" y="253.4102">EnergyBall</text><line style="stroke: #A80036; stroke-width: 1.5;" x1="473" x2="627" y1="264.5" y2="264.5"/><line style="stroke: #A80036; stroke-width: 1.5;" x1="473" x2="627" y1="272.5" y2="272.5"/><ellipse cx="483" cy="283.5" fill="#84BE84" rx="3" ry="3" style="stroke: #038048; stroke-width: 1.0;"/><text fill="#000000" font-family="sans-serif" font-size="11" lengthAdjust="spacingAndGlyphs" textLength="94" x="492" y="287.9189">EnergyBall(Assets)</text><ellipse cx="483" cy="297.3359" fill="#84BE84" rx="3" ry="3" style="stroke: #038048; stroke-width: 1.0;"/><text fill="#000000" font-family="sans-serif" font-size="11" lengthAdjust="spacingAndGlyphs" textLength="67" x="492" y="301.7549">update(): void</text><ellipse cx="483" cy="311.1719" fill="#84BE84" rx="3" ry="3" style="stroke: #038048; stroke-width: 1.0;"/><text fill="#000000" font-family="sans-serif" font-size="11" lengthAdjust="spacingAndGlyphs" textLength="130" x="492" y="315.5908">getImage(): BufferedImage</text></a><!--MD5=[4fdb25518f4c762e1414934455e246a5]
class nz.ac.vuw.ecs.swen225.gp20.render.sprites.Exit--><a href="Exit.html" target="_top" title="Exit.html" xlink:actuate="onRequest" xlink:href="Exit.html" xlink:show="new" xlink:title="Exit.html" xlink:type="simple"><rect codeLine="27" fill="#FEFECE" filter="url(#f1kl966f3zhgqa)" height="117.1797" id="nz.ac.vuw.ecs.swen225.gp20.render.sprites.Exit" style="stroke: #A80036; stroke-width: 1.5;" width="156" x="663" y="219"/><ellipse cx="726.75" cy="235" fill="#ADD1B2" rx="11" ry="11" style="stroke: #A80036; stroke-width: 1.0;"/><path d="M729.5156,230.875 Q729.6719,230.6563 729.8594,230.5469 Q730.0469,230.4375 730.2656,230.4375 Q730.6406,230.4375 730.875,230.7031 Q731.1094,230.9531 731.1094,231.5625 L731.1094,233.0156 Q731.1094,233.625 730.875,233.8906 Q730.6406,234.1563 730.2656,234.1563 Q729.9219,234.1563 729.7188,233.9531 Q729.5156,233.7656 729.4063,233.25 Q729.3594,232.8906 729.1719,232.7031 Q728.8438,232.3281 728.2344,232.1094 Q727.625,231.8906 727,231.8906 Q726.2344,231.8906 725.5938,232.2188 Q724.9688,232.5469 724.4688,233.2969 Q723.9844,234.0469 723.9844,235.0781 L723.9844,236.1719 Q723.9844,237.4063 724.875,238.2344 Q725.7656,239.0469 727.3594,239.0469 Q728.2969,239.0469 728.9531,238.7969 Q729.3438,238.6406 729.7656,238.2031 Q730.0313,237.9375 730.1719,237.8594 Q730.3281,237.7813 730.5313,237.7813 Q730.8594,237.7813 731.1094,238.0469 Q731.375,238.2969 731.375,238.6406 Q731.375,238.9844 731.0313,239.3906 Q730.5313,239.9688 729.7344,240.2969 Q728.6563,240.75 727.3594,240.75 Q725.8438,240.75 724.6406,240.125 Q723.6563,239.625 722.9688,238.5625 Q722.2813,237.4844 722.2813,236.2031 L722.2813,235.0469 Q722.2813,233.7188 722.8906,232.5781 Q723.5156,231.4219 724.6094,230.8125 Q725.7031,230.1875 726.9375,230.1875 Q727.6719,230.1875 728.3125,230.3594 Q728.9688,230.5156 729.5156,230.875 Z "/><text fill="#000000" font-family="sans-serif" font-size="12" lengthAdjust="spacingAndGlyphs" textLength="20" x="747.25" y="239.9102">Exit</text><line style="stroke: #A80036; stroke-width: 1.5;" x1="664" x2="818" y1="251" y2="251"/><line style="stroke: #A80036; stroke-width: 1.5;" x1="664" x2="818" y1="259" y2="259"/><ellipse cx="674" cy="270" fill="#84BE84" rx="3" ry="3" style="stroke: #038048; stroke-width: 1.0;"/><text fill="#000000" font-family="sans-serif" font-size="11" lengthAdjust="spacingAndGlyphs" textLength="94" x="683" y="274.4189">Exit(Assets, int, int)</text><ellipse cx="674" cy="283.8359" fill="#84BE84" rx="3" ry="3" style="stroke: #038048; stroke-width: 1.0;"/><text fill="#000000" font-family="sans-serif" font-size="11" lengthAdjust="spacingAndGlyphs" textLength="67" x="683" y="288.2549">update(): void</text><ellipse cx="674" cy="297.6719" fill="#84BE84" rx="3" ry="3" style="stroke: #038048; stroke-width: 1.0;"/><text fill="#000000" font-family="sans-serif" font-size="11" lengthAdjust="spacingAndGlyphs" textLength="130" x="683" y="302.0908">getImage(): BufferedImage</text><ellipse cx="674" cy="311.5078" fill="#84BE84" rx="3" ry="3" style="stroke: #038048; stroke-width: 1.0;"/><text fill="#000000" font-family="sans-serif" font-size="11" lengthAdjust="spacingAndGlyphs" textLength="47" x="683" y="315.9268">getX(): int</text><ellipse cx="674" cy="325.3438" fill="#84BE84" rx="3" ry="3" style="stroke: #038048; stroke-width: 1.0;"/><text fill="#000000" font-family="sans-serif" font-size="11" lengthAdjust="spacingAndGlyphs" textLength="47" x="683" y="329.7627">getY(): int</text></a><!--MD5=[165f693c8da3187a1a1d1f9c2b4b7cfd]
class nz.ac.vuw.ecs.swen225.gp20.render.sprites.ExitLock--><a href="ExitLock.html" target="_top" title="ExitLock.html" xlink:actuate="onRequest" xlink:href="ExitLock.html" xlink:show="new" xlink:title="ExitLock.html" xlink:type="simple"><rect codeLine="35" fill="#FEFECE" filter="url(#f1kl966f3zhgqa)" height="117.1797" id="nz.ac.vuw.ecs.swen225.gp20.render.sprites.ExitLock" style="stroke: #A80036; stroke-width: 1.5;" width="156" x="854" y="219"/><ellipse cx="904.75" cy="235" fill="#ADD1B2" rx="11" ry="11" style="stroke: #A80036; stroke-width: 1.0;"/><path d="M907.5156,230.875 Q907.6719,230.6563 907.8594,230.5469 Q908.0469,230.4375 908.2656,230.4375 Q908.6406,230.4375 908.875,230.7031 Q909.1094,230.9531 909.1094,231.5625 L909.1094,233.0156 Q909.1094,233.625 908.875,233.8906 Q908.6406,234.1563 908.2656,234.1563 Q907.9219,234.1563 907.7188,233.9531 Q907.5156,233.7656 907.4063,233.25 Q907.3594,232.8906 907.1719,232.7031 Q906.8438,232.3281 906.2344,232.1094 Q905.625,231.8906 905,231.8906 Q904.2344,231.8906 903.5938,232.2188 Q902.9688,232.5469 902.4688,233.2969 Q901.9844,234.0469 901.9844,235.0781 L901.9844,236.1719 Q901.9844,237.4063 902.875,238.2344 Q903.7656,239.0469 905.3594,239.0469 Q906.2969,239.0469 906.9531,238.7969 Q907.3438,238.6406 907.7656,238.2031 Q908.0313,237.9375 908.1719,237.8594 Q908.3281,237.7813 908.5313,237.7813 Q908.8594,237.7813 909.1094,238.0469 Q909.375,238.2969 909.375,238.6406 Q909.375,238.9844 909.0313,239.3906 Q908.5313,239.9688 907.7344,240.2969 Q906.6563,240.75 905.3594,240.75 Q903.8438,240.75 902.6406,240.125 Q901.6563,239.625 900.9688,238.5625 Q900.2813,237.4844 900.2813,236.2031 L900.2813,235.0469 Q900.2813,233.7188 900.8906,232.5781 Q901.5156,231.4219 902.6094,230.8125 Q903.7031,230.1875 904.9375,230.1875 Q905.6719,230.1875 906.3125,230.3594 Q906.9688,230.5156 907.5156,230.875 Z "/><text fill="#000000" font-family="sans-serif" font-size="12" lengthAdjust="spacingAndGlyphs" textLength="46" x="925.25" y="239.9102">ExitLock</text><line style="stroke: #A80036; stroke-width: 1.5;" x1="855" x2="1009" y1="251" y2="251"/><line style="stroke: #A80036; stroke-width: 1.5;" x1="855" x2="1009" y1="259" y2="259"/><ellipse cx="865" cy="270" fill="#84BE84" rx="3" ry="3" style="stroke: #038048; stroke-width: 1.0;"/><text fill="#000000" font-family="sans-serif" font-size="11" lengthAdjust="spacingAndGlyphs" textLength="118" x="874" y="274.4189">ExitLock(Assets, int, int)</text><ellipse cx="865" cy="283.8359" fill="#84BE84" rx="3" ry="3" style="stroke: #038048; stroke-width: 1.0;"/><text fill="#000000" font-family="sans-serif" font-size="11" lengthAdjust="spacingAndGlyphs" textLength="67" x="874" y="288.2549">update(): void</text><ellipse cx="865" cy="297.6719" fill="#84BE84" rx="3" ry="3" style="stroke: #038048; stroke-width: 1.0;"/><text fill="#000000" font-family="sans-serif" font-size="11" lengthAdjust="spacingAndGlyphs" textLength="130" x="874" y="302.0908">getImage(): BufferedImage</text><ellipse cx="865" cy="311.5078" fill="#84BE84" rx="3" ry="3" style="stroke: #038048; stroke-width: 1.0;"/><text fill="#000000" font-family="sans-serif" font-size="11" lengthAdjust="spacingAndGlyphs" textLength="47" x="874" y="315.9268">getX(): int</text><ellipse cx="865" cy="325.3438" fill="#84BE84" rx="3" ry="3" style="stroke: #038048; stroke-width: 1.0;"/><text fill="#000000" font-family="sans-serif" font-size="11" lengthAdjust="spacingAndGlyphs" textLength="47" x="874" y="329.7627">getY(): int</text></a><!--MD5=[d04f2d30258c85c9746f63acfb6d05e1]
class nz.ac.vuw.ecs.swen225.gp20.render.sprites.HoleTile--><a href="HoleTile.html" target="_top" title="HoleTile.html" xlink:actuate="onRequest" xlink:href="HoleTile.html" xlink:show="new" xlink:title="HoleTile.html" xlink:type="simple"><rect codeLine="43" fill="#FEFECE" filter="url(#f1kl966f3zhgqa)" height="89.5078" id="nz.ac.vuw.ecs.swen225.gp20.render.sprites.HoleTile" style="stroke: #A80036; stroke-width: 1.5;" width="210" x="1045" y="232.5"/><ellipse cx="1122.75" cy="248.5" fill="#ADD1B2" rx="11" ry="11" style="stroke: #A80036; stroke-width: 1.0;"/><path d="M1125.5156,244.375 Q1125.6719,244.1563 1125.8594,244.0469 Q1126.0469,243.9375 1126.2656,243.9375 Q1126.6406,243.9375 1126.875,244.2031 Q1127.1094,244.4531 1127.1094,245.0625 L1127.1094,246.5156 Q1127.1094,247.125 1126.875,247.3906 Q1126.6406,247.6563 1126.2656,247.6563 Q1125.9219,247.6563 1125.7188,247.4531 Q1125.5156,247.2656 1125.4063,246.75 Q1125.3594,246.3906 1125.1719,246.2031 Q1124.8438,245.8281 1124.2344,245.6094 Q1123.625,245.3906 1123,245.3906 Q1122.2344,245.3906 1121.5938,245.7188 Q1120.9688,246.0469 1120.4688,246.7969 Q1119.9844,247.5469 1119.9844,248.5781 L1119.9844,249.6719 Q1119.9844,250.9063 1120.875,251.7344 Q1121.7656,252.5469 1123.3594,252.5469 Q1124.2969,252.5469 1124.9531,252.2969 Q1125.3438,252.1406 1125.7656,251.7031 Q1126.0313,251.4375 1126.1719,251.3594 Q1126.3281,251.2813 1126.5313,251.2813 Q1126.8594,251.2813 1127.1094,251.5469 Q1127.375,251.7969 1127.375,252.1406 Q1127.375,252.4844 1127.0313,252.8906 Q1126.5313,253.4688 1125.7344,253.7969 Q1124.6563,254.25 1123.3594,254.25 Q1121.8438,254.25 1120.6406,253.625 Q1119.6563,253.125 1118.9688,252.0625 Q1118.2813,250.9844 1118.2813,249.7031 L1118.2813,248.5469 Q1118.2813,247.2188 1118.8906,246.0781 Q1119.5156,244.9219 1120.6094,244.3125 Q1121.7031,243.6875 1122.9375,243.6875 Q1123.6719,243.6875 1124.3125,243.8594 Q1124.9688,244.0156 1125.5156,244.375 Z "/><text fill="#000000" font-family="sans-serif" font-size="12" lengthAdjust="spacingAndGlyphs" textLength="46" x="1143.25" y="253.4102">HoleTile</text><line style="stroke: #A80036; stroke-width: 1.5;" x1="1046" x2="1254" y1="264.5" y2="264.5"/><line style="stroke: #A80036; stroke-width: 1.5;" x1="1046" x2="1254" y1="272.5" y2="272.5"/><ellipse cx="1056" cy="283.5" fill="#84BE84" rx="3" ry="3" style="stroke: #038048; stroke-width: 1.0;"/><text fill="#000000" font-family="sans-serif" font-size="11" lengthAdjust="spacingAndGlyphs" textLength="81" x="1065" y="287.9189">HoleTile(Assets)</text><ellipse cx="1056" cy="297.3359" fill="#84BE84" rx="3" ry="3" style="stroke: #038048; stroke-width: 1.0;"/><text fill="#000000" font-family="sans-serif" font-size="11" lengthAdjust="spacingAndGlyphs" textLength="184" x="1065" y="301.7549">setWallType(Cell, Cell, Cell, Cell): void</text><ellipse cx="1056" cy="311.1719" fill="#84BE84" rx="3" ry="3" style="stroke: #038048; stroke-width: 1.0;"/><text fill="#000000" font-family="sans-serif" font-size="11" lengthAdjust="spacingAndGlyphs" textLength="130" x="1065" y="315.5908">getImage(): BufferedImage</text></a><!--MD5=[6ac7f1379bf82c7daa0e6699be0ce2b8]
class nz.ac.vuw.ecs.swen225.gp20.render.sprites.Info--><a href="Info.html" target="_top" title="Info.html" xlink:actuate="onRequest" xlink:href="Info.html" xlink:show="new" xlink:title="Info.html" xlink:type="simple"><rect codeLine="49" fill="#FEFECE" filter="url(#f1kl966f3zhgqa)" height="103.3438" id="nz.ac.vuw.ecs.swen225.gp20.render.sprites.Info" style="stroke: #A80036; stroke-width: 1.5;" width="197" x="1267.5" y="42"/><ellipse cx="1351.75" cy="58" fill="#ADD1B2" rx="11" ry="11" style="stroke: #A80036; stroke-width: 1.0;"/><path d="M1354.5156,53.875 Q1354.6719,53.6563 1354.8594,53.5469 Q1355.0469,53.4375 1355.2656,53.4375 Q1355.6406,53.4375 1355.875,53.7031 Q1356.1094,53.9531 1356.1094,54.5625 L1356.1094,56.0156 Q1356.1094,56.625 1355.875,56.8906 Q1355.6406,57.1563 1355.2656,57.1563 Q1354.9219,57.1563 1354.7188,56.9531 Q1354.5156,56.7656 1354.4063,56.25 Q1354.3594,55.8906 1354.1719,55.7031 Q1353.8438,55.3281 1353.2344,55.1094 Q1352.625,54.8906 1352,54.8906 Q1351.2344,54.8906 1350.5938,55.2188 Q1349.9688,55.5469 1349.4688,56.2969 Q1348.9844,57.0469 1348.9844,58.0781 L1348.9844,59.1719 Q1348.9844,60.4063 1349.875,61.2344 Q1350.7656,62.0469 1352.3594,62.0469 Q1353.2969,62.0469 1353.9531,61.7969 Q1354.3438,61.6406 1354.7656,61.2031 Q1355.0313,60.9375 1355.1719,60.8594 Q1355.3281,60.7813 1355.5313,60.7813 Q1355.8594,60.7813 1356.1094,61.0469 Q1356.375,61.2969 1356.375,61.6406 Q1356.375,61.9844 1356.0313,62.3906 Q1355.5313,62.9688 1354.7344,63.2969 Q1353.6563,63.75 1352.3594,63.75 Q1350.8438,63.75 1349.6406,63.125 Q1348.6563,62.625 1347.9688,61.5625 Q1347.2813,60.4844 1347.2813,59.2031 L1347.2813,58.0469 Q1347.2813,56.7188 1347.8906,55.5781 Q1348.5156,54.4219 1349.6094,53.8125 Q1350.7031,53.1875 1351.9375,53.1875 Q1352.6719,53.1875 1353.3125,53.3594 Q1353.9688,53.5156 1354.5156,53.875 Z "/><text fill="#000000" font-family="sans-serif" font-size="12" lengthAdjust="spacingAndGlyphs" textLength="20" x="1372.25" y="62.9102">Info</text><line style="stroke: #A80036; stroke-width: 1.5;" x1="1268.5" x2="1463.5" y1="74" y2="74"/><line style="stroke: #A80036; stroke-width: 1.5;" x1="1268.5" x2="1463.5" y1="82" y2="82"/><ellipse cx="1278.5" cy="93" fill="#84BE84" rx="3" ry="3" style="stroke: #038048; stroke-width: 1.0;"/><text fill="#000000" font-family="sans-serif" font-size="11" lengthAdjust="spacingAndGlyphs" textLength="171" x="1287.5" y="97.4189">Info(Assets, int, int, BufferedImage)</text><ellipse cx="1278.5" cy="106.8359" fill="#84BE84" rx="3" ry="3" style="stroke: #038048; stroke-width: 1.0;"/><text fill="#000000" font-family="sans-serif" font-size="11" lengthAdjust="spacingAndGlyphs" textLength="47" x="1287.5" y="111.2549">getX(): int</text><ellipse cx="1278.5" cy="120.6719" fill="#84BE84" rx="3" ry="3" style="stroke: #038048; stroke-width: 1.0;"/><text fill="#000000" font-family="sans-serif" font-size="11" lengthAdjust="spacingAndGlyphs" textLength="47" x="1287.5" y="125.0908">getY(): int</text><ellipse cx="1278.5" cy="134.5078" fill="#84BE84" rx="3" ry="3" style="stroke: #038048; stroke-width: 1.0;"/><text fill="#000000" font-family="sans-serif" font-size="11" lengthAdjust="spacingAndGlyphs" textLength="130" x="1287.5" y="138.9268">getImage(): BufferedImage</text></a><!--MD5=[ec1bd45a68ba198b46c81e1ca539a5c5]
class nz.ac.vuw.ecs.swen225.gp20.render.sprites.KeyCard--><a href="KeyCard.html" target="_top" title="KeyCard.html" xlink:actuate="onRequest" xlink:href="KeyCard.html" xlink:show="new" xlink:title="KeyCard.html" xlink:type="simple"><rect codeLine="56" fill="#FEFECE" filter="url(#f1kl966f3zhgqa)" height="89.5078" id="nz.ac.vuw.ecs.swen225.gp20.render.sprites.KeyCard" style="stroke: #A80036; stroke-width: 1.5;" width="156" x="1290" y="232.5"/><ellipse cx="1339.75" cy="248.5" fill="#ADD1B2" rx="11" ry="11" style="stroke: #A80036; stroke-width: 1.0;"/><path d="M1342.5156,244.375 Q1342.6719,244.1563 1342.8594,244.0469 Q1343.0469,243.9375 1343.2656,243.9375 Q1343.6406,243.9375 1343.875,244.2031 Q1344.1094,244.4531 1344.1094,245.0625 L1344.1094,246.5156 Q1344.1094,247.125 1343.875,247.3906 Q1343.6406,247.6563 1343.2656,247.6563 Q1342.9219,247.6563 1342.7188,247.4531 Q1342.5156,247.2656 1342.4063,246.75 Q1342.3594,246.3906 1342.1719,246.2031 Q1341.8438,245.8281 1341.2344,245.6094 Q1340.625,245.3906 1340,245.3906 Q1339.2344,245.3906 1338.5938,245.7188 Q1337.9688,246.0469 1337.4688,246.7969 Q1336.9844,247.5469 1336.9844,248.5781 L1336.9844,249.6719 Q1336.9844,250.9063 1337.875,251.7344 Q1338.7656,252.5469 1340.3594,252.5469 Q1341.2969,252.5469 1341.9531,252.2969 Q1342.3438,252.1406 1342.7656,251.7031 Q1343.0313,251.4375 1343.1719,251.3594 Q1343.3281,251.2813 1343.5313,251.2813 Q1343.8594,251.2813 1344.1094,251.5469 Q1344.375,251.7969 1344.375,252.1406 Q1344.375,252.4844 1344.0313,252.8906 Q1343.5313,253.4688 1342.7344,253.7969 Q1341.6563,254.25 1340.3594,254.25 Q1338.8438,254.25 1337.6406,253.625 Q1336.6563,253.125 1335.9688,252.0625 Q1335.2813,250.9844 1335.2813,249.7031 L1335.2813,248.5469 Q1335.2813,247.2188 1335.8906,246.0781 Q1336.5156,244.9219 1337.6094,244.3125 Q1338.7031,243.6875 1339.9375,243.6875 Q1340.6719,243.6875 1341.3125,243.8594 Q1341.9688,244.0156 1342.5156,244.375 Z "/><text fill="#000000" font-family="sans-serif" font-size="12" lengthAdjust="spacingAndGlyphs" textLength="48" x="1360.25" y="253.4102">KeyCard</text><line style="stroke: #A80036; stroke-width: 1.5;" x1="1291" x2="1445" y1="264.5" y2="264.5"/><line style="stroke: #A80036; stroke-width: 1.5;" x1="1291" x2="1445" y1="272.5" y2="272.5"/><ellipse cx="1301" cy="283.5" fill="#84BE84" rx="3" ry="3" style="stroke: #038048; stroke-width: 1.0;"/><text fill="#000000" font-family="sans-serif" font-size="11" lengthAdjust="spacingAndGlyphs" textLength="119" x="1310" y="287.9189">KeyCard(Assets, String)</text><ellipse cx="1301" cy="297.3359" fill="#84BE84" rx="3" ry="3" style="stroke: #038048; stroke-width: 1.0;"/><text fill="#000000" font-family="sans-serif" font-size="11" lengthAdjust="spacingAndGlyphs" textLength="67" x="1310" y="301.7549">update(): void</text><ellipse cx="1301" cy="311.1719" fill="#84BE84" rx="3" ry="3" style="stroke: #038048; stroke-width: 1.0;"/><text fill="#000000" font-family="sans-serif" font-size="11" lengthAdjust="spacingAndGlyphs" textLength="130" x="1310" y="315.5908">getImage(): BufferedImage</text></a><!--MD5=[d46c1eec2c532ef51f6cc4e2b06a0f8c]
class nz.ac.vuw.ecs.swen225.gp20.render.sprites.Sprite--><a href="Sprite.html" target="_top" title="Sprite.html" xlink:actuate="onRequest" xlink:href="Sprite.html" xlink:show="new" xlink:title="Sprite.html" xlink:type="simple"><rect codeLine="62" fill="#FEFECE" filter="url(#f1kl966f3zhgqa)" height="61.8359" id="nz.ac.vuw.ecs.swen225.gp20.render.sprites.Sprite" style="stroke: #A80036; stroke-width: 1.5;" width="153" x="759.5" y="62.5"/><ellipse cx="815.75" cy="78.5" fill="#ADD1B2" rx="11" ry="11" style="stroke: #A80036; stroke-width: 1.0;"/><path d="M818.5156,74.375 Q818.6719,74.1563 818.8594,74.0469 Q819.0469,73.9375 819.2656,73.9375 Q819.6406,73.9375 819.875,74.2031 Q820.1094,74.4531 820.1094,75.0625 L820.1094,76.5156 Q820.1094,77.125 819.875,77.3906 Q819.6406,77.6563 819.2656,77.6563 Q818.9219,77.6563 818.7188,77.4531 Q818.5156,77.2656 818.4063,76.75 Q818.3594,76.3906 818.1719,76.2031 Q817.8438,75.8281 817.2344,75.6094 Q816.625,75.3906 816,75.3906 Q815.2344,75.3906 814.5938,75.7188 Q813.9688,76.0469 813.4688,76.7969 Q812.9844,77.5469 812.9844,78.5781 L812.9844,79.6719 Q812.9844,80.9063 813.875,81.7344 Q814.7656,82.5469 816.3594,82.5469 Q817.2969,82.5469 817.9531,82.2969 Q818.3438,82.1406 818.7656,81.7031 Q819.0313,81.4375 819.1719,81.3594 Q819.3281,81.2813 819.5313,81.2813 Q819.8594,81.2813 820.1094,81.5469 Q820.375,81.7969 820.375,82.1406 Q820.375,82.4844 820.0313,82.8906 Q819.5313,83.4688 818.7344,83.7969 Q817.6563,84.25 816.3594,84.25 Q814.8438,84.25 813.6406,83.625 Q812.6563,83.125 811.9688,82.0625 Q811.2813,80.9844 811.2813,79.7031 L811.2813,78.5469 Q811.2813,77.2188 811.8906,76.0781 Q812.5156,74.9219 813.6094,74.3125 Q814.7031,73.6875 815.9375,73.6875 Q816.6719,73.6875 817.3125,73.8594 Q817.9688,74.0156 818.5156,74.375 Z "/><text fill="#000000" font-family="sans-serif" font-size="12" lengthAdjust="spacingAndGlyphs" textLength="32" x="836.25" y="83.4102">Sprite</text><line style="stroke: #A80036; stroke-width: 1.5;" x1="760.5" x2="911.5" y1="94.5" y2="94.5"/><line style="stroke: #A80036; stroke-width: 1.5;" x1="760.5" x2="911.5" y1="102.5" y2="102.5"/><ellipse cx="770.5" cy="113.5" fill="#84BE84" rx="3" ry="3" style="stroke: #038048; stroke-width: 1.0;"/><text fill="#000000" font-family="sans-serif" font-size="11" lengthAdjust="spacingAndGlyphs" textLength="127" x="779.5" y="117.9189">getInfo(String, Cell): String</text></a><!--MD5=[c56feaaaddd86e1cd1ad8357182e04b7]
class nz.ac.vuw.ecs.swen225.gp20.render.sprites.WallTile--><a href="WallTile.html" target="_top" title="WallTile.html" xlink:actuate="onRequest" xlink:href="WallTile.html" xlink:show="new" xlink:title="WallTile.html" xlink:type="simple"><rect codeLine="66" fill="#FEFECE" filter="url(#f1kl966f3zhgqa)" height="89.5078" id="nz.ac.vuw.ecs.swen225.gp20.render.sprites.WallTile" style="stroke: #A80036; stroke-width: 1.5;" width="210" x="1481" y="232.5"/><ellipse cx="1559.75" cy="248.5" fill="#ADD1B2" rx="11" ry="11" style="stroke: #A80036; stroke-width: 1.0;"/><path d="M1562.5156,244.375 Q1562.6719,244.1563 1562.8594,244.0469 Q1563.0469,243.9375 1563.2656,243.9375 Q1563.6406,243.9375 1563.875,244.2031 Q1564.1094,244.4531 1564.1094,245.0625 L1564.1094,246.5156 Q1564.1094,247.125 1563.875,247.3906 Q1563.6406,247.6563 1563.2656,247.6563 Q1562.9219,247.6563 1562.7188,247.4531 Q1562.5156,247.2656 1562.4063,246.75 Q1562.3594,246.3906 1562.1719,246.2031 Q1561.8438,245.8281 1561.2344,245.6094 Q1560.625,245.3906 1560,245.3906 Q1559.2344,245.3906 1558.5938,245.7188 Q1557.9688,246.0469 1557.4688,246.7969 Q1556.9844,247.5469 1556.9844,248.5781 L1556.9844,249.6719 Q1556.9844,250.9063 1557.875,251.7344 Q1558.7656,252.5469 1560.3594,252.5469 Q1561.2969,252.5469 1561.9531,252.2969 Q1562.3438,252.1406 1562.7656,251.7031 Q1563.0313,251.4375 1563.1719,251.3594 Q1563.3281,251.2813 1563.5313,251.2813 Q1563.8594,251.2813 1564.1094,251.5469 Q1564.375,251.7969 1564.375,252.1406 Q1564.375,252.4844 1564.0313,252.8906 Q1563.5313,253.4688 1562.7344,253.7969 Q1561.6563,254.25 1560.3594,254.25 Q1558.8438,254.25 1557.6406,253.625 Q1556.6563,253.125 1555.9688,252.0625 Q1555.2813,250.9844 1555.2813,249.7031 L1555.2813,248.5469 Q1555.2813,247.2188 1555.8906,246.0781 Q1556.5156,244.9219 1557.6094,244.3125 Q1558.7031,243.6875 1559.9375,243.6875 Q1560.6719,243.6875 1561.3125,243.8594 Q1561.9688,244.0156 1562.5156,244.375 Z "/><text fill="#000000" font-family="sans-serif" font-size="12" lengthAdjust="spacingAndGlyphs" textLength="44" x="1580.25" y="253.4102">WallTile</text><line style="stroke: #A80036; stroke-width: 1.5;" x1="1482" x2="1690" y1="264.5" y2="264.5"/><line style="stroke: #A80036; stroke-width: 1.5;" x1="1482" x2="1690" y1="272.5" y2="272.5"/><ellipse cx="1492" cy="283.5" fill="#84BE84" rx="3" ry="3" style="stroke: #038048; stroke-width: 1.0;"/><text fill="#000000" font-family="sans-serif" font-size="11" lengthAdjust="spacingAndGlyphs" textLength="79" x="1501" y="287.9189">WallTile(Assets)</text><ellipse cx="1492" cy="297.3359" fill="#84BE84" rx="3" ry="3" style="stroke: #038048; stroke-width: 1.0;"/><text fill="#000000" font-family="sans-serif" font-size="11" lengthAdjust="spacingAndGlyphs" textLength="184" x="1501" y="301.7549">setWallType(Cell, Cell, Cell, Cell): void</text><ellipse cx="1492" cy="311.1719" fill="#84BE84" rx="3" ry="3" style="stroke: #038048; stroke-width: 1.0;"/><text fill="#000000" font-family="sans-serif" font-size="11" lengthAdjust="spacingAndGlyphs" textLength="130" x="1501" y="315.5908">getImage(): BufferedImage</text></a><!--MD5=[107428c4d0db74c807120070de3152e2]
reverse link nz.ac.vuw.ecs.swen225.gp20.render.sprites.Sprite to nz.ac.vuw.ecs.swen225.gp20.render.sprites.ActorSprite--><path codeLine="72" d="M738.76,97.68 C611.49,104.88 383.75,128.4 206,205 C199.99,207.59 194,210.63 188.13,213.96 " fill="none" id="nz.ac.vuw.ecs.swen225.gp20.render.sprites.Sprite-backto-nz.ac.vuw.ecs.swen225.gp20.render.sprites.ActorSprite" style="stroke: #A80036; stroke-width: 1.0;"/><polygon fill="none" points="738.72,90.67,759.06,96.62,739.45,104.65,738.72,90.67" style="stroke: #A80036; stroke-width: 1.0;"/><!--MD5=[7d651154fc528a98cacdddddc6e5e967]
reverse link nz.ac.vuw.ecs.swen225.gp20.render.sprites.Sprite to nz.ac.vuw.ecs.swen225.gp20.render.sprites.Door--><path codeLine="73" d="M739.7,115.71 C661.34,134.55 548.77,165.25 455,205 C445.22,209.15 435.24,213.89 425.4,218.91 " fill="none" id="nz.ac.vuw.ecs.swen225.gp20.render.sprites.Sprite-backto-nz.ac.vuw.ecs.swen225.gp20.render.sprites.Door" style="stroke: #A80036; stroke-width: 1.0;"/><polygon fill="none" points="738.28,108.86,759.35,111.06,741.5,122.48,738.28,108.86" style="stroke: #A80036; stroke-width: 1.0;"/><!--MD5=[bb584047d111b9e993bcf343f45bf49e]
reverse link nz.ac.vuw.ecs.swen225.gp20.render.sprites.Sprite to nz.ac.vuw.ecs.swen225.gp20.render.sprites.EnergyBall--><path codeLine="74" d="M763.09,134.34 C727.24,154.57 683.73,180.09 646,205 C633.17,213.47 619.73,223.02 607.11,232.32 " fill="none" id="nz.ac.vuw.ecs.swen225.gp20.render.sprites.Sprite-backto-nz.ac.vuw.ecs.swen225.gp20.render.sprites.EnergyBall" style="stroke: #A80036; stroke-width: 1.0;"/><polygon fill="none" points="759.67,128.23,780.54,124.57,766.51,140.45,759.67,128.23" style="stroke: #A80036; stroke-width: 1.0;"/><!--MD5=[196bb549b4e794a993a22c8b3d65b130]
reverse link nz.ac.vuw.ecs.swen225.gp20.render.sprites.Sprite to nz.ac.vuw.ecs.swen225.gp20.render.sprites.Exit--><path codeLine="75" d="M810.95,142.48 C798.74,165.89 783.95,194.22 771.12,218.8 " fill="none" id="nz.ac.vuw.ecs.swen225.gp20.render.sprites.Sprite-backto-nz.ac.vuw.ecs.swen225.gp20.render.sprites.Exit" style="stroke: #A80036; stroke-width: 1.0;"/><polygon fill="none" points="804.85,139.04,820.31,124.55,817.26,145.52,804.85,139.04" style="stroke: #A80036; stroke-width: 1.0;"/><!--MD5=[7ee698f5493bfcbecc9730212ff55411]
reverse link nz.ac.vuw.ecs.swen225.gp20.render.sprites.Sprite to nz.ac.vuw.ecs.swen225.gp20.render.sprites.ExitLock--><path codeLine="76" d="M861.31,142.48 C873.65,165.89 888.6,194.22 901.57,218.8 " fill="none" id="nz.ac.vuw.ecs.swen225.gp20.render.sprites.Sprite-backto-nz.ac.vuw.ecs.swen225.gp20.render.sprites.ExitLock" style="stroke: #A80036; stroke-width: 1.0;"/><polygon fill="none" points="854.99,145.51,851.85,124.55,867.37,138.98,854.99,145.51" style="stroke: #A80036; stroke-width: 1.0;"/><!--MD5=[fac8c92dd6a046a5e861ccfdd2c585bd]
reverse link nz.ac.vuw.ecs.swen225.gp20.render.sprites.Sprite to nz.ac.vuw.ecs.swen225.gp20.render.sprites.HoleTile--><path codeLine="77" d="M906.25,134.75 C942.63,155.64 987.74,181.62 1028,205 C1043.18,213.82 1059.4,223.28 1074.89,232.35 " fill="none" id="nz.ac.vuw.ecs.swen225.gp20.render.sprites.Sprite-backto-nz.ac.vuw.ecs.swen225.gp20.render.sprites.HoleTile" style="stroke: #A80036; stroke-width: 1.0;"/><polygon fill="none" points="902.49,140.67,888.63,124.64,909.46,128.52,902.49,140.67" style="stroke: #A80036; stroke-width: 1.0;"/><!--MD5=[da12048a85486277a5c11d88066c6a85]
reverse link nz.ac.vuw.ecs.swen225.gp20.render.sprites.Sprite to nz.ac.vuw.ecs.swen225.gp20.render.sprites.KeyCard--><path codeLine="78" d="M932.4,107.6 C1023.54,122.54 1162.42,152.07 1273,205 C1288.27,212.31 1303.5,222.27 1317.16,232.44 " fill="none" id="nz.ac.vuw.ecs.swen225.gp20.render.sprites.Sprite-backto-nz.ac.vuw.ecs.swen225.gp20.render.sprites.KeyCard" style="stroke: #A80036; stroke-width: 1.0;"/><polygon fill="none" points="931.23,114.5,912.57,104.45,933.42,100.67,931.23,114.5" style="stroke: #A80036; stroke-width: 1.0;"/><!--MD5=[26a9b35693d49f15597023c393dd1a3b]
reverse link nz.ac.vuw.ecs.swen225.gp20.render.sprites.Sprite to nz.ac.vuw.ecs.swen225.gp20.render.sprites.WallTile--><path codeLine="79" d="M932.75,100.83 C1058.51,111.45 1283.38,138.63 1464,205 C1483.24,212.07 1502.91,222.14 1520.68,232.49 " fill="none" id="nz.ac.vuw.ecs.swen225.gp20.render.sprites.Sprite-backto-nz.ac.vuw.ecs.swen225.gp20.render.sprites.WallTile" style="stroke: #A80036; stroke-width: 1.0;"/><polygon fill="none" points="932.07,107.8,912.7,99.21,933.2,93.84,932.07,107.8" style="stroke: #A80036; stroke-width: 1.0;"/><text fill="#888888" font-family="sans-serif" font-size="10" lengthAdjust="spacingAndGlyphs" textLength="185" x="763" y="382.3809">UMLDoclet 2.0.12, PlantUML 1.2020.16</text><!--MD5=[37ffc71e584289c70afda028992a38a0]
@startuml
    namespace nz.ac.vuw.ecs.swen225.gp20.render.sprites {

        class ActorSprite [[ActorSprite.html]] {
            +ActorSprite(Actor, Assets)
            +getX(): int
            +getY(): int
            +update(): void
            +getIsMoving(): boolean
            +getDirection(): Direction
            +getImage(): BufferedImage
        }

        class Door [[Door.html]] {
            +Door(Assets, String, boolean, boolean)
            +update(): void
            +getImage(): BufferedImage
            +isVertical(): boolean
            +setIsSolid(boolean): void
        }

        class EnergyBall [[EnergyBall.html]] {
            +EnergyBall(Assets)
            +update(): void
            +getImage(): BufferedImage
        }

        class Exit [[Exit.html]] {
            +Exit(Assets, int, int)
            +update(): void
            +getImage(): BufferedImage
            +getX(): int
            +getY(): int
        }

        class ExitLock [[ExitLock.html]] {
            +ExitLock(Assets, int, int)
            +update(): void
            +getImage(): BufferedImage
            +getX(): int
            +getY(): int
        }

        class HoleTile [[HoleTile.html]] {
            +HoleTile(Assets)
            +setWallType(Cell, Cell, Cell, Cell): void
            +getImage(): BufferedImage
        }

        class Info [[Info.html]] {
            +Info(Assets, int, int, BufferedImage)
            +getX(): int
            +getY(): int
            +getImage(): BufferedImage
        }

        class KeyCard [[KeyCard.html]] {
            +KeyCard(Assets, String)
            +update(): void
            +getImage(): BufferedImage
        }

        class Sprite [[Sprite.html]] {
            +getInfo(String, Cell): String
        }

        class WallTile [[WallTile.html]] {
            +WallTile(Assets)
            +setWallType(Cell, Cell, Cell, Cell): void
            +getImage(): BufferedImage
        }

        Sprite <|- - ActorSprite
        Sprite <|- - Door
        Sprite <|- - EnergyBall
        Sprite <|- - Exit
        Sprite <|- - ExitLock
        Sprite <|- - HoleTile
        Sprite <|- - KeyCard
        Sprite <|- - WallTile
    }

    center footer UMLDoclet 2.0.12, PlantUML 1.2020.16
@enduml

PlantUML version 1.2020.16(Mon Aug 24 08:20:43 NZST 2020)
(APACHE source distribution)
Java Runtime: Java(TM) SE Runtime Environment
JVM: Java HotSpot(TM) 64-Bit Server VM
Default Encoding: Cp1252
Language: en
Country: NZ
--></g></svg>