<?xml version="1.0" encoding="UTF-8" standalone="no"?><svg xmlns="http://www.w3.org/2000/svg" xmlns:xlink="http://www.w3.org/1999/xlink" contentScriptType="application/ecmascript" contentStyleType="text/css" height="560px" preserveAspectRatio="none" style="width:674px;height:560px;" version="1.1" viewBox="0 0 674 560" width="674px" zoomAndPan="magnify"><defs><filter height="300%" id="fde9gnayammsf" width="300%" x="-1" y="-1"><feGaussianBlur result="blurOut" stdDeviation="2.0"/><feColorMatrix in="blurOut" result="blurOut2" type="matrix" values="0 0 0 0 0 0 0 0 0 0 0 0 0 0 0 0 0 0 .4 0"/><feOffset dx="4.0" dy="4.0" in="blurOut2" result="blurOut3"/><feBlend in="SourceGraphic" in2="blurOut3" mode="normal"/></filter></defs><g><!--MD5=[8e42a2594950d4652423d2d9e891b53c]
cluster nz.ac.vuw.ecs.swen225.gp20.render.sprites--><polygon fill="#FFFFFF" filter="url(#fde9gnayammsf)" points="16,6,319,6,326,29.6094,652,29.6094,652,531,16,531,16,6" style="stroke: #000000; stroke-width: 1.5;"/><line style="stroke: #000000; stroke-width: 1.5;" x1="16" x2="326" y1="29.6094" y2="29.6094"/><text fill="#000000" font-family="sans-serif" font-size="14" font-weight="bold" lengthAdjust="spacingAndGlyphs" textLength="297" x="20" y="22.5332">nz.ac.vuw.ecs.swen225.gp20.render.sprites</text><!--MD5=[54a787f80939b9784b09fe5cde4d25d7]
class nz.ac.vuw.ecs.swen225.gp20.render.sprites.ActorSprite--><a href="ActorSprite.html" target="_top" title="ActorSprite.html" xlink:actuate="onRequest" xlink:href="ActorSprite.html" xlink:show="new" xlink:title="ActorSprite.html" xlink:type="simple"><rect codeLine="3" fill="#FEFECE" filter="url(#fde9gnayammsf)" height="172.5234" id="nz.ac.vuw.ecs.swen225.gp20.render.sprites.ActorSprite" style="stroke: #A80036; stroke-width: 1.5;" width="163" x="32.5" y="42"/><ellipse cx="79.75" cy="58" fill="#ADD1B2" rx="11" ry="11" style="stroke: #A80036; stroke-width: 1.0;"/><path d="M82.5156,53.875 Q82.6719,53.6563 82.8594,53.5469 Q83.0469,53.4375 83.2656,53.4375 Q83.6406,53.4375 83.875,53.7031 Q84.1094,53.9531 84.1094,54.5625 L84.1094,56.0156 Q84.1094,56.625 83.875,56.8906 Q83.6406,57.1563 83.2656,57.1563 Q82.9219,57.1563 82.7188,56.9531 Q82.5156,56.7656 82.4063,56.25 Q82.3594,55.8906 82.1719,55.7031 Q81.8438,55.3281 81.2344,55.1094 Q80.625,54.8906 80,54.8906 Q79.2344,54.8906 78.5938,55.2188 Q77.9688,55.5469 77.4688,56.2969 Q76.9844,57.0469 76.9844,58.0781 L76.9844,59.1719 Q76.9844,60.4063 77.875,61.2344 Q78.7656,62.0469 80.3594,62.0469 Q81.2969,62.0469 81.9531,61.7969 Q82.3438,61.6406 82.7656,61.2031 Q83.0313,60.9375 83.1719,60.8594 Q83.3281,60.7813 83.5313,60.7813 Q83.8594,60.7813 84.1094,61.0469 Q84.375,61.2969 84.375,61.6406 Q84.375,61.9844 84.0313,62.3906 Q83.5313,62.9688 82.7344,63.2969 Q81.6563,63.75 80.3594,63.75 Q78.8438,63.75 77.6406,63.125 Q76.6563,62.625 75.9688,61.5625 Q75.2813,60.4844 75.2813,59.2031 L75.2813,58.0469 Q75.2813,56.7188 75.8906,55.5781 Q76.5156,54.4219 77.6094,53.8125 Q78.7031,53.1875 79.9375,53.1875 Q80.6719,53.1875 81.3125,53.3594 Q81.9688,53.5156 82.5156,53.875 Z "/><text fill="#000000" font-family="sans-serif" font-size="12" lengthAdjust="spacingAndGlyphs" textLength="60" x="100.25" y="62.9102">ActorSprite</text><line style="stroke: #A80036; stroke-width: 1.5;" x1="33.5" x2="194.5" y1="74" y2="74"/><line style="stroke: #A80036; stroke-width: 1.5;" x1="33.5" x2="194.5" y1="82" y2="82"/><ellipse cx="43.5" cy="93" fill="#84BE84" rx="3" ry="3" style="stroke: #038048; stroke-width: 1.0;"/><text fill="#000000" font-family="sans-serif" font-size="11" lengthAdjust="spacingAndGlyphs" textLength="128" x="52.5" y="97.4189">ActorSprite(Actor, Assets)</text><ellipse cx="43.5" cy="106.8359" fill="#84BE84" rx="3" ry="3" style="stroke: #038048; stroke-width: 1.0;"/><text fill="#000000" font-family="sans-serif" font-size="11" lengthAdjust="spacingAndGlyphs" textLength="47" x="52.5" y="111.2549">getX(): int</text><ellipse cx="43.5" cy="120.6719" fill="#84BE84" rx="3" ry="3" style="stroke: #038048; stroke-width: 1.0;"/><text fill="#000000" font-family="sans-serif" font-size="11" lengthAdjust="spacingAndGlyphs" textLength="47" x="52.5" y="125.0908">getY(): int</text><ellipse cx="43.5" cy="134.5078" fill="#84BE84" rx="3" ry="3" style="stroke: #038048; stroke-width: 1.0;"/><text fill="#000000" font-family="sans-serif" font-size="11" lengthAdjust="spacingAndGlyphs" textLength="127" x="52.5" y="138.9268">checkStateChange(): void</text><ellipse cx="43.5" cy="148.3438" fill="#84BE84" rx="3" ry="3" style="stroke: #038048; stroke-width: 1.0;"/><text fill="#000000" font-family="sans-serif" font-size="11" lengthAdjust="spacingAndGlyphs" textLength="111" x="52.5" y="152.7627">getIsMoving(): boolean</text><ellipse cx="43.5" cy="162.1797" fill="#84BE84" rx="3" ry="3" style="stroke: #038048; stroke-width: 1.0;"/><text fill="#000000" font-family="sans-serif" font-size="11" lengthAdjust="spacingAndGlyphs" textLength="115" x="52.5" y="166.5986">getDirection(): Direction</text><ellipse cx="43.5" cy="176.0156" fill="#84BE84" rx="3" ry="3" style="stroke: #038048; stroke-width: 1.0;"/><text fill="#000000" font-family="sans-serif" font-size="11" lengthAdjust="spacingAndGlyphs" textLength="130" x="52.5" y="180.4346">getImage(): BufferedImage</text><ellipse cx="43.5" cy="189.8516" fill="#84BE84" rx="3" ry="3" style="stroke: #038048; stroke-width: 1.0;"/><text fill="#000000" font-family="sans-serif" font-size="11" lengthAdjust="spacingAndGlyphs" textLength="67" x="52.5" y="194.2705">update(): void</text><ellipse cx="43.5" cy="203.6875" fill="#84BE84" rx="3" ry="3" style="stroke: #038048; stroke-width: 1.0;"/><text fill="#000000" font-family="sans-serif" font-size="11" lengthAdjust="spacingAndGlyphs" textLength="137" x="52.5" y="208.1064">draw(Graphics, int, int): void</text></a><!--MD5=[05ec99f36589583413d4175c90dffcce]
class nz.ac.vuw.ecs.swen225.gp20.render.sprites.Door--><a href="Door.html" target="_top" title="Door.html" xlink:actuate="onRequest" xlink:href="Door.html" xlink:show="new" xlink:title="Door.html" xlink:type="simple"><rect codeLine="15" fill="#FEFECE" filter="url(#fde9gnayammsf)" height="117.1797" id="nz.ac.vuw.ecs.swen225.gp20.render.sprites.Door" style="stroke: #A80036; stroke-width: 1.5;" width="214" x="231" y="70"/><ellipse cx="320.25" cy="86" fill="#ADD1B2" rx="11" ry="11" style="stroke: #A80036; stroke-width: 1.0;"/><path d="M323.0156,81.875 Q323.1719,81.6563 323.3594,81.5469 Q323.5469,81.4375 323.7656,81.4375 Q324.1406,81.4375 324.375,81.7031 Q324.6094,81.9531 324.6094,82.5625 L324.6094,84.0156 Q324.6094,84.625 324.375,84.8906 Q324.1406,85.1563 323.7656,85.1563 Q323.4219,85.1563 323.2188,84.9531 Q323.0156,84.7656 322.9063,84.25 Q322.8594,83.8906 322.6719,83.7031 Q322.3438,83.3281 321.7344,83.1094 Q321.125,82.8906 320.5,82.8906 Q319.7344,82.8906 319.0938,83.2188 Q318.4688,83.5469 317.9688,84.2969 Q317.4844,85.0469 317.4844,86.0781 L317.4844,87.1719 Q317.4844,88.4063 318.375,89.2344 Q319.2656,90.0469 320.8594,90.0469 Q321.7969,90.0469 322.4531,89.7969 Q322.8438,89.6406 323.2656,89.2031 Q323.5313,88.9375 323.6719,88.8594 Q323.8281,88.7813 324.0313,88.7813 Q324.3594,88.7813 324.6094,89.0469 Q324.875,89.2969 324.875,89.6406 Q324.875,89.9844 324.5313,90.3906 Q324.0313,90.9688 323.2344,91.2969 Q322.1563,91.75 320.8594,91.75 Q319.3438,91.75 318.1406,91.125 Q317.1563,90.625 316.4688,89.5625 Q315.7813,88.4844 315.7813,87.2031 L315.7813,86.0469 Q315.7813,84.7188 316.3906,83.5781 Q317.0156,82.4219 318.1094,81.8125 Q319.2031,81.1875 320.4375,81.1875 Q321.1719,81.1875 321.8125,81.3594 Q322.4688,81.5156 323.0156,81.875 Z "/><text fill="#000000" font-family="sans-serif" font-size="12" lengthAdjust="spacingAndGlyphs" textLength="27" x="340.75" y="90.9102">Door</text><line style="stroke: #A80036; stroke-width: 1.5;" x1="232" x2="444" y1="102" y2="102"/><line style="stroke: #A80036; stroke-width: 1.5;" x1="232" x2="444" y1="110" y2="110"/><ellipse cx="242" cy="121" fill="#84BE84" rx="3" ry="3" style="stroke: #038048; stroke-width: 1.0;"/><text fill="#000000" font-family="sans-serif" font-size="11" lengthAdjust="spacingAndGlyphs" textLength="188" x="251" y="125.4189">Door(Assets, String, boolean, boolean)</text><ellipse cx="242" cy="134.8359" fill="#84BE84" rx="3" ry="3" style="stroke: #038048; stroke-width: 1.0;"/><text fill="#000000" font-family="sans-serif" font-size="11" lengthAdjust="spacingAndGlyphs" textLength="67" x="251" y="139.2549">update(): void</text><ellipse cx="242" cy="148.6719" fill="#84BE84" rx="3" ry="3" style="stroke: #038048; stroke-width: 1.0;"/><text fill="#000000" font-family="sans-serif" font-size="11" lengthAdjust="spacingAndGlyphs" textLength="130" x="251" y="153.0908">getImage(): BufferedImage</text><ellipse cx="242" cy="162.5078" fill="#84BE84" rx="3" ry="3" style="stroke: #038048; stroke-width: 1.0;"/><text fill="#000000" font-family="sans-serif" font-size="11" lengthAdjust="spacingAndGlyphs" textLength="96" x="251" y="166.9268">isVertical(): boolean</text><ellipse cx="242" cy="176.3438" fill="#84BE84" rx="3" ry="3" style="stroke: #038048; stroke-width: 1.0;"/><text fill="#000000" font-family="sans-serif" font-size="11" lengthAdjust="spacingAndGlyphs" textLength="119" x="251" y="180.7627">setIsSolid(boolean): void</text></a><!--MD5=[b16456cd1dc444f29ee8ed4f70009ae2]
class nz.ac.vuw.ecs.swen225.gp20.render.sprites.EnergyBall--><a href="EnergyBall.html" target="_top" title="EnergyBall.html" xlink:actuate="onRequest" xlink:href="EnergyBall.html" xlink:show="new" xlink:title="EnergyBall.html" xlink:type="simple"><rect codeLine="23" fill="#FEFECE" filter="url(#fde9gnayammsf)" height="89.5078" id="nz.ac.vuw.ecs.swen225.gp20.render.sprites.EnergyBall" style="stroke: #A80036; stroke-width: 1.5;" width="156" x="480" y="83.5"/><ellipse cx="523.8" cy="99.5" fill="#ADD1B2" rx="11" ry="11" style="stroke: #A80036; stroke-width: 1.0;"/><path d="M526.5656,95.375 Q526.7219,95.1563 526.9094,95.0469 Q527.0969,94.9375 527.3156,94.9375 Q527.6906,94.9375 527.925,95.2031 Q528.1594,95.4531 528.1594,96.0625 L528.1594,97.5156 Q528.1594,98.125 527.925,98.3906 Q527.6906,98.6563 527.3156,98.6563 Q526.9719,98.6563 526.7688,98.4531 Q526.5656,98.2656 526.4563,97.75 Q526.4094,97.3906 526.2219,97.2031 Q525.8938,96.8281 525.2844,96.6094 Q524.675,96.3906 524.05,96.3906 Q523.2844,96.3906 522.6438,96.7188 Q522.0188,97.0469 521.5188,97.7969 Q521.0344,98.5469 521.0344,99.5781 L521.0344,100.6719 Q521.0344,101.9063 521.925,102.7344 Q522.8156,103.5469 524.4094,103.5469 Q525.3469,103.5469 526.0031,103.2969 Q526.3938,103.1406 526.8156,102.7031 Q527.0813,102.4375 527.2219,102.3594 Q527.3781,102.2813 527.5813,102.2813 Q527.9094,102.2813 528.1594,102.5469 Q528.425,102.7969 528.425,103.1406 Q528.425,103.4844 528.0813,103.8906 Q527.5813,104.4688 526.7844,104.7969 Q525.7063,105.25 524.4094,105.25 Q522.8938,105.25 521.6906,104.625 Q520.7063,104.125 520.0188,103.0625 Q519.3313,101.9844 519.3313,100.7031 L519.3313,99.5469 Q519.3313,98.2188 519.9406,97.0781 Q520.5656,95.9219 521.6594,95.3125 Q522.7531,94.6875 523.9875,94.6875 Q524.7219,94.6875 525.3625,94.8594 Q526.0188,95.0156 526.5656,95.375 Z "/><text fill="#000000" font-family="sans-serif" font-size="12" lengthAdjust="spacingAndGlyphs" textLength="60" x="544.2" y="104.4102">EnergyBall</text><line style="stroke: #A80036; stroke-width: 1.5;" x1="481" x2="635" y1="115.5" y2="115.5"/><line style="stroke: #A80036; stroke-width: 1.5;" x1="481" x2="635" y1="123.5" y2="123.5"/><ellipse cx="491" cy="134.5" fill="#84BE84" rx="3" ry="3" style="stroke: #038048; stroke-width: 1.0;"/><text fill="#000000" font-family="sans-serif" font-size="11" lengthAdjust="spacingAndGlyphs" textLength="94" x="500" y="138.9189">EnergyBall(Assets)</text><ellipse cx="491" cy="148.3359" fill="#84BE84" rx="3" ry="3" style="stroke: #038048; stroke-width: 1.0;"/><text fill="#000000" font-family="sans-serif" font-size="11" lengthAdjust="spacingAndGlyphs" textLength="67" x="500" y="152.7549">update(): void</text><ellipse cx="491" cy="162.1719" fill="#84BE84" rx="3" ry="3" style="stroke: #038048; stroke-width: 1.0;"/><text fill="#000000" font-family="sans-serif" font-size="11" lengthAdjust="spacingAndGlyphs" textLength="130" x="500" y="166.5908">getImage(): BufferedImage</text></a><!--MD5=[4fdb25518f4c762e1414934455e246a5]
class nz.ac.vuw.ecs.swen225.gp20.render.sprites.Exit--><a href="Exit.html" target="_top" title="Exit.html" xlink:actuate="onRequest" xlink:href="Exit.html" xlink:show="new" xlink:title="Exit.html" xlink:type="simple"><rect codeLine="29" fill="#FEFECE" filter="url(#fde9gnayammsf)" height="89.5078" id="nz.ac.vuw.ecs.swen225.gp20.render.sprites.Exit" style="stroke: #A80036; stroke-width: 1.5;" width="156" x="36" y="275"/><ellipse cx="99.75" cy="291" fill="#ADD1B2" rx="11" ry="11" style="stroke: #A80036; stroke-width: 1.0;"/><path d="M102.5156,286.875 Q102.6719,286.6563 102.8594,286.5469 Q103.0469,286.4375 103.2656,286.4375 Q103.6406,286.4375 103.875,286.7031 Q104.1094,286.9531 104.1094,287.5625 L104.1094,289.0156 Q104.1094,289.625 103.875,289.8906 Q103.6406,290.1563 103.2656,290.1563 Q102.9219,290.1563 102.7188,289.9531 Q102.5156,289.7656 102.4063,289.25 Q102.3594,288.8906 102.1719,288.7031 Q101.8438,288.3281 101.2344,288.1094 Q100.625,287.8906 100,287.8906 Q99.2344,287.8906 98.5938,288.2188 Q97.9688,288.5469 97.4688,289.2969 Q96.9844,290.0469 96.9844,291.0781 L96.9844,292.1719 Q96.9844,293.4063 97.875,294.2344 Q98.7656,295.0469 100.3594,295.0469 Q101.2969,295.0469 101.9531,294.7969 Q102.3438,294.6406 102.7656,294.2031 Q103.0313,293.9375 103.1719,293.8594 Q103.3281,293.7813 103.5313,293.7813 Q103.8594,293.7813 104.1094,294.0469 Q104.375,294.2969 104.375,294.6406 Q104.375,294.9844 104.0313,295.3906 Q103.5313,295.9688 102.7344,296.2969 Q101.6563,296.75 100.3594,296.75 Q98.8438,296.75 97.6406,296.125 Q96.6563,295.625 95.9688,294.5625 Q95.2813,293.4844 95.2813,292.2031 L95.2813,291.0469 Q95.2813,289.7188 95.8906,288.5781 Q96.5156,287.4219 97.6094,286.8125 Q98.7031,286.1875 99.9375,286.1875 Q100.6719,286.1875 101.3125,286.3594 Q101.9688,286.5156 102.5156,286.875 Z "/><text fill="#000000" font-family="sans-serif" font-size="12" lengthAdjust="spacingAndGlyphs" textLength="20" x="120.25" y="295.9102">Exit</text><line style="stroke: #A80036; stroke-width: 1.5;" x1="37" x2="191" y1="307" y2="307"/><line style="stroke: #A80036; stroke-width: 1.5;" x1="37" x2="191" y1="315" y2="315"/><ellipse cx="47" cy="326" fill="#84BE84" rx="3" ry="3" style="stroke: #038048; stroke-width: 1.0;"/><text fill="#000000" font-family="sans-serif" font-size="11" lengthAdjust="spacingAndGlyphs" textLength="60" x="56" y="330.4189">Exit(Assets)</text><ellipse cx="47" cy="339.8359" fill="#84BE84" rx="3" ry="3" style="stroke: #038048; stroke-width: 1.0;"/><text fill="#000000" font-family="sans-serif" font-size="11" lengthAdjust="spacingAndGlyphs" textLength="67" x="56" y="344.2549">update(): void</text><ellipse cx="47" cy="353.6719" fill="#84BE84" rx="3" ry="3" style="stroke: #038048; stroke-width: 1.0;"/><text fill="#000000" font-family="sans-serif" font-size="11" lengthAdjust="spacingAndGlyphs" textLength="130" x="56" y="358.0908">getImage(): BufferedImage</text></a><!--MD5=[165f693c8da3187a1a1d1f9c2b4b7cfd]
class nz.ac.vuw.ecs.swen225.gp20.render.sprites.ExitLock--><a href="ExitLock.html" target="_top" title="ExitLock.html" xlink:actuate="onRequest" xlink:href="ExitLock.html" xlink:show="new" xlink:title="ExitLock.html" xlink:type="simple"><rect codeLine="35" fill="#FEFECE" filter="url(#fde9gnayammsf)" height="89.5078" id="nz.ac.vuw.ecs.swen225.gp20.render.sprites.ExitLock" style="stroke: #A80036; stroke-width: 1.5;" width="156" x="227" y="275"/><ellipse cx="277.75" cy="291" fill="#ADD1B2" rx="11" ry="11" style="stroke: #A80036; stroke-width: 1.0;"/><path d="M280.5156,286.875 Q280.6719,286.6563 280.8594,286.5469 Q281.0469,286.4375 281.2656,286.4375 Q281.6406,286.4375 281.875,286.7031 Q282.1094,286.9531 282.1094,287.5625 L282.1094,289.0156 Q282.1094,289.625 281.875,289.8906 Q281.6406,290.1563 281.2656,290.1563 Q280.9219,290.1563 280.7188,289.9531 Q280.5156,289.7656 280.4063,289.25 Q280.3594,288.8906 280.1719,288.7031 Q279.8438,288.3281 279.2344,288.1094 Q278.625,287.8906 278,287.8906 Q277.2344,287.8906 276.5938,288.2188 Q275.9688,288.5469 275.4688,289.2969 Q274.9844,290.0469 274.9844,291.0781 L274.9844,292.1719 Q274.9844,293.4063 275.875,294.2344 Q276.7656,295.0469 278.3594,295.0469 Q279.2969,295.0469 279.9531,294.7969 Q280.3438,294.6406 280.7656,294.2031 Q281.0313,293.9375 281.1719,293.8594 Q281.3281,293.7813 281.5313,293.7813 Q281.8594,293.7813 282.1094,294.0469 Q282.375,294.2969 282.375,294.6406 Q282.375,294.9844 282.0313,295.3906 Q281.5313,295.9688 280.7344,296.2969 Q279.6563,296.75 278.3594,296.75 Q276.8438,296.75 275.6406,296.125 Q274.6563,295.625 273.9688,294.5625 Q273.2813,293.4844 273.2813,292.2031 L273.2813,291.0469 Q273.2813,289.7188 273.8906,288.5781 Q274.5156,287.4219 275.6094,286.8125 Q276.7031,286.1875 277.9375,286.1875 Q278.6719,286.1875 279.3125,286.3594 Q279.9688,286.5156 280.5156,286.875 Z "/><text fill="#000000" font-family="sans-serif" font-size="12" lengthAdjust="spacingAndGlyphs" textLength="46" x="298.25" y="295.9102">ExitLock</text><line style="stroke: #A80036; stroke-width: 1.5;" x1="228" x2="382" y1="307" y2="307"/><line style="stroke: #A80036; stroke-width: 1.5;" x1="228" x2="382" y1="315" y2="315"/><ellipse cx="238" cy="326" fill="#84BE84" rx="3" ry="3" style="stroke: #038048; stroke-width: 1.0;"/><text fill="#000000" font-family="sans-serif" font-size="11" lengthAdjust="spacingAndGlyphs" textLength="84" x="247" y="330.4189">ExitLock(Assets)</text><ellipse cx="238" cy="339.8359" fill="#84BE84" rx="3" ry="3" style="stroke: #038048; stroke-width: 1.0;"/><text fill="#000000" font-family="sans-serif" font-size="11" lengthAdjust="spacingAndGlyphs" textLength="67" x="247" y="344.2549">update(): void</text><ellipse cx="238" cy="353.6719" fill="#84BE84" rx="3" ry="3" style="stroke: #038048; stroke-width: 1.0;"/><text fill="#000000" font-family="sans-serif" font-size="11" lengthAdjust="spacingAndGlyphs" textLength="130" x="247" y="358.0908">getImage(): BufferedImage</text></a><!--MD5=[d04f2d30258c85c9746f63acfb6d05e1]
class nz.ac.vuw.ecs.swen225.gp20.render.sprites.HoleTile--><a href="HoleTile.html" target="_top" title="HoleTile.html" xlink:actuate="onRequest" xlink:href="HoleTile.html" xlink:show="new" xlink:title="HoleTile.html" xlink:type="simple"><rect codeLine="41" fill="#FEFECE" filter="url(#fde9gnayammsf)" height="89.5078" id="nz.ac.vuw.ecs.swen225.gp20.render.sprites.HoleTile" style="stroke: #A80036; stroke-width: 1.5;" width="210" x="418" y="275"/><ellipse cx="495.75" cy="291" fill="#ADD1B2" rx="11" ry="11" style="stroke: #A80036; stroke-width: 1.0;"/><path d="M498.5156,286.875 Q498.6719,286.6563 498.8594,286.5469 Q499.0469,286.4375 499.2656,286.4375 Q499.6406,286.4375 499.875,286.7031 Q500.1094,286.9531 500.1094,287.5625 L500.1094,289.0156 Q500.1094,289.625 499.875,289.8906 Q499.6406,290.1563 499.2656,290.1563 Q498.9219,290.1563 498.7188,289.9531 Q498.5156,289.7656 498.4063,289.25 Q498.3594,288.8906 498.1719,288.7031 Q497.8438,288.3281 497.2344,288.1094 Q496.625,287.8906 496,287.8906 Q495.2344,287.8906 494.5938,288.2188 Q493.9688,288.5469 493.4688,289.2969 Q492.9844,290.0469 492.9844,291.0781 L492.9844,292.1719 Q492.9844,293.4063 493.875,294.2344 Q494.7656,295.0469 496.3594,295.0469 Q497.2969,295.0469 497.9531,294.7969 Q498.3438,294.6406 498.7656,294.2031 Q499.0313,293.9375 499.1719,293.8594 Q499.3281,293.7813 499.5313,293.7813 Q499.8594,293.7813 500.1094,294.0469 Q500.375,294.2969 500.375,294.6406 Q500.375,294.9844 500.0313,295.3906 Q499.5313,295.9688 498.7344,296.2969 Q497.6563,296.75 496.3594,296.75 Q494.8438,296.75 493.6406,296.125 Q492.6563,295.625 491.9688,294.5625 Q491.2813,293.4844 491.2813,292.2031 L491.2813,291.0469 Q491.2813,289.7188 491.8906,288.5781 Q492.5156,287.4219 493.6094,286.8125 Q494.7031,286.1875 495.9375,286.1875 Q496.6719,286.1875 497.3125,286.3594 Q497.9688,286.5156 498.5156,286.875 Z "/><text fill="#000000" font-family="sans-serif" font-size="12" lengthAdjust="spacingAndGlyphs" textLength="46" x="516.25" y="295.9102">HoleTile</text><line style="stroke: #A80036; stroke-width: 1.5;" x1="419" x2="627" y1="307" y2="307"/><line style="stroke: #A80036; stroke-width: 1.5;" x1="419" x2="627" y1="315" y2="315"/><ellipse cx="429" cy="326" fill="#84BE84" rx="3" ry="3" style="stroke: #038048; stroke-width: 1.0;"/><text fill="#000000" font-family="sans-serif" font-size="11" lengthAdjust="spacingAndGlyphs" textLength="81" x="438" y="330.4189">HoleTile(Assets)</text><ellipse cx="429" cy="339.8359" fill="#84BE84" rx="3" ry="3" style="stroke: #038048; stroke-width: 1.0;"/><text fill="#000000" font-family="sans-serif" font-size="11" lengthAdjust="spacingAndGlyphs" textLength="184" x="438" y="344.2549">setWallType(Cell, Cell, Cell, Cell): void</text><ellipse cx="429" cy="353.6719" fill="#84BE84" rx="3" ry="3" style="stroke: #038048; stroke-width: 1.0;"/><text fill="#000000" font-family="sans-serif" font-size="11" lengthAdjust="spacingAndGlyphs" textLength="130" x="438" y="358.0908">getImage(): BufferedImage</text></a><!--MD5=[6ac7f1379bf82c7daa0e6699be0ce2b8]
class nz.ac.vuw.ecs.swen225.gp20.render.sprites.Info--><a href="Info.html" target="_top" title="Info.html" xlink:actuate="onRequest" xlink:href="Info.html" xlink:show="new" xlink:title="Info.html" xlink:type="simple"><rect codeLine="47" fill="#FEFECE" filter="url(#fde9gnayammsf)" height="75.6719" id="nz.ac.vuw.ecs.swen225.gp20.render.sprites.Info" style="stroke: #A80036; stroke-width: 1.5;" width="156" x="36" y="432"/><ellipse cx="99.75" cy="448" fill="#ADD1B2" rx="11" ry="11" style="stroke: #A80036; stroke-width: 1.0;"/><path d="M102.5156,443.875 Q102.6719,443.6563 102.8594,443.5469 Q103.0469,443.4375 103.2656,443.4375 Q103.6406,443.4375 103.875,443.7031 Q104.1094,443.9531 104.1094,444.5625 L104.1094,446.0156 Q104.1094,446.625 103.875,446.8906 Q103.6406,447.1563 103.2656,447.1563 Q102.9219,447.1563 102.7188,446.9531 Q102.5156,446.7656 102.4063,446.25 Q102.3594,445.8906 102.1719,445.7031 Q101.8438,445.3281 101.2344,445.1094 Q100.625,444.8906 100,444.8906 Q99.2344,444.8906 98.5938,445.2188 Q97.9688,445.5469 97.4688,446.2969 Q96.9844,447.0469 96.9844,448.0781 L96.9844,449.1719 Q96.9844,450.4063 97.875,451.2344 Q98.7656,452.0469 100.3594,452.0469 Q101.2969,452.0469 101.9531,451.7969 Q102.3438,451.6406 102.7656,451.2031 Q103.0313,450.9375 103.1719,450.8594 Q103.3281,450.7813 103.5313,450.7813 Q103.8594,450.7813 104.1094,451.0469 Q104.375,451.2969 104.375,451.6406 Q104.375,451.9844 104.0313,452.3906 Q103.5313,452.9688 102.7344,453.2969 Q101.6563,453.75 100.3594,453.75 Q98.8438,453.75 97.6406,453.125 Q96.6563,452.625 95.9688,451.5625 Q95.2813,450.4844 95.2813,449.2031 L95.2813,448.0469 Q95.2813,446.7188 95.8906,445.5781 Q96.5156,444.4219 97.6094,443.8125 Q98.7031,443.1875 99.9375,443.1875 Q100.6719,443.1875 101.3125,443.3594 Q101.9688,443.5156 102.5156,443.875 Z "/><text fill="#000000" font-family="sans-serif" font-size="12" lengthAdjust="spacingAndGlyphs" textLength="20" x="120.25" y="452.9102">Info</text><line style="stroke: #A80036; stroke-width: 1.5;" x1="37" x2="191" y1="464" y2="464"/><line style="stroke: #A80036; stroke-width: 1.5;" x1="37" x2="191" y1="472" y2="472"/><ellipse cx="47" cy="483" fill="#84BE84" rx="3" ry="3" style="stroke: #038048; stroke-width: 1.0;"/><text fill="#000000" font-family="sans-serif" font-size="11" lengthAdjust="spacingAndGlyphs" textLength="60" x="56" y="487.4189">Info(Assets)</text><ellipse cx="47" cy="496.8359" fill="#84BE84" rx="3" ry="3" style="stroke: #038048; stroke-width: 1.0;"/><text fill="#000000" font-family="sans-serif" font-size="11" lengthAdjust="spacingAndGlyphs" textLength="130" x="56" y="501.2549">getImage(): BufferedImage</text></a><!--MD5=[28dd1e232319134c95b107459370d298]
class nz.ac.vuw.ecs.swen225.gp20.render.sprites.Key--><a href="Key.html" target="_top" title="Key.html" xlink:actuate="onRequest" xlink:href="Key.html" xlink:show="new" xlink:title="Key.html" xlink:type="simple"><rect codeLine="52" fill="#FEFECE" filter="url(#fde9gnayammsf)" height="89.5078" id="nz.ac.vuw.ecs.swen225.gp20.render.sprites.Key" style="stroke: #A80036; stroke-width: 1.5;" width="156" x="227" y="425"/><ellipse cx="290.25" cy="441" fill="#ADD1B2" rx="11" ry="11" style="stroke: #A80036; stroke-width: 1.0;"/><path d="M293.0156,436.875 Q293.1719,436.6563 293.3594,436.5469 Q293.5469,436.4375 293.7656,436.4375 Q294.1406,436.4375 294.375,436.7031 Q294.6094,436.9531 294.6094,437.5625 L294.6094,439.0156 Q294.6094,439.625 294.375,439.8906 Q294.1406,440.1563 293.7656,440.1563 Q293.4219,440.1563 293.2188,439.9531 Q293.0156,439.7656 292.9063,439.25 Q292.8594,438.8906 292.6719,438.7031 Q292.3438,438.3281 291.7344,438.1094 Q291.125,437.8906 290.5,437.8906 Q289.7344,437.8906 289.0938,438.2188 Q288.4688,438.5469 287.9688,439.2969 Q287.4844,440.0469 287.4844,441.0781 L287.4844,442.1719 Q287.4844,443.4063 288.375,444.2344 Q289.2656,445.0469 290.8594,445.0469 Q291.7969,445.0469 292.4531,444.7969 Q292.8438,444.6406 293.2656,444.2031 Q293.5313,443.9375 293.6719,443.8594 Q293.8281,443.7813 294.0313,443.7813 Q294.3594,443.7813 294.6094,444.0469 Q294.875,444.2969 294.875,444.6406 Q294.875,444.9844 294.5313,445.3906 Q294.0313,445.9688 293.2344,446.2969 Q292.1563,446.75 290.8594,446.75 Q289.3438,446.75 288.1406,446.125 Q287.1563,445.625 286.4688,444.5625 Q285.7813,443.4844 285.7813,442.2031 L285.7813,441.0469 Q285.7813,439.7188 286.3906,438.5781 Q287.0156,437.4219 288.1094,436.8125 Q289.2031,436.1875 290.4375,436.1875 Q291.1719,436.1875 291.8125,436.3594 Q292.4688,436.5156 293.0156,436.875 Z "/><text fill="#000000" font-family="sans-serif" font-size="12" lengthAdjust="spacingAndGlyphs" textLength="21" x="310.75" y="445.9102">Key</text><line style="stroke: #A80036; stroke-width: 1.5;" x1="228" x2="382" y1="457" y2="457"/><line style="stroke: #A80036; stroke-width: 1.5;" x1="228" x2="382" y1="465" y2="465"/><ellipse cx="238" cy="476" fill="#84BE84" rx="3" ry="3" style="stroke: #038048; stroke-width: 1.0;"/><text fill="#000000" font-family="sans-serif" font-size="11" lengthAdjust="spacingAndGlyphs" textLength="95" x="247" y="480.4189">Key(Assets, String)</text><ellipse cx="238" cy="489.8359" fill="#84BE84" rx="3" ry="3" style="stroke: #038048; stroke-width: 1.0;"/><text fill="#000000" font-family="sans-serif" font-size="11" lengthAdjust="spacingAndGlyphs" textLength="67" x="247" y="494.2549">update(): void</text><ellipse cx="238" cy="503.6719" fill="#84BE84" rx="3" ry="3" style="stroke: #038048; stroke-width: 1.0;"/><text fill="#000000" font-family="sans-serif" font-size="11" lengthAdjust="spacingAndGlyphs" textLength="130" x="247" y="508.0908">getImage(): BufferedImage</text></a><!--MD5=[c56feaaaddd86e1cd1ad8357182e04b7]
class nz.ac.vuw.ecs.swen225.gp20.render.sprites.WallTile--><a href="WallTile.html" target="_top" title="WallTile.html" xlink:actuate="onRequest" xlink:href="WallTile.html" xlink:show="new" xlink:title="WallTile.html" xlink:type="simple"><rect codeLine="58" fill="#FEFECE" filter="url(#fde9gnayammsf)" height="89.5078" id="nz.ac.vuw.ecs.swen225.gp20.render.sprites.WallTile" style="stroke: #A80036; stroke-width: 1.5;" width="210" x="418" y="425"/><ellipse cx="496.75" cy="441" fill="#ADD1B2" rx="11" ry="11" style="stroke: #A80036; stroke-width: 1.0;"/><path d="M499.5156,436.875 Q499.6719,436.6563 499.8594,436.5469 Q500.0469,436.4375 500.2656,436.4375 Q500.6406,436.4375 500.875,436.7031 Q501.1094,436.9531 501.1094,437.5625 L501.1094,439.0156 Q501.1094,439.625 500.875,439.8906 Q500.6406,440.1563 500.2656,440.1563 Q499.9219,440.1563 499.7188,439.9531 Q499.5156,439.7656 499.4063,439.25 Q499.3594,438.8906 499.1719,438.7031 Q498.8438,438.3281 498.2344,438.1094 Q497.625,437.8906 497,437.8906 Q496.2344,437.8906 495.5938,438.2188 Q494.9688,438.5469 494.4688,439.2969 Q493.9844,440.0469 493.9844,441.0781 L493.9844,442.1719 Q493.9844,443.4063 494.875,444.2344 Q495.7656,445.0469 497.3594,445.0469 Q498.2969,445.0469 498.9531,444.7969 Q499.3438,444.6406 499.7656,444.2031 Q500.0313,443.9375 500.1719,443.8594 Q500.3281,443.7813 500.5313,443.7813 Q500.8594,443.7813 501.1094,444.0469 Q501.375,444.2969 501.375,444.6406 Q501.375,444.9844 501.0313,445.3906 Q500.5313,445.9688 499.7344,446.2969 Q498.6563,446.75 497.3594,446.75 Q495.8438,446.75 494.6406,446.125 Q493.6563,445.625 492.9688,444.5625 Q492.2813,443.4844 492.2813,442.2031 L492.2813,441.0469 Q492.2813,439.7188 492.8906,438.5781 Q493.5156,437.4219 494.6094,436.8125 Q495.7031,436.1875 496.9375,436.1875 Q497.6719,436.1875 498.3125,436.3594 Q498.9688,436.5156 499.5156,436.875 Z "/><text fill="#000000" font-family="sans-serif" font-size="12" lengthAdjust="spacingAndGlyphs" textLength="44" x="517.25" y="445.9102">WallTile</text><line style="stroke: #A80036; stroke-width: 1.5;" x1="419" x2="627" y1="457" y2="457"/><line style="stroke: #A80036; stroke-width: 1.5;" x1="419" x2="627" y1="465" y2="465"/><ellipse cx="429" cy="476" fill="#84BE84" rx="3" ry="3" style="stroke: #038048; stroke-width: 1.0;"/><text fill="#000000" font-family="sans-serif" font-size="11" lengthAdjust="spacingAndGlyphs" textLength="79" x="438" y="480.4189">WallTile(Assets)</text><ellipse cx="429" cy="489.8359" fill="#84BE84" rx="3" ry="3" style="stroke: #038048; stroke-width: 1.0;"/><text fill="#000000" font-family="sans-serif" font-size="11" lengthAdjust="spacingAndGlyphs" textLength="184" x="438" y="494.2549">setWallType(Cell, Cell, Cell, Cell): void</text><ellipse cx="429" cy="503.6719" fill="#84BE84" rx="3" ry="3" style="stroke: #038048; stroke-width: 1.0;"/><text fill="#000000" font-family="sans-serif" font-size="11" lengthAdjust="spacingAndGlyphs" textLength="130" x="438" y="508.0908">getImage(): BufferedImage</text></a><!--MD5=[0d1551c0eb3794eb4b03ace33b81735c]
link nz.ac.vuw.ecs.swen225.gp20.render.sprites.ActorSprite to nz.ac.vuw.ecs.swen225.gp20.render.sprites.Door--><!--MD5=[010d3c02c22bc3b37093ea65d82242d1]
link nz.ac.vuw.ecs.swen225.gp20.render.sprites.Door to nz.ac.vuw.ecs.swen225.gp20.render.sprites.EnergyBall--><!--MD5=[adc5ea397b91a9e36fcb3739eebf50ea]
link nz.ac.vuw.ecs.swen225.gp20.render.sprites.ActorSprite to nz.ac.vuw.ecs.swen225.gp20.render.sprites.Exit--><!--MD5=[c1360303e1b5be9afa999f87236b36a7]
link nz.ac.vuw.ecs.swen225.gp20.render.sprites.Exit to nz.ac.vuw.ecs.swen225.gp20.render.sprites.ExitLock--><!--MD5=[13bc7d1ae5b81c98761ab6b1499f59b5]
link nz.ac.vuw.ecs.swen225.gp20.render.sprites.ExitLock to nz.ac.vuw.ecs.swen225.gp20.render.sprites.HoleTile--><!--MD5=[c3f7640e71ebcdeb8175eb01cf925ace]
link nz.ac.vuw.ecs.swen225.gp20.render.sprites.Exit to nz.ac.vuw.ecs.swen225.gp20.render.sprites.Info--><!--MD5=[3c9e02faaf35dc8a6a11254014d877fb]
link nz.ac.vuw.ecs.swen225.gp20.render.sprites.Info to nz.ac.vuw.ecs.swen225.gp20.render.sprites.Key--><!--MD5=[f02b5c521c67f23718c5a371a396d138]
link nz.ac.vuw.ecs.swen225.gp20.render.sprites.Key to nz.ac.vuw.ecs.swen225.gp20.render.sprites.WallTile--><text fill="#888888" font-family="sans-serif" font-size="10" lengthAdjust="spacingAndGlyphs" textLength="185" x="235.5" y="547.3809">UMLDoclet 2.0.12, PlantUML 1.2020.16</text><!--MD5=[326300ed0b818183e81e4c6127861e1d]
@startuml
    namespace nz.ac.vuw.ecs.swen225.gp20.render.sprites {

        class ActorSprite [[ActorSprite.html]] {
            +ActorSprite(Actor, Assets)
            +getX(): int
            +getY(): int
            +checkStateChange(): void
            +getIsMoving(): boolean
            +getDirection(): Direction
            +getImage(): BufferedImage
            +update(): void
            +draw(Graphics, int, int): void
        }

        class Door [[Door.html]] {
            +Door(Assets, String, boolean, boolean)
            +update(): void
            +getImage(): BufferedImage
            +isVertical(): boolean
            +setIsSolid(boolean): void
        }

        class EnergyBall [[EnergyBall.html]] {
            +EnergyBall(Assets)
            +update(): void
            +getImage(): BufferedImage
        }

        class Exit [[Exit.html]] {
            +Exit(Assets)
            +update(): void
            +getImage(): BufferedImage
        }

        class ExitLock [[ExitLock.html]] {
            +ExitLock(Assets)
            +update(): void
            +getImage(): BufferedImage
        }

        class HoleTile [[HoleTile.html]] {
            +HoleTile(Assets)
            +setWallType(Cell, Cell, Cell, Cell): void
            +getImage(): BufferedImage
        }

        class Info [[Info.html]] {
            +Info(Assets)
            +getImage(): BufferedImage
        }

        class Key [[Key.html]] {
            +Key(Assets, String)
            +update(): void
            +getImage(): BufferedImage
        }

        class WallTile [[WallTile.html]] {
            +WallTile(Assets)
            +setWallType(Cell, Cell, Cell, Cell): void
            +getImage(): BufferedImage
        }

    }

    center footer UMLDoclet 2.0.12, PlantUML 1.2020.16
@enduml

PlantUML version 1.2020.16(Mon Aug 24 08:20:43 NZST 2020)
(APACHE source distribution)
Java Runtime: Java(TM) SE Runtime Environment
JVM: Java HotSpot(TM) 64-Bit Server VM
Default Encoding: Cp1252
Language: en
Country: NZ
--></g></svg>