<?xml version="1.0" encoding="UTF-8" standalone="no"?><svg xmlns="http://www.w3.org/2000/svg" xmlns:xlink="http://www.w3.org/1999/xlink" contentScriptType="application/ecmascript" contentStyleType="text/css" height="190px" preserveAspectRatio="none" style="width:382px;height:190px;" version="1.1" viewBox="0 0 382 190" width="382px" zoomAndPan="magnify"><defs><filter height="300%" id="f124eq2ry934ir" width="300%" x="-1" y="-1"><feGaussianBlur result="blurOut" stdDeviation="2.0"/><feColorMatrix in="blurOut" result="blurOut2" type="matrix" values="0 0 0 0 0 0 0 0 0 0 0 0 0 0 0 0 0 0 .4 0"/><feOffset dx="4.0" dy="4.0" in="blurOut2" result="blurOut3"/><feBlend in="SourceGraphic" in2="blurOut3" mode="normal"/></filter></defs><g><!--MD5=[cb8297c5acf7171cb20d91d991001518]
cluster nz.ac.vuw.ecs.swen225.gp20.render--><polygon fill="#FFFFFF" filter="url(#f124eq2ry934ir)" points="16,6,268,6,275,29.6094,360,29.6094,360,161,16,161,16,6" style="stroke: #000000; stroke-width: 1.5;"/><line style="stroke: #000000; stroke-width: 1.5;" x1="16" x2="275" y1="29.6094" y2="29.6094"/><text fill="#000000" font-family="sans-serif" font-size="14" font-weight="bold" lengthAdjust="spacingAndGlyphs" textLength="246" x="20" y="22.5332">nz.ac.vuw.ecs.swen225.gp20.render</text><!--MD5=[655e1dc04445e3304bdb79e9ca3db7e1]
class nz.ac.vuw.ecs.swen225.gp20.render.Render--><a href="Render.html" target="_top" title="Render.html" xlink:actuate="onRequest" xlink:href="Render.html" xlink:show="new" xlink:title="Render.html" xlink:type="simple"><rect codeLine="3" fill="#FEFECE" filter="url(#f124eq2ry934ir)" height="103.3438" id="nz.ac.vuw.ecs.swen225.gp20.render.Render" style="stroke: #A80036; stroke-width: 1.5;" width="312" x="32" y="42"/><ellipse cx="163.25" cy="58" fill="#ADD1B2" rx="11" ry="11" style="stroke: #A80036; stroke-width: 1.0;"/><path d="M166.0156,53.875 Q166.1719,53.6563 166.3594,53.5469 Q166.5469,53.4375 166.7656,53.4375 Q167.1406,53.4375 167.375,53.7031 Q167.6094,53.9531 167.6094,54.5625 L167.6094,56.0156 Q167.6094,56.625 167.375,56.8906 Q167.1406,57.1563 166.7656,57.1563 Q166.4219,57.1563 166.2188,56.9531 Q166.0156,56.7656 165.9063,56.25 Q165.8594,55.8906 165.6719,55.7031 Q165.3438,55.3281 164.7344,55.1094 Q164.125,54.8906 163.5,54.8906 Q162.7344,54.8906 162.0938,55.2188 Q161.4688,55.5469 160.9688,56.2969 Q160.4844,57.0469 160.4844,58.0781 L160.4844,59.1719 Q160.4844,60.4063 161.375,61.2344 Q162.2656,62.0469 163.8594,62.0469 Q164.7969,62.0469 165.4531,61.7969 Q165.8438,61.6406 166.2656,61.2031 Q166.5313,60.9375 166.6719,60.8594 Q166.8281,60.7813 167.0313,60.7813 Q167.3594,60.7813 167.6094,61.0469 Q167.875,61.2969 167.875,61.6406 Q167.875,61.9844 167.5313,62.3906 Q167.0313,62.9688 166.2344,63.2969 Q165.1563,63.75 163.8594,63.75 Q162.3438,63.75 161.1406,63.125 Q160.1563,62.625 159.4688,61.5625 Q158.7813,60.4844 158.7813,59.2031 L158.7813,58.0469 Q158.7813,56.7188 159.3906,55.5781 Q160.0156,54.4219 161.1094,53.8125 Q162.2031,53.1875 163.4375,53.1875 Q164.1719,53.1875 164.8125,53.3594 Q165.4688,53.5156 166.0156,53.875 Z "/><text fill="#000000" font-family="sans-serif" font-size="12" lengthAdjust="spacingAndGlyphs" textLength="41" x="183.75" y="62.9102">Render</text><line style="stroke: #A80036; stroke-width: 1.5;" x1="33" x2="343" y1="74" y2="74"/><line style="stroke: #A80036; stroke-width: 1.5;" x1="33" x2="343" y1="82" y2="82"/><ellipse cx="43" cy="93" fill="#84BE84" rx="3" ry="3" style="stroke: #038048; stroke-width: 1.0;"/><text fill="#000000" font-family="sans-serif" font-size="11" lengthAdjust="spacingAndGlyphs" textLength="286" x="52" y="97.4189">update(RenderTuple, int, String, boolean, boolean, int): void</text><ellipse cx="43" cy="106.8359" fill="#84BE84" rx="3" ry="3" style="stroke: #038048; stroke-width: 1.0;"/><text fill="#000000" font-family="sans-serif" font-size="11" lengthAdjust="spacingAndGlyphs" textLength="112" x="52" y="111.2549">update(int, String): void</text><ellipse cx="43" cy="120.6719" fill="#84BE84" rx="3" ry="3" style="stroke: #038048; stroke-width: 1.0;"/><text fill="#000000" font-family="sans-serif" font-size="11" lengthAdjust="spacingAndGlyphs" textLength="120" x="52" y="125.0908">draw(Graphics, int): void</text><ellipse cx="43" cy="134.5078" fill="#84BE84" rx="3" ry="3" style="stroke: #038048; stroke-width: 1.0;"/><text fill="#000000" font-family="sans-serif" font-size="11" lengthAdjust="spacingAndGlyphs" textLength="74" x="52" y="138.9268">init(Maze): void</text></a><text fill="#888888" font-family="sans-serif" font-size="10" lengthAdjust="spacingAndGlyphs" textLength="185" x="89.5" y="177.3809">UMLDoclet 2.0.12, PlantUML 1.2020.16</text><!--MD5=[752ecce0cb6cdcb36d7bd95f61e1b55e]
@startuml
    namespace nz.ac.vuw.ecs.swen225.gp20.render {

        class Render [[Render.html]] {
            +update(RenderTuple, int, String, boolean, boolean, int): void
            +update(int, String): void
            +draw(Graphics, int): void
            +init(Maze): void
        }

    }

    center footer UMLDoclet 2.0.12, PlantUML 1.2020.16
@enduml

PlantUML version 1.2020.16(Mon Aug 24 08:20:43 NZST 2020)
(APACHE source distribution)
Java Runtime: Java(TM) SE Runtime Environment
JVM: Java HotSpot(TM) 64-Bit Server VM
Default Encoding: Cp1252
Language: en
Country: NZ
--></g></svg>