<?xml version="1.0" encoding="UTF-8" standalone="no"?><svg xmlns="http://www.w3.org/2000/svg" xmlns:xlink="http://www.w3.org/1999/xlink" contentScriptType="application/ecmascript" contentStyleType="text/css" height="141px" preserveAspectRatio="none" style="width:233px;height:141px;" version="1.1" viewBox="0 0 233 141" width="233px" zoomAndPan="magnify"><defs><filter height="300%" id="fwtsjgbsqs2fw" width="300%" x="-1" y="-1"><feGaussianBlur result="blurOut" stdDeviation="2.0"/><feColorMatrix in="blurOut" result="blurOut2" type="matrix" values="0 0 0 0 0 0 0 0 0 0 0 0 0 0 0 0 0 0 .4 0"/><feOffset dx="4.0" dy="4.0" in="blurOut2" result="blurOut3"/><feBlend in="SourceGraphic" in2="blurOut3" mode="normal"/></filter></defs><g><!--MD5=[655e1dc04445e3304bdb79e9ca3db7e1]
class nz.ac.vuw.ecs.swen225.gp20.render.Render--><a href="Render.html" target="_top" title="Render.html" xlink:actuate="onRequest" xlink:href="Render.html" xlink:show="new" xlink:title="Render.html" xlink:type="simple"><rect codeLine="5" fill="#FEFECE" filter="url(#fwtsjgbsqs2fw)" height="103.5313" id="nz.ac.vuw.ecs.swen225.gp20.render.Render" style="stroke: #A80036; stroke-width: 1.5;" width="207" x="7" y="7"/><ellipse cx="24.25" cy="27.0938" fill="#ADD1B2" rx="11" ry="11" style="stroke: #A80036; stroke-width: 1.0;"/><path d="M27.0156,22.9688 Q27.1719,22.75 27.3594,22.6406 Q27.5469,22.5313 27.7656,22.5313 Q28.1406,22.5313 28.375,22.7969 Q28.6094,23.0469 28.6094,23.6563 L28.6094,25.1094 Q28.6094,25.7188 28.375,25.9844 Q28.1406,26.25 27.7656,26.25 Q27.4219,26.25 27.2188,26.0469 Q27.0156,25.8594 26.9063,25.3438 Q26.8594,24.9844 26.6719,24.7969 Q26.3438,24.4219 25.7344,24.2031 Q25.125,23.9844 24.5,23.9844 Q23.7344,23.9844 23.0938,24.3125 Q22.4688,24.6406 21.9688,25.3906 Q21.4844,26.1406 21.4844,27.1719 L21.4844,28.2656 Q21.4844,29.5 22.375,30.3281 Q23.2656,31.1406 24.8594,31.1406 Q25.7969,31.1406 26.4531,30.8906 Q26.8438,30.7344 27.2656,30.2969 Q27.5313,30.0313 27.6719,29.9531 Q27.8281,29.875 28.0313,29.875 Q28.3594,29.875 28.6094,30.1406 Q28.875,30.3906 28.875,30.7344 Q28.875,31.0781 28.5313,31.4844 Q28.0313,32.0625 27.2344,32.3906 Q26.1563,32.8438 24.8594,32.8438 Q23.3438,32.8438 22.1406,32.2188 Q21.1563,31.7188 20.4688,30.6563 Q19.7813,29.5781 19.7813,28.2969 L19.7813,27.1406 Q19.7813,25.8125 20.3906,24.6719 Q21.0156,23.5156 22.1094,22.9063 Q23.2031,22.2813 24.4375,22.2813 Q25.1719,22.2813 25.8125,22.4531 Q26.4688,22.6094 27.0156,22.9688 Z "/><text fill="#000000" font-family="sans-serif" font-size="14" lengthAdjust="spacingAndGlyphs" textLength="47" x="100.25" y="26.5332">Render</text><text fill="#000000" font-family="sans-serif" font-size="10" lengthAdjust="spacingAndGlyphs" textLength="170" x="38.75" y="39.9902">nz.ac.vuw.ecs.swen225.gp20.render</text><line style="stroke: #A80036; stroke-width: 1.5;" x1="8" x2="213" y1="47.1875" y2="47.1875"/><ellipse cx="18" cy="58.1875" fill="#84BE84" rx="3" ry="3" style="stroke: #038048; stroke-width: 1.0;"/><text fill="#000000" font-family="sans-serif" font-size="11" lengthAdjust="spacingAndGlyphs" textLength="181" x="27" y="62.6064">update(RenderTuple, int, String): void</text><ellipse cx="18" cy="72.0234" fill="#84BE84" rx="3" ry="3" style="stroke: #038048; stroke-width: 1.0;"/><text fill="#000000" font-family="sans-serif" font-size="11" lengthAdjust="spacingAndGlyphs" textLength="112" x="27" y="76.4424">update(int, String): void</text><ellipse cx="18" cy="85.8594" fill="#84BE84" rx="3" ry="3" style="stroke: #038048; stroke-width: 1.0;"/><text fill="#000000" font-family="sans-serif" font-size="11" lengthAdjust="spacingAndGlyphs" textLength="120" x="27" y="90.2783">draw(Graphics, int): void</text><ellipse cx="18" cy="99.6953" fill="#84BE84" rx="3" ry="3" style="stroke: #038048; stroke-width: 1.0;"/><text fill="#000000" font-family="sans-serif" font-size="11" lengthAdjust="spacingAndGlyphs" textLength="74" x="27" y="104.1143">init(Maze): void</text></a><text fill="#888888" font-family="sans-serif" font-size="10" lengthAdjust="spacingAndGlyphs" textLength="185" x="18" y="127.9121">UMLDoclet 2.0.12, PlantUML 1.2020.16</text><!--MD5=[8e2880784ad5679a0e4916d6b38b7c06]
@startuml
    set namespaceSeparator none
    hide empty fields
    hide empty methods

    class "<size:14>Render\n<size:10>nz.ac.vuw.ecs.swen225.gp20.render" as nz.ac.vuw.ecs.swen225.gp20.render.Render [[Render.html]] {
        +update(RenderTuple, int, String): void
        +update(int, String): void
        +draw(Graphics, int): void
        +init(Maze): void
    }

    center footer UMLDoclet 2.0.12, PlantUML 1.2020.16
@enduml

PlantUML version 1.2020.16(Mon Aug 24 08:20:43 NZST 2020)
(APACHE source distribution)
Java Runtime: Java(TM) SE Runtime Environment
JVM: Java HotSpot(TM) 64-Bit Server VM
Default Encoding: Cp1252
Language: en
Country: NZ
--></g></svg>