<?xml version="1.0" encoding="UTF-8" standalone="no"?><svg xmlns="http://www.w3.org/2000/svg" xmlns:xlink="http://www.w3.org/1999/xlink" contentScriptType="application/ecmascript" contentStyleType="text/css" height="141px" preserveAspectRatio="none" style="width:338px;height:141px;" version="1.1" viewBox="0 0 338 141" width="338px" zoomAndPan="magnify"><defs><filter height="300%" id="f1e5lf4mts673t" width="300%" x="-1" y="-1"><feGaussianBlur result="blurOut" stdDeviation="2.0"/><feColorMatrix in="blurOut" result="blurOut2" type="matrix" values="0 0 0 0 0 0 0 0 0 0 0 0 0 0 0 0 0 0 .4 0"/><feOffset dx="4.0" dy="4.0" in="blurOut2" result="blurOut3"/><feBlend in="SourceGraphic" in2="blurOut3" mode="normal"/></filter></defs><g><!--MD5=[655e1dc04445e3304bdb79e9ca3db7e1]
class nz.ac.vuw.ecs.swen225.gp20.render.Render--><a href="Render.html" target="_top" title="Render.html" xlink:actuate="onRequest" xlink:href="Render.html" xlink:show="new" xlink:title="Render.html" xlink:type="simple"><rect codeLine="5" fill="#FEFECE" filter="url(#f1e5lf4mts673t)" height="103.5313" id="nz.ac.vuw.ecs.swen225.gp20.render.Render" style="stroke: #A80036; stroke-width: 1.5;" width="312" x="7" y="7"/><ellipse cx="73.75" cy="27.0938" fill="#ADD1B2" rx="11" ry="11" style="stroke: #A80036; stroke-width: 1.0;"/><path d="M76.5156,22.9688 Q76.6719,22.75 76.8594,22.6406 Q77.0469,22.5313 77.2656,22.5313 Q77.6406,22.5313 77.875,22.7969 Q78.1094,23.0469 78.1094,23.6563 L78.1094,25.1094 Q78.1094,25.7188 77.875,25.9844 Q77.6406,26.25 77.2656,26.25 Q76.9219,26.25 76.7188,26.0469 Q76.5156,25.8594 76.4063,25.3438 Q76.3594,24.9844 76.1719,24.7969 Q75.8438,24.4219 75.2344,24.2031 Q74.625,23.9844 74,23.9844 Q73.2344,23.9844 72.5938,24.3125 Q71.9688,24.6406 71.4688,25.3906 Q70.9844,26.1406 70.9844,27.1719 L70.9844,28.2656 Q70.9844,29.5 71.875,30.3281 Q72.7656,31.1406 74.3594,31.1406 Q75.2969,31.1406 75.9531,30.8906 Q76.3438,30.7344 76.7656,30.2969 Q77.0313,30.0313 77.1719,29.9531 Q77.3281,29.875 77.5313,29.875 Q77.8594,29.875 78.1094,30.1406 Q78.375,30.3906 78.375,30.7344 Q78.375,31.0781 78.0313,31.4844 Q77.5313,32.0625 76.7344,32.3906 Q75.6563,32.8438 74.3594,32.8438 Q72.8438,32.8438 71.6406,32.2188 Q70.6563,31.7188 69.9688,30.6563 Q69.2813,29.5781 69.2813,28.2969 L69.2813,27.1406 Q69.2813,25.8125 69.8906,24.6719 Q70.5156,23.5156 71.6094,22.9063 Q72.7031,22.2813 73.9375,22.2813 Q74.6719,22.2813 75.3125,22.4531 Q75.9688,22.6094 76.5156,22.9688 Z "/><text fill="#000000" font-family="sans-serif" font-size="14" lengthAdjust="spacingAndGlyphs" textLength="47" x="155.75" y="26.5332">Render</text><text fill="#000000" font-family="sans-serif" font-size="10" lengthAdjust="spacingAndGlyphs" textLength="170" x="94.25" y="39.9902">nz.ac.vuw.ecs.swen225.gp20.render</text><line style="stroke: #A80036; stroke-width: 1.5;" x1="8" x2="318" y1="47.1875" y2="47.1875"/><ellipse cx="18" cy="58.1875" fill="#84BE84" rx="3" ry="3" style="stroke: #038048; stroke-width: 1.0;"/><text fill="#000000" font-family="sans-serif" font-size="11" lengthAdjust="spacingAndGlyphs" textLength="286" x="27" y="62.6064">update(RenderTuple, int, String, boolean, boolean, int): void</text><ellipse cx="18" cy="72.0234" fill="#84BE84" rx="3" ry="3" style="stroke: #038048; stroke-width: 1.0;"/><text fill="#000000" font-family="sans-serif" font-size="11" lengthAdjust="spacingAndGlyphs" textLength="112" x="27" y="76.4424">update(int, String): void</text><ellipse cx="18" cy="85.8594" fill="#84BE84" rx="3" ry="3" style="stroke: #038048; stroke-width: 1.0;"/><text fill="#000000" font-family="sans-serif" font-size="11" lengthAdjust="spacingAndGlyphs" textLength="120" x="27" y="90.2783">draw(Graphics, int): void</text><ellipse cx="18" cy="99.6953" fill="#84BE84" rx="3" ry="3" style="stroke: #038048; stroke-width: 1.0;"/><text fill="#000000" font-family="sans-serif" font-size="11" lengthAdjust="spacingAndGlyphs" textLength="74" x="27" y="104.1143">init(Maze): void</text></a><text fill="#888888" font-family="sans-serif" font-size="10" lengthAdjust="spacingAndGlyphs" textLength="185" x="70.5" y="127.9121">UMLDoclet 2.0.12, PlantUML 1.2020.16</text><!--MD5=[ec3b863ac4508f27e4b77d583e5ecab7]
@startuml
    set namespaceSeparator none
    hide empty fields
    hide empty methods

    class "<size:14>Render\n<size:10>nz.ac.vuw.ecs.swen225.gp20.render" as nz.ac.vuw.ecs.swen225.gp20.render.Render [[Render.html]] {
        +update(RenderTuple, int, String, boolean, boolean, int): void
        +update(int, String): void
        +draw(Graphics, int): void
        +init(Maze): void
    }

    center footer UMLDoclet 2.0.12, PlantUML 1.2020.16
@enduml

PlantUML version 1.2020.16(Mon Aug 24 08:20:43 NZST 2020)
(APACHE source distribution)
Java Runtime: Java(TM) SE Runtime Environment
JVM: Java HotSpot(TM) 64-Bit Server VM
Default Encoding: Cp1252
Language: en
Country: NZ
--></g></svg>