<?xml version="1.0" encoding="UTF-8" standalone="no"?><svg xmlns="http://www.w3.org/2000/svg" xmlns:xlink="http://www.w3.org/1999/xlink" contentScriptType="application/ecmascript" contentStyleType="text/css" height="477px" preserveAspectRatio="none" style="width:324px;height:477px;" version="1.1" viewBox="0 0 324 477" width="324px" zoomAndPan="magnify"><defs><filter height="300%" id="fk9d2ixfkw81e" width="300%" x="-1" y="-1"><feGaussianBlur result="blurOut" stdDeviation="2.0"/><feColorMatrix in="blurOut" result="blurOut2" type="matrix" values="0 0 0 0 0 0 0 0 0 0 0 0 0 0 0 0 0 0 .4 0"/><feOffset dx="4.0" dy="4.0" in="blurOut2" result="blurOut3"/><feBlend in="SourceGraphic" in2="blurOut3" mode="normal"/></filter></defs><g><!--MD5=[f1f873bc69cea6fe32b98027a6ba0e3d]
class nz.ac.vuw.ecs.swen225.gp20.application.GUI--><a href="GUI.html" target="_top" title="GUI.html" xlink:actuate="onRequest" xlink:href="GUI.html" xlink:show="new" xlink:title="GUI.html" xlink:type="simple"><rect codeLine="5" fill="#FEFECE" filter="url(#fk9d2ixfkw81e)" height="283.3984" id="nz.ac.vuw.ecs.swen225.gp20.application.GUI" style="stroke: #A80036; stroke-width: 1.5;" width="261" x="7" y="157"/><ellipse cx="39.55" cy="177.0938" fill="#ADD1B2" rx="11" ry="11" style="stroke: #A80036; stroke-width: 1.0;"/><path d="M42.3156,172.9688 Q42.4719,172.75 42.6594,172.6406 Q42.8469,172.5313 43.0656,172.5313 Q43.4406,172.5313 43.675,172.7969 Q43.9094,173.0469 43.9094,173.6563 L43.9094,175.1094 Q43.9094,175.7188 43.675,175.9844 Q43.4406,176.25 43.0656,176.25 Q42.7219,176.25 42.5188,176.0469 Q42.3156,175.8594 42.2063,175.3438 Q42.1594,174.9844 41.9719,174.7969 Q41.6438,174.4219 41.0344,174.2031 Q40.425,173.9844 39.8,173.9844 Q39.0344,173.9844 38.3938,174.3125 Q37.7688,174.6406 37.2688,175.3906 Q36.7844,176.1406 36.7844,177.1719 L36.7844,178.2656 Q36.7844,179.5 37.675,180.3281 Q38.5656,181.1406 40.1594,181.1406 Q41.0969,181.1406 41.7531,180.8906 Q42.1438,180.7344 42.5656,180.2969 Q42.8313,180.0313 42.9719,179.9531 Q43.1281,179.875 43.3313,179.875 Q43.6594,179.875 43.9094,180.1406 Q44.175,180.3906 44.175,180.7344 Q44.175,181.0781 43.8313,181.4844 Q43.3313,182.0625 42.5344,182.3906 Q41.4563,182.8438 40.1594,182.8438 Q38.6438,182.8438 37.4406,182.2188 Q36.4563,181.7188 35.7688,180.6563 Q35.0813,179.5781 35.0813,178.2969 L35.0813,177.1406 Q35.0813,175.8125 35.6906,174.6719 Q36.3156,173.5156 37.4094,172.9063 Q38.5031,172.2813 39.7375,172.2813 Q40.4719,172.2813 41.1125,172.4531 Q41.7688,172.6094 42.3156,172.9688 Z "/><text fill="#000000" font-family="sans-serif" font-size="14" lengthAdjust="spacingAndGlyphs" textLength="25" x="139.95" y="176.5332">GUI</text><text fill="#000000" font-family="sans-serif" font-size="10" lengthAdjust="spacingAndGlyphs" textLength="190" x="57.45" y="189.9902">nz.ac.vuw.ecs.swen225.gp20.application</text><line style="stroke: #A80036; stroke-width: 1.5;" x1="8" x2="267" y1="197.1875" y2="197.1875"/><ellipse cx="18" cy="208.1875" fill="#84BE84" rx="3" ry="3" style="stroke: #038048; stroke-width: 1.0;"/><text fill="#000000" font-family="sans-serif" font-size="11" lengthAdjust="spacingAndGlyphs" textLength="51" x="27" y="212.6064">GUI(Main)</text><ellipse cx="18" cy="222.0234" fill="#84BE84" rx="3" ry="3" style="stroke: #038048; stroke-width: 1.0;"/><text fill="#000000" font-family="sans-serif" font-size="11" lengthAdjust="spacingAndGlyphs" textLength="106" x="27" y="226.4424">drawToScreen(): void</text><ellipse cx="18" cy="235.8594" fill="#84BE84" rx="3" ry="3" style="stroke: #038048; stroke-width: 1.0;"/><text fill="#000000" font-family="sans-serif" font-size="11" lengthAdjust="spacingAndGlyphs" textLength="235" x="27" y="240.2783">formatButton(JButton, String, int, int, int, int): void</text><ellipse cx="18" cy="249.6953" fill="#84BE84" rx="3" ry="3" style="stroke: #038048; stroke-width: 1.0;"/><text fill="#000000" font-family="sans-serif" font-size="11" lengthAdjust="spacingAndGlyphs" textLength="140" x="27" y="254.1143">keyPressed(KeyEvent): void</text><ellipse cx="18" cy="263.5313" fill="#84BE84" rx="3" ry="3" style="stroke: #038048; stroke-width: 1.0;"/><text fill="#000000" font-family="sans-serif" font-size="11" lengthAdjust="spacingAndGlyphs" textLength="145" x="27" y="267.9502">keyReleased(KeyEvent): void</text><ellipse cx="18" cy="277.3672" fill="#84BE84" rx="3" ry="3" style="stroke: #038048; stroke-width: 1.0;"/><text fill="#000000" font-family="sans-serif" font-size="11" lengthAdjust="spacingAndGlyphs" textLength="130" x="27" y="281.7861">keyTyped(KeyEvent): void</text><ellipse cx="18" cy="291.2031" fill="#84BE84" rx="3" ry="3" style="stroke: #038048; stroke-width: 1.0;"/><text fill="#000000" font-family="sans-serif" font-size="11" lengthAdjust="spacingAndGlyphs" textLength="163" x="27" y="295.6221">getImageGraphics(): Graphics2D</text><ellipse cx="18" cy="305.0391" fill="#84BE84" rx="3" ry="3" style="stroke: #038048; stroke-width: 1.0;"/><text fill="#000000" font-family="sans-serif" font-size="11" lengthAdjust="spacingAndGlyphs" textLength="115" x="27" y="309.458">setGameState(int): void</text><ellipse cx="18" cy="318.875" fill="#84BE84" rx="3" ry="3" style="stroke: #038048; stroke-width: 1.0;"/><text fill="#000000" font-family="sans-serif" font-size="11" lengthAdjust="spacingAndGlyphs" textLength="95" x="27" y="323.2939">getGameState(): int</text><ellipse cx="18" cy="332.7109" fill="#84BE84" rx="3" ry="3" style="stroke: #038048; stroke-width: 1.0;"/><text fill="#000000" font-family="sans-serif" font-size="11" lengthAdjust="spacingAndGlyphs" textLength="110" x="27" y="337.1299">isRecording(): boolean</text><ellipse cx="18" cy="346.5469" fill="#84BE84" rx="3" ry="3" style="stroke: #038048; stroke-width: 1.0;"/><text fill="#000000" font-family="sans-serif" font-size="11" lengthAdjust="spacingAndGlyphs" textLength="105" x="27" y="350.9658">stopRecording(): void</text><ellipse cx="18" cy="360.3828" fill="#84BE84" rx="3" ry="3" style="stroke: #038048; stroke-width: 1.0;"/><text fill="#000000" font-family="sans-serif" font-size="11" lengthAdjust="spacingAndGlyphs" textLength="108" x="27" y="364.8018">isReplaying(): boolean</text><ellipse cx="18" cy="374.2188" fill="#84BE84" rx="3" ry="3" style="stroke: #038048; stroke-width: 1.0;"/><text fill="#000000" font-family="sans-serif" font-size="11" lengthAdjust="spacingAndGlyphs" textLength="135" x="27" y="378.6377">setReplaying(boolean): void</text><ellipse cx="18" cy="388.0547" fill="#84BE84" rx="3" ry="3" style="stroke: #038048; stroke-width: 1.0;"/><text fill="#000000" font-family="sans-serif" font-size="11" lengthAdjust="spacingAndGlyphs" textLength="115" x="27" y="392.4736">getDirection(): Direction</text><ellipse cx="18" cy="401.8906" fill="#84BE84" rx="3" ry="3" style="stroke: #038048; stroke-width: 1.0;"/><text fill="#000000" font-family="sans-serif" font-size="11" lengthAdjust="spacingAndGlyphs" textLength="167" x="27" y="406.3096">setButtonSoundEvent(String): void</text><ellipse cx="18" cy="415.7266" fill="#84BE84" rx="3" ry="3" style="stroke: #038048; stroke-width: 1.0;"/><text fill="#000000" font-family="sans-serif" font-size="11" lengthAdjust="spacingAndGlyphs" textLength="147" x="27" y="420.1455">getButtonSoundEvent(): String</text><ellipse cx="18" cy="429.5625" fill="#84BE84" rx="3" ry="3" style="stroke: #038048; stroke-width: 1.0;"/><text fill="#000000" font-family="sans-serif" font-size="11" lengthAdjust="spacingAndGlyphs" textLength="118" x="27" y="433.9814">resetButtonEvent(): void</text></a><!--MD5=[56a185cb33bdc7c23303e5865f20a19b]
class javax.swing.JPanel--><rect codeLine="25" fill="#FEFECE" filter="url(#fk9d2ixfkw81e)" height="40.1875" id="javax.swing.JPanel" style="stroke: #A80036; stroke-width: 1.5;" width="85" x="14" y="32"/><ellipse cx="29" cy="52.0938" fill="#ADD1B2" rx="11" ry="11" style="stroke: #A80036; stroke-width: 1.0;"/><path d="M31.7656,47.9688 Q31.9219,47.75 32.1094,47.6406 Q32.2969,47.5313 32.5156,47.5313 Q32.8906,47.5313 33.125,47.7969 Q33.3594,48.0469 33.3594,48.6563 L33.3594,50.1094 Q33.3594,50.7188 33.125,50.9844 Q32.8906,51.25 32.5156,51.25 Q32.1719,51.25 31.9688,51.0469 Q31.7656,50.8594 31.6563,50.3438 Q31.6094,49.9844 31.4219,49.7969 Q31.0938,49.4219 30.4844,49.2031 Q29.875,48.9844 29.25,48.9844 Q28.4844,48.9844 27.8438,49.3125 Q27.2188,49.6406 26.7188,50.3906 Q26.2344,51.1406 26.2344,52.1719 L26.2344,53.2656 Q26.2344,54.5 27.125,55.3281 Q28.0156,56.1406 29.6094,56.1406 Q30.5469,56.1406 31.2031,55.8906 Q31.5938,55.7344 32.0156,55.2969 Q32.2813,55.0313 32.4219,54.9531 Q32.5781,54.875 32.7813,54.875 Q33.1094,54.875 33.3594,55.1406 Q33.625,55.3906 33.625,55.7344 Q33.625,56.0781 33.2813,56.4844 Q32.7813,57.0625 31.9844,57.3906 Q30.9063,57.8438 29.6094,57.8438 Q28.0938,57.8438 26.8906,57.2188 Q25.9063,56.7188 25.2188,55.6563 Q24.5313,54.5781 24.5313,53.2969 L24.5313,52.1406 Q24.5313,50.8125 25.1406,49.6719 Q25.7656,48.5156 26.8594,47.9063 Q27.9531,47.2813 29.1875,47.2813 Q29.9219,47.2813 30.5625,47.4531 Q31.2188,47.6094 31.7656,47.9688 Z "/><text fill="#000000" font-family="sans-serif" font-size="14" lengthAdjust="spacingAndGlyphs" textLength="43" x="48" y="51.5332">JPanel</text><text fill="#000000" font-family="sans-serif" font-size="10" lengthAdjust="spacingAndGlyphs" textLength="53" x="43" y="64.9902">javax.swing</text><!--MD5=[3eb55d915ce4c988cc6fe2a782a0fcdf]
class java.awt.event.KeyListener--><rect codeLine="26" fill="#FEFECE" filter="url(#fk9d2ixfkw81e)" height="89.6953" id="java.awt.event.KeyListener" style="stroke: #A80036; stroke-width: 1.5;" width="171" x="134" y="7"/><ellipse cx="177.8" cy="27.0938" fill="#B4A7E5" rx="11" ry="11" style="stroke: #A80036; stroke-width: 1.0;"/><path d="M178.7531,23.7344 L178.7531,30.3906 L180.4719,30.3906 Q181.0813,30.3906 181.3469,30.625 Q181.6125,30.8594 181.6125,31.25 Q181.6125,31.625 181.3469,31.8594 Q181.0813,32.0938 180.4719,32.0938 L175.3313,32.0938 Q174.7219,32.0938 174.4563,31.8594 Q174.1906,31.625 174.1906,31.2344 Q174.1906,30.8594 174.4563,30.625 Q174.7219,30.3906 175.3313,30.3906 L177.05,30.3906 L177.05,23.7344 L175.3313,23.7344 Q174.7219,23.7344 174.4563,23.5 Q174.1906,23.2656 174.1906,22.875 Q174.1906,22.5 174.4563,22.2656 Q174.7219,22.0313 175.3313,22.0313 L180.4719,22.0313 Q181.0813,22.0313 181.3469,22.2656 Q181.6125,22.5 181.6125,22.875 Q181.6125,23.2656 181.3469,23.5 Q181.0813,23.7344 180.4719,23.7344 L178.7531,23.7344 Z "/><text fill="#000000" font-family="sans-serif" font-size="14" font-style="italic" lengthAdjust="spacingAndGlyphs" textLength="75" x="198.2" y="26.5332">KeyListener</text><text fill="#000000" font-family="sans-serif" font-size="10" font-style="italic" lengthAdjust="spacingAndGlyphs" textLength="67" x="202.2" y="39.9902">java.awt.event</text><line style="stroke: #A80036; stroke-width: 1.5;" x1="135" x2="304" y1="47.1875" y2="47.1875"/><ellipse cx="145" cy="58.1875" fill="#84BE84" rx="3" ry="3" style="stroke: #038048; stroke-width: 1.0;"/><text fill="#000000" font-family="sans-serif" font-size="11" font-style="italic" lengthAdjust="spacingAndGlyphs" textLength="130" x="154" y="62.6064">keyTyped(KeyEvent): void</text><ellipse cx="145" cy="72.0234" fill="#84BE84" rx="3" ry="3" style="stroke: #038048; stroke-width: 1.0;"/><text fill="#000000" font-family="sans-serif" font-size="11" font-style="italic" lengthAdjust="spacingAndGlyphs" textLength="140" x="154" y="76.4424">keyPressed(KeyEvent): void</text><ellipse cx="145" cy="85.8594" fill="#84BE84" rx="3" ry="3" style="stroke: #038048; stroke-width: 1.0;"/><text fill="#000000" font-family="sans-serif" font-size="11" font-style="italic" lengthAdjust="spacingAndGlyphs" textLength="145" x="154" y="90.2783">keyReleased(KeyEvent): void</text><!--MD5=[20478c24039e830d5be2b3d2be938a24]
reverse link javax.swing.JPanel to nz.ac.vuw.ecs.swen225.gp20.application.GUI--><path codeLine="32" d="M69.15,91.17 C75.2,109.45 82.87,132.58 90.86,156.71 " fill="none" id="javax.swing.JPanel-backto-nz.ac.vuw.ecs.swen225.gp20.application.GUI" style="stroke: #A80036; stroke-width: 1.0;"/><polygon fill="none" points="62.5,93.37,62.86,72.19,75.79,88.97,62.5,93.37" style="stroke: #A80036; stroke-width: 1.0;"/><!--MD5=[e2a073e456c68ffa298ed31dfb0eac3f]
reverse link java.awt.event.KeyListener to nz.ac.vuw.ecs.swen225.gp20.application.GUI--><path codeLine="33" d="M198.14,116.69 C193.91,129.29 189.32,142.98 184.62,156.99 " fill="none" id="java.awt.event.KeyListener-backto-nz.ac.vuw.ecs.swen225.gp20.application.GUI" style="stroke: #A80036; stroke-width: 1.0; stroke-dasharray: 7.0,7.0;"/><polygon fill="none" points="191.65,114.01,204.65,97.28,204.93,118.46,191.65,114.01" style="stroke: #A80036; stroke-width: 1.0;"/><text fill="#888888" font-family="sans-serif" font-size="10" lengthAdjust="spacingAndGlyphs" textLength="185" x="60.5" y="463.7793">UMLDoclet 2.0.12, PlantUML 1.2020.16</text><!--MD5=[6e0662d6bcd428ef32a64f1edb27d5c0]
@startuml
    set namespaceSeparator none
    hide empty fields
    hide empty methods

    class "<size:14>GUI\n<size:10>nz.ac.vuw.ecs.swen225.gp20.application" as nz.ac.vuw.ecs.swen225.gp20.application.GUI [[GUI.html]] {
        +GUI(Main)
        +drawToScreen(): void
        +formatButton(JButton, String, int, int, int, int): void
        +keyPressed(KeyEvent): void
        +keyReleased(KeyEvent): void
        +keyTyped(KeyEvent): void
        +getImageGraphics(): Graphics2D
        +setGameState(int): void
        +getGameState(): int
        +isRecording(): boolean
        +stopRecording(): void
        +isReplaying(): boolean
        +setReplaying(boolean): void
        +getDirection(): Direction
        +setButtonSoundEvent(String): void
        +getButtonSoundEvent(): String
        +resetButtonEvent(): void
    }

    class "<size:14>JPanel\n<size:10>javax.swing" as javax.swing.JPanel
    interface "<size:14>KeyListener\n<size:10>java.awt.event" as java.awt.event.KeyListener {
        {abstract} +keyTyped(KeyEvent): void
        {abstract} +keyPressed(KeyEvent): void
        {abstract} +keyReleased(KeyEvent): void
    }

    javax.swing.JPanel <|- - nz.ac.vuw.ecs.swen225.gp20.application.GUI
    java.awt.event.KeyListener <|.. nz.ac.vuw.ecs.swen225.gp20.application.GUI

    center footer UMLDoclet 2.0.12, PlantUML 1.2020.16
@enduml

PlantUML version 1.2020.16(Mon Aug 24 08:20:43 NZST 2020)
(APACHE source distribution)
Java Runtime: Java(TM) SE Runtime Environment
JVM: Java HotSpot(TM) 64-Bit Server VM
Default Encoding: Cp1252
Language: en
Country: NZ
--></g></svg>