<?xml version="1.0" encoding="UTF-8" standalone="no"?><svg xmlns="http://www.w3.org/2000/svg" xmlns:xlink="http://www.w3.org/1999/xlink" contentScriptType="application/ecmascript" contentStyleType="text/css" height="338px" preserveAspectRatio="none" style="width:248px;height:338px;" version="1.1" viewBox="0 0 248 338" width="248px" zoomAndPan="magnify"><defs><filter height="300%" id="f1o3es77o3szf6" width="300%" x="-1" y="-1"><feGaussianBlur result="blurOut" stdDeviation="2.0"/><feColorMatrix in="blurOut" result="blurOut2" type="matrix" values="0 0 0 0 0 0 0 0 0 0 0 0 0 0 0 0 0 0 .4 0"/><feOffset dx="4.0" dy="4.0" in="blurOut2" result="blurOut3"/><feBlend in="SourceGraphic" in2="blurOut3" mode="normal"/></filter></defs><g><!--MD5=[bbb39b51ff2a9a9cbbc850d5e118d13f]
class nz.ac.vuw.ecs.swen225.gp20.application.MouseManager--><a href="MouseManager.html" target="_top" title="MouseManager.html" xlink:actuate="onRequest" xlink:href="MouseManager.html" xlink:show="new" xlink:title="MouseManager.html" xlink:type="simple"><rect codeLine="5" fill="#FEFECE" filter="url(#f1o3es77o3szf6)" height="117.3672" id="nz.ac.vuw.ecs.swen225.gp20.application.MouseManager" style="stroke: #A80036; stroke-width: 1.5;" width="222" x="7" y="184"/><ellipse cx="22" cy="204.0938" fill="#ADD1B2" rx="11" ry="11" style="stroke: #A80036; stroke-width: 1.0;"/><path d="M24.7656,199.9688 Q24.9219,199.75 25.1094,199.6406 Q25.2969,199.5313 25.5156,199.5313 Q25.8906,199.5313 26.125,199.7969 Q26.3594,200.0469 26.3594,200.6563 L26.3594,202.1094 Q26.3594,202.7188 26.125,202.9844 Q25.8906,203.25 25.5156,203.25 Q25.1719,203.25 24.9688,203.0469 Q24.7656,202.8594 24.6563,202.3438 Q24.6094,201.9844 24.4219,201.7969 Q24.0938,201.4219 23.4844,201.2031 Q22.875,200.9844 22.25,200.9844 Q21.4844,200.9844 20.8438,201.3125 Q20.2188,201.6406 19.7188,202.3906 Q19.2344,203.1406 19.2344,204.1719 L19.2344,205.2656 Q19.2344,206.5 20.125,207.3281 Q21.0156,208.1406 22.6094,208.1406 Q23.5469,208.1406 24.2031,207.8906 Q24.5938,207.7344 25.0156,207.2969 Q25.2813,207.0313 25.4219,206.9531 Q25.5781,206.875 25.7813,206.875 Q26.1094,206.875 26.3594,207.1406 Q26.625,207.3906 26.625,207.7344 Q26.625,208.0781 26.2813,208.4844 Q25.7813,209.0625 24.9844,209.3906 Q23.9063,209.8438 22.6094,209.8438 Q21.0938,209.8438 19.8906,209.2188 Q18.9063,208.7188 18.2188,207.6563 Q17.5313,206.5781 17.5313,205.2969 L17.5313,204.1406 Q17.5313,202.8125 18.1406,201.6719 Q18.7656,200.5156 19.8594,199.9063 Q20.9531,199.2813 22.1875,199.2813 Q22.9219,199.2813 23.5625,199.4531 Q24.2188,199.6094 24.7656,199.9688 Z "/><text fill="#000000" font-family="sans-serif" font-size="14" lengthAdjust="spacingAndGlyphs" textLength="100" x="81" y="203.5332">MouseManager</text><text fill="#000000" font-family="sans-serif" font-size="10" lengthAdjust="spacingAndGlyphs" textLength="190" x="36" y="216.9902">nz.ac.vuw.ecs.swen225.gp20.application</text><line style="stroke: #A80036; stroke-width: 1.5;" x1="8" x2="228" y1="224.1875" y2="224.1875"/><ellipse cx="18" cy="235.1875" fill="#84BE84" rx="3" ry="3" style="stroke: #038048; stroke-width: 1.0;"/><text fill="#000000" font-family="sans-serif" font-size="11" lengthAdjust="spacingAndGlyphs" textLength="164" x="27" y="239.6064">mouseClicked(MouseEvent): void</text><ellipse cx="18" cy="249.0234" fill="#84BE84" rx="3" ry="3" style="stroke: #038048; stroke-width: 1.0;"/><text fill="#000000" font-family="sans-serif" font-size="11" lengthAdjust="spacingAndGlyphs" textLength="169" x="27" y="253.4424">mousePressed(MouseEvent): void</text><ellipse cx="18" cy="262.8594" fill="#84BE84" rx="3" ry="3" style="stroke: #038048; stroke-width: 1.0;"/><text fill="#000000" font-family="sans-serif" font-size="11" lengthAdjust="spacingAndGlyphs" textLength="174" x="27" y="267.2783">mouseReleased(MouseEvent): void</text><ellipse cx="18" cy="276.6953" fill="#84BE84" rx="3" ry="3" style="stroke: #038048; stroke-width: 1.0;"/><text fill="#000000" font-family="sans-serif" font-size="11" lengthAdjust="spacingAndGlyphs" textLength="166" x="27" y="281.1143">mouseEntered(MouseEvent): void</text><ellipse cx="18" cy="290.5313" fill="#84BE84" rx="3" ry="3" style="stroke: #038048; stroke-width: 1.0;"/><text fill="#000000" font-family="sans-serif" font-size="11" lengthAdjust="spacingAndGlyphs" textLength="158" x="27" y="294.9502">mouseExited(MouseEvent): void</text></a><!--MD5=[da93d464c7abf89634cf306b9e3855c2]
class java.awt.event.MouseListener--><rect codeLine="13" fill="#FEFECE" filter="url(#f1o3es77o3szf6)" height="117.3672" id="java.awt.event.MouseListener" style="stroke: #A80036; stroke-width: 1.5;" width="200" x="18" y="7"/><ellipse cx="66.75" cy="27.0938" fill="#B4A7E5" rx="11" ry="11" style="stroke: #A80036; stroke-width: 1.0;"/><path d="M67.7031,23.7344 L67.7031,30.3906 L69.4219,30.3906 Q70.0313,30.3906 70.2969,30.625 Q70.5625,30.8594 70.5625,31.25 Q70.5625,31.625 70.2969,31.8594 Q70.0313,32.0938 69.4219,32.0938 L64.2813,32.0938 Q63.6719,32.0938 63.4063,31.8594 Q63.1406,31.625 63.1406,31.2344 Q63.1406,30.8594 63.4063,30.625 Q63.6719,30.3906 64.2813,30.3906 L66,30.3906 L66,23.7344 L64.2813,23.7344 Q63.6719,23.7344 63.4063,23.5 Q63.1406,23.2656 63.1406,22.875 Q63.1406,22.5 63.4063,22.2656 Q63.6719,22.0313 64.2813,22.0313 L69.4219,22.0313 Q70.0313,22.0313 70.2969,22.2656 Q70.5625,22.5 70.5625,22.875 Q70.5625,23.2656 70.2969,23.5 Q70.0313,23.7344 69.4219,23.7344 L67.7031,23.7344 Z "/><text fill="#000000" font-family="sans-serif" font-size="14" font-style="italic" lengthAdjust="spacingAndGlyphs" textLength="94" x="87.25" y="26.5332">MouseListener</text><text fill="#000000" font-family="sans-serif" font-size="10" font-style="italic" lengthAdjust="spacingAndGlyphs" textLength="67" x="100.75" y="39.9902">java.awt.event</text><line style="stroke: #A80036; stroke-width: 1.5;" x1="19" x2="217" y1="47.1875" y2="47.1875"/><ellipse cx="29" cy="58.1875" fill="#84BE84" rx="3" ry="3" style="stroke: #038048; stroke-width: 1.0;"/><text fill="#000000" font-family="sans-serif" font-size="11" font-style="italic" lengthAdjust="spacingAndGlyphs" textLength="164" x="38" y="62.6064">mouseClicked(MouseEvent): void</text><ellipse cx="29" cy="72.0234" fill="#84BE84" rx="3" ry="3" style="stroke: #038048; stroke-width: 1.0;"/><text fill="#000000" font-family="sans-serif" font-size="11" font-style="italic" lengthAdjust="spacingAndGlyphs" textLength="169" x="38" y="76.4424">mousePressed(MouseEvent): void</text><ellipse cx="29" cy="85.8594" fill="#84BE84" rx="3" ry="3" style="stroke: #038048; stroke-width: 1.0;"/><text fill="#000000" font-family="sans-serif" font-size="11" font-style="italic" lengthAdjust="spacingAndGlyphs" textLength="174" x="38" y="90.2783">mouseReleased(MouseEvent): void</text><ellipse cx="29" cy="99.6953" fill="#84BE84" rx="3" ry="3" style="stroke: #038048; stroke-width: 1.0;"/><text fill="#000000" font-family="sans-serif" font-size="11" font-style="italic" lengthAdjust="spacingAndGlyphs" textLength="166" x="38" y="104.1143">mouseEntered(MouseEvent): void</text><ellipse cx="29" cy="113.5313" fill="#84BE84" rx="3" ry="3" style="stroke: #038048; stroke-width: 1.0;"/><text fill="#000000" font-family="sans-serif" font-size="11" font-style="italic" lengthAdjust="spacingAndGlyphs" textLength="158" x="38" y="117.9502">mouseExited(MouseEvent): void</text><!--MD5=[0985dad27b664d2b3c9be692b3455d87]
reverse link java.awt.event.MouseListener to nz.ac.vuw.ecs.swen225.gp20.application.MouseManager--><path codeLine="21" d="M118,144.59 C118,157.77 118,171.23 118,183.77 " fill="none" id="java.awt.event.MouseListener-backto-nz.ac.vuw.ecs.swen225.gp20.application.MouseManager" style="stroke: #A80036; stroke-width: 1.0; stroke-dasharray: 7.0,7.0;"/><polygon fill="none" points="111,144.29,118,124.29,125,144.29,111,144.29" style="stroke: #A80036; stroke-width: 1.0;"/><text fill="#888888" font-family="sans-serif" font-size="10" lengthAdjust="spacingAndGlyphs" textLength="185" x="22.5" y="324.748">UMLDoclet 2.0.12, PlantUML 1.2020.16</text><!--MD5=[8c539151bbe98ec4e629a5233da3ee17]
@startuml
    set namespaceSeparator none
    hide empty fields
    hide empty methods

    class "<size:14>MouseManager\n<size:10>nz.ac.vuw.ecs.swen225.gp20.application" as nz.ac.vuw.ecs.swen225.gp20.application.MouseManager [[MouseManager.html]] {
        +mouseClicked(MouseEvent): void
        +mousePressed(MouseEvent): void
        +mouseReleased(MouseEvent): void
        +mouseEntered(MouseEvent): void
        +mouseExited(MouseEvent): void
    }

    interface "<size:14>MouseListener\n<size:10>java.awt.event" as java.awt.event.MouseListener {
        {abstract} +mouseClicked(MouseEvent): void
        {abstract} +mousePressed(MouseEvent): void
        {abstract} +mouseReleased(MouseEvent): void
        {abstract} +mouseEntered(MouseEvent): void
        {abstract} +mouseExited(MouseEvent): void
    }

    java.awt.event.MouseListener <|.. nz.ac.vuw.ecs.swen225.gp20.application.MouseManager

    center footer UMLDoclet 2.0.12, PlantUML 1.2020.16
@enduml

PlantUML version 1.2020.16(Mon Aug 24 08:20:43 NZST 2020)
(APACHE source distribution)
Java Runtime: Java(TM) SE Runtime Environment
JVM: Java HotSpot(TM) 64-Bit Server VM
Default Encoding: Cp1252
Language: en
Country: NZ
--></g></svg>