<?xml version="1.0" encoding="UTF-8" standalone="no"?><svg xmlns="http://www.w3.org/2000/svg" xmlns:xlink="http://www.w3.org/1999/xlink" contentScriptType="application/ecmascript" contentStyleType="text/css" height="577px" preserveAspectRatio="none" style="width:763px;height:577px;" version="1.1" viewBox="0 0 763 577" width="763px" zoomAndPan="magnify"><defs><filter height="300%" id="f1vvvlna5fedag" width="300%" x="-1" y="-1"><feGaussianBlur result="blurOut" stdDeviation="2.0"/><feColorMatrix in="blurOut" result="blurOut2" type="matrix" values="0 0 0 0 0 0 0 0 0 0 0 0 0 0 0 0 0 0 .4 0"/><feOffset dx="4.0" dy="4.0" in="blurOut2" result="blurOut3"/><feBlend in="SourceGraphic" in2="blurOut3" mode="normal"/></filter></defs><g><!--MD5=[6a4c4b98b387dd0cbcc4ee9dbc28d3b2]
cluster nz.ac.vuw.ecs.swen225.gp20.application--><polygon fill="#FFFFFF" filter="url(#f1vvvlna5fedag)" points="16,199,301,199,308,222.6094,741,222.6094,741,548,16,548,16,199" style="stroke: #000000; stroke-width: 1.5;"/><line style="stroke: #000000; stroke-width: 1.5;" x1="16" x2="308" y1="222.6094" y2="222.6094"/><text fill="#000000" font-family="sans-serif" font-size="14" font-weight="bold" lengthAdjust="spacingAndGlyphs" textLength="279" x="20" y="215.5332">nz.ac.vuw.ecs.swen225.gp20.application</text><!--MD5=[535aab4de90d4dfa371a9b40d5438fc3]
cluster javax.swing--><polygon fill="#FFFFFF" filter="url(#f1vvvlna5fedag)" points="112,40.5,199,40.5,206,64.1094,214,64.1094,214,140.5,112,140.5,112,40.5" style="stroke: #000000; stroke-width: 1.5;"/><line style="stroke: #000000; stroke-width: 1.5;" x1="112" x2="206" y1="64.1094" y2="64.1094"/><text fill="#000000" font-family="sans-serif" font-size="14" font-weight="bold" lengthAdjust="spacingAndGlyphs" textLength="81" x="116" y="57.0332">javax.swing</text><!--MD5=[d63c23c2d4b14118d71bd46d55a646bd]
cluster java.awt.event--><polygon fill="#FFFFFF" filter="url(#f1vvvlna5fedag)" points="270,6,374,6,381,29.6094,709,29.6094,709,175,270,175,270,6" style="stroke: #000000; stroke-width: 1.5;"/><line style="stroke: #000000; stroke-width: 1.5;" x1="270" x2="381" y1="29.6094" y2="29.6094"/><text fill="#000000" font-family="sans-serif" font-size="14" font-weight="bold" lengthAdjust="spacingAndGlyphs" textLength="98" x="274" y="22.5332">java.awt.event</text><!--MD5=[f1f873bc69cea6fe32b98027a6ba0e3d]
class nz.ac.vuw.ecs.swen225.gp20.application.GUI--><a href="GUI.html" target="_top" title="GUI.html" xlink:actuate="onRequest" xlink:href="GUI.html" xlink:show="new" xlink:title="GUI.html" xlink:type="simple"><rect codeLine="3" fill="#FEFECE" filter="url(#f1vvvlna5fedag)" height="283.2109" id="nz.ac.vuw.ecs.swen225.gp20.application.GUI" style="stroke: #A80036; stroke-width: 1.5;" width="261" x="32.5" y="242"/><ellipse cx="148.25" cy="258" fill="#ADD1B2" rx="11" ry="11" style="stroke: #A80036; stroke-width: 1.0;"/><path d="M151.0156,253.875 Q151.1719,253.6563 151.3594,253.5469 Q151.5469,253.4375 151.7656,253.4375 Q152.1406,253.4375 152.375,253.7031 Q152.6094,253.9531 152.6094,254.5625 L152.6094,256.0156 Q152.6094,256.625 152.375,256.8906 Q152.1406,257.1563 151.7656,257.1563 Q151.4219,257.1563 151.2188,256.9531 Q151.0156,256.7656 150.9063,256.25 Q150.8594,255.8906 150.6719,255.7031 Q150.3438,255.3281 149.7344,255.1094 Q149.125,254.8906 148.5,254.8906 Q147.7344,254.8906 147.0938,255.2188 Q146.4688,255.5469 145.9688,256.2969 Q145.4844,257.0469 145.4844,258.0781 L145.4844,259.1719 Q145.4844,260.4063 146.375,261.2344 Q147.2656,262.0469 148.8594,262.0469 Q149.7969,262.0469 150.4531,261.7969 Q150.8438,261.6406 151.2656,261.2031 Q151.5313,260.9375 151.6719,260.8594 Q151.8281,260.7813 152.0313,260.7813 Q152.3594,260.7813 152.6094,261.0469 Q152.875,261.2969 152.875,261.6406 Q152.875,261.9844 152.5313,262.3906 Q152.0313,262.9688 151.2344,263.2969 Q150.1563,263.75 148.8594,263.75 Q147.3438,263.75 146.1406,263.125 Q145.1563,262.625 144.4688,261.5625 Q143.7813,260.4844 143.7813,259.2031 L143.7813,258.0469 Q143.7813,256.7188 144.3906,255.5781 Q145.0156,254.4219 146.1094,253.8125 Q147.2031,253.1875 148.4375,253.1875 Q149.1719,253.1875 149.8125,253.3594 Q150.4688,253.5156 151.0156,253.875 Z "/><text fill="#000000" font-family="sans-serif" font-size="12" lengthAdjust="spacingAndGlyphs" textLength="21" x="168.75" y="262.9102">GUI</text><line style="stroke: #A80036; stroke-width: 1.5;" x1="33.5" x2="292.5" y1="274" y2="274"/><line style="stroke: #A80036; stroke-width: 1.5;" x1="33.5" x2="292.5" y1="282" y2="282"/><ellipse cx="43.5" cy="293" fill="#84BE84" rx="3" ry="3" style="stroke: #038048; stroke-width: 1.0;"/><text fill="#000000" font-family="sans-serif" font-size="11" lengthAdjust="spacingAndGlyphs" textLength="51" x="52.5" y="297.4189">GUI(Main)</text><ellipse cx="43.5" cy="306.8359" fill="#84BE84" rx="3" ry="3" style="stroke: #038048; stroke-width: 1.0;"/><text fill="#000000" font-family="sans-serif" font-size="11" lengthAdjust="spacingAndGlyphs" textLength="106" x="52.5" y="311.2549">drawToScreen(): void</text><ellipse cx="43.5" cy="320.6719" fill="#84BE84" rx="3" ry="3" style="stroke: #038048; stroke-width: 1.0;"/><text fill="#000000" font-family="sans-serif" font-size="11" lengthAdjust="spacingAndGlyphs" textLength="235" x="52.5" y="325.0908">formatButton(JButton, String, int, int, int, int): void</text><ellipse cx="43.5" cy="334.5078" fill="#84BE84" rx="3" ry="3" style="stroke: #038048; stroke-width: 1.0;"/><text fill="#000000" font-family="sans-serif" font-size="11" lengthAdjust="spacingAndGlyphs" textLength="140" x="52.5" y="338.9268">keyPressed(KeyEvent): void</text><ellipse cx="43.5" cy="348.3438" fill="#84BE84" rx="3" ry="3" style="stroke: #038048; stroke-width: 1.0;"/><text fill="#000000" font-family="sans-serif" font-size="11" lengthAdjust="spacingAndGlyphs" textLength="145" x="52.5" y="352.7627">keyReleased(KeyEvent): void</text><ellipse cx="43.5" cy="362.1797" fill="#84BE84" rx="3" ry="3" style="stroke: #038048; stroke-width: 1.0;"/><text fill="#000000" font-family="sans-serif" font-size="11" lengthAdjust="spacingAndGlyphs" textLength="130" x="52.5" y="366.5986">keyTyped(KeyEvent): void</text><ellipse cx="43.5" cy="376.0156" fill="#84BE84" rx="3" ry="3" style="stroke: #038048; stroke-width: 1.0;"/><text fill="#000000" font-family="sans-serif" font-size="11" lengthAdjust="spacingAndGlyphs" textLength="163" x="52.5" y="380.4346">getImageGraphics(): Graphics2D</text><ellipse cx="43.5" cy="389.8516" fill="#84BE84" rx="3" ry="3" style="stroke: #038048; stroke-width: 1.0;"/><text fill="#000000" font-family="sans-serif" font-size="11" lengthAdjust="spacingAndGlyphs" textLength="115" x="52.5" y="394.2705">setGameState(int): void</text><ellipse cx="43.5" cy="403.6875" fill="#84BE84" rx="3" ry="3" style="stroke: #038048; stroke-width: 1.0;"/><text fill="#000000" font-family="sans-serif" font-size="11" lengthAdjust="spacingAndGlyphs" textLength="95" x="52.5" y="408.1064">getGameState(): int</text><ellipse cx="43.5" cy="417.5234" fill="#84BE84" rx="3" ry="3" style="stroke: #038048; stroke-width: 1.0;"/><text fill="#000000" font-family="sans-serif" font-size="11" lengthAdjust="spacingAndGlyphs" textLength="110" x="52.5" y="421.9424">isRecording(): boolean</text><ellipse cx="43.5" cy="431.3594" fill="#84BE84" rx="3" ry="3" style="stroke: #038048; stroke-width: 1.0;"/><text fill="#000000" font-family="sans-serif" font-size="11" lengthAdjust="spacingAndGlyphs" textLength="105" x="52.5" y="435.7783">stopRecording(): void</text><ellipse cx="43.5" cy="445.1953" fill="#84BE84" rx="3" ry="3" style="stroke: #038048; stroke-width: 1.0;"/><text fill="#000000" font-family="sans-serif" font-size="11" lengthAdjust="spacingAndGlyphs" textLength="108" x="52.5" y="449.6143">isReplaying(): boolean</text><ellipse cx="43.5" cy="459.0313" fill="#84BE84" rx="3" ry="3" style="stroke: #038048; stroke-width: 1.0;"/><text fill="#000000" font-family="sans-serif" font-size="11" lengthAdjust="spacingAndGlyphs" textLength="135" x="52.5" y="463.4502">setReplaying(boolean): void</text><ellipse cx="43.5" cy="472.8672" fill="#84BE84" rx="3" ry="3" style="stroke: #038048; stroke-width: 1.0;"/><text fill="#000000" font-family="sans-serif" font-size="11" lengthAdjust="spacingAndGlyphs" textLength="115" x="52.5" y="477.2861">getDirection(): Direction</text><ellipse cx="43.5" cy="486.7031" fill="#84BE84" rx="3" ry="3" style="stroke: #038048; stroke-width: 1.0;"/><text fill="#000000" font-family="sans-serif" font-size="11" lengthAdjust="spacingAndGlyphs" textLength="167" x="52.5" y="491.1221">setButtonSoundEvent(String): void</text><ellipse cx="43.5" cy="500.5391" fill="#84BE84" rx="3" ry="3" style="stroke: #038048; stroke-width: 1.0;"/><text fill="#000000" font-family="sans-serif" font-size="11" lengthAdjust="spacingAndGlyphs" textLength="147" x="52.5" y="504.958">getButtonSoundEvent(): String</text><ellipse cx="43.5" cy="514.375" fill="#84BE84" rx="3" ry="3" style="stroke: #038048; stroke-width: 1.0;"/><text fill="#000000" font-family="sans-serif" font-size="11" lengthAdjust="spacingAndGlyphs" textLength="118" x="52.5" y="518.7939">resetButtonEvent(): void</text></a><!--MD5=[1cd415b87c4eb40780b5759a7e2af137]
class nz.ac.vuw.ecs.swen225.gp20.application.Main--><a href="Main.html" target="_top" title="Main.html" xlink:actuate="onRequest" xlink:href="Main.html" xlink:show="new" xlink:title="Main.html" xlink:type="simple"><rect codeLine="23" fill="#FEFECE" filter="url(#f1vvvlna5fedag)" height="297.0469" id="nz.ac.vuw.ecs.swen225.gp20.application.Main" style="stroke: #A80036; stroke-width: 1.5;" width="161" x="328.5" y="235"/><ellipse cx="391.25" cy="251" fill="#ADD1B2" rx="11" ry="11" style="stroke: #A80036; stroke-width: 1.0;"/><path d="M394.0156,246.875 Q394.1719,246.6563 394.3594,246.5469 Q394.5469,246.4375 394.7656,246.4375 Q395.1406,246.4375 395.375,246.7031 Q395.6094,246.9531 395.6094,247.5625 L395.6094,249.0156 Q395.6094,249.625 395.375,249.8906 Q395.1406,250.1563 394.7656,250.1563 Q394.4219,250.1563 394.2188,249.9531 Q394.0156,249.7656 393.9063,249.25 Q393.8594,248.8906 393.6719,248.7031 Q393.3438,248.3281 392.7344,248.1094 Q392.125,247.8906 391.5,247.8906 Q390.7344,247.8906 390.0938,248.2188 Q389.4688,248.5469 388.9688,249.2969 Q388.4844,250.0469 388.4844,251.0781 L388.4844,252.1719 Q388.4844,253.4063 389.375,254.2344 Q390.2656,255.0469 391.8594,255.0469 Q392.7969,255.0469 393.4531,254.7969 Q393.8438,254.6406 394.2656,254.2031 Q394.5313,253.9375 394.6719,253.8594 Q394.8281,253.7813 395.0313,253.7813 Q395.3594,253.7813 395.6094,254.0469 Q395.875,254.2969 395.875,254.6406 Q395.875,254.9844 395.5313,255.3906 Q395.0313,255.9688 394.2344,256.2969 Q393.1563,256.75 391.8594,256.75 Q390.3438,256.75 389.1406,256.125 Q388.1563,255.625 387.4688,254.5625 Q386.7813,253.4844 386.7813,252.2031 L386.7813,251.0469 Q386.7813,249.7188 387.3906,248.5781 Q388.0156,247.4219 389.1094,246.8125 Q390.2031,246.1875 391.4375,246.1875 Q392.1719,246.1875 392.8125,246.3594 Q393.4688,246.5156 394.0156,246.875 Z "/><text fill="#000000" font-family="sans-serif" font-size="12" lengthAdjust="spacingAndGlyphs" textLength="27" x="411.75" y="255.9102">Main</text><line style="stroke: #A80036; stroke-width: 1.5;" x1="329.5" x2="488.5" y1="267" y2="267"/><line style="stroke: #A80036; stroke-width: 1.5;" x1="329.5" x2="488.5" y1="275" y2="275"/><ellipse cx="339.5" cy="286" fill="#84BE84" rx="3" ry="3" style="stroke: #038048; stroke-width: 1.0;"/><text fill="#000000" font-family="sans-serif" font-size="11" lengthAdjust="spacingAndGlyphs" textLength="54" x="348.5" y="290.4189">play(): void</text><ellipse cx="339.5" cy="299.8359" fill="#84BE84" rx="3" ry="3" style="stroke: #038048; stroke-width: 1.0;"/><text fill="#000000" font-family="sans-serif" font-size="11" lengthAdjust="spacingAndGlyphs" text-decoration="underline" textLength="91" x="348.5" y="304.2549">main(String[]): void</text><ellipse cx="339.5" cy="313.6719" fill="#84BE84" rx="3" ry="3" style="stroke: #038048; stroke-width: 1.0;"/><text fill="#000000" font-family="sans-serif" font-size="11" lengthAdjust="spacingAndGlyphs" textLength="109" x="348.5" y="318.0908">saveUnfinished(): void</text><ellipse cx="339.5" cy="327.5078" fill="#84BE84" rx="3" ry="3" style="stroke: #038048; stroke-width: 1.0;"/><text fill="#000000" font-family="sans-serif" font-size="11" lengthAdjust="spacingAndGlyphs" textLength="120" x="348.5" y="331.9268">saveCurrentState(): void</text><ellipse cx="339.5" cy="341.3438" fill="#84BE84" rx="3" ry="3" style="stroke: #038048; stroke-width: 1.0;"/><text fill="#000000" font-family="sans-serif" font-size="11" lengthAdjust="spacingAndGlyphs" textLength="105" x="348.5" y="345.7627">loadUnfinished(): void</text><ellipse cx="339.5" cy="355.1797" fill="#84BE84" rx="3" ry="3" style="stroke: #038048; stroke-width: 1.0;"/><text fill="#000000" font-family="sans-serif" font-size="11" lengthAdjust="spacingAndGlyphs" textLength="79" x="348.5" y="359.5986">loadLvl(int): void</text><ellipse cx="339.5" cy="369.0156" fill="#84BE84" rx="3" ry="3" style="stroke: #038048; stroke-width: 1.0;"/><text fill="#000000" font-family="sans-serif" font-size="11" lengthAdjust="spacingAndGlyphs" textLength="116" x="348.5" y="373.4346">loadCurrentState(): void</text><ellipse cx="339.5" cy="382.8516" fill="#84BE84" rx="3" ry="3" style="stroke: #038048; stroke-width: 1.0;"/><text fill="#000000" font-family="sans-serif" font-size="11" lengthAdjust="spacingAndGlyphs" textLength="92" x="348.5" y="387.2705">startRecord(): void</text><ellipse cx="339.5" cy="396.6875" fill="#84BE84" rx="3" ry="3" style="stroke: #038048; stroke-width: 1.0;"/><text fill="#000000" font-family="sans-serif" font-size="11" lengthAdjust="spacingAndGlyphs" textLength="91" x="348.5" y="401.1064">stopRecord(): void</text><ellipse cx="339.5" cy="410.5234" fill="#84BE84" rx="3" ry="3" style="stroke: #038048; stroke-width: 1.0;"/><text fill="#000000" font-family="sans-serif" font-size="11" lengthAdjust="spacingAndGlyphs" textLength="64" x="348.5" y="414.9424">replay(): void</text><ellipse cx="339.5" cy="424.3594" fill="#84BE84" rx="3" ry="3" style="stroke: #038048; stroke-width: 1.0;"/><text fill="#000000" font-family="sans-serif" font-size="11" lengthAdjust="spacingAndGlyphs" textLength="55" x="348.5" y="428.7783">step(): void</text><ellipse cx="339.5" cy="438.1953" fill="#84BE84" rx="3" ry="3" style="stroke: #038048; stroke-width: 1.0;"/><text fill="#000000" font-family="sans-serif" font-size="11" lengthAdjust="spacingAndGlyphs" textLength="95" x="348.5" y="442.6143">runMove(): boolean</text><ellipse cx="339.5" cy="452.0313" fill="#84BE84" rx="3" ry="3" style="stroke: #038048; stroke-width: 1.0;"/><text fill="#000000" font-family="sans-serif" font-size="11" lengthAdjust="spacingAndGlyphs" textLength="83" x="348.5" y="456.4502">getMaze(): Maze</text><ellipse cx="339.5" cy="465.8672" fill="#84BE84" rx="3" ry="3" style="stroke: #038048; stroke-width: 1.0;"/><text fill="#000000" font-family="sans-serif" font-size="11" lengthAdjust="spacingAndGlyphs" textLength="91" x="348.5" y="470.2861">setSpeed(int): void</text><ellipse cx="339.5" cy="479.7031" fill="#84BE84" rx="3" ry="3" style="stroke: #038048; stroke-width: 1.0;"/><text fill="#000000" font-family="sans-serif" font-size="11" lengthAdjust="spacingAndGlyphs" textLength="71" x="348.5" y="484.1221">getSpeed(): int</text><ellipse cx="339.5" cy="493.5391" fill="#84BE84" rx="3" ry="3" style="stroke: #038048; stroke-width: 1.0;"/><text fill="#000000" font-family="sans-serif" font-size="11" lengthAdjust="spacingAndGlyphs" textLength="120" x="348.5" y="497.958">movePlayer(String): void</text><ellipse cx="339.5" cy="507.375" fill="#84BE84" rx="3" ry="3" style="stroke: #038048; stroke-width: 1.0;"/><text fill="#000000" font-family="sans-serif" font-size="11" lengthAdjust="spacingAndGlyphs" textLength="135" x="348.5" y="511.7939">setTimeRemaining(int): void</text><ellipse cx="339.5" cy="521.2109" fill="#84BE84" rx="3" ry="3" style="stroke: #038048; stroke-width: 1.0;"/><text fill="#000000" font-family="sans-serif" font-size="11" lengthAdjust="spacingAndGlyphs" textLength="115" x="348.5" y="525.6299">getTimeRemaining(): int</text></a><!--MD5=[bbb39b51ff2a9a9cbbc850d5e118d13f]
class nz.ac.vuw.ecs.swen225.gp20.application.MouseManager--><a href="MouseManager.html" target="_top" title="MouseManager.html" xlink:actuate="onRequest" xlink:href="MouseManager.html" xlink:show="new" xlink:title="MouseManager.html" xlink:type="simple"><rect codeLine="44" fill="#FEFECE" filter="url(#f1vvvlna5fedag)" height="117.1797" id="nz.ac.vuw.ecs.swen225.gp20.application.MouseManager" style="stroke: #A80036; stroke-width: 1.5;" width="200" x="525" y="325"/><ellipse cx="577.75" cy="341" fill="#ADD1B2" rx="11" ry="11" style="stroke: #A80036; stroke-width: 1.0;"/><path d="M580.5156,336.875 Q580.6719,336.6563 580.8594,336.5469 Q581.0469,336.4375 581.2656,336.4375 Q581.6406,336.4375 581.875,336.7031 Q582.1094,336.9531 582.1094,337.5625 L582.1094,339.0156 Q582.1094,339.625 581.875,339.8906 Q581.6406,340.1563 581.2656,340.1563 Q580.9219,340.1563 580.7188,339.9531 Q580.5156,339.7656 580.4063,339.25 Q580.3594,338.8906 580.1719,338.7031 Q579.8438,338.3281 579.2344,338.1094 Q578.625,337.8906 578,337.8906 Q577.2344,337.8906 576.5938,338.2188 Q575.9688,338.5469 575.4688,339.2969 Q574.9844,340.0469 574.9844,341.0781 L574.9844,342.1719 Q574.9844,343.4063 575.875,344.2344 Q576.7656,345.0469 578.3594,345.0469 Q579.2969,345.0469 579.9531,344.7969 Q580.3438,344.6406 580.7656,344.2031 Q581.0313,343.9375 581.1719,343.8594 Q581.3281,343.7813 581.5313,343.7813 Q581.8594,343.7813 582.1094,344.0469 Q582.375,344.2969 582.375,344.6406 Q582.375,344.9844 582.0313,345.3906 Q581.5313,345.9688 580.7344,346.2969 Q579.6563,346.75 578.3594,346.75 Q576.8438,346.75 575.6406,346.125 Q574.6563,345.625 573.9688,344.5625 Q573.2813,343.4844 573.2813,342.2031 L573.2813,341.0469 Q573.2813,339.7188 573.8906,338.5781 Q574.5156,337.4219 575.6094,336.8125 Q576.7031,336.1875 577.9375,336.1875 Q578.6719,336.1875 579.3125,336.3594 Q579.9688,336.5156 580.5156,336.875 Z "/><text fill="#000000" font-family="sans-serif" font-size="12" lengthAdjust="spacingAndGlyphs" textLength="86" x="598.25" y="345.9102">MouseManager</text><line style="stroke: #A80036; stroke-width: 1.5;" x1="526" x2="724" y1="357" y2="357"/><line style="stroke: #A80036; stroke-width: 1.5;" x1="526" x2="724" y1="365" y2="365"/><ellipse cx="536" cy="376" fill="#84BE84" rx="3" ry="3" style="stroke: #038048; stroke-width: 1.0;"/><text fill="#000000" font-family="sans-serif" font-size="11" lengthAdjust="spacingAndGlyphs" textLength="164" x="545" y="380.4189">mouseClicked(MouseEvent): void</text><ellipse cx="536" cy="389.8359" fill="#84BE84" rx="3" ry="3" style="stroke: #038048; stroke-width: 1.0;"/><text fill="#000000" font-family="sans-serif" font-size="11" lengthAdjust="spacingAndGlyphs" textLength="169" x="545" y="394.2549">mousePressed(MouseEvent): void</text><ellipse cx="536" cy="403.6719" fill="#84BE84" rx="3" ry="3" style="stroke: #038048; stroke-width: 1.0;"/><text fill="#000000" font-family="sans-serif" font-size="11" lengthAdjust="spacingAndGlyphs" textLength="174" x="545" y="408.0908">mouseReleased(MouseEvent): void</text><ellipse cx="536" cy="417.5078" fill="#84BE84" rx="3" ry="3" style="stroke: #038048; stroke-width: 1.0;"/><text fill="#000000" font-family="sans-serif" font-size="11" lengthAdjust="spacingAndGlyphs" textLength="166" x="545" y="421.9268">mouseEntered(MouseEvent): void</text><ellipse cx="536" cy="431.3438" fill="#84BE84" rx="3" ry="3" style="stroke: #038048; stroke-width: 1.0;"/><text fill="#000000" font-family="sans-serif" font-size="11" lengthAdjust="spacingAndGlyphs" textLength="158" x="545" y="435.7627">mouseExited(MouseEvent): void</text></a><!--MD5=[56a185cb33bdc7c23303e5865f20a19b]
class javax.swing.JPanel--><rect codeLine="58" fill="#FEFECE" filter="url(#f1vvvlna5fedag)" height="48" id="javax.swing.JPanel" style="stroke: #A80036; stroke-width: 1.5;" width="70" x="128" y="76.5"/><ellipse cx="143" cy="92.5" fill="#ADD1B2" rx="11" ry="11" style="stroke: #A80036; stroke-width: 1.0;"/><path d="M145.7656,88.375 Q145.9219,88.1563 146.1094,88.0469 Q146.2969,87.9375 146.5156,87.9375 Q146.8906,87.9375 147.125,88.2031 Q147.3594,88.4531 147.3594,89.0625 L147.3594,90.5156 Q147.3594,91.125 147.125,91.3906 Q146.8906,91.6563 146.5156,91.6563 Q146.1719,91.6563 145.9688,91.4531 Q145.7656,91.2656 145.6563,90.75 Q145.6094,90.3906 145.4219,90.2031 Q145.0938,89.8281 144.4844,89.6094 Q143.875,89.3906 143.25,89.3906 Q142.4844,89.3906 141.8438,89.7188 Q141.2188,90.0469 140.7188,90.7969 Q140.2344,91.5469 140.2344,92.5781 L140.2344,93.6719 Q140.2344,94.9063 141.125,95.7344 Q142.0156,96.5469 143.6094,96.5469 Q144.5469,96.5469 145.2031,96.2969 Q145.5938,96.1406 146.0156,95.7031 Q146.2813,95.4375 146.4219,95.3594 Q146.5781,95.2813 146.7813,95.2813 Q147.1094,95.2813 147.3594,95.5469 Q147.625,95.7969 147.625,96.1406 Q147.625,96.4844 147.2813,96.8906 Q146.7813,97.4688 145.9844,97.7969 Q144.9063,98.25 143.6094,98.25 Q142.0938,98.25 140.8906,97.625 Q139.9063,97.125 139.2188,96.0625 Q138.5313,94.9844 138.5313,93.7031 L138.5313,92.5469 Q138.5313,91.2188 139.1406,90.0781 Q139.7656,88.9219 140.8594,88.3125 Q141.9531,87.6875 143.1875,87.6875 Q143.9219,87.6875 144.5625,87.8594 Q145.2188,88.0156 145.7656,88.375 Z "/><text fill="#000000" font-family="sans-serif" font-size="12" lengthAdjust="spacingAndGlyphs" textLength="38" x="157" y="97.4102">JPanel</text><line style="stroke: #A80036; stroke-width: 1.5;" x1="129" x2="197" y1="108.5" y2="108.5"/><line style="stroke: #A80036; stroke-width: 1.5;" x1="129" x2="197" y1="116.5" y2="116.5"/><!--MD5=[3eb55d915ce4c988cc6fe2a782a0fcdf]
class java.awt.event.KeyListener--><rect codeLine="63" fill="#FEFECE" filter="url(#f1vvvlna5fedag)" height="89.5078" id="java.awt.event.KeyListener" style="stroke: #A80036; stroke-width: 1.5;" width="171" x="286.5" y="55.5"/><ellipse cx="335.25" cy="71.5" fill="#B4A7E5" rx="11" ry="11" style="stroke: #A80036; stroke-width: 1.0;"/><path d="M336.2031,68.1406 L336.2031,74.7969 L337.9219,74.7969 Q338.5313,74.7969 338.7969,75.0313 Q339.0625,75.2656 339.0625,75.6563 Q339.0625,76.0313 338.7969,76.2656 Q338.5313,76.5 337.9219,76.5 L332.7813,76.5 Q332.1719,76.5 331.9063,76.2656 Q331.6406,76.0313 331.6406,75.6406 Q331.6406,75.2656 331.9063,75.0313 Q332.1719,74.7969 332.7813,74.7969 L334.5,74.7969 L334.5,68.1406 L332.7813,68.1406 Q332.1719,68.1406 331.9063,67.9063 Q331.6406,67.6719 331.6406,67.2813 Q331.6406,66.9063 331.9063,66.6719 Q332.1719,66.4375 332.7813,66.4375 L337.9219,66.4375 Q338.5313,66.4375 338.7969,66.6719 Q339.0625,66.9063 339.0625,67.2813 Q339.0625,67.6719 338.7969,67.9063 Q338.5313,68.1406 337.9219,68.1406 L336.2031,68.1406 Z "/><text fill="#000000" font-family="sans-serif" font-size="12" font-style="italic" lengthAdjust="spacingAndGlyphs" textLength="65" x="355.75" y="76.4102">KeyListener</text><line style="stroke: #A80036; stroke-width: 1.5;" x1="287.5" x2="456.5" y1="87.5" y2="87.5"/><line style="stroke: #A80036; stroke-width: 1.5;" x1="287.5" x2="456.5" y1="95.5" y2="95.5"/><ellipse cx="297.5" cy="106.5" fill="#84BE84" rx="3" ry="3" style="stroke: #038048; stroke-width: 1.0;"/><text fill="#000000" font-family="sans-serif" font-size="11" font-style="italic" lengthAdjust="spacingAndGlyphs" textLength="130" x="306.5" y="110.9189">keyTyped(KeyEvent): void</text><ellipse cx="297.5" cy="120.3359" fill="#84BE84" rx="3" ry="3" style="stroke: #038048; stroke-width: 1.0;"/><text fill="#000000" font-family="sans-serif" font-size="11" font-style="italic" lengthAdjust="spacingAndGlyphs" textLength="140" x="306.5" y="124.7549">keyPressed(KeyEvent): void</text><ellipse cx="297.5" cy="134.1719" fill="#84BE84" rx="3" ry="3" style="stroke: #038048; stroke-width: 1.0;"/><text fill="#000000" font-family="sans-serif" font-size="11" font-style="italic" lengthAdjust="spacingAndGlyphs" textLength="145" x="306.5" y="138.5908">keyReleased(KeyEvent): void</text><!--MD5=[da93d464c7abf89634cf306b9e3855c2]
class java.awt.event.MouseListener--><rect codeLine="68" fill="#FEFECE" filter="url(#f1vvvlna5fedag)" height="117.1797" id="java.awt.event.MouseListener" style="stroke: #A80036; stroke-width: 1.5;" width="200" x="493" y="42"/><ellipse cx="548.25" cy="58" fill="#B4A7E5" rx="11" ry="11" style="stroke: #A80036; stroke-width: 1.0;"/><path d="M549.2031,54.6406 L549.2031,61.2969 L550.9219,61.2969 Q551.5313,61.2969 551.7969,61.5313 Q552.0625,61.7656 552.0625,62.1563 Q552.0625,62.5313 551.7969,62.7656 Q551.5313,63 550.9219,63 L545.7813,63 Q545.1719,63 544.9063,62.7656 Q544.6406,62.5313 544.6406,62.1406 Q544.6406,61.7656 544.9063,61.5313 Q545.1719,61.2969 545.7813,61.2969 L547.5,61.2969 L547.5,54.6406 L545.7813,54.6406 Q545.1719,54.6406 544.9063,54.4063 Q544.6406,54.1719 544.6406,53.7813 Q544.6406,53.4063 544.9063,53.1719 Q545.1719,52.9375 545.7813,52.9375 L550.9219,52.9375 Q551.5313,52.9375 551.7969,53.1719 Q552.0625,53.4063 552.0625,53.7813 Q552.0625,54.1719 551.7969,54.4063 Q551.5313,54.6406 550.9219,54.6406 L549.2031,54.6406 Z "/><text fill="#000000" font-family="sans-serif" font-size="12" font-style="italic" lengthAdjust="spacingAndGlyphs" textLength="81" x="568.75" y="62.9102">MouseListener</text><line style="stroke: #A80036; stroke-width: 1.5;" x1="494" x2="692" y1="74" y2="74"/><line style="stroke: #A80036; stroke-width: 1.5;" x1="494" x2="692" y1="82" y2="82"/><ellipse cx="504" cy="93" fill="#84BE84" rx="3" ry="3" style="stroke: #038048; stroke-width: 1.0;"/><text fill="#000000" font-family="sans-serif" font-size="11" font-style="italic" lengthAdjust="spacingAndGlyphs" textLength="164" x="513" y="97.4189">mouseClicked(MouseEvent): void</text><ellipse cx="504" cy="106.8359" fill="#84BE84" rx="3" ry="3" style="stroke: #038048; stroke-width: 1.0;"/><text fill="#000000" font-family="sans-serif" font-size="11" font-style="italic" lengthAdjust="spacingAndGlyphs" textLength="169" x="513" y="111.2549">mousePressed(MouseEvent): void</text><ellipse cx="504" cy="120.6719" fill="#84BE84" rx="3" ry="3" style="stroke: #038048; stroke-width: 1.0;"/><text fill="#000000" font-family="sans-serif" font-size="11" font-style="italic" lengthAdjust="spacingAndGlyphs" textLength="174" x="513" y="125.0908">mouseReleased(MouseEvent): void</text><ellipse cx="504" cy="134.5078" fill="#84BE84" rx="3" ry="3" style="stroke: #038048; stroke-width: 1.0;"/><text fill="#000000" font-family="sans-serif" font-size="11" font-style="italic" lengthAdjust="spacingAndGlyphs" textLength="166" x="513" y="138.9268">mouseEntered(MouseEvent): void</text><ellipse cx="504" cy="148.3438" fill="#84BE84" rx="3" ry="3" style="stroke: #038048; stroke-width: 1.0;"/><text fill="#000000" font-family="sans-serif" font-size="11" font-style="italic" lengthAdjust="spacingAndGlyphs" textLength="158" x="513" y="152.7627">mouseExited(MouseEvent): void</text><!--MD5=[20478c24039e830d5be2b3d2be938a24]
reverse link javax.swing.JPanel to nz.ac.vuw.ecs.swen225.gp20.application.GUI--><path codeLine="52" d="M163,145.23 C163,171.56 163,206.72 163,241.89 " fill="none" id="javax.swing.JPanel-backto-nz.ac.vuw.ecs.swen225.gp20.application.GUI" style="stroke: #A80036; stroke-width: 1.0;"/><polygon fill="none" points="156,144.97,163,124.97,170,144.97,156,144.97" style="stroke: #A80036; stroke-width: 1.0;"/><!--MD5=[e2a073e456c68ffa298ed31dfb0eac3f]
reverse link java.awt.event.KeyListener to nz.ac.vuw.ecs.swen225.gp20.application.GUI--><path codeLine="53" d="M326.97,162.04 C309.42,185.64 288.51,213.75 267.6,241.86 " fill="none" id="java.awt.event.KeyListener-backto-nz.ac.vuw.ecs.swen225.gp20.application.GUI" style="stroke: #A80036; stroke-width: 1.0; stroke-dasharray: 7.0,7.0;"/><polygon fill="none" points="321.56,157.59,339.11,145.72,332.79,165.94,321.56,157.59" style="stroke: #A80036; stroke-width: 1.0;"/><!--MD5=[0985dad27b664d2b3c9be692b3455d87]
reverse link java.awt.event.MouseListener to nz.ac.vuw.ecs.swen225.gp20.application.MouseManager--><path codeLine="54" d="M601.82,178.97 C607.07,225.01 613.61,282.45 618.4,324.55 " fill="none" id="java.awt.event.MouseListener-backto-nz.ac.vuw.ecs.swen225.gp20.application.MouseManager" style="stroke: #A80036; stroke-width: 1.0; stroke-dasharray: 7.0,7.0;"/><polygon fill="none" points="594.86,179.71,599.55,159.04,608.77,178.12,594.86,179.71" style="stroke: #A80036; stroke-width: 1.0;"/><text fill="#888888" font-family="sans-serif" font-size="10" lengthAdjust="spacingAndGlyphs" textLength="185" x="280" y="564.3809">UMLDoclet 2.0.12, PlantUML 1.2020.16</text><!--MD5=[60f610037aa5d252febe5af7f75aab89]
@startuml
    namespace nz.ac.vuw.ecs.swen225.gp20.application {

        class GUI [[GUI.html]] {
            +GUI(Main)
            +drawToScreen(): void
            +formatButton(JButton, String, int, int, int, int): void
            +keyPressed(KeyEvent): void
            +keyReleased(KeyEvent): void
            +keyTyped(KeyEvent): void
            +getImageGraphics(): Graphics2D
            +setGameState(int): void
            +getGameState(): int
            +isRecording(): boolean
            +stopRecording(): void
            +isReplaying(): boolean
            +setReplaying(boolean): void
            +getDirection(): Direction
            +setButtonSoundEvent(String): void
            +getButtonSoundEvent(): String
            +resetButtonEvent(): void
        }

        class Main [[Main.html]] {
            +play(): void
            {static} +main(String[]): void
            +saveUnfinished(): void
            +saveCurrentState(): void
            +loadUnfinished(): void
            +loadLvl(int): void
            +loadCurrentState(): void
            +startRecord(): void
            +stopRecord(): void
            +replay(): void
            +step(): void
            +runMove(): boolean
            +getMaze(): Maze
            +setSpeed(int): void
            +getSpeed(): int
            +movePlayer(String): void
            +setTimeRemaining(int): void
            +getTimeRemaining(): int
        }

        class MouseManager [[MouseManager.html]] {
            +mouseClicked(MouseEvent): void
            +mousePressed(MouseEvent): void
            +mouseReleased(MouseEvent): void
            +mouseEntered(MouseEvent): void
            +mouseExited(MouseEvent): void
        }

        javax.swing.JPanel <|- - GUI
        java.awt.event.KeyListener <|.. GUI
        java.awt.event.MouseListener <|.. MouseManager
    }

    namespace javax.swing {
        class JPanel {
        }
    }

    namespace java.awt.event {
        interface KeyListener {
            {abstract} +keyTyped(KeyEvent): void
            {abstract} +keyPressed(KeyEvent): void
            {abstract} +keyReleased(KeyEvent): void
        }
        interface MouseListener {
            {abstract} +mouseClicked(MouseEvent): void
            {abstract} +mousePressed(MouseEvent): void
            {abstract} +mouseReleased(MouseEvent): void
            {abstract} +mouseEntered(MouseEvent): void
            {abstract} +mouseExited(MouseEvent): void
        }
    }

    center footer UMLDoclet 2.0.12, PlantUML 1.2020.16
@enduml

PlantUML version 1.2020.16(Mon Aug 24 08:20:43 NZST 2020)
(APACHE source distribution)
Java Runtime: Java(TM) SE Runtime Environment
JVM: Java HotSpot(TM) 64-Bit Server VM
Default Encoding: Cp1252
Language: en
Country: NZ
--></g></svg>