<?xml version="1.0" encoding="UTF-8" standalone="no"?><svg xmlns="http://www.w3.org/2000/svg" xmlns:xlink="http://www.w3.org/1999/xlink" contentScriptType="application/ecmascript" contentStyleType="text/css" height="563px" preserveAspectRatio="none" style="width:763px;height:563px;" version="1.1" viewBox="0 0 763 563" width="763px" zoomAndPan="magnify"><defs><filter height="300%" id="f1piwf5befd9b6" width="300%" x="-1" y="-1"><feGaussianBlur result="blurOut" stdDeviation="2.0"/><feColorMatrix in="blurOut" result="blurOut2" type="matrix" values="0 0 0 0 0 0 0 0 0 0 0 0 0 0 0 0 0 0 .4 0"/><feOffset dx="4.0" dy="4.0" in="blurOut2" result="blurOut3"/><feBlend in="SourceGraphic" in2="blurOut3" mode="normal"/></filter></defs><g><!--MD5=[6a4c4b98b387dd0cbcc4ee9dbc28d3b2]
cluster nz.ac.vuw.ecs.swen225.gp20.application--><polygon fill="#FFFFFF" filter="url(#f1piwf5befd9b6)" points="16,199,301,199,308,222.6094,741,222.6094,741,534,16,534,16,199" style="stroke: #000000; stroke-width: 1.5;"/><line style="stroke: #000000; stroke-width: 1.5;" x1="16" x2="308" y1="222.6094" y2="222.6094"/><text fill="#000000" font-family="sans-serif" font-size="14" font-weight="bold" lengthAdjust="spacingAndGlyphs" textLength="279" x="20" y="215.5332">nz.ac.vuw.ecs.swen225.gp20.application</text><!--MD5=[535aab4de90d4dfa371a9b40d5438fc3]
cluster javax.swing--><polygon fill="#FFFFFF" filter="url(#f1piwf5befd9b6)" points="131,40.5,218,40.5,225,64.1094,233,64.1094,233,140.5,131,140.5,131,40.5" style="stroke: #000000; stroke-width: 1.5;"/><line style="stroke: #000000; stroke-width: 1.5;" x1="131" x2="225" y1="64.1094" y2="64.1094"/><text fill="#000000" font-family="sans-serif" font-size="14" font-weight="bold" lengthAdjust="spacingAndGlyphs" textLength="81" x="135" y="57.0332">javax.swing</text><!--MD5=[d63c23c2d4b14118d71bd46d55a646bd]
cluster java.awt.event--><polygon fill="#FFFFFF" filter="url(#f1piwf5befd9b6)" points="257,6,361,6,368,29.6094,696,29.6094,696,175,257,175,257,6" style="stroke: #000000; stroke-width: 1.5;"/><line style="stroke: #000000; stroke-width: 1.5;" x1="257" x2="368" y1="29.6094" y2="29.6094"/><text fill="#000000" font-family="sans-serif" font-size="14" font-weight="bold" lengthAdjust="spacingAndGlyphs" textLength="98" x="261" y="22.5332">java.awt.event</text><!--MD5=[f1f873bc69cea6fe32b98027a6ba0e3d]
class nz.ac.vuw.ecs.swen225.gp20.application.GUI--><a href="GUI.html" target="_top" title="GUI.html" xlink:actuate="onRequest" xlink:href="GUI.html" xlink:show="new" xlink:title="GUI.html" xlink:type="simple"><rect codeLine="3" fill="#FEFECE" filter="url(#f1piwf5befd9b6)" height="283.2109" id="nz.ac.vuw.ecs.swen225.gp20.application.GUI" style="stroke: #A80036; stroke-width: 1.5;" width="261" x="463.5" y="235"/><ellipse cx="579.25" cy="251" fill="#ADD1B2" rx="11" ry="11" style="stroke: #A80036; stroke-width: 1.0;"/><path d="M582.0156,246.875 Q582.1719,246.6563 582.3594,246.5469 Q582.5469,246.4375 582.7656,246.4375 Q583.1406,246.4375 583.375,246.7031 Q583.6094,246.9531 583.6094,247.5625 L583.6094,249.0156 Q583.6094,249.625 583.375,249.8906 Q583.1406,250.1563 582.7656,250.1563 Q582.4219,250.1563 582.2188,249.9531 Q582.0156,249.7656 581.9063,249.25 Q581.8594,248.8906 581.6719,248.7031 Q581.3438,248.3281 580.7344,248.1094 Q580.125,247.8906 579.5,247.8906 Q578.7344,247.8906 578.0938,248.2188 Q577.4688,248.5469 576.9688,249.2969 Q576.4844,250.0469 576.4844,251.0781 L576.4844,252.1719 Q576.4844,253.4063 577.375,254.2344 Q578.2656,255.0469 579.8594,255.0469 Q580.7969,255.0469 581.4531,254.7969 Q581.8438,254.6406 582.2656,254.2031 Q582.5313,253.9375 582.6719,253.8594 Q582.8281,253.7813 583.0313,253.7813 Q583.3594,253.7813 583.6094,254.0469 Q583.875,254.2969 583.875,254.6406 Q583.875,254.9844 583.5313,255.3906 Q583.0313,255.9688 582.2344,256.2969 Q581.1563,256.75 579.8594,256.75 Q578.3438,256.75 577.1406,256.125 Q576.1563,255.625 575.4688,254.5625 Q574.7813,253.4844 574.7813,252.2031 L574.7813,251.0469 Q574.7813,249.7188 575.3906,248.5781 Q576.0156,247.4219 577.1094,246.8125 Q578.2031,246.1875 579.4375,246.1875 Q580.1719,246.1875 580.8125,246.3594 Q581.4688,246.5156 582.0156,246.875 Z "/><text fill="#000000" font-family="sans-serif" font-size="12" lengthAdjust="spacingAndGlyphs" textLength="21" x="599.75" y="255.9102">GUI</text><line style="stroke: #A80036; stroke-width: 1.5;" x1="464.5" x2="723.5" y1="267" y2="267"/><line style="stroke: #A80036; stroke-width: 1.5;" x1="464.5" x2="723.5" y1="275" y2="275"/><ellipse cx="474.5" cy="286" fill="#84BE84" rx="3" ry="3" style="stroke: #038048; stroke-width: 1.0;"/><text fill="#000000" font-family="sans-serif" font-size="11" lengthAdjust="spacingAndGlyphs" textLength="51" x="483.5" y="290.4189">GUI(Main)</text><ellipse cx="474.5" cy="299.8359" fill="#84BE84" rx="3" ry="3" style="stroke: #038048; stroke-width: 1.0;"/><text fill="#000000" font-family="sans-serif" font-size="11" lengthAdjust="spacingAndGlyphs" textLength="106" x="483.5" y="304.2549">drawToScreen(): void</text><ellipse cx="474.5" cy="313.6719" fill="#84BE84" rx="3" ry="3" style="stroke: #038048; stroke-width: 1.0;"/><text fill="#000000" font-family="sans-serif" font-size="11" lengthAdjust="spacingAndGlyphs" textLength="235" x="483.5" y="318.0908">formatButton(JButton, String, int, int, int, int): void</text><ellipse cx="474.5" cy="327.5078" fill="#84BE84" rx="3" ry="3" style="stroke: #038048; stroke-width: 1.0;"/><text fill="#000000" font-family="sans-serif" font-size="11" lengthAdjust="spacingAndGlyphs" textLength="140" x="483.5" y="331.9268">keyPressed(KeyEvent): void</text><ellipse cx="474.5" cy="341.3438" fill="#84BE84" rx="3" ry="3" style="stroke: #038048; stroke-width: 1.0;"/><text fill="#000000" font-family="sans-serif" font-size="11" lengthAdjust="spacingAndGlyphs" textLength="145" x="483.5" y="345.7627">keyReleased(KeyEvent): void</text><ellipse cx="474.5" cy="355.1797" fill="#84BE84" rx="3" ry="3" style="stroke: #038048; stroke-width: 1.0;"/><text fill="#000000" font-family="sans-serif" font-size="11" lengthAdjust="spacingAndGlyphs" textLength="130" x="483.5" y="359.5986">keyTyped(KeyEvent): void</text><ellipse cx="474.5" cy="369.0156" fill="#84BE84" rx="3" ry="3" style="stroke: #038048; stroke-width: 1.0;"/><text fill="#000000" font-family="sans-serif" font-size="11" lengthAdjust="spacingAndGlyphs" textLength="163" x="483.5" y="373.4346">getImageGraphics(): Graphics2D</text><ellipse cx="474.5" cy="382.8516" fill="#84BE84" rx="3" ry="3" style="stroke: #038048; stroke-width: 1.0;"/><text fill="#000000" font-family="sans-serif" font-size="11" lengthAdjust="spacingAndGlyphs" textLength="115" x="483.5" y="387.2705">setGameState(int): void</text><ellipse cx="474.5" cy="396.6875" fill="#84BE84" rx="3" ry="3" style="stroke: #038048; stroke-width: 1.0;"/><text fill="#000000" font-family="sans-serif" font-size="11" lengthAdjust="spacingAndGlyphs" textLength="95" x="483.5" y="401.1064">getGameState(): int</text><ellipse cx="474.5" cy="410.5234" fill="#84BE84" rx="3" ry="3" style="stroke: #038048; stroke-width: 1.0;"/><text fill="#000000" font-family="sans-serif" font-size="11" lengthAdjust="spacingAndGlyphs" textLength="110" x="483.5" y="414.9424">isRecording(): boolean</text><ellipse cx="474.5" cy="424.3594" fill="#84BE84" rx="3" ry="3" style="stroke: #038048; stroke-width: 1.0;"/><text fill="#000000" font-family="sans-serif" font-size="11" lengthAdjust="spacingAndGlyphs" textLength="105" x="483.5" y="428.7783">stopRecording(): void</text><ellipse cx="474.5" cy="438.1953" fill="#84BE84" rx="3" ry="3" style="stroke: #038048; stroke-width: 1.0;"/><text fill="#000000" font-family="sans-serif" font-size="11" lengthAdjust="spacingAndGlyphs" textLength="108" x="483.5" y="442.6143">isReplaying(): boolean</text><ellipse cx="474.5" cy="452.0313" fill="#84BE84" rx="3" ry="3" style="stroke: #038048; stroke-width: 1.0;"/><text fill="#000000" font-family="sans-serif" font-size="11" lengthAdjust="spacingAndGlyphs" textLength="135" x="483.5" y="456.4502">setReplaying(boolean): void</text><ellipse cx="474.5" cy="465.8672" fill="#84BE84" rx="3" ry="3" style="stroke: #038048; stroke-width: 1.0;"/><text fill="#000000" font-family="sans-serif" font-size="11" lengthAdjust="spacingAndGlyphs" textLength="115" x="483.5" y="470.2861">getDirection(): Direction</text><ellipse cx="474.5" cy="479.7031" fill="#84BE84" rx="3" ry="3" style="stroke: #038048; stroke-width: 1.0;"/><text fill="#000000" font-family="sans-serif" font-size="11" lengthAdjust="spacingAndGlyphs" textLength="167" x="483.5" y="484.1221">setButtonSoundEvent(String): void</text><ellipse cx="474.5" cy="493.5391" fill="#84BE84" rx="3" ry="3" style="stroke: #038048; stroke-width: 1.0;"/><text fill="#000000" font-family="sans-serif" font-size="11" lengthAdjust="spacingAndGlyphs" textLength="147" x="483.5" y="497.958">getButtonSoundEvent(): String</text><ellipse cx="474.5" cy="507.375" fill="#84BE84" rx="3" ry="3" style="stroke: #038048; stroke-width: 1.0;"/><text fill="#000000" font-family="sans-serif" font-size="11" lengthAdjust="spacingAndGlyphs" textLength="118" x="483.5" y="511.7939">resetButtonEvent(): void</text></a><!--MD5=[1cd415b87c4eb40780b5759a7e2af137]
class nz.ac.vuw.ecs.swen225.gp20.application.Main--><a href="Main.html" target="_top" title="Main.html" xlink:actuate="onRequest" xlink:href="Main.html" xlink:show="new" xlink:title="Main.html" xlink:type="simple"><rect codeLine="23" fill="#FEFECE" filter="url(#f1piwf5befd9b6)" height="283.2109" id="nz.ac.vuw.ecs.swen225.gp20.application.Main" style="stroke: #A80036; stroke-width: 1.5;" width="161" x="267.5" y="235"/><ellipse cx="330.25" cy="251" fill="#ADD1B2" rx="11" ry="11" style="stroke: #A80036; stroke-width: 1.0;"/><path d="M333.0156,246.875 Q333.1719,246.6563 333.3594,246.5469 Q333.5469,246.4375 333.7656,246.4375 Q334.1406,246.4375 334.375,246.7031 Q334.6094,246.9531 334.6094,247.5625 L334.6094,249.0156 Q334.6094,249.625 334.375,249.8906 Q334.1406,250.1563 333.7656,250.1563 Q333.4219,250.1563 333.2188,249.9531 Q333.0156,249.7656 332.9063,249.25 Q332.8594,248.8906 332.6719,248.7031 Q332.3438,248.3281 331.7344,248.1094 Q331.125,247.8906 330.5,247.8906 Q329.7344,247.8906 329.0938,248.2188 Q328.4688,248.5469 327.9688,249.2969 Q327.4844,250.0469 327.4844,251.0781 L327.4844,252.1719 Q327.4844,253.4063 328.375,254.2344 Q329.2656,255.0469 330.8594,255.0469 Q331.7969,255.0469 332.4531,254.7969 Q332.8438,254.6406 333.2656,254.2031 Q333.5313,253.9375 333.6719,253.8594 Q333.8281,253.7813 334.0313,253.7813 Q334.3594,253.7813 334.6094,254.0469 Q334.875,254.2969 334.875,254.6406 Q334.875,254.9844 334.5313,255.3906 Q334.0313,255.9688 333.2344,256.2969 Q332.1563,256.75 330.8594,256.75 Q329.3438,256.75 328.1406,256.125 Q327.1563,255.625 326.4688,254.5625 Q325.7813,253.4844 325.7813,252.2031 L325.7813,251.0469 Q325.7813,249.7188 326.3906,248.5781 Q327.0156,247.4219 328.1094,246.8125 Q329.2031,246.1875 330.4375,246.1875 Q331.1719,246.1875 331.8125,246.3594 Q332.4688,246.5156 333.0156,246.875 Z "/><text fill="#000000" font-family="sans-serif" font-size="12" lengthAdjust="spacingAndGlyphs" textLength="27" x="350.75" y="255.9102">Main</text><line style="stroke: #A80036; stroke-width: 1.5;" x1="268.5" x2="427.5" y1="267" y2="267"/><line style="stroke: #A80036; stroke-width: 1.5;" x1="268.5" x2="427.5" y1="275" y2="275"/><ellipse cx="278.5" cy="286" fill="#84BE84" rx="3" ry="3" style="stroke: #038048; stroke-width: 1.0;"/><text fill="#000000" font-family="sans-serif" font-size="11" lengthAdjust="spacingAndGlyphs" textLength="54" x="287.5" y="290.4189">play(): void</text><ellipse cx="278.5" cy="299.8359" fill="#84BE84" rx="3" ry="3" style="stroke: #038048; stroke-width: 1.0;"/><text fill="#000000" font-family="sans-serif" font-size="11" lengthAdjust="spacingAndGlyphs" text-decoration="underline" textLength="91" x="287.5" y="304.2549">main(String[]): void</text><ellipse cx="278.5" cy="313.6719" fill="#84BE84" rx="3" ry="3" style="stroke: #038048; stroke-width: 1.0;"/><text fill="#000000" font-family="sans-serif" font-size="11" lengthAdjust="spacingAndGlyphs" textLength="109" x="287.5" y="318.0908">saveUnfinished(): void</text><ellipse cx="278.5" cy="327.5078" fill="#84BE84" rx="3" ry="3" style="stroke: #038048; stroke-width: 1.0;"/><text fill="#000000" font-family="sans-serif" font-size="11" lengthAdjust="spacingAndGlyphs" textLength="120" x="287.5" y="331.9268">saveCurrentState(): void</text><ellipse cx="278.5" cy="341.3438" fill="#84BE84" rx="3" ry="3" style="stroke: #038048; stroke-width: 1.0;"/><text fill="#000000" font-family="sans-serif" font-size="11" lengthAdjust="spacingAndGlyphs" textLength="105" x="287.5" y="345.7627">loadUnfinished(): void</text><ellipse cx="278.5" cy="355.1797" fill="#84BE84" rx="3" ry="3" style="stroke: #038048; stroke-width: 1.0;"/><text fill="#000000" font-family="sans-serif" font-size="11" lengthAdjust="spacingAndGlyphs" textLength="79" x="287.5" y="359.5986">loadLvl(int): void</text><ellipse cx="278.5" cy="369.0156" fill="#84BE84" rx="3" ry="3" style="stroke: #038048; stroke-width: 1.0;"/><text fill="#000000" font-family="sans-serif" font-size="11" lengthAdjust="spacingAndGlyphs" textLength="116" x="287.5" y="373.4346">loadCurrentState(): void</text><ellipse cx="278.5" cy="382.8516" fill="#84BE84" rx="3" ry="3" style="stroke: #038048; stroke-width: 1.0;"/><text fill="#000000" font-family="sans-serif" font-size="11" lengthAdjust="spacingAndGlyphs" textLength="92" x="287.5" y="387.2705">startRecord(): void</text><ellipse cx="278.5" cy="396.6875" fill="#84BE84" rx="3" ry="3" style="stroke: #038048; stroke-width: 1.0;"/><text fill="#000000" font-family="sans-serif" font-size="11" lengthAdjust="spacingAndGlyphs" textLength="91" x="287.5" y="401.1064">stopRecord(): void</text><ellipse cx="278.5" cy="410.5234" fill="#84BE84" rx="3" ry="3" style="stroke: #038048; stroke-width: 1.0;"/><text fill="#000000" font-family="sans-serif" font-size="11" lengthAdjust="spacingAndGlyphs" textLength="64" x="287.5" y="414.9424">replay(): void</text><ellipse cx="278.5" cy="424.3594" fill="#84BE84" rx="3" ry="3" style="stroke: #038048; stroke-width: 1.0;"/><text fill="#000000" font-family="sans-serif" font-size="11" lengthAdjust="spacingAndGlyphs" textLength="55" x="287.5" y="428.7783">step(): void</text><ellipse cx="278.5" cy="438.1953" fill="#84BE84" rx="3" ry="3" style="stroke: #038048; stroke-width: 1.0;"/><text fill="#000000" font-family="sans-serif" font-size="11" lengthAdjust="spacingAndGlyphs" textLength="95" x="287.5" y="442.6143">runMove(): boolean</text><ellipse cx="278.5" cy="452.0313" fill="#84BE84" rx="3" ry="3" style="stroke: #038048; stroke-width: 1.0;"/><text fill="#000000" font-family="sans-serif" font-size="11" lengthAdjust="spacingAndGlyphs" textLength="83" x="287.5" y="456.4502">getMaze(): Maze</text><ellipse cx="278.5" cy="465.8672" fill="#84BE84" rx="3" ry="3" style="stroke: #038048; stroke-width: 1.0;"/><text fill="#000000" font-family="sans-serif" font-size="11" lengthAdjust="spacingAndGlyphs" textLength="91" x="287.5" y="470.2861">setSpeed(int): void</text><ellipse cx="278.5" cy="479.7031" fill="#84BE84" rx="3" ry="3" style="stroke: #038048; stroke-width: 1.0;"/><text fill="#000000" font-family="sans-serif" font-size="11" lengthAdjust="spacingAndGlyphs" textLength="71" x="287.5" y="484.1221">getSpeed(): int</text><ellipse cx="278.5" cy="493.5391" fill="#84BE84" rx="3" ry="3" style="stroke: #038048; stroke-width: 1.0;"/><text fill="#000000" font-family="sans-serif" font-size="11" lengthAdjust="spacingAndGlyphs" textLength="135" x="287.5" y="497.958">setTimeRemaining(int): void</text><ellipse cx="278.5" cy="507.375" fill="#84BE84" rx="3" ry="3" style="stroke: #038048; stroke-width: 1.0;"/><text fill="#000000" font-family="sans-serif" font-size="11" lengthAdjust="spacingAndGlyphs" textLength="115" x="287.5" y="511.7939">getTimeRemaining(): int</text></a><!--MD5=[bbb39b51ff2a9a9cbbc850d5e118d13f]
class nz.ac.vuw.ecs.swen225.gp20.application.MouseManager--><a href="MouseManager.html" target="_top" title="MouseManager.html" xlink:actuate="onRequest" xlink:href="MouseManager.html" xlink:show="new" xlink:title="MouseManager.html" xlink:type="simple"><rect codeLine="43" fill="#FEFECE" filter="url(#f1piwf5befd9b6)" height="117.1797" id="nz.ac.vuw.ecs.swen225.gp20.application.MouseManager" style="stroke: #A80036; stroke-width: 1.5;" width="200" x="32" y="318"/><ellipse cx="84.75" cy="334" fill="#ADD1B2" rx="11" ry="11" style="stroke: #A80036; stroke-width: 1.0;"/><path d="M87.5156,329.875 Q87.6719,329.6563 87.8594,329.5469 Q88.0469,329.4375 88.2656,329.4375 Q88.6406,329.4375 88.875,329.7031 Q89.1094,329.9531 89.1094,330.5625 L89.1094,332.0156 Q89.1094,332.625 88.875,332.8906 Q88.6406,333.1563 88.2656,333.1563 Q87.9219,333.1563 87.7188,332.9531 Q87.5156,332.7656 87.4063,332.25 Q87.3594,331.8906 87.1719,331.7031 Q86.8438,331.3281 86.2344,331.1094 Q85.625,330.8906 85,330.8906 Q84.2344,330.8906 83.5938,331.2188 Q82.9688,331.5469 82.4688,332.2969 Q81.9844,333.0469 81.9844,334.0781 L81.9844,335.1719 Q81.9844,336.4063 82.875,337.2344 Q83.7656,338.0469 85.3594,338.0469 Q86.2969,338.0469 86.9531,337.7969 Q87.3438,337.6406 87.7656,337.2031 Q88.0313,336.9375 88.1719,336.8594 Q88.3281,336.7813 88.5313,336.7813 Q88.8594,336.7813 89.1094,337.0469 Q89.375,337.2969 89.375,337.6406 Q89.375,337.9844 89.0313,338.3906 Q88.5313,338.9688 87.7344,339.2969 Q86.6563,339.75 85.3594,339.75 Q83.8438,339.75 82.6406,339.125 Q81.6563,338.625 80.9688,337.5625 Q80.2813,336.4844 80.2813,335.2031 L80.2813,334.0469 Q80.2813,332.7188 80.8906,331.5781 Q81.5156,330.4219 82.6094,329.8125 Q83.7031,329.1875 84.9375,329.1875 Q85.6719,329.1875 86.3125,329.3594 Q86.9688,329.5156 87.5156,329.875 Z "/><text fill="#000000" font-family="sans-serif" font-size="12" lengthAdjust="spacingAndGlyphs" textLength="86" x="105.25" y="338.9102">MouseManager</text><line style="stroke: #A80036; stroke-width: 1.5;" x1="33" x2="231" y1="350" y2="350"/><line style="stroke: #A80036; stroke-width: 1.5;" x1="33" x2="231" y1="358" y2="358"/><ellipse cx="43" cy="369" fill="#84BE84" rx="3" ry="3" style="stroke: #038048; stroke-width: 1.0;"/><text fill="#000000" font-family="sans-serif" font-size="11" lengthAdjust="spacingAndGlyphs" textLength="164" x="52" y="373.4189">mouseClicked(MouseEvent): void</text><ellipse cx="43" cy="382.8359" fill="#84BE84" rx="3" ry="3" style="stroke: #038048; stroke-width: 1.0;"/><text fill="#000000" font-family="sans-serif" font-size="11" lengthAdjust="spacingAndGlyphs" textLength="169" x="52" y="387.2549">mousePressed(MouseEvent): void</text><ellipse cx="43" cy="396.6719" fill="#84BE84" rx="3" ry="3" style="stroke: #038048; stroke-width: 1.0;"/><text fill="#000000" font-family="sans-serif" font-size="11" lengthAdjust="spacingAndGlyphs" textLength="174" x="52" y="401.0908">mouseReleased(MouseEvent): void</text><ellipse cx="43" cy="410.5078" fill="#84BE84" rx="3" ry="3" style="stroke: #038048; stroke-width: 1.0;"/><text fill="#000000" font-family="sans-serif" font-size="11" lengthAdjust="spacingAndGlyphs" textLength="166" x="52" y="414.9268">mouseEntered(MouseEvent): void</text><ellipse cx="43" cy="424.3438" fill="#84BE84" rx="3" ry="3" style="stroke: #038048; stroke-width: 1.0;"/><text fill="#000000" font-family="sans-serif" font-size="11" lengthAdjust="spacingAndGlyphs" textLength="158" x="52" y="428.7627">mouseExited(MouseEvent): void</text></a><!--MD5=[56a185cb33bdc7c23303e5865f20a19b]
class javax.swing.JPanel--><rect codeLine="57" fill="#FEFECE" filter="url(#f1piwf5befd9b6)" height="48" id="javax.swing.JPanel" style="stroke: #A80036; stroke-width: 1.5;" width="70" x="147" y="76.5"/><ellipse cx="162" cy="92.5" fill="#ADD1B2" rx="11" ry="11" style="stroke: #A80036; stroke-width: 1.0;"/><path d="M164.7656,88.375 Q164.9219,88.1563 165.1094,88.0469 Q165.2969,87.9375 165.5156,87.9375 Q165.8906,87.9375 166.125,88.2031 Q166.3594,88.4531 166.3594,89.0625 L166.3594,90.5156 Q166.3594,91.125 166.125,91.3906 Q165.8906,91.6563 165.5156,91.6563 Q165.1719,91.6563 164.9688,91.4531 Q164.7656,91.2656 164.6563,90.75 Q164.6094,90.3906 164.4219,90.2031 Q164.0938,89.8281 163.4844,89.6094 Q162.875,89.3906 162.25,89.3906 Q161.4844,89.3906 160.8438,89.7188 Q160.2188,90.0469 159.7188,90.7969 Q159.2344,91.5469 159.2344,92.5781 L159.2344,93.6719 Q159.2344,94.9063 160.125,95.7344 Q161.0156,96.5469 162.6094,96.5469 Q163.5469,96.5469 164.2031,96.2969 Q164.5938,96.1406 165.0156,95.7031 Q165.2813,95.4375 165.4219,95.3594 Q165.5781,95.2813 165.7813,95.2813 Q166.1094,95.2813 166.3594,95.5469 Q166.625,95.7969 166.625,96.1406 Q166.625,96.4844 166.2813,96.8906 Q165.7813,97.4688 164.9844,97.7969 Q163.9063,98.25 162.6094,98.25 Q161.0938,98.25 159.8906,97.625 Q158.9063,97.125 158.2188,96.0625 Q157.5313,94.9844 157.5313,93.7031 L157.5313,92.5469 Q157.5313,91.2188 158.1406,90.0781 Q158.7656,88.9219 159.8594,88.3125 Q160.9531,87.6875 162.1875,87.6875 Q162.9219,87.6875 163.5625,87.8594 Q164.2188,88.0156 164.7656,88.375 Z "/><text fill="#000000" font-family="sans-serif" font-size="12" lengthAdjust="spacingAndGlyphs" textLength="38" x="176" y="97.4102">JPanel</text><line style="stroke: #A80036; stroke-width: 1.5;" x1="148" x2="216" y1="108.5" y2="108.5"/><line style="stroke: #A80036; stroke-width: 1.5;" x1="148" x2="216" y1="116.5" y2="116.5"/><!--MD5=[3eb55d915ce4c988cc6fe2a782a0fcdf]
class java.awt.event.KeyListener--><rect codeLine="62" fill="#FEFECE" filter="url(#f1piwf5befd9b6)" height="89.5078" id="java.awt.event.KeyListener" style="stroke: #A80036; stroke-width: 1.5;" width="171" x="508.5" y="55.5"/><ellipse cx="557.25" cy="71.5" fill="#B4A7E5" rx="11" ry="11" style="stroke: #A80036; stroke-width: 1.0;"/><path d="M558.2031,68.1406 L558.2031,74.7969 L559.9219,74.7969 Q560.5313,74.7969 560.7969,75.0313 Q561.0625,75.2656 561.0625,75.6563 Q561.0625,76.0313 560.7969,76.2656 Q560.5313,76.5 559.9219,76.5 L554.7813,76.5 Q554.1719,76.5 553.9063,76.2656 Q553.6406,76.0313 553.6406,75.6406 Q553.6406,75.2656 553.9063,75.0313 Q554.1719,74.7969 554.7813,74.7969 L556.5,74.7969 L556.5,68.1406 L554.7813,68.1406 Q554.1719,68.1406 553.9063,67.9063 Q553.6406,67.6719 553.6406,67.2813 Q553.6406,66.9063 553.9063,66.6719 Q554.1719,66.4375 554.7813,66.4375 L559.9219,66.4375 Q560.5313,66.4375 560.7969,66.6719 Q561.0625,66.9063 561.0625,67.2813 Q561.0625,67.6719 560.7969,67.9063 Q560.5313,68.1406 559.9219,68.1406 L558.2031,68.1406 Z "/><text fill="#000000" font-family="sans-serif" font-size="12" font-style="italic" lengthAdjust="spacingAndGlyphs" textLength="65" x="577.75" y="76.4102">KeyListener</text><line style="stroke: #A80036; stroke-width: 1.5;" x1="509.5" x2="678.5" y1="87.5" y2="87.5"/><line style="stroke: #A80036; stroke-width: 1.5;" x1="509.5" x2="678.5" y1="95.5" y2="95.5"/><ellipse cx="519.5" cy="106.5" fill="#84BE84" rx="3" ry="3" style="stroke: #038048; stroke-width: 1.0;"/><text fill="#000000" font-family="sans-serif" font-size="11" font-style="italic" lengthAdjust="spacingAndGlyphs" textLength="130" x="528.5" y="110.9189">keyTyped(KeyEvent): void</text><ellipse cx="519.5" cy="120.3359" fill="#84BE84" rx="3" ry="3" style="stroke: #038048; stroke-width: 1.0;"/><text fill="#000000" font-family="sans-serif" font-size="11" font-style="italic" lengthAdjust="spacingAndGlyphs" textLength="140" x="528.5" y="124.7549">keyPressed(KeyEvent): void</text><ellipse cx="519.5" cy="134.1719" fill="#84BE84" rx="3" ry="3" style="stroke: #038048; stroke-width: 1.0;"/><text fill="#000000" font-family="sans-serif" font-size="11" font-style="italic" lengthAdjust="spacingAndGlyphs" textLength="145" x="528.5" y="138.5908">keyReleased(KeyEvent): void</text><!--MD5=[da93d464c7abf89634cf306b9e3855c2]
class java.awt.event.MouseListener--><rect codeLine="67" fill="#FEFECE" filter="url(#f1piwf5befd9b6)" height="117.1797" id="java.awt.event.MouseListener" style="stroke: #A80036; stroke-width: 1.5;" width="200" x="273" y="42"/><ellipse cx="328.25" cy="58" fill="#B4A7E5" rx="11" ry="11" style="stroke: #A80036; stroke-width: 1.0;"/><path d="M329.2031,54.6406 L329.2031,61.2969 L330.9219,61.2969 Q331.5313,61.2969 331.7969,61.5313 Q332.0625,61.7656 332.0625,62.1563 Q332.0625,62.5313 331.7969,62.7656 Q331.5313,63 330.9219,63 L325.7813,63 Q325.1719,63 324.9063,62.7656 Q324.6406,62.5313 324.6406,62.1406 Q324.6406,61.7656 324.9063,61.5313 Q325.1719,61.2969 325.7813,61.2969 L327.5,61.2969 L327.5,54.6406 L325.7813,54.6406 Q325.1719,54.6406 324.9063,54.4063 Q324.6406,54.1719 324.6406,53.7813 Q324.6406,53.4063 324.9063,53.1719 Q325.1719,52.9375 325.7813,52.9375 L330.9219,52.9375 Q331.5313,52.9375 331.7969,53.1719 Q332.0625,53.4063 332.0625,53.7813 Q332.0625,54.1719 331.7969,54.4063 Q331.5313,54.6406 330.9219,54.6406 L329.2031,54.6406 Z "/><text fill="#000000" font-family="sans-serif" font-size="12" font-style="italic" lengthAdjust="spacingAndGlyphs" textLength="81" x="348.75" y="62.9102">MouseListener</text><line style="stroke: #A80036; stroke-width: 1.5;" x1="274" x2="472" y1="74" y2="74"/><line style="stroke: #A80036; stroke-width: 1.5;" x1="274" x2="472" y1="82" y2="82"/><ellipse cx="284" cy="93" fill="#84BE84" rx="3" ry="3" style="stroke: #038048; stroke-width: 1.0;"/><text fill="#000000" font-family="sans-serif" font-size="11" font-style="italic" lengthAdjust="spacingAndGlyphs" textLength="164" x="293" y="97.4189">mouseClicked(MouseEvent): void</text><ellipse cx="284" cy="106.8359" fill="#84BE84" rx="3" ry="3" style="stroke: #038048; stroke-width: 1.0;"/><text fill="#000000" font-family="sans-serif" font-size="11" font-style="italic" lengthAdjust="spacingAndGlyphs" textLength="169" x="293" y="111.2549">mousePressed(MouseEvent): void</text><ellipse cx="284" cy="120.6719" fill="#84BE84" rx="3" ry="3" style="stroke: #038048; stroke-width: 1.0;"/><text fill="#000000" font-family="sans-serif" font-size="11" font-style="italic" lengthAdjust="spacingAndGlyphs" textLength="174" x="293" y="125.0908">mouseReleased(MouseEvent): void</text><ellipse cx="284" cy="134.5078" fill="#84BE84" rx="3" ry="3" style="stroke: #038048; stroke-width: 1.0;"/><text fill="#000000" font-family="sans-serif" font-size="11" font-style="italic" lengthAdjust="spacingAndGlyphs" textLength="166" x="293" y="138.9268">mouseEntered(MouseEvent): void</text><ellipse cx="284" cy="148.3438" fill="#84BE84" rx="3" ry="3" style="stroke: #038048; stroke-width: 1.0;"/><text fill="#000000" font-family="sans-serif" font-size="11" font-style="italic" lengthAdjust="spacingAndGlyphs" textLength="158" x="293" y="152.7627">mouseExited(MouseEvent): void</text><!--MD5=[20478c24039e830d5be2b3d2be938a24]
reverse link javax.swing.JPanel to nz.ac.vuw.ecs.swen225.gp20.application.GUI--><path codeLine="51" d="M207.88,141.15 C220.6,157.13 237.43,173.91 257,183 C295.13,200.7 408.49,172.02 446,191 C467.43,201.85 486.8,217.37 503.92,234.87 " fill="none" id="javax.swing.JPanel-backto-nz.ac.vuw.ecs.swen225.gp20.application.GUI" style="stroke: #A80036; stroke-width: 1.0;"/><polygon fill="none" points="202.1,145.11,195.95,124.83,213.4,136.85,202.1,145.11" style="stroke: #A80036; stroke-width: 1.0;"/><!--MD5=[e2a073e456c68ffa298ed31dfb0eac3f]
reverse link java.awt.event.KeyListener to nz.ac.vuw.ecs.swen225.gp20.application.GUI--><path codeLine="52" d="M594,165.66 C594,186.58 594,210.71 594,234.98 " fill="none" id="java.awt.event.KeyListener-backto-nz.ac.vuw.ecs.swen225.gp20.application.GUI" style="stroke: #A80036; stroke-width: 1.0; stroke-dasharray: 7.0,7.0;"/><polygon fill="none" points="587,165.52,594,145.52,601,165.52,587,165.52" style="stroke: #A80036; stroke-width: 1.0;"/><!--MD5=[0985dad27b664d2b3c9be692b3455d87]
reverse link java.awt.event.MouseListener to nz.ac.vuw.ecs.swen225.gp20.application.MouseManager--><path codeLine="53" d="M269.71,172.03 C262.78,178.15 256.12,184.5 250,191 C214.16,229.06 182.78,279.46 161.4,317.97 " fill="none" id="java.awt.event.MouseListener-backto-nz.ac.vuw.ecs.swen225.gp20.application.MouseManager" style="stroke: #A80036; stroke-width: 1.0; stroke-dasharray: 7.0,7.0;"/><polygon fill="none" points="265.41,166.5,285.25,159.03,274.4,177.24,265.41,166.5" style="stroke: #A80036; stroke-width: 1.0;"/><text fill="#888888" font-family="sans-serif" font-size="10" lengthAdjust="spacingAndGlyphs" textLength="185" x="280" y="550.3809">UMLDoclet 2.0.12, PlantUML 1.2020.16</text><!--MD5=[93fdf20224481e6569cb2797618e21dd]
@startuml
    namespace nz.ac.vuw.ecs.swen225.gp20.application {

        class GUI [[GUI.html]] {
            +GUI(Main)
            +drawToScreen(): void
            +formatButton(JButton, String, int, int, int, int): void
            +keyPressed(KeyEvent): void
            +keyReleased(KeyEvent): void
            +keyTyped(KeyEvent): void
            +getImageGraphics(): Graphics2D
            +setGameState(int): void
            +getGameState(): int
            +isRecording(): boolean
            +stopRecording(): void
            +isReplaying(): boolean
            +setReplaying(boolean): void
            +getDirection(): Direction
            +setButtonSoundEvent(String): void
            +getButtonSoundEvent(): String
            +resetButtonEvent(): void
        }

        class Main [[Main.html]] {
            +play(): void
            {static} +main(String[]): void
            +saveUnfinished(): void
            +saveCurrentState(): void
            +loadUnfinished(): void
            +loadLvl(int): void
            +loadCurrentState(): void
            +startRecord(): void
            +stopRecord(): void
            +replay(): void
            +step(): void
            +runMove(): boolean
            +getMaze(): Maze
            +setSpeed(int): void
            +getSpeed(): int
            +setTimeRemaining(int): void
            +getTimeRemaining(): int
        }

        class MouseManager [[MouseManager.html]] {
            +mouseClicked(MouseEvent): void
            +mousePressed(MouseEvent): void
            +mouseReleased(MouseEvent): void
            +mouseEntered(MouseEvent): void
            +mouseExited(MouseEvent): void
        }

        javax.swing.JPanel <|- - GUI
        java.awt.event.KeyListener <|.. GUI
        java.awt.event.MouseListener <|.. MouseManager
    }

    namespace javax.swing {
        class JPanel {
        }
    }

    namespace java.awt.event {
        interface KeyListener {
            {abstract} +keyTyped(KeyEvent): void
            {abstract} +keyPressed(KeyEvent): void
            {abstract} +keyReleased(KeyEvent): void
        }
        interface MouseListener {
            {abstract} +mouseClicked(MouseEvent): void
            {abstract} +mousePressed(MouseEvent): void
            {abstract} +mouseReleased(MouseEvent): void
            {abstract} +mouseEntered(MouseEvent): void
            {abstract} +mouseExited(MouseEvent): void
        }
    }

    center footer UMLDoclet 2.0.12, PlantUML 1.2020.16
@enduml

PlantUML version 1.2020.16(Mon Aug 24 08:20:43 NZST 2020)
(APACHE source distribution)
Java Runtime: Java(TM) SE Runtime Environment
JVM: Java HotSpot(TM) 64-Bit Server VM
Default Encoding: Cp1252
Language: en
Country: NZ
--></g></svg>