<?xml version="1.0" encoding="UTF-8" standalone="no"?><svg xmlns="http://www.w3.org/2000/svg" xmlns:xlink="http://www.w3.org/1999/xlink" contentScriptType="application/ecmascript" contentStyleType="text/css" height="423px" preserveAspectRatio="none" style="width:553px;height:423px;" version="1.1" viewBox="0 0 553 423" width="553px" zoomAndPan="magnify"><defs><filter height="300%" id="f1gklzf2xexxb8" width="300%" x="-1" y="-1"><feGaussianBlur result="blurOut" stdDeviation="2.0"/><feColorMatrix in="blurOut" result="blurOut2" type="matrix" values="0 0 0 0 0 0 0 0 0 0 0 0 0 0 0 0 0 0 .4 0"/><feOffset dx="4.0" dy="4.0" in="blurOut2" result="blurOut3"/><feBlend in="SourceGraphic" in2="blurOut3" mode="normal"/></filter></defs><g><!--MD5=[4c113bc155bcd10f05bef860e15717e2]
cluster nz.ac.vuw.ecs.swen225.gp20.render.managers--><polygon fill="#FFFFFF" filter="url(#f1gklzf2xexxb8)" points="16,6,339,6,346,29.6094,531,29.6094,531,394,16,394,16,6" style="stroke: #000000; stroke-width: 1.5;"/><line style="stroke: #000000; stroke-width: 1.5;" x1="16" x2="346" y1="29.6094" y2="29.6094"/><text fill="#000000" font-family="sans-serif" font-size="14" font-weight="bold" lengthAdjust="spacingAndGlyphs" textLength="317" x="20" y="22.5332">nz.ac.vuw.ecs.swen225.gp20.render.managers</text><!--MD5=[498c56b970311a476885b7fc1b85a9a9]
class nz.ac.vuw.ecs.swen225.gp20.render.managers.Animation--><a href="Animation.html" target="_top" title="Animation.html" xlink:actuate="onRequest" xlink:href="Animation.html" xlink:show="new" xlink:title="Animation.html" xlink:type="simple"><rect codeLine="3" fill="#FEFECE" filter="url(#f1gklzf2xexxb8)" height="158.6875" id="nz.ac.vuw.ecs.swen225.gp20.render.managers.Animation" style="stroke: #A80036; stroke-width: 1.5;" width="212" x="32" y="42"/><ellipse cx="106.25" cy="58" fill="#ADD1B2" rx="11" ry="11" style="stroke: #A80036; stroke-width: 1.0;"/><path d="M109.0156,53.875 Q109.1719,53.6563 109.3594,53.5469 Q109.5469,53.4375 109.7656,53.4375 Q110.1406,53.4375 110.375,53.7031 Q110.6094,53.9531 110.6094,54.5625 L110.6094,56.0156 Q110.6094,56.625 110.375,56.8906 Q110.1406,57.1563 109.7656,57.1563 Q109.4219,57.1563 109.2188,56.9531 Q109.0156,56.7656 108.9063,56.25 Q108.8594,55.8906 108.6719,55.7031 Q108.3438,55.3281 107.7344,55.1094 Q107.125,54.8906 106.5,54.8906 Q105.7344,54.8906 105.0938,55.2188 Q104.4688,55.5469 103.9688,56.2969 Q103.4844,57.0469 103.4844,58.0781 L103.4844,59.1719 Q103.4844,60.4063 104.375,61.2344 Q105.2656,62.0469 106.8594,62.0469 Q107.7969,62.0469 108.4531,61.7969 Q108.8438,61.6406 109.2656,61.2031 Q109.5313,60.9375 109.6719,60.8594 Q109.8281,60.7813 110.0313,60.7813 Q110.3594,60.7813 110.6094,61.0469 Q110.875,61.2969 110.875,61.6406 Q110.875,61.9844 110.5313,62.3906 Q110.0313,62.9688 109.2344,63.2969 Q108.1563,63.75 106.8594,63.75 Q105.3438,63.75 104.1406,63.125 Q103.1563,62.625 102.4688,61.5625 Q101.7813,60.4844 101.7813,59.2031 L101.7813,58.0469 Q101.7813,56.7188 102.3906,55.5781 Q103.0156,54.4219 104.1094,53.8125 Q105.2031,53.1875 106.4375,53.1875 Q107.1719,53.1875 107.8125,53.3594 Q108.4688,53.5156 109.0156,53.875 Z "/><text fill="#000000" font-family="sans-serif" font-size="12" lengthAdjust="spacingAndGlyphs" textLength="55" x="126.75" y="62.9102">Animation</text><line style="stroke: #A80036; stroke-width: 1.5;" x1="33" x2="243" y1="74" y2="74"/><line style="stroke: #A80036; stroke-width: 1.5;" x1="33" x2="243" y1="82" y2="82"/><ellipse cx="43" cy="93" fill="#84BE84" rx="3" ry="3" style="stroke: #038048; stroke-width: 1.0;"/><text fill="#000000" font-family="sans-serif" font-size="11" lengthAdjust="spacingAndGlyphs" textLength="164" x="52" y="97.4189">setFrames(BufferedImage[]): void</text><ellipse cx="43" cy="106.8359" fill="#84BE84" rx="3" ry="3" style="stroke: #038048; stroke-width: 1.0;"/><text fill="#000000" font-family="sans-serif" font-size="11" lengthAdjust="spacingAndGlyphs" textLength="186" x="52" y="111.2549">setNewFrames(BufferedImage[]): void</text><ellipse cx="43" cy="120.6719" fill="#84BE84" rx="3" ry="3" style="stroke: #038048; stroke-width: 1.0;"/><text fill="#000000" font-family="sans-serif" font-size="11" lengthAdjust="spacingAndGlyphs" textLength="150" x="52" y="125.0908">setImage(BufferedImage): void</text><ellipse cx="43" cy="134.5078" fill="#84BE84" rx="3" ry="3" style="stroke: #038048; stroke-width: 1.0;"/><text fill="#000000" font-family="sans-serif" font-size="11" lengthAdjust="spacingAndGlyphs" textLength="88" x="52" y="138.9268">setDelay(int): void</text><ellipse cx="43" cy="148.3438" fill="#84BE84" rx="3" ry="3" style="stroke: #038048; stroke-width: 1.0;"/><text fill="#000000" font-family="sans-serif" font-size="11" lengthAdjust="spacingAndGlyphs" textLength="163" x="52" y="152.7627">setSingleAnimation(boolean): void</text><ellipse cx="43" cy="162.1797" fill="#84BE84" rx="3" ry="3" style="stroke: #038048; stroke-width: 1.0;"/><text fill="#000000" font-family="sans-serif" font-size="11" lengthAdjust="spacingAndGlyphs" textLength="67" x="52" y="166.5986">update(): void</text><ellipse cx="43" cy="176.0156" fill="#84BE84" rx="3" ry="3" style="stroke: #038048; stroke-width: 1.0;"/><text fill="#000000" font-family="sans-serif" font-size="11" lengthAdjust="spacingAndGlyphs" textLength="132" x="52" y="180.4346">getFrame(): BufferedImage</text><ellipse cx="43" cy="189.8516" fill="#84BE84" rx="3" ry="3" style="stroke: #038048; stroke-width: 1.0;"/><text fill="#000000" font-family="sans-serif" font-size="11" lengthAdjust="spacingAndGlyphs" textLength="130" x="52" y="194.2705">getImage(): BufferedImage</text></a><!--MD5=[12bab58f6123f665c75ec2acc007196b]
class nz.ac.vuw.ecs.swen225.gp20.render.managers.Assets--><a href="Assets.html" target="_top" title="Assets.html" xlink:actuate="onRequest" xlink:href="Assets.html" xlink:show="new" xlink:title="Assets.html" xlink:type="simple"><rect codeLine="14" fill="#FEFECE" filter="url(#f1gklzf2xexxb8)" height="75.6719" id="nz.ac.vuw.ecs.swen225.gp20.render.managers.Assets" style="stroke: #A80036; stroke-width: 1.5;" width="236" x="279" y="83.5"/><ellipse cx="374.75" cy="99.5" fill="#ADD1B2" rx="11" ry="11" style="stroke: #A80036; stroke-width: 1.0;"/><path d="M377.5156,95.375 Q377.6719,95.1563 377.8594,95.0469 Q378.0469,94.9375 378.2656,94.9375 Q378.6406,94.9375 378.875,95.2031 Q379.1094,95.4531 379.1094,96.0625 L379.1094,97.5156 Q379.1094,98.125 378.875,98.3906 Q378.6406,98.6563 378.2656,98.6563 Q377.9219,98.6563 377.7188,98.4531 Q377.5156,98.2656 377.4063,97.75 Q377.3594,97.3906 377.1719,97.2031 Q376.8438,96.8281 376.2344,96.6094 Q375.625,96.3906 375,96.3906 Q374.2344,96.3906 373.5938,96.7188 Q372.9688,97.0469 372.4688,97.7969 Q371.9844,98.5469 371.9844,99.5781 L371.9844,100.6719 Q371.9844,101.9063 372.875,102.7344 Q373.7656,103.5469 375.3594,103.5469 Q376.2969,103.5469 376.9531,103.2969 Q377.3438,103.1406 377.7656,102.7031 Q378.0313,102.4375 378.1719,102.3594 Q378.3281,102.2813 378.5313,102.2813 Q378.8594,102.2813 379.1094,102.5469 Q379.375,102.7969 379.375,103.1406 Q379.375,103.4844 379.0313,103.8906 Q378.5313,104.4688 377.7344,104.7969 Q376.6563,105.25 375.3594,105.25 Q373.8438,105.25 372.6406,104.625 Q371.6563,104.125 370.9688,103.0625 Q370.2813,101.9844 370.2813,100.7031 L370.2813,99.5469 Q370.2813,98.2188 370.8906,97.0781 Q371.5156,95.9219 372.6094,95.3125 Q373.7031,94.6875 374.9375,94.6875 Q375.6719,94.6875 376.3125,94.8594 Q376.9688,95.0156 377.5156,95.375 Z "/><text fill="#000000" font-family="sans-serif" font-size="12" lengthAdjust="spacingAndGlyphs" textLength="36" x="395.25" y="104.4102">Assets</text><line style="stroke: #A80036; stroke-width: 1.5;" x1="280" x2="514" y1="115.5" y2="115.5"/><line style="stroke: #A80036; stroke-width: 1.5;" x1="280" x2="514" y1="123.5" y2="123.5"/><ellipse cx="290" cy="134.5" fill="#84BE84" rx="3" ry="3" style="stroke: #038048; stroke-width: 1.0;"/><text fill="#000000" font-family="sans-serif" font-size="11" lengthAdjust="spacingAndGlyphs" text-decoration="underline" textLength="210" x="299" y="138.9189">loadGif(File, String, int, int): BufferedImage[]</text><ellipse cx="290" cy="148.3359" fill="#84BE84" rx="3" ry="3" style="stroke: #038048; stroke-width: 1.0;"/><text fill="#000000" font-family="sans-serif" font-size="11" lengthAdjust="spacingAndGlyphs" textLength="162" x="299" y="152.7549">getAsset(String): BufferedImage[]</text></a><!--MD5=[22acf479e265ce079f5ba9d2597ad398]
class nz.ac.vuw.ecs.swen225.gp20.render.managers.Audio--><a href="Audio.html" target="_top" title="Audio.html" xlink:actuate="onRequest" xlink:href="Audio.html" xlink:show="new" xlink:title="Audio.html" xlink:type="simple"><rect codeLine="19" fill="#FEFECE" filter="url(#f1gklzf2xexxb8)" height="117.1797" id="nz.ac.vuw.ecs.swen225.gp20.render.managers.Audio" style="stroke: #A80036; stroke-width: 1.5;" width="158" x="59" y="261"/><ellipse cx="117.75" cy="277" fill="#ADD1B2" rx="11" ry="11" style="stroke: #A80036; stroke-width: 1.0;"/><path d="M120.5156,272.875 Q120.6719,272.6563 120.8594,272.5469 Q121.0469,272.4375 121.2656,272.4375 Q121.6406,272.4375 121.875,272.7031 Q122.1094,272.9531 122.1094,273.5625 L122.1094,275.0156 Q122.1094,275.625 121.875,275.8906 Q121.6406,276.1563 121.2656,276.1563 Q120.9219,276.1563 120.7188,275.9531 Q120.5156,275.7656 120.4063,275.25 Q120.3594,274.8906 120.1719,274.7031 Q119.8438,274.3281 119.2344,274.1094 Q118.625,273.8906 118,273.8906 Q117.2344,273.8906 116.5938,274.2188 Q115.9688,274.5469 115.4688,275.2969 Q114.9844,276.0469 114.9844,277.0781 L114.9844,278.1719 Q114.9844,279.4063 115.875,280.2344 Q116.7656,281.0469 118.3594,281.0469 Q119.2969,281.0469 119.9531,280.7969 Q120.3438,280.6406 120.7656,280.2031 Q121.0313,279.9375 121.1719,279.8594 Q121.3281,279.7813 121.5313,279.7813 Q121.8594,279.7813 122.1094,280.0469 Q122.375,280.2969 122.375,280.6406 Q122.375,280.9844 122.0313,281.3906 Q121.5313,281.9688 120.7344,282.2969 Q119.6563,282.75 118.3594,282.75 Q116.8438,282.75 115.6406,282.125 Q114.6563,281.625 113.9688,280.5625 Q113.2813,279.4844 113.2813,278.2031 L113.2813,277.0469 Q113.2813,275.7188 113.8906,274.5781 Q114.5156,273.4219 115.6094,272.8125 Q116.7031,272.1875 117.9375,272.1875 Q118.6719,272.1875 119.3125,272.3594 Q119.9688,272.5156 120.5156,272.875 Z "/><text fill="#000000" font-family="sans-serif" font-size="12" lengthAdjust="spacingAndGlyphs" textLength="32" x="138.25" y="281.9102">Audio</text><line style="stroke: #A80036; stroke-width: 1.5;" x1="60" x2="216" y1="293" y2="293"/><line style="stroke: #A80036; stroke-width: 1.5;" x1="60" x2="216" y1="301" y2="301"/><ellipse cx="70" cy="312" fill="#84BE84" rx="3" ry="3" style="stroke: #038048; stroke-width: 1.0;"/><text fill="#000000" font-family="sans-serif" font-size="11" lengthAdjust="spacingAndGlyphs" textLength="132" x="79" y="316.4189">updateButtons(String): void</text><ellipse cx="70" cy="325.8359" fill="#84BE84" rx="3" ry="3" style="stroke: #038048; stroke-width: 1.0;"/><text fill="#000000" font-family="sans-serif" font-size="11" lengthAdjust="spacingAndGlyphs" textLength="125" x="79" y="330.2549">updateGame(String): void</text><ellipse cx="70" cy="339.6719" fill="#84BE84" rx="3" ry="3" style="stroke: #038048; stroke-width: 1.0;"/><text fill="#000000" font-family="sans-serif" font-size="11" lengthAdjust="spacingAndGlyphs" textLength="129" x="79" y="344.0908">buttonSounds(String): void</text><ellipse cx="70" cy="353.5078" fill="#84BE84" rx="3" ry="3" style="stroke: #038048; stroke-width: 1.0;"/><text fill="#000000" font-family="sans-serif" font-size="11" lengthAdjust="spacingAndGlyphs" textLength="126" x="79" y="357.9268">gameSounds(String): void</text><ellipse cx="70" cy="367.3438" fill="#84BE84" rx="3" ry="3" style="stroke: #038048; stroke-width: 1.0;"/><text fill="#000000" font-family="sans-serif" font-size="11" lengthAdjust="spacingAndGlyphs" textLength="83" x="79" y="371.7627">playMusic(): void</text></a><!--MD5=[cf5a4869aab0d7946c281c1fe0a0aafa]
link nz.ac.vuw.ecs.swen225.gp20.render.managers.Animation to nz.ac.vuw.ecs.swen225.gp20.render.managers.Assets--><!--MD5=[51db8c9c81f37345e1ab33ea1395dec7]
link nz.ac.vuw.ecs.swen225.gp20.render.managers.Animation to nz.ac.vuw.ecs.swen225.gp20.render.managers.Audio--><text fill="#888888" font-family="sans-serif" font-size="10" lengthAdjust="spacingAndGlyphs" textLength="185" x="175" y="410.3809">UMLDoclet 2.0.12, PlantUML 1.2020.16</text><!--MD5=[6eeca9fb592975d9a88bcf2eacbd9c27]
@startuml
    namespace nz.ac.vuw.ecs.swen225.gp20.render.managers {

        class Animation [[Animation.html]] {
            +setFrames(BufferedImage[]): void
            +setNewFrames(BufferedImage[]): void
            +setImage(BufferedImage): void
            +setDelay(int): void
            +setSingleAnimation(boolean): void
            +update(): void
            +getFrame(): BufferedImage
            +getImage(): BufferedImage
        }

        class Assets [[Assets.html]] {
            {static} +loadGif(File, String, int, int): BufferedImage[]
            +getAsset(String): BufferedImage[]
        }

        class Audio [[Audio.html]] {
            +updateButtons(String): void
            +updateGame(String): void
            +buttonSounds(String): void
            +gameSounds(String): void
            +playMusic(): void
        }

    }

    center footer UMLDoclet 2.0.12, PlantUML 1.2020.16
@enduml

PlantUML version 1.2020.16(Mon Aug 24 08:20:43 NZST 2020)
(APACHE source distribution)
Java Runtime: Java(TM) SE Runtime Environment
JVM: Java HotSpot(TM) 64-Bit Server VM
Default Encoding: Cp1252
Language: en
Country: NZ
--></g></svg>